<?xml version="1.0" encoding="utf-8" standalone="no"?>
<!DOCTYPE svg PUBLIC "-//W3C//DTD SVG 1.1//EN"
  "http://www.w3.org/Graphics/SVG/1.1/DTD/svg11.dtd">
<!-- Created with matplotlib (https://matplotlib.org/) -->
<svg height="345.6pt" version="1.1" viewBox="0 0 460.8 345.6" width="460.8pt" xmlns="http://www.w3.org/2000/svg" xmlns:xlink="http://www.w3.org/1999/xlink">
 <defs>
  <style type="text/css">
*{stroke-linecap:butt;stroke-linejoin:round;}
  </style>
 </defs>
 <g id="figure_1">
  <g id="patch_1">
   <path d="M 0 345.6 
L 460.8 345.6 
L 460.8 0 
L 0 0 
z
" style="fill:#ffffff;"/>
  </g>
  <g id="axes_1">
   <g id="patch_2">
    <path d="M 57.6 307.584 
L 414.72 307.584 
L 414.72 41.472 
L 57.6 41.472 
z
" style="fill:#ffffff;"/>
   </g>
   <g id="matplotlib.axis_1">
    <g id="xtick_1">
     <g id="line2d_1">
      <defs>
       <path d="M 0 0 
L 0 3.5 
" id="m0aab118810" style="stroke:#000000;stroke-width:0.8;"/>
      </defs>
      <g>
       <use style="stroke:#000000;stroke-width:0.8;" x="73.822159" xlink:href="#m0aab118810" y="307.584"/>
      </g>
     </g>
     <g id="text_1">
      <!-- 0 -->
      <defs>
       <path d="M 31.78125 66.40625 
Q 24.171875 66.40625 20.328125 58.90625 
Q 16.5 51.421875 16.5 36.375 
Q 16.5 21.390625 20.328125 13.890625 
Q 24.171875 6.390625 31.78125 6.390625 
Q 39.453125 6.390625 43.28125 13.890625 
Q 47.125 21.390625 47.125 36.375 
Q 47.125 51.421875 43.28125 58.90625 
Q 39.453125 66.40625 31.78125 66.40625 
z
M 31.78125 74.21875 
Q 44.046875 74.21875 50.515625 64.515625 
Q 56.984375 54.828125 56.984375 36.375 
Q 56.984375 17.96875 50.515625 8.265625 
Q 44.046875 -1.421875 31.78125 -1.421875 
Q 19.53125 -1.421875 13.0625 8.265625 
Q 6.59375 17.96875 6.59375 36.375 
Q 6.59375 54.828125 13.0625 64.515625 
Q 19.53125 74.21875 31.78125 74.21875 
z
" id="DejaVuSans-48"/>
      </defs>
      <g transform="translate(70.640909 322.182437)scale(0.1 -0.1)">
       <use xlink:href="#DejaVuSans-48"/>
      </g>
     </g>
    </g>
    <g id="xtick_2">
     <g id="line2d_2">
      <g>
       <use style="stroke:#000000;stroke-width:0.8;" x="126.664788" xlink:href="#m0aab118810" y="307.584"/>
      </g>
     </g>
     <g id="text_2">
      <!-- 20000 -->
      <defs>
       <path d="M 19.1875 8.296875 
L 53.609375 8.296875 
L 53.609375 0 
L 7.328125 0 
L 7.328125 8.296875 
Q 12.9375 14.109375 22.625 23.890625 
Q 32.328125 33.6875 34.8125 36.53125 
Q 39.546875 41.84375 41.421875 45.53125 
Q 43.3125 49.21875 43.3125 52.78125 
Q 43.3125 58.59375 39.234375 62.25 
Q 35.15625 65.921875 28.609375 65.921875 
Q 23.96875 65.921875 18.8125 64.3125 
Q 13.671875 62.703125 7.8125 59.421875 
L 7.8125 69.390625 
Q 13.765625 71.78125 18.9375 73 
Q 24.125 74.21875 28.421875 74.21875 
Q 39.75 74.21875 46.484375 68.546875 
Q 53.21875 62.890625 53.21875 53.421875 
Q 53.21875 48.921875 51.53125 44.890625 
Q 49.859375 40.875 45.40625 35.40625 
Q 44.1875 33.984375 37.640625 27.21875 
Q 31.109375 20.453125 19.1875 8.296875 
z
" id="DejaVuSans-50"/>
      </defs>
      <g transform="translate(110.758538 322.182437)scale(0.1 -0.1)">
       <use xlink:href="#DejaVuSans-50"/>
       <use x="63.623047" xlink:href="#DejaVuSans-48"/>
       <use x="127.246094" xlink:href="#DejaVuSans-48"/>
       <use x="190.869141" xlink:href="#DejaVuSans-48"/>
       <use x="254.492188" xlink:href="#DejaVuSans-48"/>
      </g>
     </g>
    </g>
    <g id="xtick_3">
     <g id="line2d_3">
      <g>
       <use style="stroke:#000000;stroke-width:0.8;" x="179.507417" xlink:href="#m0aab118810" y="307.584"/>
      </g>
     </g>
     <g id="text_3">
      <!-- 40000 -->
      <defs>
       <path d="M 37.796875 64.3125 
L 12.890625 25.390625 
L 37.796875 25.390625 
z
M 35.203125 72.90625 
L 47.609375 72.90625 
L 47.609375 25.390625 
L 58.015625 25.390625 
L 58.015625 17.1875 
L 47.609375 17.1875 
L 47.609375 0 
L 37.796875 0 
L 37.796875 17.1875 
L 4.890625 17.1875 
L 4.890625 26.703125 
z
" id="DejaVuSans-52"/>
      </defs>
      <g transform="translate(163.601167 322.182437)scale(0.1 -0.1)">
       <use xlink:href="#DejaVuSans-52"/>
       <use x="63.623047" xlink:href="#DejaVuSans-48"/>
       <use x="127.246094" xlink:href="#DejaVuSans-48"/>
       <use x="190.869141" xlink:href="#DejaVuSans-48"/>
       <use x="254.492188" xlink:href="#DejaVuSans-48"/>
      </g>
     </g>
    </g>
    <g id="xtick_4">
     <g id="line2d_4">
      <g>
       <use style="stroke:#000000;stroke-width:0.8;" x="232.350046" xlink:href="#m0aab118810" y="307.584"/>
      </g>
     </g>
     <g id="text_4">
      <!-- 60000 -->
      <defs>
       <path d="M 33.015625 40.375 
Q 26.375 40.375 22.484375 35.828125 
Q 18.609375 31.296875 18.609375 23.390625 
Q 18.609375 15.53125 22.484375 10.953125 
Q 26.375 6.390625 33.015625 6.390625 
Q 39.65625 6.390625 43.53125 10.953125 
Q 47.40625 15.53125 47.40625 23.390625 
Q 47.40625 31.296875 43.53125 35.828125 
Q 39.65625 40.375 33.015625 40.375 
z
M 52.59375 71.296875 
L 52.59375 62.3125 
Q 48.875 64.0625 45.09375 64.984375 
Q 41.3125 65.921875 37.59375 65.921875 
Q 27.828125 65.921875 22.671875 59.328125 
Q 17.53125 52.734375 16.796875 39.40625 
Q 19.671875 43.65625 24.015625 45.921875 
Q 28.375 48.1875 33.59375 48.1875 
Q 44.578125 48.1875 50.953125 41.515625 
Q 57.328125 34.859375 57.328125 23.390625 
Q 57.328125 12.15625 50.6875 5.359375 
Q 44.046875 -1.421875 33.015625 -1.421875 
Q 20.359375 -1.421875 13.671875 8.265625 
Q 6.984375 17.96875 6.984375 36.375 
Q 6.984375 53.65625 15.1875 63.9375 
Q 23.390625 74.21875 37.203125 74.21875 
Q 40.921875 74.21875 44.703125 73.484375 
Q 48.484375 72.75 52.59375 71.296875 
z
" id="DejaVuSans-54"/>
      </defs>
      <g transform="translate(216.443796 322.182437)scale(0.1 -0.1)">
       <use xlink:href="#DejaVuSans-54"/>
       <use x="63.623047" xlink:href="#DejaVuSans-48"/>
       <use x="127.246094" xlink:href="#DejaVuSans-48"/>
       <use x="190.869141" xlink:href="#DejaVuSans-48"/>
       <use x="254.492188" xlink:href="#DejaVuSans-48"/>
      </g>
     </g>
    </g>
    <g id="xtick_5">
     <g id="line2d_5">
      <g>
       <use style="stroke:#000000;stroke-width:0.8;" x="285.192676" xlink:href="#m0aab118810" y="307.584"/>
      </g>
     </g>
     <g id="text_5">
      <!-- 80000 -->
      <defs>
       <path d="M 31.78125 34.625 
Q 24.75 34.625 20.71875 30.859375 
Q 16.703125 27.09375 16.703125 20.515625 
Q 16.703125 13.921875 20.71875 10.15625 
Q 24.75 6.390625 31.78125 6.390625 
Q 38.8125 6.390625 42.859375 10.171875 
Q 46.921875 13.96875 46.921875 20.515625 
Q 46.921875 27.09375 42.890625 30.859375 
Q 38.875 34.625 31.78125 34.625 
z
M 21.921875 38.8125 
Q 15.578125 40.375 12.03125 44.71875 
Q 8.5 49.078125 8.5 55.328125 
Q 8.5 64.0625 14.71875 69.140625 
Q 20.953125 74.21875 31.78125 74.21875 
Q 42.671875 74.21875 48.875 69.140625 
Q 55.078125 64.0625 55.078125 55.328125 
Q 55.078125 49.078125 51.53125 44.71875 
Q 48 40.375 41.703125 38.8125 
Q 48.828125 37.15625 52.796875 32.3125 
Q 56.78125 27.484375 56.78125 20.515625 
Q 56.78125 9.90625 50.3125 4.234375 
Q 43.84375 -1.421875 31.78125 -1.421875 
Q 19.734375 -1.421875 13.25 4.234375 
Q 6.78125 9.90625 6.78125 20.515625 
Q 6.78125 27.484375 10.78125 32.3125 
Q 14.796875 37.15625 21.921875 38.8125 
z
M 18.3125 54.390625 
Q 18.3125 48.734375 21.84375 45.5625 
Q 25.390625 42.390625 31.78125 42.390625 
Q 38.140625 42.390625 41.71875 45.5625 
Q 45.3125 48.734375 45.3125 54.390625 
Q 45.3125 60.0625 41.71875 63.234375 
Q 38.140625 66.40625 31.78125 66.40625 
Q 25.390625 66.40625 21.84375 63.234375 
Q 18.3125 60.0625 18.3125 54.390625 
z
" id="DejaVuSans-56"/>
      </defs>
      <g transform="translate(269.286426 322.182437)scale(0.1 -0.1)">
       <use xlink:href="#DejaVuSans-56"/>
       <use x="63.623047" xlink:href="#DejaVuSans-48"/>
       <use x="127.246094" xlink:href="#DejaVuSans-48"/>
       <use x="190.869141" xlink:href="#DejaVuSans-48"/>
       <use x="254.492188" xlink:href="#DejaVuSans-48"/>
      </g>
     </g>
    </g>
    <g id="xtick_6">
     <g id="line2d_6">
      <g>
       <use style="stroke:#000000;stroke-width:0.8;" x="338.035305" xlink:href="#m0aab118810" y="307.584"/>
      </g>
     </g>
     <g id="text_6">
      <!-- 100000 -->
      <defs>
       <path d="M 12.40625 8.296875 
L 28.515625 8.296875 
L 28.515625 63.921875 
L 10.984375 60.40625 
L 10.984375 69.390625 
L 28.421875 72.90625 
L 38.28125 72.90625 
L 38.28125 8.296875 
L 54.390625 8.296875 
L 54.390625 0 
L 12.40625 0 
z
" id="DejaVuSans-49"/>
      </defs>
      <g transform="translate(318.947805 322.182437)scale(0.1 -0.1)">
       <use xlink:href="#DejaVuSans-49"/>
       <use x="63.623047" xlink:href="#DejaVuSans-48"/>
       <use x="127.246094" xlink:href="#DejaVuSans-48"/>
       <use x="190.869141" xlink:href="#DejaVuSans-48"/>
       <use x="254.492188" xlink:href="#DejaVuSans-48"/>
       <use x="318.115234" xlink:href="#DejaVuSans-48"/>
      </g>
     </g>
    </g>
    <g id="xtick_7">
     <g id="line2d_7">
      <g>
       <use style="stroke:#000000;stroke-width:0.8;" x="390.877934" xlink:href="#m0aab118810" y="307.584"/>
      </g>
     </g>
     <g id="text_7">
      <!-- 120000 -->
      <g transform="translate(371.790434 322.182437)scale(0.1 -0.1)">
       <use xlink:href="#DejaVuSans-49"/>
       <use x="63.623047" xlink:href="#DejaVuSans-50"/>
       <use x="127.246094" xlink:href="#DejaVuSans-48"/>
       <use x="190.869141" xlink:href="#DejaVuSans-48"/>
       <use x="254.492188" xlink:href="#DejaVuSans-48"/>
       <use x="318.115234" xlink:href="#DejaVuSans-48"/>
      </g>
     </g>
    </g>
    <g id="text_8">
     <!-- N -->
     <defs>
      <path d="M 9.8125 72.90625 
L 23.09375 72.90625 
L 55.421875 11.921875 
L 55.421875 72.90625 
L 64.984375 72.90625 
L 64.984375 0 
L 51.703125 0 
L 19.390625 60.984375 
L 19.390625 0 
L 9.8125 0 
z
" id="DejaVuSans-78"/>
     </defs>
     <g transform="translate(232.419375 335.860562)scale(0.1 -0.1)">
      <use xlink:href="#DejaVuSans-78"/>
     </g>
    </g>
   </g>
   <g id="matplotlib.axis_2">
    <g id="ytick_1">
     <g id="line2d_8">
      <defs>
       <path d="M 0 0 
L -3.5 0 
" id="m6b9866d972" style="stroke:#000000;stroke-width:0.8;"/>
      </defs>
      <g>
       <use style="stroke:#000000;stroke-width:0.8;" x="57.6" xlink:href="#m6b9866d972" y="295.511789"/>
      </g>
     </g>
     <g id="text_9">
      <!-- 0.0 -->
      <defs>
       <path d="M 10.6875 12.40625 
L 21 12.40625 
L 21 0 
L 10.6875 0 
z
" id="DejaVuSans-46"/>
      </defs>
      <g transform="translate(34.696875 299.311008)scale(0.1 -0.1)">
       <use xlink:href="#DejaVuSans-48"/>
       <use x="63.623047" xlink:href="#DejaVuSans-46"/>
       <use x="95.410156" xlink:href="#DejaVuSans-48"/>
      </g>
     </g>
    </g>
    <g id="ytick_2">
     <g id="line2d_9">
      <g>
       <use style="stroke:#000000;stroke-width:0.8;" x="57.6" xlink:href="#m6b9866d972" y="257.330546"/>
      </g>
     </g>
     <g id="text_10">
      <!-- 0.2 -->
      <g transform="translate(34.696875 261.129765)scale(0.1 -0.1)">
       <use xlink:href="#DejaVuSans-48"/>
       <use x="63.623047" xlink:href="#DejaVuSans-46"/>
       <use x="95.410156" xlink:href="#DejaVuSans-50"/>
      </g>
     </g>
    </g>
    <g id="ytick_3">
     <g id="line2d_10">
      <g>
       <use style="stroke:#000000;stroke-width:0.8;" x="57.6" xlink:href="#m6b9866d972" y="219.149303"/>
      </g>
     </g>
     <g id="text_11">
      <!-- 0.4 -->
      <g transform="translate(34.696875 222.948522)scale(0.1 -0.1)">
       <use xlink:href="#DejaVuSans-48"/>
       <use x="63.623047" xlink:href="#DejaVuSans-46"/>
       <use x="95.410156" xlink:href="#DejaVuSans-52"/>
      </g>
     </g>
    </g>
    <g id="ytick_4">
     <g id="line2d_11">
      <g>
       <use style="stroke:#000000;stroke-width:0.8;" x="57.6" xlink:href="#m6b9866d972" y="180.96806"/>
      </g>
     </g>
     <g id="text_12">
      <!-- 0.6 -->
      <g transform="translate(34.696875 184.767279)scale(0.1 -0.1)">
       <use xlink:href="#DejaVuSans-48"/>
       <use x="63.623047" xlink:href="#DejaVuSans-46"/>
       <use x="95.410156" xlink:href="#DejaVuSans-54"/>
      </g>
     </g>
    </g>
    <g id="ytick_5">
     <g id="line2d_12">
      <g>
       <use style="stroke:#000000;stroke-width:0.8;" x="57.6" xlink:href="#m6b9866d972" y="142.786817"/>
      </g>
     </g>
     <g id="text_13">
      <!-- 0.8 -->
      <g transform="translate(34.696875 146.586036)scale(0.1 -0.1)">
       <use xlink:href="#DejaVuSans-48"/>
       <use x="63.623047" xlink:href="#DejaVuSans-46"/>
       <use x="95.410156" xlink:href="#DejaVuSans-56"/>
      </g>
     </g>
    </g>
    <g id="ytick_6">
     <g id="line2d_13">
      <g>
       <use style="stroke:#000000;stroke-width:0.8;" x="57.6" xlink:href="#m6b9866d972" y="104.605574"/>
      </g>
     </g>
     <g id="text_14">
      <!-- 1.0 -->
      <g transform="translate(34.696875 108.404793)scale(0.1 -0.1)">
       <use xlink:href="#DejaVuSans-49"/>
       <use x="63.623047" xlink:href="#DejaVuSans-46"/>
       <use x="95.410156" xlink:href="#DejaVuSans-48"/>
      </g>
     </g>
    </g>
    <g id="ytick_7">
     <g id="line2d_14">
      <g>
       <use style="stroke:#000000;stroke-width:0.8;" x="57.6" xlink:href="#m6b9866d972" y="66.424331"/>
      </g>
     </g>
     <g id="text_15">
      <!-- 1.2 -->
      <g transform="translate(34.696875 70.22355)scale(0.1 -0.1)">
       <use xlink:href="#DejaVuSans-49"/>
       <use x="63.623047" xlink:href="#DejaVuSans-46"/>
       <use x="95.410156" xlink:href="#DejaVuSans-50"/>
      </g>
     </g>
    </g>
    <g id="text_16">
     <!-- Time (ns) -->
     <defs>
      <path d="M -0.296875 72.90625 
L 61.375 72.90625 
L 61.375 64.59375 
L 35.5 64.59375 
L 35.5 0 
L 25.59375 0 
L 25.59375 64.59375 
L -0.296875 64.59375 
z
" id="DejaVuSans-84"/>
      <path d="M 9.421875 54.6875 
L 18.40625 54.6875 
L 18.40625 0 
L 9.421875 0 
z
M 9.421875 75.984375 
L 18.40625 75.984375 
L 18.40625 64.59375 
L 9.421875 64.59375 
z
" id="DejaVuSans-105"/>
      <path d="M 52 44.1875 
Q 55.375 50.25 60.0625 53.125 
Q 64.75 56 71.09375 56 
Q 79.640625 56 84.28125 50.015625 
Q 88.921875 44.046875 88.921875 33.015625 
L 88.921875 0 
L 79.890625 0 
L 79.890625 32.71875 
Q 79.890625 40.578125 77.09375 44.375 
Q 74.3125 48.1875 68.609375 48.1875 
Q 61.625 48.1875 57.5625 43.546875 
Q 53.515625 38.921875 53.515625 30.90625 
L 53.515625 0 
L 44.484375 0 
L 44.484375 32.71875 
Q 44.484375 40.625 41.703125 44.40625 
Q 38.921875 48.1875 33.109375 48.1875 
Q 26.21875 48.1875 22.15625 43.53125 
Q 18.109375 38.875 18.109375 30.90625 
L 18.109375 0 
L 9.078125 0 
L 9.078125 54.6875 
L 18.109375 54.6875 
L 18.109375 46.1875 
Q 21.1875 51.21875 25.484375 53.609375 
Q 29.78125 56 35.6875 56 
Q 41.65625 56 45.828125 52.96875 
Q 50 49.953125 52 44.1875 
z
" id="DejaVuSans-109"/>
      <path d="M 56.203125 29.59375 
L 56.203125 25.203125 
L 14.890625 25.203125 
Q 15.484375 15.921875 20.484375 11.0625 
Q 25.484375 6.203125 34.421875 6.203125 
Q 39.59375 6.203125 44.453125 7.46875 
Q 49.3125 8.734375 54.109375 11.28125 
L 54.109375 2.78125 
Q 49.265625 0.734375 44.1875 -0.34375 
Q 39.109375 -1.421875 33.890625 -1.421875 
Q 20.796875 -1.421875 13.15625 6.1875 
Q 5.515625 13.8125 5.515625 26.8125 
Q 5.515625 40.234375 12.765625 48.109375 
Q 20.015625 56 32.328125 56 
Q 43.359375 56 49.78125 48.890625 
Q 56.203125 41.796875 56.203125 29.59375 
z
M 47.21875 32.234375 
Q 47.125 39.59375 43.09375 43.984375 
Q 39.0625 48.390625 32.421875 48.390625 
Q 24.90625 48.390625 20.390625 44.140625 
Q 15.875 39.890625 15.1875 32.171875 
z
" id="DejaVuSans-101"/>
      <path id="DejaVuSans-32"/>
      <path d="M 31 75.875 
Q 24.46875 64.65625 21.28125 53.65625 
Q 18.109375 42.671875 18.109375 31.390625 
Q 18.109375 20.125 21.3125 9.0625 
Q 24.515625 -2 31 -13.1875 
L 23.1875 -13.1875 
Q 15.875 -1.703125 12.234375 9.375 
Q 8.59375 20.453125 8.59375 31.390625 
Q 8.59375 42.28125 12.203125 53.3125 
Q 15.828125 64.359375 23.1875 75.875 
z
" id="DejaVuSans-40"/>
      <path d="M 54.890625 33.015625 
L 54.890625 0 
L 45.90625 0 
L 45.90625 32.71875 
Q 45.90625 40.484375 42.875 44.328125 
Q 39.84375 48.1875 33.796875 48.1875 
Q 26.515625 48.1875 22.3125 43.546875 
Q 18.109375 38.921875 18.109375 30.90625 
L 18.109375 0 
L 9.078125 0 
L 9.078125 54.6875 
L 18.109375 54.6875 
L 18.109375 46.1875 
Q 21.34375 51.125 25.703125 53.5625 
Q 30.078125 56 35.796875 56 
Q 45.21875 56 50.046875 50.171875 
Q 54.890625 44.34375 54.890625 33.015625 
z
" id="DejaVuSans-110"/>
      <path d="M 44.28125 53.078125 
L 44.28125 44.578125 
Q 40.484375 46.53125 36.375 47.5 
Q 32.28125 48.484375 27.875 48.484375 
Q 21.1875 48.484375 17.84375 46.4375 
Q 14.5 44.390625 14.5 40.28125 
Q 14.5 37.15625 16.890625 35.375 
Q 19.28125 33.59375 26.515625 31.984375 
L 29.59375 31.296875 
Q 39.15625 29.25 43.1875 25.515625 
Q 47.21875 21.78125 47.21875 15.09375 
Q 47.21875 7.46875 41.1875 3.015625 
Q 35.15625 -1.421875 24.609375 -1.421875 
Q 20.21875 -1.421875 15.453125 -0.5625 
Q 10.6875 0.296875 5.421875 2 
L 5.421875 11.28125 
Q 10.40625 8.6875 15.234375 7.390625 
Q 20.0625 6.109375 24.8125 6.109375 
Q 31.15625 6.109375 34.5625 8.28125 
Q 37.984375 10.453125 37.984375 14.40625 
Q 37.984375 18.0625 35.515625 20.015625 
Q 33.0625 21.96875 24.703125 23.78125 
L 21.578125 24.515625 
Q 13.234375 26.265625 9.515625 29.90625 
Q 5.8125 33.546875 5.8125 39.890625 
Q 5.8125 47.609375 11.28125 51.796875 
Q 16.75 56 26.8125 56 
Q 31.78125 56 36.171875 55.265625 
Q 40.578125 54.546875 44.28125 53.078125 
z
" id="DejaVuSans-115"/>
      <path d="M 8.015625 75.875 
L 15.828125 75.875 
Q 23.140625 64.359375 26.78125 53.3125 
Q 30.421875 42.28125 30.421875 31.390625 
Q 30.421875 20.453125 26.78125 9.375 
Q 23.140625 -1.703125 15.828125 -13.1875 
L 8.015625 -13.1875 
Q 14.5 -2 17.703125 9.0625 
Q 20.90625 20.125 20.90625 31.390625 
Q 20.90625 42.671875 17.703125 53.65625 
Q 14.5 64.65625 8.015625 75.875 
z
" id="DejaVuSans-41"/>
     </defs>
     <g transform="translate(28.617187 198.179563)rotate(-90)scale(0.1 -0.1)">
      <use xlink:href="#DejaVuSans-84"/>
      <use x="61.037109" xlink:href="#DejaVuSans-105"/>
      <use x="88.820312" xlink:href="#DejaVuSans-109"/>
      <use x="186.232422" xlink:href="#DejaVuSans-101"/>
      <use x="247.755859" xlink:href="#DejaVuSans-32"/>
      <use x="279.542969" xlink:href="#DejaVuSans-40"/>
      <use x="318.556641" xlink:href="#DejaVuSans-110"/>
      <use x="381.935547" xlink:href="#DejaVuSans-115"/>
      <use x="434.035156" xlink:href="#DejaVuSans-41"/>
     </g>
    </g>
    <g id="text_17">
     <!-- 1e7 -->
     <defs>
      <path d="M 8.203125 72.90625 
L 55.078125 72.90625 
L 55.078125 68.703125 
L 28.609375 0 
L 18.3125 0 
L 43.21875 64.59375 
L 8.203125 64.59375 
z
" id="DejaVuSans-55"/>
     </defs>
     <g transform="translate(57.6 38.472)scale(0.1 -0.1)">
      <use xlink:href="#DejaVuSans-49"/>
      <use x="63.623047" xlink:href="#DejaVuSans-101"/>
      <use x="125.146484" xlink:href="#DejaVuSans-55"/>
     </g>
    </g>
   </g>
   <g id="line2d_15">
    <path clip-path="url(#p75f291a393)" d="M 73.832727 295.482339 
L 73.843296 295.47511 
L 73.864433 295.458921 
L 73.906707 295.426603 
L 73.991255 295.363375 
L 74.160352 295.247886 
L 74.498544 295.005376 
L 75.17493 294.501643 
L 76.527701 293.495312 
L 79.233244 291.554615 
L 84.644329 287.488278 
L 95.4665 279.389325 
L 138.755182 246.627908 
L 182.043863 214.555984 
L 225.332545 178.1328 
L 268.621227 150.745239 
L 311.909909 118.245501 
L 355.198591 86.520658 
L 398.487273 53.568 
" style="fill:none;stroke:#ff0029;stroke-dasharray:5.55,2.4;stroke-dashoffset:0;stroke-width:1.5;"/>
    <defs>
     <path d="M 0 3 
C 0.795609 3 1.55874 2.683901 2.12132 2.12132 
C 2.683901 1.55874 3 0.795609 3 0 
C 3 -0.795609 2.683901 -1.55874 2.12132 -2.12132 
C 1.55874 -2.683901 0.795609 -3 0 -3 
C -0.795609 -3 -1.55874 -2.683901 -2.12132 -2.12132 
C -2.683901 -1.55874 -3 -0.795609 -3 0 
C -3 0.795609 -2.683901 1.55874 -2.12132 2.12132 
C -1.55874 2.683901 -0.795609 3 0 3 
z
" id="m2645e542ef" style="stroke:#ff0029;"/>
    </defs>
    <g clip-path="url(#p75f291a393)">
     <use style="fill:#ff0029;stroke:#ff0029;" x="73.832727" xlink:href="#m2645e542ef" y="295.482339"/>
     <use style="fill:#ff0029;stroke:#ff0029;" x="73.843296" xlink:href="#m2645e542ef" y="295.47511"/>
     <use style="fill:#ff0029;stroke:#ff0029;" x="73.864433" xlink:href="#m2645e542ef" y="295.458921"/>
     <use style="fill:#ff0029;stroke:#ff0029;" x="73.906707" xlink:href="#m2645e542ef" y="295.426603"/>
     <use style="fill:#ff0029;stroke:#ff0029;" x="73.991255" xlink:href="#m2645e542ef" y="295.363375"/>
     <use style="fill:#ff0029;stroke:#ff0029;" x="74.160352" xlink:href="#m2645e542ef" y="295.247886"/>
     <use style="fill:#ff0029;stroke:#ff0029;" x="74.498544" xlink:href="#m2645e542ef" y="295.005376"/>
     <use style="fill:#ff0029;stroke:#ff0029;" x="75.17493" xlink:href="#m2645e542ef" y="294.501643"/>
     <use style="fill:#ff0029;stroke:#ff0029;" x="76.527701" xlink:href="#m2645e542ef" y="293.495312"/>
     <use style="fill:#ff0029;stroke:#ff0029;" x="79.233244" xlink:href="#m2645e542ef" y="291.554615"/>
     <use style="fill:#ff0029;stroke:#ff0029;" x="84.644329" xlink:href="#m2645e542ef" y="287.488278"/>
     <use style="fill:#ff0029;stroke:#ff0029;" x="95.4665" xlink:href="#m2645e542ef" y="279.389325"/>
     <use style="fill:#ff0029;stroke:#ff0029;" x="138.755182" xlink:href="#m2645e542ef" y="246.627908"/>
     <use style="fill:#ff0029;stroke:#ff0029;" x="182.043863" xlink:href="#m2645e542ef" y="214.555984"/>
     <use style="fill:#ff0029;stroke:#ff0029;" x="225.332545" xlink:href="#m2645e542ef" y="178.1328"/>
     <use style="fill:#ff0029;stroke:#ff0029;" x="268.621227" xlink:href="#m2645e542ef" y="150.745239"/>
     <use style="fill:#ff0029;stroke:#ff0029;" x="311.909909" xlink:href="#m2645e542ef" y="118.245501"/>
     <use style="fill:#ff0029;stroke:#ff0029;" x="355.198591" xlink:href="#m2645e542ef" y="86.520658"/>
     <use style="fill:#ff0029;stroke:#ff0029;" x="398.487273" xlink:href="#m2645e542ef" y="53.568"/>
    </g>
   </g>
   <g id="line2d_16">
    <path clip-path="url(#p75f291a393)" d="M 73.832727 295.486884 
L 73.843296 295.483172 
L 73.864433 295.476477 
L 73.906707 295.462032 
L 73.991255 295.433857 
L 74.160352 295.380416 
L 74.498544 295.265776 
L 75.17493 295.04111 
L 76.527701 294.61014 
L 79.233244 293.732107 
L 84.644329 291.913099 
L 95.4665 288.215545 
L 138.755182 273.536916 
L 182.043863 260.236711 
L 225.332545 245.354329 
L 268.621227 231.744872 
L 311.909909 216.935529 
L 355.198591 202.702264 
L 398.487273 188.932989 
" style="fill:none;stroke:#ff4800;stroke-dasharray:1.5,2.475;stroke-dashoffset:0;stroke-width:1.5;"/>
    <defs>
     <path d="M 0 3 
C 0.795609 3 1.55874 2.683901 2.12132 2.12132 
C 2.683901 1.55874 3 0.795609 3 0 
C 3 -0.795609 2.683901 -1.55874 2.12132 -2.12132 
C 1.55874 -2.683901 0.795609 -3 0 -3 
C -0.795609 -3 -1.55874 -2.683901 -2.12132 -2.12132 
C -2.683901 -1.55874 -3 -0.795609 -3 0 
C -3 0.795609 -2.683901 1.55874 -2.12132 2.12132 
C -1.55874 2.683901 -0.795609 3 0 3 
z
" id="m99539015fe" style="stroke:#ff4800;"/>
    </defs>
    <g clip-path="url(#p75f291a393)">
     <use style="fill:#ff4800;stroke:#ff4800;" x="73.832727" xlink:href="#m99539015fe" y="295.486884"/>
     <use style="fill:#ff4800;stroke:#ff4800;" x="73.843296" xlink:href="#m99539015fe" y="295.483172"/>
     <use style="fill:#ff4800;stroke:#ff4800;" x="73.864433" xlink:href="#m99539015fe" y="295.476477"/>
     <use style="fill:#ff4800;stroke:#ff4800;" x="73.906707" xlink:href="#m99539015fe" y="295.462032"/>
     <use style="fill:#ff4800;stroke:#ff4800;" x="73.991255" xlink:href="#m99539015fe" y="295.433857"/>
     <use style="fill:#ff4800;stroke:#ff4800;" x="74.160352" xlink:href="#m99539015fe" y="295.380416"/>
     <use style="fill:#ff4800;stroke:#ff4800;" x="74.498544" xlink:href="#m99539015fe" y="295.265776"/>
     <use style="fill:#ff4800;stroke:#ff4800;" x="75.17493" xlink:href="#m99539015fe" y="295.04111"/>
     <use style="fill:#ff4800;stroke:#ff4800;" x="76.527701" xlink:href="#m99539015fe" y="294.61014"/>
     <use style="fill:#ff4800;stroke:#ff4800;" x="79.233244" xlink:href="#m99539015fe" y="293.732107"/>
     <use style="fill:#ff4800;stroke:#ff4800;" x="84.644329" xlink:href="#m99539015fe" y="291.913099"/>
     <use style="fill:#ff4800;stroke:#ff4800;" x="95.4665" xlink:href="#m99539015fe" y="288.215545"/>
     <use style="fill:#ff4800;stroke:#ff4800;" x="138.755182" xlink:href="#m99539015fe" y="273.536916"/>
     <use style="fill:#ff4800;stroke:#ff4800;" x="182.043863" xlink:href="#m99539015fe" y="260.236711"/>
     <use style="fill:#ff4800;stroke:#ff4800;" x="225.332545" xlink:href="#m99539015fe" y="245.354329"/>
     <use style="fill:#ff4800;stroke:#ff4800;" x="268.621227" xlink:href="#m99539015fe" y="231.744872"/>
     <use style="fill:#ff4800;stroke:#ff4800;" x="311.909909" xlink:href="#m99539015fe" y="216.935529"/>
     <use style="fill:#ff4800;stroke:#ff4800;" x="355.198591" xlink:href="#m99539015fe" y="202.702264"/>
     <use style="fill:#ff4800;stroke:#ff4800;" x="398.487273" xlink:href="#m99539015fe" y="188.932989"/>
    </g>
   </g>
   <g id="line2d_17">
    <path clip-path="url(#p75f291a393)" d="M 73.832727 295.487917 
L 73.843296 295.485118 
L 73.864433 295.479363 
L 73.906707 295.467168 
L 73.991255 295.444915 
L 74.160352 295.399152 
L 74.498544 295.302187 
L 75.17493 295.129697 
L 76.527701 294.750571 
L 79.233244 294.015325 
L 84.644329 292.511075 
L 95.4665 289.680236 
L 138.755182 277.982988 
L 182.043863 266.007097 
L 225.332545 253.456127 
L 268.621227 241.036922 
L 311.909909 230.51303 
L 355.198591 216.49334 
L 398.487273 205.297555 
" style="fill:none;stroke:#ffba00;stroke-dasharray:5.55,2.4;stroke-dashoffset:0;stroke-width:1.5;"/>
    <defs>
     <path d="M 0 3 
C 0.795609 3 1.55874 2.683901 2.12132 2.12132 
C 2.683901 1.55874 3 0.795609 3 0 
C 3 -0.795609 2.683901 -1.55874 2.12132 -2.12132 
C 1.55874 -2.683901 0.795609 -3 0 -3 
C -0.795609 -3 -1.55874 -2.683901 -2.12132 -2.12132 
C -2.683901 -1.55874 -3 -0.795609 -3 0 
C -3 0.795609 -2.683901 1.55874 -2.12132 2.12132 
C -1.55874 2.683901 -0.795609 3 0 3 
z
" id="m8c5a3b6b20" style="stroke:#ffba00;"/>
    </defs>
    <g clip-path="url(#p75f291a393)">
     <use style="fill:#ffba00;stroke:#ffba00;" x="73.832727" xlink:href="#m8c5a3b6b20" y="295.487917"/>
     <use style="fill:#ffba00;stroke:#ffba00;" x="73.843296" xlink:href="#m8c5a3b6b20" y="295.485118"/>
     <use style="fill:#ffba00;stroke:#ffba00;" x="73.864433" xlink:href="#m8c5a3b6b20" y="295.479363"/>
     <use style="fill:#ffba00;stroke:#ffba00;" x="73.906707" xlink:href="#m8c5a3b6b20" y="295.467168"/>
     <use style="fill:#ffba00;stroke:#ffba00;" x="73.991255" xlink:href="#m8c5a3b6b20" y="295.444915"/>
     <use style="fill:#ffba00;stroke:#ffba00;" x="74.160352" xlink:href="#m8c5a3b6b20" y="295.399152"/>
     <use style="fill:#ffba00;stroke:#ffba00;" x="74.498544" xlink:href="#m8c5a3b6b20" y="295.302187"/>
     <use style="fill:#ffba00;stroke:#ffba00;" x="75.17493" xlink:href="#m8c5a3b6b20" y="295.129697"/>
     <use style="fill:#ffba00;stroke:#ffba00;" x="76.527701" xlink:href="#m8c5a3b6b20" y="294.750571"/>
     <use style="fill:#ffba00;stroke:#ffba00;" x="79.233244" xlink:href="#m8c5a3b6b20" y="294.015325"/>
     <use style="fill:#ffba00;stroke:#ffba00;" x="84.644329" xlink:href="#m8c5a3b6b20" y="292.511075"/>
     <use style="fill:#ffba00;stroke:#ffba00;" x="95.4665" xlink:href="#m8c5a3b6b20" y="289.680236"/>
     <use style="fill:#ffba00;stroke:#ffba00;" x="138.755182" xlink:href="#m8c5a3b6b20" y="277.982988"/>
     <use style="fill:#ffba00;stroke:#ffba00;" x="182.043863" xlink:href="#m8c5a3b6b20" y="266.007097"/>
     <use style="fill:#ffba00;stroke:#ffba00;" x="225.332545" xlink:href="#m8c5a3b6b20" y="253.456127"/>
     <use style="fill:#ffba00;stroke:#ffba00;" x="268.621227" xlink:href="#m8c5a3b6b20" y="241.036922"/>
     <use style="fill:#ffba00;stroke:#ffba00;" x="311.909909" xlink:href="#m8c5a3b6b20" y="230.51303"/>
     <use style="fill:#ffba00;stroke:#ffba00;" x="355.198591" xlink:href="#m8c5a3b6b20" y="216.49334"/>
     <use style="fill:#ffba00;stroke:#ffba00;" x="398.487273" xlink:href="#m8c5a3b6b20" y="205.297555"/>
    </g>
   </g>
   <g id="line2d_18">
    <path clip-path="url(#p75f291a393)" d="M 73.832727 295.488 
L 73.843296 295.48504 
L 73.864433 295.478616 
L 73.906707 295.467407 
L 73.991255 295.444111 
L 74.160352 295.396451 
L 74.498544 295.302415 
L 75.17493 295.129037 
L 76.527701 294.744387 
L 79.233244 294.037536 
L 84.644329 292.521505 
L 95.4665 289.723461 
L 138.755182 278.02273 
L 182.043863 266.416486 
L 225.332545 254.455344 
L 268.621227 242.89645 
L 311.909909 231.405155 
L 355.198591 219.471859 
L 398.487273 207.157443 
" style="fill:none;stroke:#cdff00;stroke-dasharray:1.5,2.475;stroke-dashoffset:0;stroke-width:1.5;"/>
    <defs>
     <path d="M 0 3 
C 0.795609 3 1.55874 2.683901 2.12132 2.12132 
C 2.683901 1.55874 3 0.795609 3 0 
C 3 -0.795609 2.683901 -1.55874 2.12132 -2.12132 
C 1.55874 -2.683901 0.795609 -3 0 -3 
C -0.795609 -3 -1.55874 -2.683901 -2.12132 -2.12132 
C -2.683901 -1.55874 -3 -0.795609 -3 0 
C -3 0.795609 -2.683901 1.55874 -2.12132 2.12132 
C -1.55874 2.683901 -0.795609 3 0 3 
z
" id="m88091f3b8b" style="stroke:#cdff00;"/>
    </defs>
    <g clip-path="url(#p75f291a393)">
     <use style="fill:#cdff00;stroke:#cdff00;" x="73.832727" xlink:href="#m88091f3b8b" y="295.488"/>
     <use style="fill:#cdff00;stroke:#cdff00;" x="73.843296" xlink:href="#m88091f3b8b" y="295.48504"/>
     <use style="fill:#cdff00;stroke:#cdff00;" x="73.864433" xlink:href="#m88091f3b8b" y="295.478616"/>
     <use style="fill:#cdff00;stroke:#cdff00;" x="73.906707" xlink:href="#m88091f3b8b" y="295.467407"/>
     <use style="fill:#cdff00;stroke:#cdff00;" x="73.991255" xlink:href="#m88091f3b8b" y="295.444111"/>
     <use style="fill:#cdff00;stroke:#cdff00;" x="74.160352" xlink:href="#m88091f3b8b" y="295.396451"/>
     <use style="fill:#cdff00;stroke:#cdff00;" x="74.498544" xlink:href="#m88091f3b8b" y="295.302415"/>
     <use style="fill:#cdff00;stroke:#cdff00;" x="75.17493" xlink:href="#m88091f3b8b" y="295.129037"/>
     <use style="fill:#cdff00;stroke:#cdff00;" x="76.527701" xlink:href="#m88091f3b8b" y="294.744387"/>
     <use style="fill:#cdff00;stroke:#cdff00;" x="79.233244" xlink:href="#m88091f3b8b" y="294.037536"/>
     <use style="fill:#cdff00;stroke:#cdff00;" x="84.644329" xlink:href="#m88091f3b8b" y="292.521505"/>
     <use style="fill:#cdff00;stroke:#cdff00;" x="95.4665" xlink:href="#m88091f3b8b" y="289.723461"/>
     <use style="fill:#cdff00;stroke:#cdff00;" x="138.755182" xlink:href="#m88091f3b8b" y="278.02273"/>
     <use style="fill:#cdff00;stroke:#cdff00;" x="182.043863" xlink:href="#m88091f3b8b" y="266.416486"/>
     <use style="fill:#cdff00;stroke:#cdff00;" x="225.332545" xlink:href="#m88091f3b8b" y="254.455344"/>
     <use style="fill:#cdff00;stroke:#cdff00;" x="268.621227" xlink:href="#m88091f3b8b" y="242.89645"/>
     <use style="fill:#cdff00;stroke:#cdff00;" x="311.909909" xlink:href="#m88091f3b8b" y="231.405155"/>
     <use style="fill:#cdff00;stroke:#cdff00;" x="355.198591" xlink:href="#m88091f3b8b" y="219.471859"/>
     <use style="fill:#cdff00;stroke:#cdff00;" x="398.487273" xlink:href="#m88091f3b8b" y="207.157443"/>
    </g>
   </g>
   <g id="patch_3">
    <path d="M 57.6 307.584 
L 57.6 41.472 
" style="fill:none;stroke:#000000;stroke-linecap:square;stroke-linejoin:miter;stroke-width:0.8;"/>
   </g>
   <g id="patch_4">
    <path d="M 414.72 307.584 
L 414.72 41.472 
" style="fill:none;stroke:#000000;stroke-linecap:square;stroke-linejoin:miter;stroke-width:0.8;"/>
   </g>
   <g id="patch_5">
    <path d="M 57.6 307.584 
L 414.72 307.584 
" style="fill:none;stroke:#000000;stroke-linecap:square;stroke-linejoin:miter;stroke-width:0.8;"/>
   </g>
   <g id="patch_6">
    <path d="M 57.6 41.472 
L 414.72 41.472 
" style="fill:none;stroke:#000000;stroke-linecap:square;stroke-linejoin:miter;stroke-width:0.8;"/>
   </g>
   <g id="text_18">
    <!-- list InsertMid -->
    <defs>
     <path d="M 9.421875 75.984375 
L 18.40625 75.984375 
L 18.40625 0 
L 9.421875 0 
z
" id="DejaVuSans-108"/>
     <path d="M 18.3125 70.21875 
L 18.3125 54.6875 
L 36.8125 54.6875 
L 36.8125 47.703125 
L 18.3125 47.703125 
L 18.3125 18.015625 
Q 18.3125 11.328125 20.140625 9.421875 
Q 21.96875 7.515625 27.59375 7.515625 
L 36.8125 7.515625 
L 36.8125 0 
L 27.59375 0 
Q 17.1875 0 13.234375 3.875 
Q 9.28125 7.765625 9.28125 18.015625 
L 9.28125 47.703125 
L 2.6875 47.703125 
L 2.6875 54.6875 
L 9.28125 54.6875 
L 9.28125 70.21875 
z
" id="DejaVuSans-116"/>
     <path d="M 9.8125 72.90625 
L 19.671875 72.90625 
L 19.671875 0 
L 9.8125 0 
z
" id="DejaVuSans-73"/>
     <path d="M 41.109375 46.296875 
Q 39.59375 47.171875 37.8125 47.578125 
Q 36.03125 48 33.890625 48 
Q 26.265625 48 22.1875 43.046875 
Q 18.109375 38.09375 18.109375 28.8125 
L 18.109375 0 
L 9.078125 0 
L 9.078125 54.6875 
L 18.109375 54.6875 
L 18.109375 46.1875 
Q 20.953125 51.171875 25.484375 53.578125 
Q 30.03125 56 36.53125 56 
Q 37.453125 56 38.578125 55.875 
Q 39.703125 55.765625 41.0625 55.515625 
z
" id="DejaVuSans-114"/>
     <path d="M 9.8125 72.90625 
L 24.515625 72.90625 
L 43.109375 23.296875 
L 61.8125 72.90625 
L 76.515625 72.90625 
L 76.515625 0 
L 66.890625 0 
L 66.890625 64.015625 
L 48.09375 14.015625 
L 38.1875 14.015625 
L 19.390625 64.015625 
L 19.390625 0 
L 9.8125 0 
z
" id="DejaVuSans-77"/>
     <path d="M 45.40625 46.390625 
L 45.40625 75.984375 
L 54.390625 75.984375 
L 54.390625 0 
L 45.40625 0 
L 45.40625 8.203125 
Q 42.578125 3.328125 38.25 0.953125 
Q 33.9375 -1.421875 27.875 -1.421875 
Q 17.96875 -1.421875 11.734375 6.484375 
Q 5.515625 14.40625 5.515625 27.296875 
Q 5.515625 40.1875 11.734375 48.09375 
Q 17.96875 56 27.875 56 
Q 33.9375 56 38.25 53.625 
Q 42.578125 51.265625 45.40625 46.390625 
z
M 14.796875 27.296875 
Q 14.796875 17.390625 18.875 11.75 
Q 22.953125 6.109375 30.078125 6.109375 
Q 37.203125 6.109375 41.296875 11.75 
Q 45.40625 17.390625 45.40625 27.296875 
Q 45.40625 37.203125 41.296875 42.84375 
Q 37.203125 48.484375 30.078125 48.484375 
Q 22.953125 48.484375 18.875 42.84375 
Q 14.796875 37.203125 14.796875 27.296875 
z
" id="DejaVuSans-100"/>
    </defs>
    <g transform="translate(197.58 35.472)scale(0.12 -0.12)">
     <use xlink:href="#DejaVuSans-108"/>
     <use x="27.783203" xlink:href="#DejaVuSans-105"/>
     <use x="55.566406" xlink:href="#DejaVuSans-115"/>
     <use x="107.666016" xlink:href="#DejaVuSans-116"/>
     <use x="146.875" xlink:href="#DejaVuSans-32"/>
     <use x="178.662109" xlink:href="#DejaVuSans-73"/>
     <use x="208.154297" xlink:href="#DejaVuSans-110"/>
     <use x="271.533203" xlink:href="#DejaVuSans-115"/>
     <use x="323.632812" xlink:href="#DejaVuSans-101"/>
     <use x="385.15625" xlink:href="#DejaVuSans-114"/>
     <use x="426.269531" xlink:href="#DejaVuSans-116"/>
     <use x="465.478516" xlink:href="#DejaVuSans-77"/>
     <use x="551.757812" xlink:href="#DejaVuSans-105"/>
     <use x="579.541016" xlink:href="#DejaVuSans-100"/>
    </g>
   </g>
   <g id="legend_1">
    <g id="patch_7">
     <path d="M 64.6 108.1845 
L 133.759375 108.1845 
Q 135.759375 108.1845 135.759375 106.1845 
L 135.759375 48.472 
Q 135.759375 46.472 133.759375 46.472 
L 64.6 46.472 
Q 62.6 46.472 62.6 48.472 
L 62.6 106.1845 
Q 62.6 108.1845 64.6 108.1845 
z
" style="fill:#ffffff;opacity:0.8;stroke:#cccccc;stroke-linejoin:miter;"/>
    </g>
    <g id="line2d_19">
     <path d="M 66.6 54.570438 
L 86.6 54.570438 
" style="fill:none;stroke:#ff0029;stroke-dasharray:5.55,2.4;stroke-dashoffset:0;stroke-width:1.5;"/>
    </g>
    <g id="line2d_20">
     <g>
      <use style="fill:#ff0029;stroke:#ff0029;" x="76.6" xlink:href="#m2645e542ef" y="54.570438"/>
     </g>
    </g>
    <g id="text_19">
     <!-- CppList -->
     <defs>
      <path d="M 64.40625 67.28125 
L 64.40625 56.890625 
Q 59.421875 61.53125 53.78125 63.8125 
Q 48.140625 66.109375 41.796875 66.109375 
Q 29.296875 66.109375 22.65625 58.46875 
Q 16.015625 50.828125 16.015625 36.375 
Q 16.015625 21.96875 22.65625 14.328125 
Q 29.296875 6.6875 41.796875 6.6875 
Q 48.140625 6.6875 53.78125 8.984375 
Q 59.421875 11.28125 64.40625 15.921875 
L 64.40625 5.609375 
Q 59.234375 2.09375 53.4375 0.328125 
Q 47.65625 -1.421875 41.21875 -1.421875 
Q 24.65625 -1.421875 15.125 8.703125 
Q 5.609375 18.84375 5.609375 36.375 
Q 5.609375 53.953125 15.125 64.078125 
Q 24.65625 74.21875 41.21875 74.21875 
Q 47.75 74.21875 53.53125 72.484375 
Q 59.328125 70.75 64.40625 67.28125 
z
" id="DejaVuSans-67"/>
      <path d="M 18.109375 8.203125 
L 18.109375 -20.796875 
L 9.078125 -20.796875 
L 9.078125 54.6875 
L 18.109375 54.6875 
L 18.109375 46.390625 
Q 20.953125 51.265625 25.265625 53.625 
Q 29.59375 56 35.59375 56 
Q 45.5625 56 51.78125 48.09375 
Q 58.015625 40.1875 58.015625 27.296875 
Q 58.015625 14.40625 51.78125 6.484375 
Q 45.5625 -1.421875 35.59375 -1.421875 
Q 29.59375 -1.421875 25.265625 0.953125 
Q 20.953125 3.328125 18.109375 8.203125 
z
M 48.6875 27.296875 
Q 48.6875 37.203125 44.609375 42.84375 
Q 40.53125 48.484375 33.40625 48.484375 
Q 26.265625 48.484375 22.1875 42.84375 
Q 18.109375 37.203125 18.109375 27.296875 
Q 18.109375 17.390625 22.1875 11.75 
Q 26.265625 6.109375 33.40625 6.109375 
Q 40.53125 6.109375 44.609375 11.75 
Q 48.6875 17.390625 48.6875 27.296875 
z
" id="DejaVuSans-112"/>
      <path d="M 9.8125 72.90625 
L 19.671875 72.90625 
L 19.671875 8.296875 
L 55.171875 8.296875 
L 55.171875 0 
L 9.8125 0 
z
" id="DejaVuSans-76"/>
     </defs>
     <g transform="translate(94.6 58.070438)scale(0.1 -0.1)">
      <use xlink:href="#DejaVuSans-67"/>
      <use x="69.824219" xlink:href="#DejaVuSans-112"/>
      <use x="133.300781" xlink:href="#DejaVuSans-112"/>
      <use x="196.777344" xlink:href="#DejaVuSans-76"/>
      <use x="252.490234" xlink:href="#DejaVuSans-105"/>
      <use x="280.273438" xlink:href="#DejaVuSans-115"/>
      <use x="332.373047" xlink:href="#DejaVuSans-116"/>
     </g>
    </g>
    <g id="line2d_21">
     <path d="M 66.6 69.248563 
L 86.6 69.248563 
" style="fill:none;stroke:#ff4800;stroke-dasharray:1.5,2.475;stroke-dashoffset:0;stroke-width:1.5;"/>
    </g>
    <g id="line2d_22">
     <g>
      <use style="fill:#ff4800;stroke:#ff4800;" x="76.6" xlink:href="#m99539015fe" y="69.248563"/>
     </g>
    </g>
    <g id="text_20">
     <!-- CcList -->
     <defs>
      <path d="M 48.78125 52.59375 
L 48.78125 44.1875 
Q 44.96875 46.296875 41.140625 47.34375 
Q 37.3125 48.390625 33.40625 48.390625 
Q 24.65625 48.390625 19.8125 42.84375 
Q 14.984375 37.3125 14.984375 27.296875 
Q 14.984375 17.28125 19.8125 11.734375 
Q 24.65625 6.203125 33.40625 6.203125 
Q 37.3125 6.203125 41.140625 7.25 
Q 44.96875 8.296875 48.78125 10.40625 
L 48.78125 2.09375 
Q 45.015625 0.34375 40.984375 -0.53125 
Q 36.96875 -1.421875 32.421875 -1.421875 
Q 20.0625 -1.421875 12.78125 6.34375 
Q 5.515625 14.109375 5.515625 27.296875 
Q 5.515625 40.671875 12.859375 48.328125 
Q 20.21875 56 33.015625 56 
Q 37.15625 56 41.109375 55.140625 
Q 45.0625 54.296875 48.78125 52.59375 
z
" id="DejaVuSans-99"/>
     </defs>
     <g transform="translate(94.6 72.748563)scale(0.1 -0.1)">
      <use xlink:href="#DejaVuSans-67"/>
      <use x="69.824219" xlink:href="#DejaVuSans-99"/>
      <use x="124.804688" xlink:href="#DejaVuSans-76"/>
      <use x="180.517578" xlink:href="#DejaVuSans-105"/>
      <use x="208.300781" xlink:href="#DejaVuSans-115"/>
      <use x="260.400391" xlink:href="#DejaVuSans-116"/>
     </g>
    </g>
    <g id="line2d_23">
     <path d="M 66.6 83.926688 
L 86.6 83.926688 
" style="fill:none;stroke:#ffba00;stroke-dasharray:5.55,2.4;stroke-dashoffset:0;stroke-width:1.5;"/>
    </g>
    <g id="line2d_24">
     <g>
      <use style="fill:#ffba00;stroke:#ffba00;" x="76.6" xlink:href="#m8c5a3b6b20" y="83.926688"/>
     </g>
    </g>
    <g id="text_21">
     <!-- GList -->
     <defs>
      <path d="M 59.515625 10.40625 
L 59.515625 29.984375 
L 43.40625 29.984375 
L 43.40625 38.09375 
L 69.28125 38.09375 
L 69.28125 6.78125 
Q 63.578125 2.734375 56.6875 0.65625 
Q 49.8125 -1.421875 42 -1.421875 
Q 24.90625 -1.421875 15.25 8.5625 
Q 5.609375 18.5625 5.609375 36.375 
Q 5.609375 54.25 15.25 64.234375 
Q 24.90625 74.21875 42 74.21875 
Q 49.125 74.21875 55.546875 72.453125 
Q 61.96875 70.703125 67.390625 67.28125 
L 67.390625 56.78125 
Q 61.921875 61.421875 55.765625 63.765625 
Q 49.609375 66.109375 42.828125 66.109375 
Q 29.4375 66.109375 22.71875 58.640625 
Q 16.015625 51.171875 16.015625 36.375 
Q 16.015625 21.625 22.71875 14.15625 
Q 29.4375 6.6875 42.828125 6.6875 
Q 48.046875 6.6875 52.140625 7.59375 
Q 56.25 8.5 59.515625 10.40625 
z
" id="DejaVuSans-71"/>
     </defs>
     <g transform="translate(94.6 87.426688)scale(0.1 -0.1)">
      <use xlink:href="#DejaVuSans-71"/>
      <use x="77.490234" xlink:href="#DejaVuSans-76"/>
      <use x="133.203125" xlink:href="#DejaVuSans-105"/>
      <use x="160.986328" xlink:href="#DejaVuSans-115"/>
      <use x="213.085938" xlink:href="#DejaVuSans-116"/>
     </g>
    </g>
    <g id="line2d_25">
     <path d="M 66.6 98.604813 
L 86.6 98.604813 
" style="fill:none;stroke:#cdff00;stroke-dasharray:1.5,2.475;stroke-dashoffset:0;stroke-width:1.5;"/>
    </g>
    <g id="line2d_26">
     <g>
      <use style="fill:#cdff00;stroke:#cdff00;" x="76.6" xlink:href="#m88091f3b8b" y="98.604813"/>
     </g>
    </g>
    <g id="text_22">
     <!-- CdcList -->
     <g transform="translate(94.6 102.104813)scale(0.1 -0.1)">
      <use xlink:href="#DejaVuSans-67"/>
      <use x="69.824219" xlink:href="#DejaVuSans-100"/>
      <use x="133.300781" xlink:href="#DejaVuSans-99"/>
      <use x="188.28125" xlink:href="#DejaVuSans-76"/>
      <use x="243.994141" xlink:href="#DejaVuSans-105"/>
      <use x="271.777344" xlink:href="#DejaVuSans-115"/>
      <use x="323.876953" xlink:href="#DejaVuSans-116"/>
     </g>
    </g>
   </g>
  </g>
 </g>
 <defs>
  <clipPath id="p75f291a393">
   <rect height="266.112" width="357.12" x="57.6" y="41.472"/>
  </clipPath>
 </defs>
</svg>
