<?xml version="1.0" encoding="utf-8" standalone="no"?>
<!DOCTYPE svg PUBLIC "-//W3C//DTD SVG 1.1//EN"
  "http://www.w3.org/Graphics/SVG/1.1/DTD/svg11.dtd">
<!-- Created with matplotlib (https://matplotlib.org/) -->
<svg height="345.6pt" version="1.1" viewBox="0 0 460.8 345.6" width="460.8pt" xmlns="http://www.w3.org/2000/svg" xmlns:xlink="http://www.w3.org/1999/xlink">
 <defs>
  <style type="text/css">
*{stroke-linecap:butt;stroke-linejoin:round;}
  </style>
 </defs>
 <g id="figure_1">
  <g id="patch_1">
   <path d="M 0 345.6 
L 460.8 345.6 
L 460.8 0 
L 0 0 
z
" style="fill:#ffffff;"/>
  </g>
  <g id="axes_1">
   <g id="patch_2">
    <path d="M 57.6 307.584 
L 414.72 307.584 
L 414.72 41.472 
L 57.6 41.472 
z
" style="fill:#ffffff;"/>
   </g>
   <g id="matplotlib.axis_1">
    <g id="xtick_1">
     <g id="line2d_1">
      <defs>
       <path d="M 0 0 
L 0 3.5 
" id="ma2c6e8d90d" style="stroke:#000000;stroke-width:0.8;"/>
      </defs>
      <g>
       <use style="stroke:#000000;stroke-width:0.8;" x="73.822159" xlink:href="#ma2c6e8d90d" y="307.584"/>
      </g>
     </g>
     <g id="text_1">
      <!-- 0 -->
      <defs>
       <path d="M 31.78125 66.40625 
Q 24.171875 66.40625 20.328125 58.90625 
Q 16.5 51.421875 16.5 36.375 
Q 16.5 21.390625 20.328125 13.890625 
Q 24.171875 6.390625 31.78125 6.390625 
Q 39.453125 6.390625 43.28125 13.890625 
Q 47.125 21.390625 47.125 36.375 
Q 47.125 51.421875 43.28125 58.90625 
Q 39.453125 66.40625 31.78125 66.40625 
z
M 31.78125 74.21875 
Q 44.046875 74.21875 50.515625 64.515625 
Q 56.984375 54.828125 56.984375 36.375 
Q 56.984375 17.96875 50.515625 8.265625 
Q 44.046875 -1.421875 31.78125 -1.421875 
Q 19.53125 -1.421875 13.0625 8.265625 
Q 6.59375 17.96875 6.59375 36.375 
Q 6.59375 54.828125 13.0625 64.515625 
Q 19.53125 74.21875 31.78125 74.21875 
z
" id="DejaVuSans-48"/>
      </defs>
      <g transform="translate(70.640909 322.182437)scale(0.1 -0.1)">
       <use xlink:href="#DejaVuSans-48"/>
      </g>
     </g>
    </g>
    <g id="xtick_2">
     <g id="line2d_2">
      <g>
       <use style="stroke:#000000;stroke-width:0.8;" x="126.664788" xlink:href="#ma2c6e8d90d" y="307.584"/>
      </g>
     </g>
     <g id="text_2">
      <!-- 20000 -->
      <defs>
       <path d="M 19.1875 8.296875 
L 53.609375 8.296875 
L 53.609375 0 
L 7.328125 0 
L 7.328125 8.296875 
Q 12.9375 14.109375 22.625 23.890625 
Q 32.328125 33.6875 34.8125 36.53125 
Q 39.546875 41.84375 41.421875 45.53125 
Q 43.3125 49.21875 43.3125 52.78125 
Q 43.3125 58.59375 39.234375 62.25 
Q 35.15625 65.921875 28.609375 65.921875 
Q 23.96875 65.921875 18.8125 64.3125 
Q 13.671875 62.703125 7.8125 59.421875 
L 7.8125 69.390625 
Q 13.765625 71.78125 18.9375 73 
Q 24.125 74.21875 28.421875 74.21875 
Q 39.75 74.21875 46.484375 68.546875 
Q 53.21875 62.890625 53.21875 53.421875 
Q 53.21875 48.921875 51.53125 44.890625 
Q 49.859375 40.875 45.40625 35.40625 
Q 44.1875 33.984375 37.640625 27.21875 
Q 31.109375 20.453125 19.1875 8.296875 
z
" id="DejaVuSans-50"/>
      </defs>
      <g transform="translate(110.758538 322.182437)scale(0.1 -0.1)">
       <use xlink:href="#DejaVuSans-50"/>
       <use x="63.623047" xlink:href="#DejaVuSans-48"/>
       <use x="127.246094" xlink:href="#DejaVuSans-48"/>
       <use x="190.869141" xlink:href="#DejaVuSans-48"/>
       <use x="254.492188" xlink:href="#DejaVuSans-48"/>
      </g>
     </g>
    </g>
    <g id="xtick_3">
     <g id="line2d_3">
      <g>
       <use style="stroke:#000000;stroke-width:0.8;" x="179.507417" xlink:href="#ma2c6e8d90d" y="307.584"/>
      </g>
     </g>
     <g id="text_3">
      <!-- 40000 -->
      <defs>
       <path d="M 37.796875 64.3125 
L 12.890625 25.390625 
L 37.796875 25.390625 
z
M 35.203125 72.90625 
L 47.609375 72.90625 
L 47.609375 25.390625 
L 58.015625 25.390625 
L 58.015625 17.1875 
L 47.609375 17.1875 
L 47.609375 0 
L 37.796875 0 
L 37.796875 17.1875 
L 4.890625 17.1875 
L 4.890625 26.703125 
z
" id="DejaVuSans-52"/>
      </defs>
      <g transform="translate(163.601167 322.182437)scale(0.1 -0.1)">
       <use xlink:href="#DejaVuSans-52"/>
       <use x="63.623047" xlink:href="#DejaVuSans-48"/>
       <use x="127.246094" xlink:href="#DejaVuSans-48"/>
       <use x="190.869141" xlink:href="#DejaVuSans-48"/>
       <use x="254.492188" xlink:href="#DejaVuSans-48"/>
      </g>
     </g>
    </g>
    <g id="xtick_4">
     <g id="line2d_4">
      <g>
       <use style="stroke:#000000;stroke-width:0.8;" x="232.350046" xlink:href="#ma2c6e8d90d" y="307.584"/>
      </g>
     </g>
     <g id="text_4">
      <!-- 60000 -->
      <defs>
       <path d="M 33.015625 40.375 
Q 26.375 40.375 22.484375 35.828125 
Q 18.609375 31.296875 18.609375 23.390625 
Q 18.609375 15.53125 22.484375 10.953125 
Q 26.375 6.390625 33.015625 6.390625 
Q 39.65625 6.390625 43.53125 10.953125 
Q 47.40625 15.53125 47.40625 23.390625 
Q 47.40625 31.296875 43.53125 35.828125 
Q 39.65625 40.375 33.015625 40.375 
z
M 52.59375 71.296875 
L 52.59375 62.3125 
Q 48.875 64.0625 45.09375 64.984375 
Q 41.3125 65.921875 37.59375 65.921875 
Q 27.828125 65.921875 22.671875 59.328125 
Q 17.53125 52.734375 16.796875 39.40625 
Q 19.671875 43.65625 24.015625 45.921875 
Q 28.375 48.1875 33.59375 48.1875 
Q 44.578125 48.1875 50.953125 41.515625 
Q 57.328125 34.859375 57.328125 23.390625 
Q 57.328125 12.15625 50.6875 5.359375 
Q 44.046875 -1.421875 33.015625 -1.421875 
Q 20.359375 -1.421875 13.671875 8.265625 
Q 6.984375 17.96875 6.984375 36.375 
Q 6.984375 53.65625 15.1875 63.9375 
Q 23.390625 74.21875 37.203125 74.21875 
Q 40.921875 74.21875 44.703125 73.484375 
Q 48.484375 72.75 52.59375 71.296875 
z
" id="DejaVuSans-54"/>
      </defs>
      <g transform="translate(216.443796 322.182437)scale(0.1 -0.1)">
       <use xlink:href="#DejaVuSans-54"/>
       <use x="63.623047" xlink:href="#DejaVuSans-48"/>
       <use x="127.246094" xlink:href="#DejaVuSans-48"/>
       <use x="190.869141" xlink:href="#DejaVuSans-48"/>
       <use x="254.492188" xlink:href="#DejaVuSans-48"/>
      </g>
     </g>
    </g>
    <g id="xtick_5">
     <g id="line2d_5">
      <g>
       <use style="stroke:#000000;stroke-width:0.8;" x="285.192676" xlink:href="#ma2c6e8d90d" y="307.584"/>
      </g>
     </g>
     <g id="text_5">
      <!-- 80000 -->
      <defs>
       <path d="M 31.78125 34.625 
Q 24.75 34.625 20.71875 30.859375 
Q 16.703125 27.09375 16.703125 20.515625 
Q 16.703125 13.921875 20.71875 10.15625 
Q 24.75 6.390625 31.78125 6.390625 
Q 38.8125 6.390625 42.859375 10.171875 
Q 46.921875 13.96875 46.921875 20.515625 
Q 46.921875 27.09375 42.890625 30.859375 
Q 38.875 34.625 31.78125 34.625 
z
M 21.921875 38.8125 
Q 15.578125 40.375 12.03125 44.71875 
Q 8.5 49.078125 8.5 55.328125 
Q 8.5 64.0625 14.71875 69.140625 
Q 20.953125 74.21875 31.78125 74.21875 
Q 42.671875 74.21875 48.875 69.140625 
Q 55.078125 64.0625 55.078125 55.328125 
Q 55.078125 49.078125 51.53125 44.71875 
Q 48 40.375 41.703125 38.8125 
Q 48.828125 37.15625 52.796875 32.3125 
Q 56.78125 27.484375 56.78125 20.515625 
Q 56.78125 9.90625 50.3125 4.234375 
Q 43.84375 -1.421875 31.78125 -1.421875 
Q 19.734375 -1.421875 13.25 4.234375 
Q 6.78125 9.90625 6.78125 20.515625 
Q 6.78125 27.484375 10.78125 32.3125 
Q 14.796875 37.15625 21.921875 38.8125 
z
M 18.3125 54.390625 
Q 18.3125 48.734375 21.84375 45.5625 
Q 25.390625 42.390625 31.78125 42.390625 
Q 38.140625 42.390625 41.71875 45.5625 
Q 45.3125 48.734375 45.3125 54.390625 
Q 45.3125 60.0625 41.71875 63.234375 
Q 38.140625 66.40625 31.78125 66.40625 
Q 25.390625 66.40625 21.84375 63.234375 
Q 18.3125 60.0625 18.3125 54.390625 
z
" id="DejaVuSans-56"/>
      </defs>
      <g transform="translate(269.286426 322.182437)scale(0.1 -0.1)">
       <use xlink:href="#DejaVuSans-56"/>
       <use x="63.623047" xlink:href="#DejaVuSans-48"/>
       <use x="127.246094" xlink:href="#DejaVuSans-48"/>
       <use x="190.869141" xlink:href="#DejaVuSans-48"/>
       <use x="254.492188" xlink:href="#DejaVuSans-48"/>
      </g>
     </g>
    </g>
    <g id="xtick_6">
     <g id="line2d_6">
      <g>
       <use style="stroke:#000000;stroke-width:0.8;" x="338.035305" xlink:href="#ma2c6e8d90d" y="307.584"/>
      </g>
     </g>
     <g id="text_6">
      <!-- 100000 -->
      <defs>
       <path d="M 12.40625 8.296875 
L 28.515625 8.296875 
L 28.515625 63.921875 
L 10.984375 60.40625 
L 10.984375 69.390625 
L 28.421875 72.90625 
L 38.28125 72.90625 
L 38.28125 8.296875 
L 54.390625 8.296875 
L 54.390625 0 
L 12.40625 0 
z
" id="DejaVuSans-49"/>
      </defs>
      <g transform="translate(318.947805 322.182437)scale(0.1 -0.1)">
       <use xlink:href="#DejaVuSans-49"/>
       <use x="63.623047" xlink:href="#DejaVuSans-48"/>
       <use x="127.246094" xlink:href="#DejaVuSans-48"/>
       <use x="190.869141" xlink:href="#DejaVuSans-48"/>
       <use x="254.492188" xlink:href="#DejaVuSans-48"/>
       <use x="318.115234" xlink:href="#DejaVuSans-48"/>
      </g>
     </g>
    </g>
    <g id="xtick_7">
     <g id="line2d_7">
      <g>
       <use style="stroke:#000000;stroke-width:0.8;" x="390.877934" xlink:href="#ma2c6e8d90d" y="307.584"/>
      </g>
     </g>
     <g id="text_7">
      <!-- 120000 -->
      <g transform="translate(371.790434 322.182437)scale(0.1 -0.1)">
       <use xlink:href="#DejaVuSans-49"/>
       <use x="63.623047" xlink:href="#DejaVuSans-50"/>
       <use x="127.246094" xlink:href="#DejaVuSans-48"/>
       <use x="190.869141" xlink:href="#DejaVuSans-48"/>
       <use x="254.492188" xlink:href="#DejaVuSans-48"/>
       <use x="318.115234" xlink:href="#DejaVuSans-48"/>
      </g>
     </g>
    </g>
    <g id="text_8">
     <!-- N -->
     <defs>
      <path d="M 9.8125 72.90625 
L 23.09375 72.90625 
L 55.421875 11.921875 
L 55.421875 72.90625 
L 64.984375 72.90625 
L 64.984375 0 
L 51.703125 0 
L 19.390625 60.984375 
L 19.390625 0 
L 9.8125 0 
z
" id="DejaVuSans-78"/>
     </defs>
     <g transform="translate(232.419375 335.860562)scale(0.1 -0.1)">
      <use xlink:href="#DejaVuSans-78"/>
     </g>
    </g>
   </g>
   <g id="matplotlib.axis_2">
    <g id="ytick_1">
     <g id="line2d_8">
      <defs>
       <path d="M 0 0 
L -3.5 0 
" id="mb32dfe5c6d" style="stroke:#000000;stroke-width:0.8;"/>
      </defs>
      <g>
       <use style="stroke:#000000;stroke-width:0.8;" x="57.6" xlink:href="#mb32dfe5c6d" y="295.491753"/>
      </g>
     </g>
     <g id="text_9">
      <!-- 0 -->
      <g transform="translate(44.2375 299.290972)scale(0.1 -0.1)">
       <use xlink:href="#DejaVuSans-48"/>
      </g>
     </g>
    </g>
    <g id="ytick_2">
     <g id="line2d_9">
      <g>
       <use style="stroke:#000000;stroke-width:0.8;" x="57.6" xlink:href="#mb32dfe5c6d" y="239.853198"/>
      </g>
     </g>
     <g id="text_10">
      <!-- 2 -->
      <g transform="translate(44.2375 243.652416)scale(0.1 -0.1)">
       <use xlink:href="#DejaVuSans-50"/>
      </g>
     </g>
    </g>
    <g id="ytick_3">
     <g id="line2d_10">
      <g>
       <use style="stroke:#000000;stroke-width:0.8;" x="57.6" xlink:href="#mb32dfe5c6d" y="184.214642"/>
      </g>
     </g>
     <g id="text_11">
      <!-- 4 -->
      <g transform="translate(44.2375 188.013861)scale(0.1 -0.1)">
       <use xlink:href="#DejaVuSans-52"/>
      </g>
     </g>
    </g>
    <g id="ytick_4">
     <g id="line2d_11">
      <g>
       <use style="stroke:#000000;stroke-width:0.8;" x="57.6" xlink:href="#mb32dfe5c6d" y="128.576087"/>
      </g>
     </g>
     <g id="text_12">
      <!-- 6 -->
      <g transform="translate(44.2375 132.375306)scale(0.1 -0.1)">
       <use xlink:href="#DejaVuSans-54"/>
      </g>
     </g>
    </g>
    <g id="ytick_5">
     <g id="line2d_12">
      <g>
       <use style="stroke:#000000;stroke-width:0.8;" x="57.6" xlink:href="#mb32dfe5c6d" y="72.937532"/>
      </g>
     </g>
     <g id="text_13">
      <!-- 8 -->
      <g transform="translate(44.2375 76.736751)scale(0.1 -0.1)">
       <use xlink:href="#DejaVuSans-56"/>
      </g>
     </g>
    </g>
    <g id="text_14">
     <!-- Time (ns) -->
     <defs>
      <path d="M -0.296875 72.90625 
L 61.375 72.90625 
L 61.375 64.59375 
L 35.5 64.59375 
L 35.5 0 
L 25.59375 0 
L 25.59375 64.59375 
L -0.296875 64.59375 
z
" id="DejaVuSans-84"/>
      <path d="M 9.421875 54.6875 
L 18.40625 54.6875 
L 18.40625 0 
L 9.421875 0 
z
M 9.421875 75.984375 
L 18.40625 75.984375 
L 18.40625 64.59375 
L 9.421875 64.59375 
z
" id="DejaVuSans-105"/>
      <path d="M 52 44.1875 
Q 55.375 50.25 60.0625 53.125 
Q 64.75 56 71.09375 56 
Q 79.640625 56 84.28125 50.015625 
Q 88.921875 44.046875 88.921875 33.015625 
L 88.921875 0 
L 79.890625 0 
L 79.890625 32.71875 
Q 79.890625 40.578125 77.09375 44.375 
Q 74.3125 48.1875 68.609375 48.1875 
Q 61.625 48.1875 57.5625 43.546875 
Q 53.515625 38.921875 53.515625 30.90625 
L 53.515625 0 
L 44.484375 0 
L 44.484375 32.71875 
Q 44.484375 40.625 41.703125 44.40625 
Q 38.921875 48.1875 33.109375 48.1875 
Q 26.21875 48.1875 22.15625 43.53125 
Q 18.109375 38.875 18.109375 30.90625 
L 18.109375 0 
L 9.078125 0 
L 9.078125 54.6875 
L 18.109375 54.6875 
L 18.109375 46.1875 
Q 21.1875 51.21875 25.484375 53.609375 
Q 29.78125 56 35.6875 56 
Q 41.65625 56 45.828125 52.96875 
Q 50 49.953125 52 44.1875 
z
" id="DejaVuSans-109"/>
      <path d="M 56.203125 29.59375 
L 56.203125 25.203125 
L 14.890625 25.203125 
Q 15.484375 15.921875 20.484375 11.0625 
Q 25.484375 6.203125 34.421875 6.203125 
Q 39.59375 6.203125 44.453125 7.46875 
Q 49.3125 8.734375 54.109375 11.28125 
L 54.109375 2.78125 
Q 49.265625 0.734375 44.1875 -0.34375 
Q 39.109375 -1.421875 33.890625 -1.421875 
Q 20.796875 -1.421875 13.15625 6.1875 
Q 5.515625 13.8125 5.515625 26.8125 
Q 5.515625 40.234375 12.765625 48.109375 
Q 20.015625 56 32.328125 56 
Q 43.359375 56 49.78125 48.890625 
Q 56.203125 41.796875 56.203125 29.59375 
z
M 47.21875 32.234375 
Q 47.125 39.59375 43.09375 43.984375 
Q 39.0625 48.390625 32.421875 48.390625 
Q 24.90625 48.390625 20.390625 44.140625 
Q 15.875 39.890625 15.1875 32.171875 
z
" id="DejaVuSans-101"/>
      <path id="DejaVuSans-32"/>
      <path d="M 31 75.875 
Q 24.46875 64.65625 21.28125 53.65625 
Q 18.109375 42.671875 18.109375 31.390625 
Q 18.109375 20.125 21.3125 9.0625 
Q 24.515625 -2 31 -13.1875 
L 23.1875 -13.1875 
Q 15.875 -1.703125 12.234375 9.375 
Q 8.59375 20.453125 8.59375 31.390625 
Q 8.59375 42.28125 12.203125 53.3125 
Q 15.828125 64.359375 23.1875 75.875 
z
" id="DejaVuSans-40"/>
      <path d="M 54.890625 33.015625 
L 54.890625 0 
L 45.90625 0 
L 45.90625 32.71875 
Q 45.90625 40.484375 42.875 44.328125 
Q 39.84375 48.1875 33.796875 48.1875 
Q 26.515625 48.1875 22.3125 43.546875 
Q 18.109375 38.921875 18.109375 30.90625 
L 18.109375 0 
L 9.078125 0 
L 9.078125 54.6875 
L 18.109375 54.6875 
L 18.109375 46.1875 
Q 21.34375 51.125 25.703125 53.5625 
Q 30.078125 56 35.796875 56 
Q 45.21875 56 50.046875 50.171875 
Q 54.890625 44.34375 54.890625 33.015625 
z
" id="DejaVuSans-110"/>
      <path d="M 44.28125 53.078125 
L 44.28125 44.578125 
Q 40.484375 46.53125 36.375 47.5 
Q 32.28125 48.484375 27.875 48.484375 
Q 21.1875 48.484375 17.84375 46.4375 
Q 14.5 44.390625 14.5 40.28125 
Q 14.5 37.15625 16.890625 35.375 
Q 19.28125 33.59375 26.515625 31.984375 
L 29.59375 31.296875 
Q 39.15625 29.25 43.1875 25.515625 
Q 47.21875 21.78125 47.21875 15.09375 
Q 47.21875 7.46875 41.1875 3.015625 
Q 35.15625 -1.421875 24.609375 -1.421875 
Q 20.21875 -1.421875 15.453125 -0.5625 
Q 10.6875 0.296875 5.421875 2 
L 5.421875 11.28125 
Q 10.40625 8.6875 15.234375 7.390625 
Q 20.0625 6.109375 24.8125 6.109375 
Q 31.15625 6.109375 34.5625 8.28125 
Q 37.984375 10.453125 37.984375 14.40625 
Q 37.984375 18.0625 35.515625 20.015625 
Q 33.0625 21.96875 24.703125 23.78125 
L 21.578125 24.515625 
Q 13.234375 26.265625 9.515625 29.90625 
Q 5.8125 33.546875 5.8125 39.890625 
Q 5.8125 47.609375 11.28125 51.796875 
Q 16.75 56 26.8125 56 
Q 31.78125 56 36.171875 55.265625 
Q 40.578125 54.546875 44.28125 53.078125 
z
" id="DejaVuSans-115"/>
      <path d="M 8.015625 75.875 
L 15.828125 75.875 
Q 23.140625 64.359375 26.78125 53.3125 
Q 30.421875 42.28125 30.421875 31.390625 
Q 30.421875 20.453125 26.78125 9.375 
Q 23.140625 -1.703125 15.828125 -13.1875 
L 8.015625 -13.1875 
Q 14.5 -2 17.703125 9.0625 
Q 20.90625 20.125 20.90625 31.390625 
Q 20.90625 42.671875 17.703125 53.65625 
Q 14.5 64.65625 8.015625 75.875 
z
" id="DejaVuSans-41"/>
     </defs>
     <g transform="translate(38.157812 198.179563)rotate(-90)scale(0.1 -0.1)">
      <use xlink:href="#DejaVuSans-84"/>
      <use x="61.037109" xlink:href="#DejaVuSans-105"/>
      <use x="88.820312" xlink:href="#DejaVuSans-109"/>
      <use x="186.232422" xlink:href="#DejaVuSans-101"/>
      <use x="247.755859" xlink:href="#DejaVuSans-32"/>
      <use x="279.542969" xlink:href="#DejaVuSans-40"/>
      <use x="318.556641" xlink:href="#DejaVuSans-110"/>
      <use x="381.935547" xlink:href="#DejaVuSans-115"/>
      <use x="434.035156" xlink:href="#DejaVuSans-41"/>
     </g>
    </g>
    <g id="text_15">
     <!-- 1e7 -->
     <defs>
      <path d="M 8.203125 72.90625 
L 55.078125 72.90625 
L 55.078125 68.703125 
L 28.609375 0 
L 18.3125 0 
L 43.21875 64.59375 
L 8.203125 64.59375 
z
" id="DejaVuSans-55"/>
     </defs>
     <g transform="translate(57.6 38.472)scale(0.1 -0.1)">
      <use xlink:href="#DejaVuSans-49"/>
      <use x="63.623047" xlink:href="#DejaVuSans-101"/>
      <use x="125.146484" xlink:href="#DejaVuSans-55"/>
     </g>
    </g>
   </g>
   <g id="line2d_13">
    <path clip-path="url(#p527280089b)" d="M 73.832727 295.486171 
L 73.843296 295.48322 
L 73.864433 295.477138 
L 73.906707 295.462249 
L 73.991255 295.432885 
L 74.160352 295.362649 
L 74.498544 295.220941 
L 75.17493 294.895166 
L 76.527701 294.269671 
L 79.233244 292.883416 
L 84.644329 289.839134 
L 95.4665 283.317877 
L 138.755182 253.83274 
L 182.043863 222.317714 
L 225.332545 189.575286 
L 268.621227 152.744237 
L 311.909909 126.981214 
L 355.198591 91.797295 
L 398.487273 53.568 
" style="fill:none;stroke:#ff0029;stroke-dasharray:5.55,2.4;stroke-dashoffset:0;stroke-width:1.5;"/>
    <defs>
     <path d="M 0 3 
C 0.795609 3 1.55874 2.683901 2.12132 2.12132 
C 2.683901 1.55874 3 0.795609 3 0 
C 3 -0.795609 2.683901 -1.55874 2.12132 -2.12132 
C 1.55874 -2.683901 0.795609 -3 0 -3 
C -0.795609 -3 -1.55874 -2.683901 -2.12132 -2.12132 
C -2.683901 -1.55874 -3 -0.795609 -3 0 
C -3 0.795609 -2.683901 1.55874 -2.12132 2.12132 
C -1.55874 2.683901 -0.795609 3 0 3 
z
" id="m177ad4cdac" style="stroke:#ff0029;"/>
    </defs>
    <g clip-path="url(#p527280089b)">
     <use style="fill:#ff0029;stroke:#ff0029;" x="73.832727" xlink:href="#m177ad4cdac" y="295.486171"/>
     <use style="fill:#ff0029;stroke:#ff0029;" x="73.843296" xlink:href="#m177ad4cdac" y="295.48322"/>
     <use style="fill:#ff0029;stroke:#ff0029;" x="73.864433" xlink:href="#m177ad4cdac" y="295.477138"/>
     <use style="fill:#ff0029;stroke:#ff0029;" x="73.906707" xlink:href="#m177ad4cdac" y="295.462249"/>
     <use style="fill:#ff0029;stroke:#ff0029;" x="73.991255" xlink:href="#m177ad4cdac" y="295.432885"/>
     <use style="fill:#ff0029;stroke:#ff0029;" x="74.160352" xlink:href="#m177ad4cdac" y="295.362649"/>
     <use style="fill:#ff0029;stroke:#ff0029;" x="74.498544" xlink:href="#m177ad4cdac" y="295.220941"/>
     <use style="fill:#ff0029;stroke:#ff0029;" x="75.17493" xlink:href="#m177ad4cdac" y="294.895166"/>
     <use style="fill:#ff0029;stroke:#ff0029;" x="76.527701" xlink:href="#m177ad4cdac" y="294.269671"/>
     <use style="fill:#ff0029;stroke:#ff0029;" x="79.233244" xlink:href="#m177ad4cdac" y="292.883416"/>
     <use style="fill:#ff0029;stroke:#ff0029;" x="84.644329" xlink:href="#m177ad4cdac" y="289.839134"/>
     <use style="fill:#ff0029;stroke:#ff0029;" x="95.4665" xlink:href="#m177ad4cdac" y="283.317877"/>
     <use style="fill:#ff0029;stroke:#ff0029;" x="138.755182" xlink:href="#m177ad4cdac" y="253.83274"/>
     <use style="fill:#ff0029;stroke:#ff0029;" x="182.043863" xlink:href="#m177ad4cdac" y="222.317714"/>
     <use style="fill:#ff0029;stroke:#ff0029;" x="225.332545" xlink:href="#m177ad4cdac" y="189.575286"/>
     <use style="fill:#ff0029;stroke:#ff0029;" x="268.621227" xlink:href="#m177ad4cdac" y="152.744237"/>
     <use style="fill:#ff0029;stroke:#ff0029;" x="311.909909" xlink:href="#m177ad4cdac" y="126.981214"/>
     <use style="fill:#ff0029;stroke:#ff0029;" x="355.198591" xlink:href="#m177ad4cdac" y="91.797295"/>
     <use style="fill:#ff0029;stroke:#ff0029;" x="398.487273" xlink:href="#m177ad4cdac" y="53.568"/>
    </g>
   </g>
   <g id="line2d_14">
    <path clip-path="url(#p527280089b)" d="M 73.832727 295.48632 
L 73.843296 295.484268 
L 73.864433 295.479246 
L 73.906707 295.469833 
L 73.991255 295.452342 
L 74.160352 295.414382 
L 74.498544 295.348761 
L 75.17493 295.207048 
L 76.527701 294.909903 
L 79.233244 294.354016 
L 84.644329 293.26299 
L 95.4665 290.91919 
L 138.755182 281.750707 
L 182.043863 271.594879 
L 225.332545 263.579622 
L 268.621227 252.374311 
L 311.909909 241.542475 
L 355.198591 232.960339 
L 398.487273 226.135445 
" style="fill:none;stroke:#ff4800;stroke-dasharray:1.5,2.475;stroke-dashoffset:0;stroke-width:1.5;"/>
    <defs>
     <path d="M 0 3 
C 0.795609 3 1.55874 2.683901 2.12132 2.12132 
C 2.683901 1.55874 3 0.795609 3 0 
C 3 -0.795609 2.683901 -1.55874 2.12132 -2.12132 
C 1.55874 -2.683901 0.795609 -3 0 -3 
C -0.795609 -3 -1.55874 -2.683901 -2.12132 -2.12132 
C -2.683901 -1.55874 -3 -0.795609 -3 0 
C -3 0.795609 -2.683901 1.55874 -2.12132 2.12132 
C -1.55874 2.683901 -0.795609 3 0 3 
z
" id="m1703fef4fc" style="stroke:#ff4800;"/>
    </defs>
    <g clip-path="url(#p527280089b)">
     <use style="fill:#ff4800;stroke:#ff4800;" x="73.832727" xlink:href="#m1703fef4fc" y="295.48632"/>
     <use style="fill:#ff4800;stroke:#ff4800;" x="73.843296" xlink:href="#m1703fef4fc" y="295.484268"/>
     <use style="fill:#ff4800;stroke:#ff4800;" x="73.864433" xlink:href="#m1703fef4fc" y="295.479246"/>
     <use style="fill:#ff4800;stroke:#ff4800;" x="73.906707" xlink:href="#m1703fef4fc" y="295.469833"/>
     <use style="fill:#ff4800;stroke:#ff4800;" x="73.991255" xlink:href="#m1703fef4fc" y="295.452342"/>
     <use style="fill:#ff4800;stroke:#ff4800;" x="74.160352" xlink:href="#m1703fef4fc" y="295.414382"/>
     <use style="fill:#ff4800;stroke:#ff4800;" x="74.498544" xlink:href="#m1703fef4fc" y="295.348761"/>
     <use style="fill:#ff4800;stroke:#ff4800;" x="75.17493" xlink:href="#m1703fef4fc" y="295.207048"/>
     <use style="fill:#ff4800;stroke:#ff4800;" x="76.527701" xlink:href="#m1703fef4fc" y="294.909903"/>
     <use style="fill:#ff4800;stroke:#ff4800;" x="79.233244" xlink:href="#m1703fef4fc" y="294.354016"/>
     <use style="fill:#ff4800;stroke:#ff4800;" x="84.644329" xlink:href="#m1703fef4fc" y="293.26299"/>
     <use style="fill:#ff4800;stroke:#ff4800;" x="95.4665" xlink:href="#m1703fef4fc" y="290.91919"/>
     <use style="fill:#ff4800;stroke:#ff4800;" x="138.755182" xlink:href="#m1703fef4fc" y="281.750707"/>
     <use style="fill:#ff4800;stroke:#ff4800;" x="182.043863" xlink:href="#m1703fef4fc" y="271.594879"/>
     <use style="fill:#ff4800;stroke:#ff4800;" x="225.332545" xlink:href="#m1703fef4fc" y="263.579622"/>
     <use style="fill:#ff4800;stroke:#ff4800;" x="268.621227" xlink:href="#m1703fef4fc" y="252.374311"/>
     <use style="fill:#ff4800;stroke:#ff4800;" x="311.909909" xlink:href="#m1703fef4fc" y="241.542475"/>
     <use style="fill:#ff4800;stroke:#ff4800;" x="355.198591" xlink:href="#m1703fef4fc" y="232.960339"/>
     <use style="fill:#ff4800;stroke:#ff4800;" x="398.487273" xlink:href="#m1703fef4fc" y="226.135445"/>
    </g>
   </g>
   <g id="line2d_15">
    <path clip-path="url(#p527280089b)" d="M 73.832727 295.487859 
L 73.843296 295.487397 
L 73.864433 295.486366 
L 73.906707 295.483887 
L 73.991255 295.479291 
L 74.160352 295.470378 
L 74.498544 295.452054 
L 75.17493 295.415278 
L 76.527701 295.341814 
L 79.233244 295.199209 
L 84.644329 294.895259 
L 95.4665 294.308041 
L 138.755182 291.947875 
L 182.043863 289.391684 
L 225.332545 286.950449 
L 268.621227 283.53344 
L 311.909909 281.433344 
L 355.198591 279.118762 
L 398.487273 276.955253 
" style="fill:none;stroke:#ffba00;stroke-dasharray:5.55,2.4;stroke-dashoffset:0;stroke-width:1.5;"/>
    <defs>
     <path d="M 0 3 
C 0.795609 3 1.55874 2.683901 2.12132 2.12132 
C 2.683901 1.55874 3 0.795609 3 0 
C 3 -0.795609 2.683901 -1.55874 2.12132 -2.12132 
C 1.55874 -2.683901 0.795609 -3 0 -3 
C -0.795609 -3 -1.55874 -2.683901 -2.12132 -2.12132 
C -2.683901 -1.55874 -3 -0.795609 -3 0 
C -3 0.795609 -2.683901 1.55874 -2.12132 2.12132 
C -1.55874 2.683901 -0.795609 3 0 3 
z
" id="m45f27668e5" style="stroke:#ffba00;"/>
    </defs>
    <g clip-path="url(#p527280089b)">
     <use style="fill:#ffba00;stroke:#ffba00;" x="73.832727" xlink:href="#m45f27668e5" y="295.487859"/>
     <use style="fill:#ffba00;stroke:#ffba00;" x="73.843296" xlink:href="#m45f27668e5" y="295.487397"/>
     <use style="fill:#ffba00;stroke:#ffba00;" x="73.864433" xlink:href="#m45f27668e5" y="295.486366"/>
     <use style="fill:#ffba00;stroke:#ffba00;" x="73.906707" xlink:href="#m45f27668e5" y="295.483887"/>
     <use style="fill:#ffba00;stroke:#ffba00;" x="73.991255" xlink:href="#m45f27668e5" y="295.479291"/>
     <use style="fill:#ffba00;stroke:#ffba00;" x="74.160352" xlink:href="#m45f27668e5" y="295.470378"/>
     <use style="fill:#ffba00;stroke:#ffba00;" x="74.498544" xlink:href="#m45f27668e5" y="295.452054"/>
     <use style="fill:#ffba00;stroke:#ffba00;" x="75.17493" xlink:href="#m45f27668e5" y="295.415278"/>
     <use style="fill:#ffba00;stroke:#ffba00;" x="76.527701" xlink:href="#m45f27668e5" y="295.341814"/>
     <use style="fill:#ffba00;stroke:#ffba00;" x="79.233244" xlink:href="#m45f27668e5" y="295.199209"/>
     <use style="fill:#ffba00;stroke:#ffba00;" x="84.644329" xlink:href="#m45f27668e5" y="294.895259"/>
     <use style="fill:#ffba00;stroke:#ffba00;" x="95.4665" xlink:href="#m45f27668e5" y="294.308041"/>
     <use style="fill:#ffba00;stroke:#ffba00;" x="138.755182" xlink:href="#m45f27668e5" y="291.947875"/>
     <use style="fill:#ffba00;stroke:#ffba00;" x="182.043863" xlink:href="#m45f27668e5" y="289.391684"/>
     <use style="fill:#ffba00;stroke:#ffba00;" x="225.332545" xlink:href="#m45f27668e5" y="286.950449"/>
     <use style="fill:#ffba00;stroke:#ffba00;" x="268.621227" xlink:href="#m45f27668e5" y="283.53344"/>
     <use style="fill:#ffba00;stroke:#ffba00;" x="311.909909" xlink:href="#m45f27668e5" y="281.433344"/>
     <use style="fill:#ffba00;stroke:#ffba00;" x="355.198591" xlink:href="#m45f27668e5" y="279.118762"/>
     <use style="fill:#ffba00;stroke:#ffba00;" x="398.487273" xlink:href="#m45f27668e5" y="276.955253"/>
    </g>
   </g>
   <g id="line2d_16">
    <path clip-path="url(#p527280089b)" d="M 73.832727 295.487836 
L 73.843296 295.486658 
L 73.864433 295.484167 
L 73.906707 295.478786 
L 73.991255 295.467353 
L 74.160352 295.443497 
L 74.498544 295.390478 
L 75.17493 295.280166 
L 76.527701 295.027205 
L 79.233244 294.514519 
L 84.644329 293.313606 
L 95.4665 290.725426 
L 138.755182 278.348125 
L 182.043863 265.340628 
L 225.332545 251.963107 
L 268.621227 235.849173 
L 311.909909 222.329772 
L 355.198591 205.273401 
L 398.487273 191.123338 
" style="fill:none;stroke:#cdff00;stroke-dasharray:1.5,2.475;stroke-dashoffset:0;stroke-width:1.5;"/>
    <defs>
     <path d="M 0 3 
C 0.795609 3 1.55874 2.683901 2.12132 2.12132 
C 2.683901 1.55874 3 0.795609 3 0 
C 3 -0.795609 2.683901 -1.55874 2.12132 -2.12132 
C 1.55874 -2.683901 0.795609 -3 0 -3 
C -0.795609 -3 -1.55874 -2.683901 -2.12132 -2.12132 
C -2.683901 -1.55874 -3 -0.795609 -3 0 
C -3 0.795609 -2.683901 1.55874 -2.12132 2.12132 
C -1.55874 2.683901 -0.795609 3 0 3 
z
" id="m251a358a77" style="stroke:#cdff00;"/>
    </defs>
    <g clip-path="url(#p527280089b)">
     <use style="fill:#cdff00;stroke:#cdff00;" x="73.832727" xlink:href="#m251a358a77" y="295.487836"/>
     <use style="fill:#cdff00;stroke:#cdff00;" x="73.843296" xlink:href="#m251a358a77" y="295.486658"/>
     <use style="fill:#cdff00;stroke:#cdff00;" x="73.864433" xlink:href="#m251a358a77" y="295.484167"/>
     <use style="fill:#cdff00;stroke:#cdff00;" x="73.906707" xlink:href="#m251a358a77" y="295.478786"/>
     <use style="fill:#cdff00;stroke:#cdff00;" x="73.991255" xlink:href="#m251a358a77" y="295.467353"/>
     <use style="fill:#cdff00;stroke:#cdff00;" x="74.160352" xlink:href="#m251a358a77" y="295.443497"/>
     <use style="fill:#cdff00;stroke:#cdff00;" x="74.498544" xlink:href="#m251a358a77" y="295.390478"/>
     <use style="fill:#cdff00;stroke:#cdff00;" x="75.17493" xlink:href="#m251a358a77" y="295.280166"/>
     <use style="fill:#cdff00;stroke:#cdff00;" x="76.527701" xlink:href="#m251a358a77" y="295.027205"/>
     <use style="fill:#cdff00;stroke:#cdff00;" x="79.233244" xlink:href="#m251a358a77" y="294.514519"/>
     <use style="fill:#cdff00;stroke:#cdff00;" x="84.644329" xlink:href="#m251a358a77" y="293.313606"/>
     <use style="fill:#cdff00;stroke:#cdff00;" x="95.4665" xlink:href="#m251a358a77" y="290.725426"/>
     <use style="fill:#cdff00;stroke:#cdff00;" x="138.755182" xlink:href="#m251a358a77" y="278.348125"/>
     <use style="fill:#cdff00;stroke:#cdff00;" x="182.043863" xlink:href="#m251a358a77" y="265.340628"/>
     <use style="fill:#cdff00;stroke:#cdff00;" x="225.332545" xlink:href="#m251a358a77" y="251.963107"/>
     <use style="fill:#cdff00;stroke:#cdff00;" x="268.621227" xlink:href="#m251a358a77" y="235.849173"/>
     <use style="fill:#cdff00;stroke:#cdff00;" x="311.909909" xlink:href="#m251a358a77" y="222.329772"/>
     <use style="fill:#cdff00;stroke:#cdff00;" x="355.198591" xlink:href="#m251a358a77" y="205.273401"/>
     <use style="fill:#cdff00;stroke:#cdff00;" x="398.487273" xlink:href="#m251a358a77" y="191.123338"/>
    </g>
   </g>
   <g id="line2d_17">
    <path clip-path="url(#p527280089b)" d="M 73.832727 295.487857 
L 73.843296 295.486874 
L 73.864433 295.484806 
L 73.906707 295.480206 
L 73.991255 295.470091 
L 74.160352 295.44795 
L 74.498544 295.399571 
L 75.17493 295.29332 
L 76.527701 295.072887 
L 79.233244 294.588971 
L 84.644329 293.563715 
L 95.4665 291.320132 
L 138.755182 280.834154 
L 182.043863 269.325291 
L 225.332545 256.935792 
L 268.621227 244.110357 
L 311.909909 232.506654 
L 355.198591 219.013354 
L 398.487273 206.089524 
" style="fill:none;stroke:#5cff00;stroke-dasharray:5.55,2.4;stroke-dashoffset:0;stroke-width:1.5;"/>
    <defs>
     <path d="M 0 3 
C 0.795609 3 1.55874 2.683901 2.12132 2.12132 
C 2.683901 1.55874 3 0.795609 3 0 
C 3 -0.795609 2.683901 -1.55874 2.12132 -2.12132 
C 1.55874 -2.683901 0.795609 -3 0 -3 
C -0.795609 -3 -1.55874 -2.683901 -2.12132 -2.12132 
C -2.683901 -1.55874 -3 -0.795609 -3 0 
C -3 0.795609 -2.683901 1.55874 -2.12132 2.12132 
C -1.55874 2.683901 -0.795609 3 0 3 
z
" id="m71a0fa6db6" style="stroke:#5cff00;"/>
    </defs>
    <g clip-path="url(#p527280089b)">
     <use style="fill:#5cff00;stroke:#5cff00;" x="73.832727" xlink:href="#m71a0fa6db6" y="295.487857"/>
     <use style="fill:#5cff00;stroke:#5cff00;" x="73.843296" xlink:href="#m71a0fa6db6" y="295.486874"/>
     <use style="fill:#5cff00;stroke:#5cff00;" x="73.864433" xlink:href="#m71a0fa6db6" y="295.484806"/>
     <use style="fill:#5cff00;stroke:#5cff00;" x="73.906707" xlink:href="#m71a0fa6db6" y="295.480206"/>
     <use style="fill:#5cff00;stroke:#5cff00;" x="73.991255" xlink:href="#m71a0fa6db6" y="295.470091"/>
     <use style="fill:#5cff00;stroke:#5cff00;" x="74.160352" xlink:href="#m71a0fa6db6" y="295.44795"/>
     <use style="fill:#5cff00;stroke:#5cff00;" x="74.498544" xlink:href="#m71a0fa6db6" y="295.399571"/>
     <use style="fill:#5cff00;stroke:#5cff00;" x="75.17493" xlink:href="#m71a0fa6db6" y="295.29332"/>
     <use style="fill:#5cff00;stroke:#5cff00;" x="76.527701" xlink:href="#m71a0fa6db6" y="295.072887"/>
     <use style="fill:#5cff00;stroke:#5cff00;" x="79.233244" xlink:href="#m71a0fa6db6" y="294.588971"/>
     <use style="fill:#5cff00;stroke:#5cff00;" x="84.644329" xlink:href="#m71a0fa6db6" y="293.563715"/>
     <use style="fill:#5cff00;stroke:#5cff00;" x="95.4665" xlink:href="#m71a0fa6db6" y="291.320132"/>
     <use style="fill:#5cff00;stroke:#5cff00;" x="138.755182" xlink:href="#m71a0fa6db6" y="280.834154"/>
     <use style="fill:#5cff00;stroke:#5cff00;" x="182.043863" xlink:href="#m71a0fa6db6" y="269.325291"/>
     <use style="fill:#5cff00;stroke:#5cff00;" x="225.332545" xlink:href="#m71a0fa6db6" y="256.935792"/>
     <use style="fill:#5cff00;stroke:#5cff00;" x="268.621227" xlink:href="#m71a0fa6db6" y="244.110357"/>
     <use style="fill:#5cff00;stroke:#5cff00;" x="311.909909" xlink:href="#m71a0fa6db6" y="232.506654"/>
     <use style="fill:#5cff00;stroke:#5cff00;" x="355.198591" xlink:href="#m71a0fa6db6" y="219.013354"/>
     <use style="fill:#5cff00;stroke:#5cff00;" x="398.487273" xlink:href="#m71a0fa6db6" y="206.089524"/>
    </g>
   </g>
   <g id="line2d_18">
    <path clip-path="url(#p527280089b)" d="M 73.832727 295.488 
L 73.843296 295.486962 
L 73.864433 295.485011 
L 73.906707 295.481542 
L 73.991255 295.474077 
L 74.160352 295.461291 
L 74.498544 295.432611 
L 75.17493 295.376828 
L 76.527701 295.272776 
L 79.233244 295.061098 
L 84.644329 294.618709 
L 95.4665 293.776308 
L 138.755182 290.772371 
L 182.043863 287.066555 
L 225.332545 284.488362 
L 268.621227 279.360668 
L 311.909909 276.372868 
L 355.198591 274.000654 
L 398.487273 271.224173 
" style="fill:none;stroke:#00ff16;stroke-dasharray:1.5,2.475;stroke-dashoffset:0;stroke-width:1.5;"/>
    <defs>
     <path d="M 0 3 
C 0.795609 3 1.55874 2.683901 2.12132 2.12132 
C 2.683901 1.55874 3 0.795609 3 0 
C 3 -0.795609 2.683901 -1.55874 2.12132 -2.12132 
C 1.55874 -2.683901 0.795609 -3 0 -3 
C -0.795609 -3 -1.55874 -2.683901 -2.12132 -2.12132 
C -2.683901 -1.55874 -3 -0.795609 -3 0 
C -3 0.795609 -2.683901 1.55874 -2.12132 2.12132 
C -1.55874 2.683901 -0.795609 3 0 3 
z
" id="mcfbdbc417a" style="stroke:#00ff16;"/>
    </defs>
    <g clip-path="url(#p527280089b)">
     <use style="fill:#00ff16;stroke:#00ff16;" x="73.832727" xlink:href="#mcfbdbc417a" y="295.488"/>
     <use style="fill:#00ff16;stroke:#00ff16;" x="73.843296" xlink:href="#mcfbdbc417a" y="295.486962"/>
     <use style="fill:#00ff16;stroke:#00ff16;" x="73.864433" xlink:href="#mcfbdbc417a" y="295.485011"/>
     <use style="fill:#00ff16;stroke:#00ff16;" x="73.906707" xlink:href="#mcfbdbc417a" y="295.481542"/>
     <use style="fill:#00ff16;stroke:#00ff16;" x="73.991255" xlink:href="#mcfbdbc417a" y="295.474077"/>
     <use style="fill:#00ff16;stroke:#00ff16;" x="74.160352" xlink:href="#mcfbdbc417a" y="295.461291"/>
     <use style="fill:#00ff16;stroke:#00ff16;" x="74.498544" xlink:href="#mcfbdbc417a" y="295.432611"/>
     <use style="fill:#00ff16;stroke:#00ff16;" x="75.17493" xlink:href="#mcfbdbc417a" y="295.376828"/>
     <use style="fill:#00ff16;stroke:#00ff16;" x="76.527701" xlink:href="#mcfbdbc417a" y="295.272776"/>
     <use style="fill:#00ff16;stroke:#00ff16;" x="79.233244" xlink:href="#mcfbdbc417a" y="295.061098"/>
     <use style="fill:#00ff16;stroke:#00ff16;" x="84.644329" xlink:href="#mcfbdbc417a" y="294.618709"/>
     <use style="fill:#00ff16;stroke:#00ff16;" x="95.4665" xlink:href="#mcfbdbc417a" y="293.776308"/>
     <use style="fill:#00ff16;stroke:#00ff16;" x="138.755182" xlink:href="#mcfbdbc417a" y="290.772371"/>
     <use style="fill:#00ff16;stroke:#00ff16;" x="182.043863" xlink:href="#mcfbdbc417a" y="287.066555"/>
     <use style="fill:#00ff16;stroke:#00ff16;" x="225.332545" xlink:href="#mcfbdbc417a" y="284.488362"/>
     <use style="fill:#00ff16;stroke:#00ff16;" x="268.621227" xlink:href="#mcfbdbc417a" y="279.360668"/>
     <use style="fill:#00ff16;stroke:#00ff16;" x="311.909909" xlink:href="#mcfbdbc417a" y="276.372868"/>
     <use style="fill:#00ff16;stroke:#00ff16;" x="355.198591" xlink:href="#mcfbdbc417a" y="274.000654"/>
     <use style="fill:#00ff16;stroke:#00ff16;" x="398.487273" xlink:href="#mcfbdbc417a" y="271.224173"/>
    </g>
   </g>
   <g id="line2d_19">
    <path clip-path="url(#p527280089b)" d="M 73.832727 295.487969 
L 73.843296 295.487386 
L 73.864433 295.486086 
L 73.906707 295.483611 
L 73.991255 295.478815 
L 74.160352 295.469433 
L 74.498544 295.449849 
L 75.17493 295.414281 
L 76.527701 295.338425 
L 79.233244 295.185678 
L 84.644329 294.882859 
L 95.4665 294.243419 
L 138.755182 291.581108 
L 182.043863 288.801339 
L 225.332545 286.136089 
L 268.621227 282.833662 
L 311.909909 280.264552 
L 355.198591 277.254794 
L 398.487273 274.528281 
" style="fill:none;stroke:#00ff8c;stroke-dasharray:5.55,2.4;stroke-dashoffset:0;stroke-width:1.5;"/>
    <defs>
     <path d="M 0 3 
C 0.795609 3 1.55874 2.683901 2.12132 2.12132 
C 2.683901 1.55874 3 0.795609 3 0 
C 3 -0.795609 2.683901 -1.55874 2.12132 -2.12132 
C 1.55874 -2.683901 0.795609 -3 0 -3 
C -0.795609 -3 -1.55874 -2.683901 -2.12132 -2.12132 
C -2.683901 -1.55874 -3 -0.795609 -3 0 
C -3 0.795609 -2.683901 1.55874 -2.12132 2.12132 
C -1.55874 2.683901 -0.795609 3 0 3 
z
" id="m5f45809975" style="stroke:#00ff8c;"/>
    </defs>
    <g clip-path="url(#p527280089b)">
     <use style="fill:#00ff8c;stroke:#00ff8c;" x="73.832727" xlink:href="#m5f45809975" y="295.487969"/>
     <use style="fill:#00ff8c;stroke:#00ff8c;" x="73.843296" xlink:href="#m5f45809975" y="295.487386"/>
     <use style="fill:#00ff8c;stroke:#00ff8c;" x="73.864433" xlink:href="#m5f45809975" y="295.486086"/>
     <use style="fill:#00ff8c;stroke:#00ff8c;" x="73.906707" xlink:href="#m5f45809975" y="295.483611"/>
     <use style="fill:#00ff8c;stroke:#00ff8c;" x="73.991255" xlink:href="#m5f45809975" y="295.478815"/>
     <use style="fill:#00ff8c;stroke:#00ff8c;" x="74.160352" xlink:href="#m5f45809975" y="295.469433"/>
     <use style="fill:#00ff8c;stroke:#00ff8c;" x="74.498544" xlink:href="#m5f45809975" y="295.449849"/>
     <use style="fill:#00ff8c;stroke:#00ff8c;" x="75.17493" xlink:href="#m5f45809975" y="295.414281"/>
     <use style="fill:#00ff8c;stroke:#00ff8c;" x="76.527701" xlink:href="#m5f45809975" y="295.338425"/>
     <use style="fill:#00ff8c;stroke:#00ff8c;" x="79.233244" xlink:href="#m5f45809975" y="295.185678"/>
     <use style="fill:#00ff8c;stroke:#00ff8c;" x="84.644329" xlink:href="#m5f45809975" y="294.882859"/>
     <use style="fill:#00ff8c;stroke:#00ff8c;" x="95.4665" xlink:href="#m5f45809975" y="294.243419"/>
     <use style="fill:#00ff8c;stroke:#00ff8c;" x="138.755182" xlink:href="#m5f45809975" y="291.581108"/>
     <use style="fill:#00ff8c;stroke:#00ff8c;" x="182.043863" xlink:href="#m5f45809975" y="288.801339"/>
     <use style="fill:#00ff8c;stroke:#00ff8c;" x="225.332545" xlink:href="#m5f45809975" y="286.136089"/>
     <use style="fill:#00ff8c;stroke:#00ff8c;" x="268.621227" xlink:href="#m5f45809975" y="282.833662"/>
     <use style="fill:#00ff8c;stroke:#00ff8c;" x="311.909909" xlink:href="#m5f45809975" y="280.264552"/>
     <use style="fill:#00ff8c;stroke:#00ff8c;" x="355.198591" xlink:href="#m5f45809975" y="277.254794"/>
     <use style="fill:#00ff8c;stroke:#00ff8c;" x="398.487273" xlink:href="#m5f45809975" y="274.528281"/>
    </g>
   </g>
   <g id="line2d_20">
    <path clip-path="url(#p527280089b)" d="M 73.832727 295.487871 
L 73.843296 295.486871 
L 73.864433 295.484658 
L 73.906707 295.479493 
L 73.991255 295.46762 
L 74.160352 295.442787 
L 74.498544 295.387841 
L 75.17493 295.275654 
L 76.527701 295.006535 
L 79.233244 294.41471 
L 84.644329 293.061918 
L 95.4665 290.078505 
L 138.755182 275.56043 
L 182.043863 258.308022 
L 225.332545 240.369867 
L 268.621227 219.043734 
L 311.909909 193.778301 
L 355.198591 168.542444 
L 398.487273 138.43694 
" style="fill:none;stroke:#00fffd;stroke-dasharray:1.5,2.475;stroke-dashoffset:0;stroke-width:1.5;"/>
    <defs>
     <path d="M 0 3 
C 0.795609 3 1.55874 2.683901 2.12132 2.12132 
C 2.683901 1.55874 3 0.795609 3 0 
C 3 -0.795609 2.683901 -1.55874 2.12132 -2.12132 
C 1.55874 -2.683901 0.795609 -3 0 -3 
C -0.795609 -3 -1.55874 -2.683901 -2.12132 -2.12132 
C -2.683901 -1.55874 -3 -0.795609 -3 0 
C -3 0.795609 -2.683901 1.55874 -2.12132 2.12132 
C -1.55874 2.683901 -0.795609 3 0 3 
z
" id="m3619702250" style="stroke:#00fffd;"/>
    </defs>
    <g clip-path="url(#p527280089b)">
     <use style="fill:#00fffd;stroke:#00fffd;" x="73.832727" xlink:href="#m3619702250" y="295.487871"/>
     <use style="fill:#00fffd;stroke:#00fffd;" x="73.843296" xlink:href="#m3619702250" y="295.486871"/>
     <use style="fill:#00fffd;stroke:#00fffd;" x="73.864433" xlink:href="#m3619702250" y="295.484658"/>
     <use style="fill:#00fffd;stroke:#00fffd;" x="73.906707" xlink:href="#m3619702250" y="295.479493"/>
     <use style="fill:#00fffd;stroke:#00fffd;" x="73.991255" xlink:href="#m3619702250" y="295.46762"/>
     <use style="fill:#00fffd;stroke:#00fffd;" x="74.160352" xlink:href="#m3619702250" y="295.442787"/>
     <use style="fill:#00fffd;stroke:#00fffd;" x="74.498544" xlink:href="#m3619702250" y="295.387841"/>
     <use style="fill:#00fffd;stroke:#00fffd;" x="75.17493" xlink:href="#m3619702250" y="295.275654"/>
     <use style="fill:#00fffd;stroke:#00fffd;" x="76.527701" xlink:href="#m3619702250" y="295.006535"/>
     <use style="fill:#00fffd;stroke:#00fffd;" x="79.233244" xlink:href="#m3619702250" y="294.41471"/>
     <use style="fill:#00fffd;stroke:#00fffd;" x="84.644329" xlink:href="#m3619702250" y="293.061918"/>
     <use style="fill:#00fffd;stroke:#00fffd;" x="95.4665" xlink:href="#m3619702250" y="290.078505"/>
     <use style="fill:#00fffd;stroke:#00fffd;" x="138.755182" xlink:href="#m3619702250" y="275.56043"/>
     <use style="fill:#00fffd;stroke:#00fffd;" x="182.043863" xlink:href="#m3619702250" y="258.308022"/>
     <use style="fill:#00fffd;stroke:#00fffd;" x="225.332545" xlink:href="#m3619702250" y="240.369867"/>
     <use style="fill:#00fffd;stroke:#00fffd;" x="268.621227" xlink:href="#m3619702250" y="219.043734"/>
     <use style="fill:#00fffd;stroke:#00fffd;" x="311.909909" xlink:href="#m3619702250" y="193.778301"/>
     <use style="fill:#00fffd;stroke:#00fffd;" x="355.198591" xlink:href="#m3619702250" y="168.542444"/>
     <use style="fill:#00fffd;stroke:#00fffd;" x="398.487273" xlink:href="#m3619702250" y="138.43694"/>
    </g>
   </g>
   <g id="line2d_21">
    <path clip-path="url(#p527280089b)" d="M 73.832727 295.487886 
L 73.843296 295.486732 
L 73.864433 295.484487 
L 73.906707 295.479315 
L 73.991255 295.468729 
L 74.160352 295.443802 
L 74.498544 295.389845 
L 75.17493 295.267374 
L 76.527701 294.986464 
L 79.233244 294.365639 
L 84.644329 292.906074 
L 95.4665 289.666424 
L 138.755182 272.919926 
L 182.043863 255.685233 
L 225.332545 234.786935 
L 268.621227 216.265906 
L 311.909909 194.118139 
L 355.198591 173.395652 
L 398.487273 150.579753 
" style="fill:none;stroke:#008fff;stroke-dasharray:5.55,2.4;stroke-dashoffset:0;stroke-width:1.5;"/>
    <defs>
     <path d="M 0 3 
C 0.795609 3 1.55874 2.683901 2.12132 2.12132 
C 2.683901 1.55874 3 0.795609 3 0 
C 3 -0.795609 2.683901 -1.55874 2.12132 -2.12132 
C 1.55874 -2.683901 0.795609 -3 0 -3 
C -0.795609 -3 -1.55874 -2.683901 -2.12132 -2.12132 
C -2.683901 -1.55874 -3 -0.795609 -3 0 
C -3 0.795609 -2.683901 1.55874 -2.12132 2.12132 
C -1.55874 2.683901 -0.795609 3 0 3 
z
" id="m8e28da61d0" style="stroke:#008fff;"/>
    </defs>
    <g clip-path="url(#p527280089b)">
     <use style="fill:#008fff;stroke:#008fff;" x="73.832727" xlink:href="#m8e28da61d0" y="295.487886"/>
     <use style="fill:#008fff;stroke:#008fff;" x="73.843296" xlink:href="#m8e28da61d0" y="295.486732"/>
     <use style="fill:#008fff;stroke:#008fff;" x="73.864433" xlink:href="#m8e28da61d0" y="295.484487"/>
     <use style="fill:#008fff;stroke:#008fff;" x="73.906707" xlink:href="#m8e28da61d0" y="295.479315"/>
     <use style="fill:#008fff;stroke:#008fff;" x="73.991255" xlink:href="#m8e28da61d0" y="295.468729"/>
     <use style="fill:#008fff;stroke:#008fff;" x="74.160352" xlink:href="#m8e28da61d0" y="295.443802"/>
     <use style="fill:#008fff;stroke:#008fff;" x="74.498544" xlink:href="#m8e28da61d0" y="295.389845"/>
     <use style="fill:#008fff;stroke:#008fff;" x="75.17493" xlink:href="#m8e28da61d0" y="295.267374"/>
     <use style="fill:#008fff;stroke:#008fff;" x="76.527701" xlink:href="#m8e28da61d0" y="294.986464"/>
     <use style="fill:#008fff;stroke:#008fff;" x="79.233244" xlink:href="#m8e28da61d0" y="294.365639"/>
     <use style="fill:#008fff;stroke:#008fff;" x="84.644329" xlink:href="#m8e28da61d0" y="292.906074"/>
     <use style="fill:#008fff;stroke:#008fff;" x="95.4665" xlink:href="#m8e28da61d0" y="289.666424"/>
     <use style="fill:#008fff;stroke:#008fff;" x="138.755182" xlink:href="#m8e28da61d0" y="272.919926"/>
     <use style="fill:#008fff;stroke:#008fff;" x="182.043863" xlink:href="#m8e28da61d0" y="255.685233"/>
     <use style="fill:#008fff;stroke:#008fff;" x="225.332545" xlink:href="#m8e28da61d0" y="234.786935"/>
     <use style="fill:#008fff;stroke:#008fff;" x="268.621227" xlink:href="#m8e28da61d0" y="216.265906"/>
     <use style="fill:#008fff;stroke:#008fff;" x="311.909909" xlink:href="#m8e28da61d0" y="194.118139"/>
     <use style="fill:#008fff;stroke:#008fff;" x="355.198591" xlink:href="#m8e28da61d0" y="173.395652"/>
     <use style="fill:#008fff;stroke:#008fff;" x="398.487273" xlink:href="#m8e28da61d0" y="150.579753"/>
    </g>
   </g>
   <g id="line2d_22">
    <path clip-path="url(#p527280089b)" d="M 73.832727 295.487921 
L 73.843296 295.486901 
L 73.864433 295.484533 
L 73.906707 295.478629 
L 73.991255 295.464641 
L 74.160352 295.431635 
L 74.498544 295.360132 
L 75.17493 295.17524 
L 76.527701 294.772414 
L 79.233244 293.832101 
L 84.644329 291.695199 
L 95.4665 286.805831 
L 138.755182 262.497947 
L 182.043863 236.570169 
L 225.332545 208.588707 
L 268.621227 181.761173 
L 311.909909 150.233066 
L 355.198591 118.228211 
L 398.487273 85.060491 
" style="fill:none;stroke:#0018ff;stroke-dasharray:1.5,2.475;stroke-dashoffset:0;stroke-width:1.5;"/>
    <defs>
     <path d="M 0 3 
C 0.795609 3 1.55874 2.683901 2.12132 2.12132 
C 2.683901 1.55874 3 0.795609 3 0 
C 3 -0.795609 2.683901 -1.55874 2.12132 -2.12132 
C 1.55874 -2.683901 0.795609 -3 0 -3 
C -0.795609 -3 -1.55874 -2.683901 -2.12132 -2.12132 
C -2.683901 -1.55874 -3 -0.795609 -3 0 
C -3 0.795609 -2.683901 1.55874 -2.12132 2.12132 
C -1.55874 2.683901 -0.795609 3 0 3 
z
" id="m1e0f669890" style="stroke:#0018ff;"/>
    </defs>
    <g clip-path="url(#p527280089b)">
     <use style="fill:#0018ff;stroke:#0018ff;" x="73.832727" xlink:href="#m1e0f669890" y="295.487921"/>
     <use style="fill:#0018ff;stroke:#0018ff;" x="73.843296" xlink:href="#m1e0f669890" y="295.486901"/>
     <use style="fill:#0018ff;stroke:#0018ff;" x="73.864433" xlink:href="#m1e0f669890" y="295.484533"/>
     <use style="fill:#0018ff;stroke:#0018ff;" x="73.906707" xlink:href="#m1e0f669890" y="295.478629"/>
     <use style="fill:#0018ff;stroke:#0018ff;" x="73.991255" xlink:href="#m1e0f669890" y="295.464641"/>
     <use style="fill:#0018ff;stroke:#0018ff;" x="74.160352" xlink:href="#m1e0f669890" y="295.431635"/>
     <use style="fill:#0018ff;stroke:#0018ff;" x="74.498544" xlink:href="#m1e0f669890" y="295.360132"/>
     <use style="fill:#0018ff;stroke:#0018ff;" x="75.17493" xlink:href="#m1e0f669890" y="295.17524"/>
     <use style="fill:#0018ff;stroke:#0018ff;" x="76.527701" xlink:href="#m1e0f669890" y="294.772414"/>
     <use style="fill:#0018ff;stroke:#0018ff;" x="79.233244" xlink:href="#m1e0f669890" y="293.832101"/>
     <use style="fill:#0018ff;stroke:#0018ff;" x="84.644329" xlink:href="#m1e0f669890" y="291.695199"/>
     <use style="fill:#0018ff;stroke:#0018ff;" x="95.4665" xlink:href="#m1e0f669890" y="286.805831"/>
     <use style="fill:#0018ff;stroke:#0018ff;" x="138.755182" xlink:href="#m1e0f669890" y="262.497947"/>
     <use style="fill:#0018ff;stroke:#0018ff;" x="182.043863" xlink:href="#m1e0f669890" y="236.570169"/>
     <use style="fill:#0018ff;stroke:#0018ff;" x="225.332545" xlink:href="#m1e0f669890" y="208.588707"/>
     <use style="fill:#0018ff;stroke:#0018ff;" x="268.621227" xlink:href="#m1e0f669890" y="181.761173"/>
     <use style="fill:#0018ff;stroke:#0018ff;" x="311.909909" xlink:href="#m1e0f669890" y="150.233066"/>
     <use style="fill:#0018ff;stroke:#0018ff;" x="355.198591" xlink:href="#m1e0f669890" y="118.228211"/>
     <use style="fill:#0018ff;stroke:#0018ff;" x="398.487273" xlink:href="#m1e0f669890" y="85.060491"/>
    </g>
   </g>
   <g id="line2d_23">
    <path clip-path="url(#p527280089b)" d="M 73.832727 295.487962 
L 73.843296 295.487251 
L 73.864433 295.486293 
L 73.906707 295.484114 
L 73.991255 295.479443 
L 74.160352 295.470144 
L 74.498544 295.451785 
L 75.17493 295.413019 
L 76.527701 295.334384 
L 79.233244 295.151789 
L 84.644329 294.768448 
L 95.4665 294.005541 
L 138.755182 290.632064 
L 182.043863 287.083354 
L 225.332545 283.34856 
L 268.621227 279.768094 
L 311.909909 276.293549 
L 355.198591 272.602959 
L 398.487273 269.58073 
" style="fill:none;stroke:#5a00ff;stroke-dasharray:5.55,2.4;stroke-dashoffset:0;stroke-width:1.5;"/>
    <defs>
     <path d="M 0 3 
C 0.795609 3 1.55874 2.683901 2.12132 2.12132 
C 2.683901 1.55874 3 0.795609 3 0 
C 3 -0.795609 2.683901 -1.55874 2.12132 -2.12132 
C 1.55874 -2.683901 0.795609 -3 0 -3 
C -0.795609 -3 -1.55874 -2.683901 -2.12132 -2.12132 
C -2.683901 -1.55874 -3 -0.795609 -3 0 
C -3 0.795609 -2.683901 1.55874 -2.12132 2.12132 
C -1.55874 2.683901 -0.795609 3 0 3 
z
" id="m993d35c85f" style="stroke:#5a00ff;"/>
    </defs>
    <g clip-path="url(#p527280089b)">
     <use style="fill:#5a00ff;stroke:#5a00ff;" x="73.832727" xlink:href="#m993d35c85f" y="295.487962"/>
     <use style="fill:#5a00ff;stroke:#5a00ff;" x="73.843296" xlink:href="#m993d35c85f" y="295.487251"/>
     <use style="fill:#5a00ff;stroke:#5a00ff;" x="73.864433" xlink:href="#m993d35c85f" y="295.486293"/>
     <use style="fill:#5a00ff;stroke:#5a00ff;" x="73.906707" xlink:href="#m993d35c85f" y="295.484114"/>
     <use style="fill:#5a00ff;stroke:#5a00ff;" x="73.991255" xlink:href="#m993d35c85f" y="295.479443"/>
     <use style="fill:#5a00ff;stroke:#5a00ff;" x="74.160352" xlink:href="#m993d35c85f" y="295.470144"/>
     <use style="fill:#5a00ff;stroke:#5a00ff;" x="74.498544" xlink:href="#m993d35c85f" y="295.451785"/>
     <use style="fill:#5a00ff;stroke:#5a00ff;" x="75.17493" xlink:href="#m993d35c85f" y="295.413019"/>
     <use style="fill:#5a00ff;stroke:#5a00ff;" x="76.527701" xlink:href="#m993d35c85f" y="295.334384"/>
     <use style="fill:#5a00ff;stroke:#5a00ff;" x="79.233244" xlink:href="#m993d35c85f" y="295.151789"/>
     <use style="fill:#5a00ff;stroke:#5a00ff;" x="84.644329" xlink:href="#m993d35c85f" y="294.768448"/>
     <use style="fill:#5a00ff;stroke:#5a00ff;" x="95.4665" xlink:href="#m993d35c85f" y="294.005541"/>
     <use style="fill:#5a00ff;stroke:#5a00ff;" x="138.755182" xlink:href="#m993d35c85f" y="290.632064"/>
     <use style="fill:#5a00ff;stroke:#5a00ff;" x="182.043863" xlink:href="#m993d35c85f" y="287.083354"/>
     <use style="fill:#5a00ff;stroke:#5a00ff;" x="225.332545" xlink:href="#m993d35c85f" y="283.34856"/>
     <use style="fill:#5a00ff;stroke:#5a00ff;" x="268.621227" xlink:href="#m993d35c85f" y="279.768094"/>
     <use style="fill:#5a00ff;stroke:#5a00ff;" x="311.909909" xlink:href="#m993d35c85f" y="276.293549"/>
     <use style="fill:#5a00ff;stroke:#5a00ff;" x="355.198591" xlink:href="#m993d35c85f" y="272.602959"/>
     <use style="fill:#5a00ff;stroke:#5a00ff;" x="398.487273" xlink:href="#m993d35c85f" y="269.58073"/>
    </g>
   </g>
   <g id="line2d_24">
    <path clip-path="url(#p527280089b)" d="M 73.832727 295.487884 
L 73.843296 295.486879 
L 73.864433 295.484787 
L 73.906707 295.479936 
L 73.991255 295.46902 
L 74.160352 295.444994 
L 74.498544 295.388888 
L 75.17493 295.270868 
L 76.527701 295.023138 
L 79.233244 294.4326 
L 84.644329 293.036732 
L 95.4665 290.099106 
L 138.755182 275.518951 
L 182.043863 259.944048 
L 225.332545 241.297291 
L 268.621227 221.196665 
L 311.909909 197.050997 
L 355.198591 169.980777 
L 398.487273 144.54182 
" style="fill:none;stroke:#cd00ff;stroke-dasharray:1.5,2.475;stroke-dashoffset:0;stroke-width:1.5;"/>
    <defs>
     <path d="M 0 3 
C 0.795609 3 1.55874 2.683901 2.12132 2.12132 
C 2.683901 1.55874 3 0.795609 3 0 
C 3 -0.795609 2.683901 -1.55874 2.12132 -2.12132 
C 1.55874 -2.683901 0.795609 -3 0 -3 
C -0.795609 -3 -1.55874 -2.683901 -2.12132 -2.12132 
C -2.683901 -1.55874 -3 -0.795609 -3 0 
C -3 0.795609 -2.683901 1.55874 -2.12132 2.12132 
C -1.55874 2.683901 -0.795609 3 0 3 
z
" id="me5a8b8eb04" style="stroke:#cd00ff;"/>
    </defs>
    <g clip-path="url(#p527280089b)">
     <use style="fill:#cd00ff;stroke:#cd00ff;" x="73.832727" xlink:href="#me5a8b8eb04" y="295.487884"/>
     <use style="fill:#cd00ff;stroke:#cd00ff;" x="73.843296" xlink:href="#me5a8b8eb04" y="295.486879"/>
     <use style="fill:#cd00ff;stroke:#cd00ff;" x="73.864433" xlink:href="#me5a8b8eb04" y="295.484787"/>
     <use style="fill:#cd00ff;stroke:#cd00ff;" x="73.906707" xlink:href="#me5a8b8eb04" y="295.479936"/>
     <use style="fill:#cd00ff;stroke:#cd00ff;" x="73.991255" xlink:href="#me5a8b8eb04" y="295.46902"/>
     <use style="fill:#cd00ff;stroke:#cd00ff;" x="74.160352" xlink:href="#me5a8b8eb04" y="295.444994"/>
     <use style="fill:#cd00ff;stroke:#cd00ff;" x="74.498544" xlink:href="#me5a8b8eb04" y="295.388888"/>
     <use style="fill:#cd00ff;stroke:#cd00ff;" x="75.17493" xlink:href="#me5a8b8eb04" y="295.270868"/>
     <use style="fill:#cd00ff;stroke:#cd00ff;" x="76.527701" xlink:href="#me5a8b8eb04" y="295.023138"/>
     <use style="fill:#cd00ff;stroke:#cd00ff;" x="79.233244" xlink:href="#me5a8b8eb04" y="294.4326"/>
     <use style="fill:#cd00ff;stroke:#cd00ff;" x="84.644329" xlink:href="#me5a8b8eb04" y="293.036732"/>
     <use style="fill:#cd00ff;stroke:#cd00ff;" x="95.4665" xlink:href="#me5a8b8eb04" y="290.099106"/>
     <use style="fill:#cd00ff;stroke:#cd00ff;" x="138.755182" xlink:href="#me5a8b8eb04" y="275.518951"/>
     <use style="fill:#cd00ff;stroke:#cd00ff;" x="182.043863" xlink:href="#me5a8b8eb04" y="259.944048"/>
     <use style="fill:#cd00ff;stroke:#cd00ff;" x="225.332545" xlink:href="#me5a8b8eb04" y="241.297291"/>
     <use style="fill:#cd00ff;stroke:#cd00ff;" x="268.621227" xlink:href="#me5a8b8eb04" y="221.196665"/>
     <use style="fill:#cd00ff;stroke:#cd00ff;" x="311.909909" xlink:href="#me5a8b8eb04" y="197.050997"/>
     <use style="fill:#cd00ff;stroke:#cd00ff;" x="355.198591" xlink:href="#me5a8b8eb04" y="169.980777"/>
     <use style="fill:#cd00ff;stroke:#cd00ff;" x="398.487273" xlink:href="#me5a8b8eb04" y="144.54182"/>
    </g>
   </g>
   <g id="patch_3">
    <path d="M 57.6 307.584 
L 57.6 41.472 
" style="fill:none;stroke:#000000;stroke-linecap:square;stroke-linejoin:miter;stroke-width:0.8;"/>
   </g>
   <g id="patch_4">
    <path d="M 414.72 307.584 
L 414.72 41.472 
" style="fill:none;stroke:#000000;stroke-linecap:square;stroke-linejoin:miter;stroke-width:0.8;"/>
   </g>
   <g id="patch_5">
    <path d="M 57.6 307.584 
L 414.72 307.584 
" style="fill:none;stroke:#000000;stroke-linecap:square;stroke-linejoin:miter;stroke-width:0.8;"/>
   </g>
   <g id="patch_6">
    <path d="M 57.6 41.472 
L 414.72 41.472 
" style="fill:none;stroke:#000000;stroke-linecap:square;stroke-linejoin:miter;stroke-width:0.8;"/>
   </g>
   <g id="text_16">
    <!-- map Remove -->
    <defs>
     <path d="M 34.28125 27.484375 
Q 23.390625 27.484375 19.1875 25 
Q 14.984375 22.515625 14.984375 16.5 
Q 14.984375 11.71875 18.140625 8.90625 
Q 21.296875 6.109375 26.703125 6.109375 
Q 34.1875 6.109375 38.703125 11.40625 
Q 43.21875 16.703125 43.21875 25.484375 
L 43.21875 27.484375 
z
M 52.203125 31.203125 
L 52.203125 0 
L 43.21875 0 
L 43.21875 8.296875 
Q 40.140625 3.328125 35.546875 0.953125 
Q 30.953125 -1.421875 24.3125 -1.421875 
Q 15.921875 -1.421875 10.953125 3.296875 
Q 6 8.015625 6 15.921875 
Q 6 25.140625 12.171875 29.828125 
Q 18.359375 34.515625 30.609375 34.515625 
L 43.21875 34.515625 
L 43.21875 35.40625 
Q 43.21875 41.609375 39.140625 45 
Q 35.0625 48.390625 27.6875 48.390625 
Q 23 48.390625 18.546875 47.265625 
Q 14.109375 46.140625 10.015625 43.890625 
L 10.015625 52.203125 
Q 14.9375 54.109375 19.578125 55.046875 
Q 24.21875 56 28.609375 56 
Q 40.484375 56 46.34375 49.84375 
Q 52.203125 43.703125 52.203125 31.203125 
z
" id="DejaVuSans-97"/>
     <path d="M 18.109375 8.203125 
L 18.109375 -20.796875 
L 9.078125 -20.796875 
L 9.078125 54.6875 
L 18.109375 54.6875 
L 18.109375 46.390625 
Q 20.953125 51.265625 25.265625 53.625 
Q 29.59375 56 35.59375 56 
Q 45.5625 56 51.78125 48.09375 
Q 58.015625 40.1875 58.015625 27.296875 
Q 58.015625 14.40625 51.78125 6.484375 
Q 45.5625 -1.421875 35.59375 -1.421875 
Q 29.59375 -1.421875 25.265625 0.953125 
Q 20.953125 3.328125 18.109375 8.203125 
z
M 48.6875 27.296875 
Q 48.6875 37.203125 44.609375 42.84375 
Q 40.53125 48.484375 33.40625 48.484375 
Q 26.265625 48.484375 22.1875 42.84375 
Q 18.109375 37.203125 18.109375 27.296875 
Q 18.109375 17.390625 22.1875 11.75 
Q 26.265625 6.109375 33.40625 6.109375 
Q 40.53125 6.109375 44.609375 11.75 
Q 48.6875 17.390625 48.6875 27.296875 
z
" id="DejaVuSans-112"/>
     <path d="M 44.390625 34.1875 
Q 47.5625 33.109375 50.5625 29.59375 
Q 53.5625 26.078125 56.59375 19.921875 
L 66.609375 0 
L 56 0 
L 46.6875 18.703125 
Q 43.0625 26.03125 39.671875 28.421875 
Q 36.28125 30.8125 30.421875 30.8125 
L 19.671875 30.8125 
L 19.671875 0 
L 9.8125 0 
L 9.8125 72.90625 
L 32.078125 72.90625 
Q 44.578125 72.90625 50.734375 67.671875 
Q 56.890625 62.453125 56.890625 51.90625 
Q 56.890625 45.015625 53.6875 40.46875 
Q 50.484375 35.9375 44.390625 34.1875 
z
M 19.671875 64.796875 
L 19.671875 38.921875 
L 32.078125 38.921875 
Q 39.203125 38.921875 42.84375 42.21875 
Q 46.484375 45.515625 46.484375 51.90625 
Q 46.484375 58.296875 42.84375 61.546875 
Q 39.203125 64.796875 32.078125 64.796875 
z
" id="DejaVuSans-82"/>
     <path d="M 30.609375 48.390625 
Q 23.390625 48.390625 19.1875 42.75 
Q 14.984375 37.109375 14.984375 27.296875 
Q 14.984375 17.484375 19.15625 11.84375 
Q 23.34375 6.203125 30.609375 6.203125 
Q 37.796875 6.203125 41.984375 11.859375 
Q 46.1875 17.53125 46.1875 27.296875 
Q 46.1875 37.015625 41.984375 42.703125 
Q 37.796875 48.390625 30.609375 48.390625 
z
M 30.609375 56 
Q 42.328125 56 49.015625 48.375 
Q 55.71875 40.765625 55.71875 27.296875 
Q 55.71875 13.875 49.015625 6.21875 
Q 42.328125 -1.421875 30.609375 -1.421875 
Q 18.84375 -1.421875 12.171875 6.21875 
Q 5.515625 13.875 5.515625 27.296875 
Q 5.515625 40.765625 12.171875 48.375 
Q 18.84375 56 30.609375 56 
z
" id="DejaVuSans-111"/>
     <path d="M 2.984375 54.6875 
L 12.5 54.6875 
L 29.59375 8.796875 
L 46.6875 54.6875 
L 56.203125 54.6875 
L 35.6875 0 
L 23.484375 0 
z
" id="DejaVuSans-118"/>
    </defs>
    <g transform="translate(196.306875 35.472)scale(0.12 -0.12)">
     <use xlink:href="#DejaVuSans-109"/>
     <use x="97.412109" xlink:href="#DejaVuSans-97"/>
     <use x="158.691406" xlink:href="#DejaVuSans-112"/>
     <use x="222.167969" xlink:href="#DejaVuSans-32"/>
     <use x="253.955078" xlink:href="#DejaVuSans-82"/>
     <use x="323.375" xlink:href="#DejaVuSans-101"/>
     <use x="384.898438" xlink:href="#DejaVuSans-109"/>
     <use x="482.310547" xlink:href="#DejaVuSans-111"/>
     <use x="543.492188" xlink:href="#DejaVuSans-118"/>
     <use x="602.671875" xlink:href="#DejaVuSans-101"/>
    </g>
   </g>
   <g id="legend_1">
    <g id="patch_7">
     <path d="M 64.6 226.722 
L 299.979688 226.722 
Q 301.979688 226.722 301.979688 224.722 
L 301.979688 48.472 
Q 301.979688 46.472 299.979688 46.472 
L 64.6 46.472 
Q 62.6 46.472 62.6 48.472 
L 62.6 224.722 
Q 62.6 226.722 64.6 226.722 
z
" style="fill:#ffffff;opacity:0.8;stroke:#cccccc;stroke-linejoin:miter;"/>
    </g>
    <g id="line2d_25">
     <path d="M 66.6 54.570437 
L 86.6 54.570437 
" style="fill:none;stroke:#ff0029;stroke-dasharray:5.55,2.4;stroke-dashoffset:0;stroke-width:1.5;"/>
    </g>
    <g id="line2d_26">
     <g>
      <use style="fill:#ff0029;stroke:#ff0029;" x="76.6" xlink:href="#m177ad4cdac" y="54.570437"/>
     </g>
    </g>
    <g id="text_17">
     <!-- Cpp&lt;std::map&lt;int, void *&gt;&gt; -->
     <defs>
      <path d="M 64.40625 67.28125 
L 64.40625 56.890625 
Q 59.421875 61.53125 53.78125 63.8125 
Q 48.140625 66.109375 41.796875 66.109375 
Q 29.296875 66.109375 22.65625 58.46875 
Q 16.015625 50.828125 16.015625 36.375 
Q 16.015625 21.96875 22.65625 14.328125 
Q 29.296875 6.6875 41.796875 6.6875 
Q 48.140625 6.6875 53.78125 8.984375 
Q 59.421875 11.28125 64.40625 15.921875 
L 64.40625 5.609375 
Q 59.234375 2.09375 53.4375 0.328125 
Q 47.65625 -1.421875 41.21875 -1.421875 
Q 24.65625 -1.421875 15.125 8.703125 
Q 5.609375 18.84375 5.609375 36.375 
Q 5.609375 53.953125 15.125 64.078125 
Q 24.65625 74.21875 41.21875 74.21875 
Q 47.75 74.21875 53.53125 72.484375 
Q 59.328125 70.75 64.40625 67.28125 
z
" id="DejaVuSans-67"/>
      <path d="M 73.1875 49.21875 
L 22.796875 31.296875 
L 73.1875 13.484375 
L 73.1875 4.59375 
L 10.59375 27.296875 
L 10.59375 35.40625 
L 73.1875 58.109375 
z
" id="DejaVuSans-60"/>
      <path d="M 18.3125 70.21875 
L 18.3125 54.6875 
L 36.8125 54.6875 
L 36.8125 47.703125 
L 18.3125 47.703125 
L 18.3125 18.015625 
Q 18.3125 11.328125 20.140625 9.421875 
Q 21.96875 7.515625 27.59375 7.515625 
L 36.8125 7.515625 
L 36.8125 0 
L 27.59375 0 
Q 17.1875 0 13.234375 3.875 
Q 9.28125 7.765625 9.28125 18.015625 
L 9.28125 47.703125 
L 2.6875 47.703125 
L 2.6875 54.6875 
L 9.28125 54.6875 
L 9.28125 70.21875 
z
" id="DejaVuSans-116"/>
      <path d="M 45.40625 46.390625 
L 45.40625 75.984375 
L 54.390625 75.984375 
L 54.390625 0 
L 45.40625 0 
L 45.40625 8.203125 
Q 42.578125 3.328125 38.25 0.953125 
Q 33.9375 -1.421875 27.875 -1.421875 
Q 17.96875 -1.421875 11.734375 6.484375 
Q 5.515625 14.40625 5.515625 27.296875 
Q 5.515625 40.1875 11.734375 48.09375 
Q 17.96875 56 27.875 56 
Q 33.9375 56 38.25 53.625 
Q 42.578125 51.265625 45.40625 46.390625 
z
M 14.796875 27.296875 
Q 14.796875 17.390625 18.875 11.75 
Q 22.953125 6.109375 30.078125 6.109375 
Q 37.203125 6.109375 41.296875 11.75 
Q 45.40625 17.390625 45.40625 27.296875 
Q 45.40625 37.203125 41.296875 42.84375 
Q 37.203125 48.484375 30.078125 48.484375 
Q 22.953125 48.484375 18.875 42.84375 
Q 14.796875 37.203125 14.796875 27.296875 
z
" id="DejaVuSans-100"/>
      <path d="M 11.71875 12.40625 
L 22.015625 12.40625 
L 22.015625 0 
L 11.71875 0 
z
M 11.71875 51.703125 
L 22.015625 51.703125 
L 22.015625 39.3125 
L 11.71875 39.3125 
z
" id="DejaVuSans-58"/>
      <path d="M 11.71875 12.40625 
L 22.015625 12.40625 
L 22.015625 4 
L 14.015625 -11.625 
L 7.71875 -11.625 
L 11.71875 4 
z
" id="DejaVuSans-44"/>
      <path d="M 47.015625 60.890625 
L 29.5 51.421875 
L 47.015625 41.890625 
L 44.1875 37.109375 
L 27.78125 47.015625 
L 27.78125 28.609375 
L 22.21875 28.609375 
L 22.21875 47.015625 
L 5.8125 37.109375 
L 2.984375 41.890625 
L 20.515625 51.421875 
L 2.984375 60.890625 
L 5.8125 65.71875 
L 22.21875 55.8125 
L 22.21875 74.21875 
L 27.78125 74.21875 
L 27.78125 55.8125 
L 44.1875 65.71875 
z
" id="DejaVuSans-42"/>
      <path d="M 10.59375 49.21875 
L 10.59375 58.109375 
L 73.1875 35.40625 
L 73.1875 27.296875 
L 10.59375 4.59375 
L 10.59375 13.484375 
L 60.890625 31.296875 
z
" id="DejaVuSans-62"/>
     </defs>
     <g transform="translate(94.6 58.070437)scale(0.1 -0.1)">
      <use xlink:href="#DejaVuSans-67"/>
      <use x="69.824219" xlink:href="#DejaVuSans-112"/>
      <use x="133.300781" xlink:href="#DejaVuSans-112"/>
      <use x="196.777344" xlink:href="#DejaVuSans-60"/>
      <use x="280.566406" xlink:href="#DejaVuSans-115"/>
      <use x="332.666016" xlink:href="#DejaVuSans-116"/>
      <use x="371.875" xlink:href="#DejaVuSans-100"/>
      <use x="435.351562" xlink:href="#DejaVuSans-58"/>
      <use x="469.042969" xlink:href="#DejaVuSans-58"/>
      <use x="502.734375" xlink:href="#DejaVuSans-109"/>
      <use x="600.146484" xlink:href="#DejaVuSans-97"/>
      <use x="661.425781" xlink:href="#DejaVuSans-112"/>
      <use x="724.902344" xlink:href="#DejaVuSans-60"/>
      <use x="808.691406" xlink:href="#DejaVuSans-105"/>
      <use x="836.474609" xlink:href="#DejaVuSans-110"/>
      <use x="899.853516" xlink:href="#DejaVuSans-116"/>
      <use x="939.0625" xlink:href="#DejaVuSans-44"/>
      <use x="970.849609" xlink:href="#DejaVuSans-32"/>
      <use x="1002.636719" xlink:href="#DejaVuSans-118"/>
      <use x="1061.816406" xlink:href="#DejaVuSans-111"/>
      <use x="1122.998047" xlink:href="#DejaVuSans-105"/>
      <use x="1150.78125" xlink:href="#DejaVuSans-100"/>
      <use x="1214.257812" xlink:href="#DejaVuSans-32"/>
      <use x="1246.044922" xlink:href="#DejaVuSans-42"/>
      <use x="1296.044922" xlink:href="#DejaVuSans-62"/>
      <use x="1379.833984" xlink:href="#DejaVuSans-62"/>
     </g>
    </g>
    <g id="line2d_27">
     <path d="M 66.6 69.248562 
L 86.6 69.248562 
" style="fill:none;stroke:#ff4800;stroke-dasharray:1.5,2.475;stroke-dashoffset:0;stroke-width:1.5;"/>
    </g>
    <g id="line2d_28">
     <g>
      <use style="fill:#ff4800;stroke:#ff4800;" x="76.6" xlink:href="#m1703fef4fc" y="69.248562"/>
     </g>
    </g>
    <g id="text_18">
     <!-- Cpp&lt;std::unordered_map&lt;int, void *&gt;&gt; -->
     <defs>
      <path d="M 8.5 21.578125 
L 8.5 54.6875 
L 17.484375 54.6875 
L 17.484375 21.921875 
Q 17.484375 14.15625 20.5 10.265625 
Q 23.53125 6.390625 29.59375 6.390625 
Q 36.859375 6.390625 41.078125 11.03125 
Q 45.3125 15.671875 45.3125 23.6875 
L 45.3125 54.6875 
L 54.296875 54.6875 
L 54.296875 0 
L 45.3125 0 
L 45.3125 8.40625 
Q 42.046875 3.421875 37.71875 1 
Q 33.40625 -1.421875 27.6875 -1.421875 
Q 18.265625 -1.421875 13.375 4.4375 
Q 8.5 10.296875 8.5 21.578125 
z
M 31.109375 56 
z
" id="DejaVuSans-117"/>
      <path d="M 41.109375 46.296875 
Q 39.59375 47.171875 37.8125 47.578125 
Q 36.03125 48 33.890625 48 
Q 26.265625 48 22.1875 43.046875 
Q 18.109375 38.09375 18.109375 28.8125 
L 18.109375 0 
L 9.078125 0 
L 9.078125 54.6875 
L 18.109375 54.6875 
L 18.109375 46.1875 
Q 20.953125 51.171875 25.484375 53.578125 
Q 30.03125 56 36.53125 56 
Q 37.453125 56 38.578125 55.875 
Q 39.703125 55.765625 41.0625 55.515625 
z
" id="DejaVuSans-114"/>
      <path d="M 50.984375 -16.609375 
L 50.984375 -23.578125 
L -0.984375 -23.578125 
L -0.984375 -16.609375 
z
" id="DejaVuSans-95"/>
     </defs>
     <g transform="translate(94.6 72.748562)scale(0.1 -0.1)">
      <use xlink:href="#DejaVuSans-67"/>
      <use x="69.824219" xlink:href="#DejaVuSans-112"/>
      <use x="133.300781" xlink:href="#DejaVuSans-112"/>
      <use x="196.777344" xlink:href="#DejaVuSans-60"/>
      <use x="280.566406" xlink:href="#DejaVuSans-115"/>
      <use x="332.666016" xlink:href="#DejaVuSans-116"/>
      <use x="371.875" xlink:href="#DejaVuSans-100"/>
      <use x="435.351562" xlink:href="#DejaVuSans-58"/>
      <use x="469.042969" xlink:href="#DejaVuSans-58"/>
      <use x="502.734375" xlink:href="#DejaVuSans-117"/>
      <use x="566.113281" xlink:href="#DejaVuSans-110"/>
      <use x="629.492188" xlink:href="#DejaVuSans-111"/>
      <use x="690.673828" xlink:href="#DejaVuSans-114"/>
      <use x="731.771484" xlink:href="#DejaVuSans-100"/>
      <use x="795.248047" xlink:href="#DejaVuSans-101"/>
      <use x="856.771484" xlink:href="#DejaVuSans-114"/>
      <use x="897.853516" xlink:href="#DejaVuSans-101"/>
      <use x="959.376953" xlink:href="#DejaVuSans-100"/>
      <use x="1022.853516" xlink:href="#DejaVuSans-95"/>
      <use x="1072.853516" xlink:href="#DejaVuSans-109"/>
      <use x="1170.265625" xlink:href="#DejaVuSans-97"/>
      <use x="1231.544922" xlink:href="#DejaVuSans-112"/>
      <use x="1295.021484" xlink:href="#DejaVuSans-60"/>
      <use x="1378.810547" xlink:href="#DejaVuSans-105"/>
      <use x="1406.59375" xlink:href="#DejaVuSans-110"/>
      <use x="1469.972656" xlink:href="#DejaVuSans-116"/>
      <use x="1509.181641" xlink:href="#DejaVuSans-44"/>
      <use x="1540.96875" xlink:href="#DejaVuSans-32"/>
      <use x="1572.755859" xlink:href="#DejaVuSans-118"/>
      <use x="1631.935547" xlink:href="#DejaVuSans-111"/>
      <use x="1693.117188" xlink:href="#DejaVuSans-105"/>
      <use x="1720.900391" xlink:href="#DejaVuSans-100"/>
      <use x="1784.376953" xlink:href="#DejaVuSans-32"/>
      <use x="1816.164062" xlink:href="#DejaVuSans-42"/>
      <use x="1866.164062" xlink:href="#DejaVuSans-62"/>
      <use x="1949.953125" xlink:href="#DejaVuSans-62"/>
     </g>
    </g>
    <g id="line2d_29">
     <path d="M 66.6 84.204812 
L 86.6 84.204812 
" style="fill:none;stroke:#ffba00;stroke-dasharray:5.55,2.4;stroke-dashoffset:0;stroke-width:1.5;"/>
    </g>
    <g id="line2d_30">
     <g>
      <use style="fill:#ffba00;stroke:#ffba00;" x="76.6" xlink:href="#m45f27668e5" y="84.204812"/>
     </g>
    </g>
    <g id="text_19">
     <!-- CcHashTable -->
     <defs>
      <path d="M 48.78125 52.59375 
L 48.78125 44.1875 
Q 44.96875 46.296875 41.140625 47.34375 
Q 37.3125 48.390625 33.40625 48.390625 
Q 24.65625 48.390625 19.8125 42.84375 
Q 14.984375 37.3125 14.984375 27.296875 
Q 14.984375 17.28125 19.8125 11.734375 
Q 24.65625 6.203125 33.40625 6.203125 
Q 37.3125 6.203125 41.140625 7.25 
Q 44.96875 8.296875 48.78125 10.40625 
L 48.78125 2.09375 
Q 45.015625 0.34375 40.984375 -0.53125 
Q 36.96875 -1.421875 32.421875 -1.421875 
Q 20.0625 -1.421875 12.78125 6.34375 
Q 5.515625 14.109375 5.515625 27.296875 
Q 5.515625 40.671875 12.859375 48.328125 
Q 20.21875 56 33.015625 56 
Q 37.15625 56 41.109375 55.140625 
Q 45.0625 54.296875 48.78125 52.59375 
z
" id="DejaVuSans-99"/>
      <path d="M 9.8125 72.90625 
L 19.671875 72.90625 
L 19.671875 43.015625 
L 55.515625 43.015625 
L 55.515625 72.90625 
L 65.375 72.90625 
L 65.375 0 
L 55.515625 0 
L 55.515625 34.71875 
L 19.671875 34.71875 
L 19.671875 0 
L 9.8125 0 
z
" id="DejaVuSans-72"/>
      <path d="M 54.890625 33.015625 
L 54.890625 0 
L 45.90625 0 
L 45.90625 32.71875 
Q 45.90625 40.484375 42.875 44.328125 
Q 39.84375 48.1875 33.796875 48.1875 
Q 26.515625 48.1875 22.3125 43.546875 
Q 18.109375 38.921875 18.109375 30.90625 
L 18.109375 0 
L 9.078125 0 
L 9.078125 75.984375 
L 18.109375 75.984375 
L 18.109375 46.1875 
Q 21.34375 51.125 25.703125 53.5625 
Q 30.078125 56 35.796875 56 
Q 45.21875 56 50.046875 50.171875 
Q 54.890625 44.34375 54.890625 33.015625 
z
" id="DejaVuSans-104"/>
      <path d="M 48.6875 27.296875 
Q 48.6875 37.203125 44.609375 42.84375 
Q 40.53125 48.484375 33.40625 48.484375 
Q 26.265625 48.484375 22.1875 42.84375 
Q 18.109375 37.203125 18.109375 27.296875 
Q 18.109375 17.390625 22.1875 11.75 
Q 26.265625 6.109375 33.40625 6.109375 
Q 40.53125 6.109375 44.609375 11.75 
Q 48.6875 17.390625 48.6875 27.296875 
z
M 18.109375 46.390625 
Q 20.953125 51.265625 25.265625 53.625 
Q 29.59375 56 35.59375 56 
Q 45.5625 56 51.78125 48.09375 
Q 58.015625 40.1875 58.015625 27.296875 
Q 58.015625 14.40625 51.78125 6.484375 
Q 45.5625 -1.421875 35.59375 -1.421875 
Q 29.59375 -1.421875 25.265625 0.953125 
Q 20.953125 3.328125 18.109375 8.203125 
L 18.109375 0 
L 9.078125 0 
L 9.078125 75.984375 
L 18.109375 75.984375 
z
" id="DejaVuSans-98"/>
      <path d="M 9.421875 75.984375 
L 18.40625 75.984375 
L 18.40625 0 
L 9.421875 0 
z
" id="DejaVuSans-108"/>
     </defs>
     <g transform="translate(94.6 87.704812)scale(0.1 -0.1)">
      <use xlink:href="#DejaVuSans-67"/>
      <use x="69.824219" xlink:href="#DejaVuSans-99"/>
      <use x="124.804688" xlink:href="#DejaVuSans-72"/>
      <use x="200" xlink:href="#DejaVuSans-97"/>
      <use x="261.279297" xlink:href="#DejaVuSans-115"/>
      <use x="313.378906" xlink:href="#DejaVuSans-104"/>
      <use x="376.757812" xlink:href="#DejaVuSans-84"/>
      <use x="437.591797" xlink:href="#DejaVuSans-97"/>
      <use x="498.871094" xlink:href="#DejaVuSans-98"/>
      <use x="562.347656" xlink:href="#DejaVuSans-108"/>
      <use x="590.130859" xlink:href="#DejaVuSans-101"/>
     </g>
    </g>
    <g id="line2d_31">
     <path d="M 66.6 98.882937 
L 86.6 98.882937 
" style="fill:none;stroke:#cdff00;stroke-dasharray:1.5,2.475;stroke-dashoffset:0;stroke-width:1.5;"/>
    </g>
    <g id="line2d_32">
     <g>
      <use style="fill:#cdff00;stroke:#cdff00;" x="76.6" xlink:href="#m251a358a77" y="98.882937"/>
     </g>
    </g>
    <g id="text_20">
     <!-- CcTreeTable -->
     <g transform="translate(94.6 102.382937)scale(0.1 -0.1)">
      <use xlink:href="#DejaVuSans-67"/>
      <use x="69.824219" xlink:href="#DejaVuSans-99"/>
      <use x="124.804688" xlink:href="#DejaVuSans-84"/>
      <use x="185.669922" xlink:href="#DejaVuSans-114"/>
      <use x="226.751953" xlink:href="#DejaVuSans-101"/>
      <use x="288.275391" xlink:href="#DejaVuSans-101"/>
      <use x="349.798828" xlink:href="#DejaVuSans-84"/>
      <use x="410.632812" xlink:href="#DejaVuSans-97"/>
      <use x="471.912109" xlink:href="#DejaVuSans-98"/>
      <use x="535.388672" xlink:href="#DejaVuSans-108"/>
      <use x="563.171875" xlink:href="#DejaVuSans-101"/>
     </g>
    </g>
    <g id="line2d_33">
     <path d="M 66.6 113.561062 
L 86.6 113.561062 
" style="fill:none;stroke:#5cff00;stroke-dasharray:5.55,2.4;stroke-dashoffset:0;stroke-width:1.5;"/>
    </g>
    <g id="line2d_34">
     <g>
      <use style="fill:#5cff00;stroke:#5cff00;" x="76.6" xlink:href="#m71a0fa6db6" y="113.561062"/>
     </g>
    </g>
    <g id="text_21">
     <!-- GTree -->
     <defs>
      <path d="M 59.515625 10.40625 
L 59.515625 29.984375 
L 43.40625 29.984375 
L 43.40625 38.09375 
L 69.28125 38.09375 
L 69.28125 6.78125 
Q 63.578125 2.734375 56.6875 0.65625 
Q 49.8125 -1.421875 42 -1.421875 
Q 24.90625 -1.421875 15.25 8.5625 
Q 5.609375 18.5625 5.609375 36.375 
Q 5.609375 54.25 15.25 64.234375 
Q 24.90625 74.21875 42 74.21875 
Q 49.125 74.21875 55.546875 72.453125 
Q 61.96875 70.703125 67.390625 67.28125 
L 67.390625 56.78125 
Q 61.921875 61.421875 55.765625 63.765625 
Q 49.609375 66.109375 42.828125 66.109375 
Q 29.4375 66.109375 22.71875 58.640625 
Q 16.015625 51.171875 16.015625 36.375 
Q 16.015625 21.625 22.71875 14.15625 
Q 29.4375 6.6875 42.828125 6.6875 
Q 48.046875 6.6875 52.140625 7.59375 
Q 56.25 8.5 59.515625 10.40625 
z
" id="DejaVuSans-71"/>
     </defs>
     <g transform="translate(94.6 117.061062)scale(0.1 -0.1)">
      <use xlink:href="#DejaVuSans-71"/>
      <use x="77.443359" xlink:href="#DejaVuSans-84"/>
      <use x="138.308594" xlink:href="#DejaVuSans-114"/>
      <use x="179.390625" xlink:href="#DejaVuSans-101"/>
      <use x="240.914062" xlink:href="#DejaVuSans-101"/>
     </g>
    </g>
    <g id="line2d_35">
     <path d="M 66.6 128.239187 
L 86.6 128.239187 
" style="fill:none;stroke:#00ff16;stroke-dasharray:1.5,2.475;stroke-dashoffset:0;stroke-width:1.5;"/>
    </g>
    <g id="line2d_36">
     <g>
      <use style="fill:#00ff16;stroke:#00ff16;" x="76.6" xlink:href="#mcfbdbc417a" y="128.239187"/>
     </g>
    </g>
    <g id="text_22">
     <!-- GHashTable -->
     <g transform="translate(94.6 131.739187)scale(0.1 -0.1)">
      <use xlink:href="#DejaVuSans-71"/>
      <use x="77.490234" xlink:href="#DejaVuSans-72"/>
      <use x="152.685547" xlink:href="#DejaVuSans-97"/>
      <use x="213.964844" xlink:href="#DejaVuSans-115"/>
      <use x="266.064453" xlink:href="#DejaVuSans-104"/>
      <use x="329.443359" xlink:href="#DejaVuSans-84"/>
      <use x="390.277344" xlink:href="#DejaVuSans-97"/>
      <use x="451.556641" xlink:href="#DejaVuSans-98"/>
      <use x="515.033203" xlink:href="#DejaVuSans-108"/>
      <use x="542.816406" xlink:href="#DejaVuSans-101"/>
     </g>
    </g>
    <g id="line2d_37">
     <path d="M 66.6 142.917312 
L 86.6 142.917312 
" style="fill:none;stroke:#00ff8c;stroke-dasharray:5.55,2.4;stroke-dashoffset:0;stroke-width:1.5;"/>
    </g>
    <g id="line2d_38">
     <g>
      <use style="fill:#00ff8c;stroke:#00ff8c;" x="76.6" xlink:href="#m5f45809975" y="142.917312"/>
     </g>
    </g>
    <g id="text_23">
     <!-- CdcMap/hash_table -->
     <defs>
      <path d="M 9.8125 72.90625 
L 24.515625 72.90625 
L 43.109375 23.296875 
L 61.8125 72.90625 
L 76.515625 72.90625 
L 76.515625 0 
L 66.890625 0 
L 66.890625 64.015625 
L 48.09375 14.015625 
L 38.1875 14.015625 
L 19.390625 64.015625 
L 19.390625 0 
L 9.8125 0 
z
" id="DejaVuSans-77"/>
      <path d="M 25.390625 72.90625 
L 33.6875 72.90625 
L 8.296875 -9.28125 
L 0 -9.28125 
z
" id="DejaVuSans-47"/>
     </defs>
     <g transform="translate(94.6 146.417312)scale(0.1 -0.1)">
      <use xlink:href="#DejaVuSans-67"/>
      <use x="69.824219" xlink:href="#DejaVuSans-100"/>
      <use x="133.300781" xlink:href="#DejaVuSans-99"/>
      <use x="188.28125" xlink:href="#DejaVuSans-77"/>
      <use x="274.560547" xlink:href="#DejaVuSans-97"/>
      <use x="335.839844" xlink:href="#DejaVuSans-112"/>
      <use x="399.316406" xlink:href="#DejaVuSans-47"/>
      <use x="433.007812" xlink:href="#DejaVuSans-104"/>
      <use x="496.386719" xlink:href="#DejaVuSans-97"/>
      <use x="557.666016" xlink:href="#DejaVuSans-115"/>
      <use x="609.765625" xlink:href="#DejaVuSans-104"/>
      <use x="673.144531" xlink:href="#DejaVuSans-95"/>
      <use x="723.144531" xlink:href="#DejaVuSans-116"/>
      <use x="762.353516" xlink:href="#DejaVuSans-97"/>
      <use x="823.632812" xlink:href="#DejaVuSans-98"/>
      <use x="887.109375" xlink:href="#DejaVuSans-108"/>
      <use x="914.892578" xlink:href="#DejaVuSans-101"/>
     </g>
    </g>
    <g id="line2d_39">
     <path d="M 66.6 157.873562 
L 86.6 157.873562 
" style="fill:none;stroke:#00fffd;stroke-dasharray:1.5,2.475;stroke-dashoffset:0;stroke-width:1.5;"/>
    </g>
    <g id="line2d_40">
     <g>
      <use style="fill:#00fffd;stroke:#00fffd;" x="76.6" xlink:href="#m3619702250" y="157.873562"/>
     </g>
    </g>
    <g id="text_24">
     <!-- CdcMap/avl_tree -->
     <g transform="translate(94.6 161.373562)scale(0.1 -0.1)">
      <use xlink:href="#DejaVuSans-67"/>
      <use x="69.824219" xlink:href="#DejaVuSans-100"/>
      <use x="133.300781" xlink:href="#DejaVuSans-99"/>
      <use x="188.28125" xlink:href="#DejaVuSans-77"/>
      <use x="274.560547" xlink:href="#DejaVuSans-97"/>
      <use x="335.839844" xlink:href="#DejaVuSans-112"/>
      <use x="399.316406" xlink:href="#DejaVuSans-47"/>
      <use x="433.007812" xlink:href="#DejaVuSans-97"/>
      <use x="494.287109" xlink:href="#DejaVuSans-118"/>
      <use x="553.466797" xlink:href="#DejaVuSans-108"/>
      <use x="581.25" xlink:href="#DejaVuSans-95"/>
      <use x="631.25" xlink:href="#DejaVuSans-116"/>
      <use x="670.458984" xlink:href="#DejaVuSans-114"/>
      <use x="711.541016" xlink:href="#DejaVuSans-101"/>
      <use x="773.064453" xlink:href="#DejaVuSans-101"/>
     </g>
    </g>
    <g id="line2d_41">
     <path d="M 66.6 172.829813 
L 86.6 172.829813 
" style="fill:none;stroke:#008fff;stroke-dasharray:5.55,2.4;stroke-dashoffset:0;stroke-width:1.5;"/>
    </g>
    <g id="line2d_42">
     <g>
      <use style="fill:#008fff;stroke:#008fff;" x="76.6" xlink:href="#m8e28da61d0" y="172.829813"/>
     </g>
    </g>
    <g id="text_25">
     <!-- CdcMap/treep -->
     <g transform="translate(94.6 176.329813)scale(0.1 -0.1)">
      <use xlink:href="#DejaVuSans-67"/>
      <use x="69.824219" xlink:href="#DejaVuSans-100"/>
      <use x="133.300781" xlink:href="#DejaVuSans-99"/>
      <use x="188.28125" xlink:href="#DejaVuSans-77"/>
      <use x="274.560547" xlink:href="#DejaVuSans-97"/>
      <use x="335.839844" xlink:href="#DejaVuSans-112"/>
      <use x="399.316406" xlink:href="#DejaVuSans-47"/>
      <use x="433.007812" xlink:href="#DejaVuSans-116"/>
      <use x="472.216797" xlink:href="#DejaVuSans-114"/>
      <use x="513.298828" xlink:href="#DejaVuSans-101"/>
      <use x="574.822266" xlink:href="#DejaVuSans-101"/>
      <use x="636.345703" xlink:href="#DejaVuSans-112"/>
     </g>
    </g>
    <g id="line2d_43">
     <path d="M 66.6 187.507937 
L 86.6 187.507937 
" style="fill:none;stroke:#0018ff;stroke-dasharray:1.5,2.475;stroke-dashoffset:0;stroke-width:1.5;"/>
    </g>
    <g id="line2d_44">
     <g>
      <use style="fill:#0018ff;stroke:#0018ff;" x="76.6" xlink:href="#m1e0f669890" y="187.507937"/>
     </g>
    </g>
    <g id="text_26">
     <!-- CdcMap/splay_tree -->
     <defs>
      <path d="M 32.171875 -5.078125 
Q 28.375 -14.84375 24.75 -17.8125 
Q 21.140625 -20.796875 15.09375 -20.796875 
L 7.90625 -20.796875 
L 7.90625 -13.28125 
L 13.1875 -13.28125 
Q 16.890625 -13.28125 18.9375 -11.515625 
Q 21 -9.765625 23.484375 -3.21875 
L 25.09375 0.875 
L 2.984375 54.6875 
L 12.5 54.6875 
L 29.59375 11.921875 
L 46.6875 54.6875 
L 56.203125 54.6875 
z
" id="DejaVuSans-121"/>
     </defs>
     <g transform="translate(94.6 191.007937)scale(0.1 -0.1)">
      <use xlink:href="#DejaVuSans-67"/>
      <use x="69.824219" xlink:href="#DejaVuSans-100"/>
      <use x="133.300781" xlink:href="#DejaVuSans-99"/>
      <use x="188.28125" xlink:href="#DejaVuSans-77"/>
      <use x="274.560547" xlink:href="#DejaVuSans-97"/>
      <use x="335.839844" xlink:href="#DejaVuSans-112"/>
      <use x="399.316406" xlink:href="#DejaVuSans-47"/>
      <use x="433.007812" xlink:href="#DejaVuSans-115"/>
      <use x="485.107422" xlink:href="#DejaVuSans-112"/>
      <use x="548.583984" xlink:href="#DejaVuSans-108"/>
      <use x="576.367188" xlink:href="#DejaVuSans-97"/>
      <use x="637.646484" xlink:href="#DejaVuSans-121"/>
      <use x="696.826172" xlink:href="#DejaVuSans-95"/>
      <use x="746.826172" xlink:href="#DejaVuSans-116"/>
      <use x="786.035156" xlink:href="#DejaVuSans-114"/>
      <use x="827.117188" xlink:href="#DejaVuSans-101"/>
      <use x="888.640625" xlink:href="#DejaVuSans-101"/>
     </g>
    </g>
    <g id="line2d_45">
     <path d="M 66.6 202.464187 
L 86.6 202.464187 
" style="fill:none;stroke:#5a00ff;stroke-dasharray:5.55,2.4;stroke-dashoffset:0;stroke-width:1.5;"/>
    </g>
    <g id="line2d_46">
     <g>
      <use style="fill:#5a00ff;stroke:#5a00ff;" x="76.6" xlink:href="#m993d35c85f" y="202.464187"/>
     </g>
    </g>
    <g id="text_27">
     <!-- CdcHashTable -->
     <g transform="translate(94.6 205.964187)scale(0.1 -0.1)">
      <use xlink:href="#DejaVuSans-67"/>
      <use x="69.824219" xlink:href="#DejaVuSans-100"/>
      <use x="133.300781" xlink:href="#DejaVuSans-99"/>
      <use x="188.28125" xlink:href="#DejaVuSans-72"/>
      <use x="263.476562" xlink:href="#DejaVuSans-97"/>
      <use x="324.755859" xlink:href="#DejaVuSans-115"/>
      <use x="376.855469" xlink:href="#DejaVuSans-104"/>
      <use x="440.234375" xlink:href="#DejaVuSans-84"/>
      <use x="501.068359" xlink:href="#DejaVuSans-97"/>
      <use x="562.347656" xlink:href="#DejaVuSans-98"/>
      <use x="625.824219" xlink:href="#DejaVuSans-108"/>
      <use x="653.607422" xlink:href="#DejaVuSans-101"/>
     </g>
    </g>
    <g id="line2d_47">
     <path d="M 66.6 217.142312 
L 86.6 217.142312 
" style="fill:none;stroke:#cd00ff;stroke-dasharray:1.5,2.475;stroke-dashoffset:0;stroke-width:1.5;"/>
    </g>
    <g id="line2d_48">
     <g>
      <use style="fill:#cd00ff;stroke:#cd00ff;" x="76.6" xlink:href="#me5a8b8eb04" y="217.142312"/>
     </g>
    </g>
    <g id="text_28">
     <!-- CdcAvlTree -->
     <defs>
      <path d="M 34.1875 63.1875 
L 20.796875 26.90625 
L 47.609375 26.90625 
z
M 28.609375 72.90625 
L 39.796875 72.90625 
L 67.578125 0 
L 57.328125 0 
L 50.6875 18.703125 
L 17.828125 18.703125 
L 11.1875 0 
L 0.78125 0 
z
" id="DejaVuSans-65"/>
     </defs>
     <g transform="translate(94.6 220.642312)scale(0.1 -0.1)">
      <use xlink:href="#DejaVuSans-67"/>
      <use x="69.824219" xlink:href="#DejaVuSans-100"/>
      <use x="133.300781" xlink:href="#DejaVuSans-99"/>
      <use x="188.28125" xlink:href="#DejaVuSans-65"/>
      <use x="256.611328" xlink:href="#DejaVuSans-118"/>
      <use x="315.791016" xlink:href="#DejaVuSans-108"/>
      <use x="343.574219" xlink:href="#DejaVuSans-84"/>
      <use x="404.439453" xlink:href="#DejaVuSans-114"/>
      <use x="445.521484" xlink:href="#DejaVuSans-101"/>
      <use x="507.044922" xlink:href="#DejaVuSans-101"/>
     </g>
    </g>
   </g>
  </g>
 </g>
 <defs>
  <clipPath id="p527280089b">
   <rect height="266.112" width="357.12" x="57.6" y="41.472"/>
  </clipPath>
 </defs>
</svg>
