<?xml version="1.0" encoding="utf-8" standalone="no"?>
<!DOCTYPE svg PUBLIC "-//W3C//DTD SVG 1.1//EN"
  "http://www.w3.org/Graphics/SVG/1.1/DTD/svg11.dtd">
<!-- Created with matplotlib (https://matplotlib.org/) -->
<svg height="345.6pt" version="1.1" viewBox="0 0 460.8 345.6" width="460.8pt" xmlns="http://www.w3.org/2000/svg" xmlns:xlink="http://www.w3.org/1999/xlink">
 <defs>
  <style type="text/css">
*{stroke-linecap:butt;stroke-linejoin:round;}
  </style>
 </defs>
 <g id="figure_1">
  <g id="patch_1">
   <path d="M 0 345.6 
L 460.8 345.6 
L 460.8 0 
L 0 0 
z
" style="fill:#ffffff;"/>
  </g>
  <g id="axes_1">
   <g id="patch_2">
    <path d="M 57.6 307.584 
L 414.72 307.584 
L 414.72 41.472 
L 57.6 41.472 
z
" style="fill:#ffffff;"/>
   </g>
   <g id="matplotlib.axis_1">
    <g id="xtick_1">
     <g id="line2d_1">
      <defs>
       <path d="M 0 0 
L 0 3.5 
" id="m4b2ea1019e" style="stroke:#000000;stroke-width:0.8;"/>
      </defs>
      <g>
       <use style="stroke:#000000;stroke-width:0.8;" x="73.822159" xlink:href="#m4b2ea1019e" y="307.584"/>
      </g>
     </g>
     <g id="text_1">
      <!-- 0 -->
      <defs>
       <path d="M 31.78125 66.40625 
Q 24.171875 66.40625 20.328125 58.90625 
Q 16.5 51.421875 16.5 36.375 
Q 16.5 21.390625 20.328125 13.890625 
Q 24.171875 6.390625 31.78125 6.390625 
Q 39.453125 6.390625 43.28125 13.890625 
Q 47.125 21.390625 47.125 36.375 
Q 47.125 51.421875 43.28125 58.90625 
Q 39.453125 66.40625 31.78125 66.40625 
z
M 31.78125 74.21875 
Q 44.046875 74.21875 50.515625 64.515625 
Q 56.984375 54.828125 56.984375 36.375 
Q 56.984375 17.96875 50.515625 8.265625 
Q 44.046875 -1.421875 31.78125 -1.421875 
Q 19.53125 -1.421875 13.0625 8.265625 
Q 6.59375 17.96875 6.59375 36.375 
Q 6.59375 54.828125 13.0625 64.515625 
Q 19.53125 74.21875 31.78125 74.21875 
z
" id="DejaVuSans-48"/>
      </defs>
      <g transform="translate(70.640909 322.182437)scale(0.1 -0.1)">
       <use xlink:href="#DejaVuSans-48"/>
      </g>
     </g>
    </g>
    <g id="xtick_2">
     <g id="line2d_2">
      <g>
       <use style="stroke:#000000;stroke-width:0.8;" x="126.664788" xlink:href="#m4b2ea1019e" y="307.584"/>
      </g>
     </g>
     <g id="text_2">
      <!-- 20000 -->
      <defs>
       <path d="M 19.1875 8.296875 
L 53.609375 8.296875 
L 53.609375 0 
L 7.328125 0 
L 7.328125 8.296875 
Q 12.9375 14.109375 22.625 23.890625 
Q 32.328125 33.6875 34.8125 36.53125 
Q 39.546875 41.84375 41.421875 45.53125 
Q 43.3125 49.21875 43.3125 52.78125 
Q 43.3125 58.59375 39.234375 62.25 
Q 35.15625 65.921875 28.609375 65.921875 
Q 23.96875 65.921875 18.8125 64.3125 
Q 13.671875 62.703125 7.8125 59.421875 
L 7.8125 69.390625 
Q 13.765625 71.78125 18.9375 73 
Q 24.125 74.21875 28.421875 74.21875 
Q 39.75 74.21875 46.484375 68.546875 
Q 53.21875 62.890625 53.21875 53.421875 
Q 53.21875 48.921875 51.53125 44.890625 
Q 49.859375 40.875 45.40625 35.40625 
Q 44.1875 33.984375 37.640625 27.21875 
Q 31.109375 20.453125 19.1875 8.296875 
z
" id="DejaVuSans-50"/>
      </defs>
      <g transform="translate(110.758538 322.182437)scale(0.1 -0.1)">
       <use xlink:href="#DejaVuSans-50"/>
       <use x="63.623047" xlink:href="#DejaVuSans-48"/>
       <use x="127.246094" xlink:href="#DejaVuSans-48"/>
       <use x="190.869141" xlink:href="#DejaVuSans-48"/>
       <use x="254.492188" xlink:href="#DejaVuSans-48"/>
      </g>
     </g>
    </g>
    <g id="xtick_3">
     <g id="line2d_3">
      <g>
       <use style="stroke:#000000;stroke-width:0.8;" x="179.507417" xlink:href="#m4b2ea1019e" y="307.584"/>
      </g>
     </g>
     <g id="text_3">
      <!-- 40000 -->
      <defs>
       <path d="M 37.796875 64.3125 
L 12.890625 25.390625 
L 37.796875 25.390625 
z
M 35.203125 72.90625 
L 47.609375 72.90625 
L 47.609375 25.390625 
L 58.015625 25.390625 
L 58.015625 17.1875 
L 47.609375 17.1875 
L 47.609375 0 
L 37.796875 0 
L 37.796875 17.1875 
L 4.890625 17.1875 
L 4.890625 26.703125 
z
" id="DejaVuSans-52"/>
      </defs>
      <g transform="translate(163.601167 322.182437)scale(0.1 -0.1)">
       <use xlink:href="#DejaVuSans-52"/>
       <use x="63.623047" xlink:href="#DejaVuSans-48"/>
       <use x="127.246094" xlink:href="#DejaVuSans-48"/>
       <use x="190.869141" xlink:href="#DejaVuSans-48"/>
       <use x="254.492188" xlink:href="#DejaVuSans-48"/>
      </g>
     </g>
    </g>
    <g id="xtick_4">
     <g id="line2d_4">
      <g>
       <use style="stroke:#000000;stroke-width:0.8;" x="232.350046" xlink:href="#m4b2ea1019e" y="307.584"/>
      </g>
     </g>
     <g id="text_4">
      <!-- 60000 -->
      <defs>
       <path d="M 33.015625 40.375 
Q 26.375 40.375 22.484375 35.828125 
Q 18.609375 31.296875 18.609375 23.390625 
Q 18.609375 15.53125 22.484375 10.953125 
Q 26.375 6.390625 33.015625 6.390625 
Q 39.65625 6.390625 43.53125 10.953125 
Q 47.40625 15.53125 47.40625 23.390625 
Q 47.40625 31.296875 43.53125 35.828125 
Q 39.65625 40.375 33.015625 40.375 
z
M 52.59375 71.296875 
L 52.59375 62.3125 
Q 48.875 64.0625 45.09375 64.984375 
Q 41.3125 65.921875 37.59375 65.921875 
Q 27.828125 65.921875 22.671875 59.328125 
Q 17.53125 52.734375 16.796875 39.40625 
Q 19.671875 43.65625 24.015625 45.921875 
Q 28.375 48.1875 33.59375 48.1875 
Q 44.578125 48.1875 50.953125 41.515625 
Q 57.328125 34.859375 57.328125 23.390625 
Q 57.328125 12.15625 50.6875 5.359375 
Q 44.046875 -1.421875 33.015625 -1.421875 
Q 20.359375 -1.421875 13.671875 8.265625 
Q 6.984375 17.96875 6.984375 36.375 
Q 6.984375 53.65625 15.1875 63.9375 
Q 23.390625 74.21875 37.203125 74.21875 
Q 40.921875 74.21875 44.703125 73.484375 
Q 48.484375 72.75 52.59375 71.296875 
z
" id="DejaVuSans-54"/>
      </defs>
      <g transform="translate(216.443796 322.182437)scale(0.1 -0.1)">
       <use xlink:href="#DejaVuSans-54"/>
       <use x="63.623047" xlink:href="#DejaVuSans-48"/>
       <use x="127.246094" xlink:href="#DejaVuSans-48"/>
       <use x="190.869141" xlink:href="#DejaVuSans-48"/>
       <use x="254.492188" xlink:href="#DejaVuSans-48"/>
      </g>
     </g>
    </g>
    <g id="xtick_5">
     <g id="line2d_5">
      <g>
       <use style="stroke:#000000;stroke-width:0.8;" x="285.192676" xlink:href="#m4b2ea1019e" y="307.584"/>
      </g>
     </g>
     <g id="text_5">
      <!-- 80000 -->
      <defs>
       <path d="M 31.78125 34.625 
Q 24.75 34.625 20.71875 30.859375 
Q 16.703125 27.09375 16.703125 20.515625 
Q 16.703125 13.921875 20.71875 10.15625 
Q 24.75 6.390625 31.78125 6.390625 
Q 38.8125 6.390625 42.859375 10.171875 
Q 46.921875 13.96875 46.921875 20.515625 
Q 46.921875 27.09375 42.890625 30.859375 
Q 38.875 34.625 31.78125 34.625 
z
M 21.921875 38.8125 
Q 15.578125 40.375 12.03125 44.71875 
Q 8.5 49.078125 8.5 55.328125 
Q 8.5 64.0625 14.71875 69.140625 
Q 20.953125 74.21875 31.78125 74.21875 
Q 42.671875 74.21875 48.875 69.140625 
Q 55.078125 64.0625 55.078125 55.328125 
Q 55.078125 49.078125 51.53125 44.71875 
Q 48 40.375 41.703125 38.8125 
Q 48.828125 37.15625 52.796875 32.3125 
Q 56.78125 27.484375 56.78125 20.515625 
Q 56.78125 9.90625 50.3125 4.234375 
Q 43.84375 -1.421875 31.78125 -1.421875 
Q 19.734375 -1.421875 13.25 4.234375 
Q 6.78125 9.90625 6.78125 20.515625 
Q 6.78125 27.484375 10.78125 32.3125 
Q 14.796875 37.15625 21.921875 38.8125 
z
M 18.3125 54.390625 
Q 18.3125 48.734375 21.84375 45.5625 
Q 25.390625 42.390625 31.78125 42.390625 
Q 38.140625 42.390625 41.71875 45.5625 
Q 45.3125 48.734375 45.3125 54.390625 
Q 45.3125 60.0625 41.71875 63.234375 
Q 38.140625 66.40625 31.78125 66.40625 
Q 25.390625 66.40625 21.84375 63.234375 
Q 18.3125 60.0625 18.3125 54.390625 
z
" id="DejaVuSans-56"/>
      </defs>
      <g transform="translate(269.286426 322.182437)scale(0.1 -0.1)">
       <use xlink:href="#DejaVuSans-56"/>
       <use x="63.623047" xlink:href="#DejaVuSans-48"/>
       <use x="127.246094" xlink:href="#DejaVuSans-48"/>
       <use x="190.869141" xlink:href="#DejaVuSans-48"/>
       <use x="254.492188" xlink:href="#DejaVuSans-48"/>
      </g>
     </g>
    </g>
    <g id="xtick_6">
     <g id="line2d_6">
      <g>
       <use style="stroke:#000000;stroke-width:0.8;" x="338.035305" xlink:href="#m4b2ea1019e" y="307.584"/>
      </g>
     </g>
     <g id="text_6">
      <!-- 100000 -->
      <defs>
       <path d="M 12.40625 8.296875 
L 28.515625 8.296875 
L 28.515625 63.921875 
L 10.984375 60.40625 
L 10.984375 69.390625 
L 28.421875 72.90625 
L 38.28125 72.90625 
L 38.28125 8.296875 
L 54.390625 8.296875 
L 54.390625 0 
L 12.40625 0 
z
" id="DejaVuSans-49"/>
      </defs>
      <g transform="translate(318.947805 322.182437)scale(0.1 -0.1)">
       <use xlink:href="#DejaVuSans-49"/>
       <use x="63.623047" xlink:href="#DejaVuSans-48"/>
       <use x="127.246094" xlink:href="#DejaVuSans-48"/>
       <use x="190.869141" xlink:href="#DejaVuSans-48"/>
       <use x="254.492188" xlink:href="#DejaVuSans-48"/>
       <use x="318.115234" xlink:href="#DejaVuSans-48"/>
      </g>
     </g>
    </g>
    <g id="xtick_7">
     <g id="line2d_7">
      <g>
       <use style="stroke:#000000;stroke-width:0.8;" x="390.877934" xlink:href="#m4b2ea1019e" y="307.584"/>
      </g>
     </g>
     <g id="text_7">
      <!-- 120000 -->
      <g transform="translate(371.790434 322.182437)scale(0.1 -0.1)">
       <use xlink:href="#DejaVuSans-49"/>
       <use x="63.623047" xlink:href="#DejaVuSans-50"/>
       <use x="127.246094" xlink:href="#DejaVuSans-48"/>
       <use x="190.869141" xlink:href="#DejaVuSans-48"/>
       <use x="254.492188" xlink:href="#DejaVuSans-48"/>
       <use x="318.115234" xlink:href="#DejaVuSans-48"/>
      </g>
     </g>
    </g>
    <g id="text_8">
     <!-- N -->
     <defs>
      <path d="M 9.8125 72.90625 
L 23.09375 72.90625 
L 55.421875 11.921875 
L 55.421875 72.90625 
L 64.984375 72.90625 
L 64.984375 0 
L 51.703125 0 
L 19.390625 60.984375 
L 19.390625 0 
L 9.8125 0 
z
" id="DejaVuSans-78"/>
     </defs>
     <g transform="translate(232.419375 335.860562)scale(0.1 -0.1)">
      <use xlink:href="#DejaVuSans-78"/>
     </g>
    </g>
   </g>
   <g id="matplotlib.axis_2">
    <g id="ytick_1">
     <g id="line2d_8">
      <defs>
       <path d="M 0 0 
L -3.5 0 
" id="m13fc50d73b" style="stroke:#000000;stroke-width:0.8;"/>
      </defs>
      <g>
       <use style="stroke:#000000;stroke-width:0.8;" x="57.6" xlink:href="#m13fc50d73b" y="295.488008"/>
      </g>
     </g>
     <g id="text_9">
      <!-- 0 -->
      <g transform="translate(44.2375 299.287227)scale(0.1 -0.1)">
       <use xlink:href="#DejaVuSans-48"/>
      </g>
     </g>
    </g>
    <g id="ytick_2">
     <g id="line2d_9">
      <g>
       <use style="stroke:#000000;stroke-width:0.8;" x="57.6" xlink:href="#m13fc50d73b" y="241.601676"/>
      </g>
     </g>
     <g id="text_10">
      <!-- 1 -->
      <g transform="translate(44.2375 245.400895)scale(0.1 -0.1)">
       <use xlink:href="#DejaVuSans-49"/>
      </g>
     </g>
    </g>
    <g id="ytick_3">
     <g id="line2d_10">
      <g>
       <use style="stroke:#000000;stroke-width:0.8;" x="57.6" xlink:href="#m13fc50d73b" y="187.715344"/>
      </g>
     </g>
     <g id="text_11">
      <!-- 2 -->
      <g transform="translate(44.2375 191.514563)scale(0.1 -0.1)">
       <use xlink:href="#DejaVuSans-50"/>
      </g>
     </g>
    </g>
    <g id="ytick_4">
     <g id="line2d_11">
      <g>
       <use style="stroke:#000000;stroke-width:0.8;" x="57.6" xlink:href="#m13fc50d73b" y="133.829013"/>
      </g>
     </g>
     <g id="text_12">
      <!-- 3 -->
      <defs>
       <path d="M 40.578125 39.3125 
Q 47.65625 37.796875 51.625 33 
Q 55.609375 28.21875 55.609375 21.1875 
Q 55.609375 10.40625 48.1875 4.484375 
Q 40.765625 -1.421875 27.09375 -1.421875 
Q 22.515625 -1.421875 17.65625 -0.515625 
Q 12.796875 0.390625 7.625 2.203125 
L 7.625 11.71875 
Q 11.71875 9.328125 16.59375 8.109375 
Q 21.484375 6.890625 26.8125 6.890625 
Q 36.078125 6.890625 40.9375 10.546875 
Q 45.796875 14.203125 45.796875 21.1875 
Q 45.796875 27.640625 41.28125 31.265625 
Q 36.765625 34.90625 28.71875 34.90625 
L 20.21875 34.90625 
L 20.21875 43.015625 
L 29.109375 43.015625 
Q 36.375 43.015625 40.234375 45.921875 
Q 44.09375 48.828125 44.09375 54.296875 
Q 44.09375 59.90625 40.109375 62.90625 
Q 36.140625 65.921875 28.71875 65.921875 
Q 24.65625 65.921875 20.015625 65.03125 
Q 15.375 64.15625 9.8125 62.3125 
L 9.8125 71.09375 
Q 15.4375 72.65625 20.34375 73.4375 
Q 25.25 74.21875 29.59375 74.21875 
Q 40.828125 74.21875 47.359375 69.109375 
Q 53.90625 64.015625 53.90625 55.328125 
Q 53.90625 49.265625 50.4375 45.09375 
Q 46.96875 40.921875 40.578125 39.3125 
z
" id="DejaVuSans-51"/>
      </defs>
      <g transform="translate(44.2375 137.628231)scale(0.1 -0.1)">
       <use xlink:href="#DejaVuSans-51"/>
      </g>
     </g>
    </g>
    <g id="ytick_5">
     <g id="line2d_12">
      <g>
       <use style="stroke:#000000;stroke-width:0.8;" x="57.6" xlink:href="#m13fc50d73b" y="79.942681"/>
      </g>
     </g>
     <g id="text_13">
      <!-- 4 -->
      <g transform="translate(44.2375 83.7419)scale(0.1 -0.1)">
       <use xlink:href="#DejaVuSans-52"/>
      </g>
     </g>
    </g>
    <g id="text_14">
     <!-- Time (ns) -->
     <defs>
      <path d="M -0.296875 72.90625 
L 61.375 72.90625 
L 61.375 64.59375 
L 35.5 64.59375 
L 35.5 0 
L 25.59375 0 
L 25.59375 64.59375 
L -0.296875 64.59375 
z
" id="DejaVuSans-84"/>
      <path d="M 9.421875 54.6875 
L 18.40625 54.6875 
L 18.40625 0 
L 9.421875 0 
z
M 9.421875 75.984375 
L 18.40625 75.984375 
L 18.40625 64.59375 
L 9.421875 64.59375 
z
" id="DejaVuSans-105"/>
      <path d="M 52 44.1875 
Q 55.375 50.25 60.0625 53.125 
Q 64.75 56 71.09375 56 
Q 79.640625 56 84.28125 50.015625 
Q 88.921875 44.046875 88.921875 33.015625 
L 88.921875 0 
L 79.890625 0 
L 79.890625 32.71875 
Q 79.890625 40.578125 77.09375 44.375 
Q 74.3125 48.1875 68.609375 48.1875 
Q 61.625 48.1875 57.5625 43.546875 
Q 53.515625 38.921875 53.515625 30.90625 
L 53.515625 0 
L 44.484375 0 
L 44.484375 32.71875 
Q 44.484375 40.625 41.703125 44.40625 
Q 38.921875 48.1875 33.109375 48.1875 
Q 26.21875 48.1875 22.15625 43.53125 
Q 18.109375 38.875 18.109375 30.90625 
L 18.109375 0 
L 9.078125 0 
L 9.078125 54.6875 
L 18.109375 54.6875 
L 18.109375 46.1875 
Q 21.1875 51.21875 25.484375 53.609375 
Q 29.78125 56 35.6875 56 
Q 41.65625 56 45.828125 52.96875 
Q 50 49.953125 52 44.1875 
z
" id="DejaVuSans-109"/>
      <path d="M 56.203125 29.59375 
L 56.203125 25.203125 
L 14.890625 25.203125 
Q 15.484375 15.921875 20.484375 11.0625 
Q 25.484375 6.203125 34.421875 6.203125 
Q 39.59375 6.203125 44.453125 7.46875 
Q 49.3125 8.734375 54.109375 11.28125 
L 54.109375 2.78125 
Q 49.265625 0.734375 44.1875 -0.34375 
Q 39.109375 -1.421875 33.890625 -1.421875 
Q 20.796875 -1.421875 13.15625 6.1875 
Q 5.515625 13.8125 5.515625 26.8125 
Q 5.515625 40.234375 12.765625 48.109375 
Q 20.015625 56 32.328125 56 
Q 43.359375 56 49.78125 48.890625 
Q 56.203125 41.796875 56.203125 29.59375 
z
M 47.21875 32.234375 
Q 47.125 39.59375 43.09375 43.984375 
Q 39.0625 48.390625 32.421875 48.390625 
Q 24.90625 48.390625 20.390625 44.140625 
Q 15.875 39.890625 15.1875 32.171875 
z
" id="DejaVuSans-101"/>
      <path id="DejaVuSans-32"/>
      <path d="M 31 75.875 
Q 24.46875 64.65625 21.28125 53.65625 
Q 18.109375 42.671875 18.109375 31.390625 
Q 18.109375 20.125 21.3125 9.0625 
Q 24.515625 -2 31 -13.1875 
L 23.1875 -13.1875 
Q 15.875 -1.703125 12.234375 9.375 
Q 8.59375 20.453125 8.59375 31.390625 
Q 8.59375 42.28125 12.203125 53.3125 
Q 15.828125 64.359375 23.1875 75.875 
z
" id="DejaVuSans-40"/>
      <path d="M 54.890625 33.015625 
L 54.890625 0 
L 45.90625 0 
L 45.90625 32.71875 
Q 45.90625 40.484375 42.875 44.328125 
Q 39.84375 48.1875 33.796875 48.1875 
Q 26.515625 48.1875 22.3125 43.546875 
Q 18.109375 38.921875 18.109375 30.90625 
L 18.109375 0 
L 9.078125 0 
L 9.078125 54.6875 
L 18.109375 54.6875 
L 18.109375 46.1875 
Q 21.34375 51.125 25.703125 53.5625 
Q 30.078125 56 35.796875 56 
Q 45.21875 56 50.046875 50.171875 
Q 54.890625 44.34375 54.890625 33.015625 
z
" id="DejaVuSans-110"/>
      <path d="M 44.28125 53.078125 
L 44.28125 44.578125 
Q 40.484375 46.53125 36.375 47.5 
Q 32.28125 48.484375 27.875 48.484375 
Q 21.1875 48.484375 17.84375 46.4375 
Q 14.5 44.390625 14.5 40.28125 
Q 14.5 37.15625 16.890625 35.375 
Q 19.28125 33.59375 26.515625 31.984375 
L 29.59375 31.296875 
Q 39.15625 29.25 43.1875 25.515625 
Q 47.21875 21.78125 47.21875 15.09375 
Q 47.21875 7.46875 41.1875 3.015625 
Q 35.15625 -1.421875 24.609375 -1.421875 
Q 20.21875 -1.421875 15.453125 -0.5625 
Q 10.6875 0.296875 5.421875 2 
L 5.421875 11.28125 
Q 10.40625 8.6875 15.234375 7.390625 
Q 20.0625 6.109375 24.8125 6.109375 
Q 31.15625 6.109375 34.5625 8.28125 
Q 37.984375 10.453125 37.984375 14.40625 
Q 37.984375 18.0625 35.515625 20.015625 
Q 33.0625 21.96875 24.703125 23.78125 
L 21.578125 24.515625 
Q 13.234375 26.265625 9.515625 29.90625 
Q 5.8125 33.546875 5.8125 39.890625 
Q 5.8125 47.609375 11.28125 51.796875 
Q 16.75 56 26.8125 56 
Q 31.78125 56 36.171875 55.265625 
Q 40.578125 54.546875 44.28125 53.078125 
z
" id="DejaVuSans-115"/>
      <path d="M 8.015625 75.875 
L 15.828125 75.875 
Q 23.140625 64.359375 26.78125 53.3125 
Q 30.421875 42.28125 30.421875 31.390625 
Q 30.421875 20.453125 26.78125 9.375 
Q 23.140625 -1.703125 15.828125 -13.1875 
L 8.015625 -13.1875 
Q 14.5 -2 17.703125 9.0625 
Q 20.90625 20.125 20.90625 31.390625 
Q 20.90625 42.671875 17.703125 53.65625 
Q 14.5 64.65625 8.015625 75.875 
z
" id="DejaVuSans-41"/>
     </defs>
     <g transform="translate(38.157812 198.179563)rotate(-90)scale(0.1 -0.1)">
      <use xlink:href="#DejaVuSans-84"/>
      <use x="61.037109" xlink:href="#DejaVuSans-105"/>
      <use x="88.820312" xlink:href="#DejaVuSans-109"/>
      <use x="186.232422" xlink:href="#DejaVuSans-101"/>
      <use x="247.755859" xlink:href="#DejaVuSans-32"/>
      <use x="279.542969" xlink:href="#DejaVuSans-40"/>
      <use x="318.556641" xlink:href="#DejaVuSans-110"/>
      <use x="381.935547" xlink:href="#DejaVuSans-115"/>
      <use x="434.035156" xlink:href="#DejaVuSans-41"/>
     </g>
    </g>
    <g id="text_15">
     <!-- 1e10 -->
     <g transform="translate(57.6 38.472)scale(0.1 -0.1)">
      <use xlink:href="#DejaVuSans-49"/>
      <use x="63.623047" xlink:href="#DejaVuSans-101"/>
      <use x="125.146484" xlink:href="#DejaVuSans-49"/>
      <use x="188.769531" xlink:href="#DejaVuSans-48"/>
     </g>
    </g>
   </g>
   <g id="line2d_13">
    <path clip-path="url(#p137db5a131)" d="M 73.832727 295.487994 
L 73.843296 295.487984 
L 73.864433 295.48797 
L 73.906707 295.487938 
L 73.991255 295.487871 
L 74.160352 295.487737 
L 74.498544 295.48748 
L 75.17493 295.486711 
L 76.527701 295.484835 
L 79.233244 295.4797 
L 84.644329 295.463613 
L 95.4665 295.410351 
L 138.755182 294.900658 
L 182.043863 293.931998 
L 225.332545 292.487702 
L 268.621227 290.46269 
L 311.909909 288.107944 
L 355.198591 285.070304 
L 398.487273 281.758011 
" style="fill:none;stroke:#ff0029;stroke-dasharray:5.55,2.4;stroke-dashoffset:0;stroke-width:1.5;"/>
    <defs>
     <path d="M 0 3 
C 0.795609 3 1.55874 2.683901 2.12132 2.12132 
C 2.683901 1.55874 3 0.795609 3 0 
C 3 -0.795609 2.683901 -1.55874 2.12132 -2.12132 
C 1.55874 -2.683901 0.795609 -3 0 -3 
C -0.795609 -3 -1.55874 -2.683901 -2.12132 -2.12132 
C -2.683901 -1.55874 -3 -0.795609 -3 0 
C -3 0.795609 -2.683901 1.55874 -2.12132 2.12132 
C -1.55874 2.683901 -0.795609 3 0 3 
z
" id="mea208a6f5f" style="stroke:#ff0029;"/>
    </defs>
    <g clip-path="url(#p137db5a131)">
     <use style="fill:#ff0029;stroke:#ff0029;" x="73.832727" xlink:href="#mea208a6f5f" y="295.487994"/>
     <use style="fill:#ff0029;stroke:#ff0029;" x="73.843296" xlink:href="#mea208a6f5f" y="295.487984"/>
     <use style="fill:#ff0029;stroke:#ff0029;" x="73.864433" xlink:href="#mea208a6f5f" y="295.48797"/>
     <use style="fill:#ff0029;stroke:#ff0029;" x="73.906707" xlink:href="#mea208a6f5f" y="295.487938"/>
     <use style="fill:#ff0029;stroke:#ff0029;" x="73.991255" xlink:href="#mea208a6f5f" y="295.487871"/>
     <use style="fill:#ff0029;stroke:#ff0029;" x="74.160352" xlink:href="#mea208a6f5f" y="295.487737"/>
     <use style="fill:#ff0029;stroke:#ff0029;" x="74.498544" xlink:href="#mea208a6f5f" y="295.48748"/>
     <use style="fill:#ff0029;stroke:#ff0029;" x="75.17493" xlink:href="#mea208a6f5f" y="295.486711"/>
     <use style="fill:#ff0029;stroke:#ff0029;" x="76.527701" xlink:href="#mea208a6f5f" y="295.484835"/>
     <use style="fill:#ff0029;stroke:#ff0029;" x="79.233244" xlink:href="#mea208a6f5f" y="295.4797"/>
     <use style="fill:#ff0029;stroke:#ff0029;" x="84.644329" xlink:href="#mea208a6f5f" y="295.463613"/>
     <use style="fill:#ff0029;stroke:#ff0029;" x="95.4665" xlink:href="#mea208a6f5f" y="295.410351"/>
     <use style="fill:#ff0029;stroke:#ff0029;" x="138.755182" xlink:href="#mea208a6f5f" y="294.900658"/>
     <use style="fill:#ff0029;stroke:#ff0029;" x="182.043863" xlink:href="#mea208a6f5f" y="293.931998"/>
     <use style="fill:#ff0029;stroke:#ff0029;" x="225.332545" xlink:href="#mea208a6f5f" y="292.487702"/>
     <use style="fill:#ff0029;stroke:#ff0029;" x="268.621227" xlink:href="#mea208a6f5f" y="290.46269"/>
     <use style="fill:#ff0029;stroke:#ff0029;" x="311.909909" xlink:href="#mea208a6f5f" y="288.107944"/>
     <use style="fill:#ff0029;stroke:#ff0029;" x="355.198591" xlink:href="#mea208a6f5f" y="285.070304"/>
     <use style="fill:#ff0029;stroke:#ff0029;" x="398.487273" xlink:href="#mea208a6f5f" y="281.758011"/>
    </g>
   </g>
   <g id="line2d_14">
    <path clip-path="url(#p137db5a131)" d="M 73.832727 295.488 
L 73.843296 295.487998 
L 73.864433 295.487993 
L 73.906707 295.487985 
L 73.991255 295.487969 
L 74.160352 295.487932 
L 74.498544 295.487863 
L 75.17493 295.487718 
L 76.527701 295.4874 
L 79.233244 295.486658 
L 84.644329 295.484905 
L 95.4665 295.479808 
L 138.755182 295.431336 
L 182.043863 295.329374 
L 225.332545 295.154845 
L 268.621227 294.912007 
L 311.909909 294.582191 
L 355.198591 294.181805 
L 398.487273 293.6927 
" style="fill:none;stroke:#ff4800;stroke-dasharray:1.5,2.475;stroke-dashoffset:0;stroke-width:1.5;"/>
    <defs>
     <path d="M 0 3 
C 0.795609 3 1.55874 2.683901 2.12132 2.12132 
C 2.683901 1.55874 3 0.795609 3 0 
C 3 -0.795609 2.683901 -1.55874 2.12132 -2.12132 
C 1.55874 -2.683901 0.795609 -3 0 -3 
C -0.795609 -3 -1.55874 -2.683901 -2.12132 -2.12132 
C -2.683901 -1.55874 -3 -0.795609 -3 0 
C -3 0.795609 -2.683901 1.55874 -2.12132 2.12132 
C -1.55874 2.683901 -0.795609 3 0 3 
z
" id="m7d40c74eaa" style="stroke:#ff4800;"/>
    </defs>
    <g clip-path="url(#p137db5a131)">
     <use style="fill:#ff4800;stroke:#ff4800;" x="73.832727" xlink:href="#m7d40c74eaa" y="295.488"/>
     <use style="fill:#ff4800;stroke:#ff4800;" x="73.843296" xlink:href="#m7d40c74eaa" y="295.487998"/>
     <use style="fill:#ff4800;stroke:#ff4800;" x="73.864433" xlink:href="#m7d40c74eaa" y="295.487993"/>
     <use style="fill:#ff4800;stroke:#ff4800;" x="73.906707" xlink:href="#m7d40c74eaa" y="295.487985"/>
     <use style="fill:#ff4800;stroke:#ff4800;" x="73.991255" xlink:href="#m7d40c74eaa" y="295.487969"/>
     <use style="fill:#ff4800;stroke:#ff4800;" x="74.160352" xlink:href="#m7d40c74eaa" y="295.487932"/>
     <use style="fill:#ff4800;stroke:#ff4800;" x="74.498544" xlink:href="#m7d40c74eaa" y="295.487863"/>
     <use style="fill:#ff4800;stroke:#ff4800;" x="75.17493" xlink:href="#m7d40c74eaa" y="295.487718"/>
     <use style="fill:#ff4800;stroke:#ff4800;" x="76.527701" xlink:href="#m7d40c74eaa" y="295.4874"/>
     <use style="fill:#ff4800;stroke:#ff4800;" x="79.233244" xlink:href="#m7d40c74eaa" y="295.486658"/>
     <use style="fill:#ff4800;stroke:#ff4800;" x="84.644329" xlink:href="#m7d40c74eaa" y="295.484905"/>
     <use style="fill:#ff4800;stroke:#ff4800;" x="95.4665" xlink:href="#m7d40c74eaa" y="295.479808"/>
     <use style="fill:#ff4800;stroke:#ff4800;" x="138.755182" xlink:href="#m7d40c74eaa" y="295.431336"/>
     <use style="fill:#ff4800;stroke:#ff4800;" x="182.043863" xlink:href="#m7d40c74eaa" y="295.329374"/>
     <use style="fill:#ff4800;stroke:#ff4800;" x="225.332545" xlink:href="#m7d40c74eaa" y="295.154845"/>
     <use style="fill:#ff4800;stroke:#ff4800;" x="268.621227" xlink:href="#m7d40c74eaa" y="294.912007"/>
     <use style="fill:#ff4800;stroke:#ff4800;" x="311.909909" xlink:href="#m7d40c74eaa" y="294.582191"/>
     <use style="fill:#ff4800;stroke:#ff4800;" x="355.198591" xlink:href="#m7d40c74eaa" y="294.181805"/>
     <use style="fill:#ff4800;stroke:#ff4800;" x="398.487273" xlink:href="#m7d40c74eaa" y="293.6927"/>
    </g>
   </g>
   <g id="line2d_15">
    <path clip-path="url(#p137db5a131)" d="M 73.832727 295.488 
L 73.843296 295.487998 
L 73.864433 295.487994 
L 73.906707 295.487985 
L 73.991255 295.487969 
L 74.160352 295.487932 
L 74.498544 295.487841 
L 75.17493 295.487594 
L 76.527701 295.48668 
L 79.233244 295.48117 
L 84.644329 295.451095 
L 95.4665 295.260798 
L 138.755182 292.098995 
L 182.043863 283.90458 
L 225.332545 271.030274 
L 268.621227 253.646789 
L 311.909909 231.552335 
L 355.198591 205.524303 
L 398.487273 173.287506 
" style="fill:none;stroke:#ffba00;stroke-dasharray:5.55,2.4;stroke-dashoffset:0;stroke-width:1.5;"/>
    <defs>
     <path d="M 0 3 
C 0.795609 3 1.55874 2.683901 2.12132 2.12132 
C 2.683901 1.55874 3 0.795609 3 0 
C 3 -0.795609 2.683901 -1.55874 2.12132 -2.12132 
C 1.55874 -2.683901 0.795609 -3 0 -3 
C -0.795609 -3 -1.55874 -2.683901 -2.12132 -2.12132 
C -2.683901 -1.55874 -3 -0.795609 -3 0 
C -3 0.795609 -2.683901 1.55874 -2.12132 2.12132 
C -1.55874 2.683901 -0.795609 3 0 3 
z
" id="m38d25b5fb0" style="stroke:#ffba00;"/>
    </defs>
    <g clip-path="url(#p137db5a131)">
     <use style="fill:#ffba00;stroke:#ffba00;" x="73.832727" xlink:href="#m38d25b5fb0" y="295.488"/>
     <use style="fill:#ffba00;stroke:#ffba00;" x="73.843296" xlink:href="#m38d25b5fb0" y="295.487998"/>
     <use style="fill:#ffba00;stroke:#ffba00;" x="73.864433" xlink:href="#m38d25b5fb0" y="295.487994"/>
     <use style="fill:#ffba00;stroke:#ffba00;" x="73.906707" xlink:href="#m38d25b5fb0" y="295.487985"/>
     <use style="fill:#ffba00;stroke:#ffba00;" x="73.991255" xlink:href="#m38d25b5fb0" y="295.487969"/>
     <use style="fill:#ffba00;stroke:#ffba00;" x="74.160352" xlink:href="#m38d25b5fb0" y="295.487932"/>
     <use style="fill:#ffba00;stroke:#ffba00;" x="74.498544" xlink:href="#m38d25b5fb0" y="295.487841"/>
     <use style="fill:#ffba00;stroke:#ffba00;" x="75.17493" xlink:href="#m38d25b5fb0" y="295.487594"/>
     <use style="fill:#ffba00;stroke:#ffba00;" x="76.527701" xlink:href="#m38d25b5fb0" y="295.48668"/>
     <use style="fill:#ffba00;stroke:#ffba00;" x="79.233244" xlink:href="#m38d25b5fb0" y="295.48117"/>
     <use style="fill:#ffba00;stroke:#ffba00;" x="84.644329" xlink:href="#m38d25b5fb0" y="295.451095"/>
     <use style="fill:#ffba00;stroke:#ffba00;" x="95.4665" xlink:href="#m38d25b5fb0" y="295.260798"/>
     <use style="fill:#ffba00;stroke:#ffba00;" x="138.755182" xlink:href="#m38d25b5fb0" y="292.098995"/>
     <use style="fill:#ffba00;stroke:#ffba00;" x="182.043863" xlink:href="#m38d25b5fb0" y="283.90458"/>
     <use style="fill:#ffba00;stroke:#ffba00;" x="225.332545" xlink:href="#m38d25b5fb0" y="271.030274"/>
     <use style="fill:#ffba00;stroke:#ffba00;" x="268.621227" xlink:href="#m38d25b5fb0" y="253.646789"/>
     <use style="fill:#ffba00;stroke:#ffba00;" x="311.909909" xlink:href="#m38d25b5fb0" y="231.552335"/>
     <use style="fill:#ffba00;stroke:#ffba00;" x="355.198591" xlink:href="#m38d25b5fb0" y="205.524303"/>
     <use style="fill:#ffba00;stroke:#ffba00;" x="398.487273" xlink:href="#m38d25b5fb0" y="173.287506"/>
    </g>
   </g>
   <g id="line2d_16">
    <path clip-path="url(#p137db5a131)" d="M 73.832727 295.488 
L 73.843296 295.487998 
L 73.864433 295.487994 
L 73.906707 295.487986 
L 73.991255 295.48797 
L 74.160352 295.487935 
L 74.498544 295.487864 
L 75.17493 295.487716 
L 76.527701 295.487398 
L 79.233244 295.48667 
L 84.644329 295.484878 
L 95.4665 295.479326 
L 138.755182 295.426998 
L 182.043863 295.325563 
L 225.332545 295.166707 
L 268.621227 294.947739 
L 311.909909 294.627076 
L 355.198591 294.220472 
L 398.487273 293.747622 
" style="fill:none;stroke:#cdff00;stroke-dasharray:1.5,2.475;stroke-dashoffset:0;stroke-width:1.5;"/>
    <defs>
     <path d="M 0 3 
C 0.795609 3 1.55874 2.683901 2.12132 2.12132 
C 2.683901 1.55874 3 0.795609 3 0 
C 3 -0.795609 2.683901 -1.55874 2.12132 -2.12132 
C 1.55874 -2.683901 0.795609 -3 0 -3 
C -0.795609 -3 -1.55874 -2.683901 -2.12132 -2.12132 
C -2.683901 -1.55874 -3 -0.795609 -3 0 
C -3 0.795609 -2.683901 1.55874 -2.12132 2.12132 
C -1.55874 2.683901 -0.795609 3 0 3 
z
" id="m5df9690fb4" style="stroke:#cdff00;"/>
    </defs>
    <g clip-path="url(#p137db5a131)">
     <use style="fill:#cdff00;stroke:#cdff00;" x="73.832727" xlink:href="#m5df9690fb4" y="295.488"/>
     <use style="fill:#cdff00;stroke:#cdff00;" x="73.843296" xlink:href="#m5df9690fb4" y="295.487998"/>
     <use style="fill:#cdff00;stroke:#cdff00;" x="73.864433" xlink:href="#m5df9690fb4" y="295.487994"/>
     <use style="fill:#cdff00;stroke:#cdff00;" x="73.906707" xlink:href="#m5df9690fb4" y="295.487986"/>
     <use style="fill:#cdff00;stroke:#cdff00;" x="73.991255" xlink:href="#m5df9690fb4" y="295.48797"/>
     <use style="fill:#cdff00;stroke:#cdff00;" x="74.160352" xlink:href="#m5df9690fb4" y="295.487935"/>
     <use style="fill:#cdff00;stroke:#cdff00;" x="74.498544" xlink:href="#m5df9690fb4" y="295.487864"/>
     <use style="fill:#cdff00;stroke:#cdff00;" x="75.17493" xlink:href="#m5df9690fb4" y="295.487716"/>
     <use style="fill:#cdff00;stroke:#cdff00;" x="76.527701" xlink:href="#m5df9690fb4" y="295.487398"/>
     <use style="fill:#cdff00;stroke:#cdff00;" x="79.233244" xlink:href="#m5df9690fb4" y="295.48667"/>
     <use style="fill:#cdff00;stroke:#cdff00;" x="84.644329" xlink:href="#m5df9690fb4" y="295.484878"/>
     <use style="fill:#cdff00;stroke:#cdff00;" x="95.4665" xlink:href="#m5df9690fb4" y="295.479326"/>
     <use style="fill:#cdff00;stroke:#cdff00;" x="138.755182" xlink:href="#m5df9690fb4" y="295.426998"/>
     <use style="fill:#cdff00;stroke:#cdff00;" x="182.043863" xlink:href="#m5df9690fb4" y="295.325563"/>
     <use style="fill:#cdff00;stroke:#cdff00;" x="225.332545" xlink:href="#m5df9690fb4" y="295.166707"/>
     <use style="fill:#cdff00;stroke:#cdff00;" x="268.621227" xlink:href="#m5df9690fb4" y="294.947739"/>
     <use style="fill:#cdff00;stroke:#cdff00;" x="311.909909" xlink:href="#m5df9690fb4" y="294.627076"/>
     <use style="fill:#cdff00;stroke:#cdff00;" x="355.198591" xlink:href="#m5df9690fb4" y="294.220472"/>
     <use style="fill:#cdff00;stroke:#cdff00;" x="398.487273" xlink:href="#m5df9690fb4" y="293.747622"/>
    </g>
   </g>
   <g id="line2d_17">
    <path clip-path="url(#p137db5a131)" d="M 73.832727 295.488 
L 73.843296 295.487998 
L 73.864433 295.487993 
L 73.906707 295.487984 
L 73.991255 295.487964 
L 74.160352 295.487916 
L 74.498544 295.487788 
L 75.17493 295.48737 
L 76.527701 295.485332 
L 79.233244 295.475075 
L 84.644329 295.418253 
L 95.4665 295.082314 
L 138.755182 288.931401 
L 182.043863 272.799918 
L 225.332545 247.081523 
L 268.621227 211.558155 
L 311.909909 167.850803 
L 355.198591 114.419131 
L 398.487273 53.568 
" style="fill:none;stroke:#5cff00;stroke-dasharray:5.55,2.4;stroke-dashoffset:0;stroke-width:1.5;"/>
    <defs>
     <path d="M 0 3 
C 0.795609 3 1.55874 2.683901 2.12132 2.12132 
C 2.683901 1.55874 3 0.795609 3 0 
C 3 -0.795609 2.683901 -1.55874 2.12132 -2.12132 
C 1.55874 -2.683901 0.795609 -3 0 -3 
C -0.795609 -3 -1.55874 -2.683901 -2.12132 -2.12132 
C -2.683901 -1.55874 -3 -0.795609 -3 0 
C -3 0.795609 -2.683901 1.55874 -2.12132 2.12132 
C -1.55874 2.683901 -0.795609 3 0 3 
z
" id="m5dd8f4478a" style="stroke:#5cff00;"/>
    </defs>
    <g clip-path="url(#p137db5a131)">
     <use style="fill:#5cff00;stroke:#5cff00;" x="73.832727" xlink:href="#m5dd8f4478a" y="295.488"/>
     <use style="fill:#5cff00;stroke:#5cff00;" x="73.843296" xlink:href="#m5dd8f4478a" y="295.487998"/>
     <use style="fill:#5cff00;stroke:#5cff00;" x="73.864433" xlink:href="#m5dd8f4478a" y="295.487993"/>
     <use style="fill:#5cff00;stroke:#5cff00;" x="73.906707" xlink:href="#m5dd8f4478a" y="295.487984"/>
     <use style="fill:#5cff00;stroke:#5cff00;" x="73.991255" xlink:href="#m5dd8f4478a" y="295.487964"/>
     <use style="fill:#5cff00;stroke:#5cff00;" x="74.160352" xlink:href="#m5dd8f4478a" y="295.487916"/>
     <use style="fill:#5cff00;stroke:#5cff00;" x="74.498544" xlink:href="#m5dd8f4478a" y="295.487788"/>
     <use style="fill:#5cff00;stroke:#5cff00;" x="75.17493" xlink:href="#m5dd8f4478a" y="295.48737"/>
     <use style="fill:#5cff00;stroke:#5cff00;" x="76.527701" xlink:href="#m5dd8f4478a" y="295.485332"/>
     <use style="fill:#5cff00;stroke:#5cff00;" x="79.233244" xlink:href="#m5dd8f4478a" y="295.475075"/>
     <use style="fill:#5cff00;stroke:#5cff00;" x="84.644329" xlink:href="#m5dd8f4478a" y="295.418253"/>
     <use style="fill:#5cff00;stroke:#5cff00;" x="95.4665" xlink:href="#m5dd8f4478a" y="295.082314"/>
     <use style="fill:#5cff00;stroke:#5cff00;" x="138.755182" xlink:href="#m5dd8f4478a" y="288.931401"/>
     <use style="fill:#5cff00;stroke:#5cff00;" x="182.043863" xlink:href="#m5dd8f4478a" y="272.799918"/>
     <use style="fill:#5cff00;stroke:#5cff00;" x="225.332545" xlink:href="#m5dd8f4478a" y="247.081523"/>
     <use style="fill:#5cff00;stroke:#5cff00;" x="268.621227" xlink:href="#m5dd8f4478a" y="211.558155"/>
     <use style="fill:#5cff00;stroke:#5cff00;" x="311.909909" xlink:href="#m5dd8f4478a" y="167.850803"/>
     <use style="fill:#5cff00;stroke:#5cff00;" x="355.198591" xlink:href="#m5dd8f4478a" y="114.419131"/>
     <use style="fill:#5cff00;stroke:#5cff00;" x="398.487273" xlink:href="#m5dd8f4478a" y="53.568"/>
    </g>
   </g>
   <g id="line2d_18">
    <path clip-path="url(#p137db5a131)" d="M 73.832727 295.488 
L 73.843296 295.487998 
L 73.864433 295.487994 
L 73.906707 295.487986 
L 73.991255 295.487971 
L 74.160352 295.487937 
L 74.498544 295.487868 
L 75.17493 295.487713 
L 76.527701 295.487403 
L 79.233244 295.486682 
L 84.644329 295.484942 
L 95.4665 295.479776 
L 138.755182 295.427981 
L 182.043863 295.331269 
L 225.332545 295.167145 
L 268.621227 294.938745 
L 311.909909 294.592686 
L 355.198591 294.221324 
L 398.487273 293.742695 
" style="fill:none;stroke:#00ff16;stroke-dasharray:1.5,2.475;stroke-dashoffset:0;stroke-width:1.5;"/>
    <defs>
     <path d="M 0 3 
C 0.795609 3 1.55874 2.683901 2.12132 2.12132 
C 2.683901 1.55874 3 0.795609 3 0 
C 3 -0.795609 2.683901 -1.55874 2.12132 -2.12132 
C 1.55874 -2.683901 0.795609 -3 0 -3 
C -0.795609 -3 -1.55874 -2.683901 -2.12132 -2.12132 
C -2.683901 -1.55874 -3 -0.795609 -3 0 
C -3 0.795609 -2.683901 1.55874 -2.12132 2.12132 
C -1.55874 2.683901 -0.795609 3 0 3 
z
" id="mefc20f5947" style="stroke:#00ff16;"/>
    </defs>
    <g clip-path="url(#p137db5a131)">
     <use style="fill:#00ff16;stroke:#00ff16;" x="73.832727" xlink:href="#mefc20f5947" y="295.488"/>
     <use style="fill:#00ff16;stroke:#00ff16;" x="73.843296" xlink:href="#mefc20f5947" y="295.487998"/>
     <use style="fill:#00ff16;stroke:#00ff16;" x="73.864433" xlink:href="#mefc20f5947" y="295.487994"/>
     <use style="fill:#00ff16;stroke:#00ff16;" x="73.906707" xlink:href="#mefc20f5947" y="295.487986"/>
     <use style="fill:#00ff16;stroke:#00ff16;" x="73.991255" xlink:href="#mefc20f5947" y="295.487971"/>
     <use style="fill:#00ff16;stroke:#00ff16;" x="74.160352" xlink:href="#mefc20f5947" y="295.487937"/>
     <use style="fill:#00ff16;stroke:#00ff16;" x="74.498544" xlink:href="#mefc20f5947" y="295.487868"/>
     <use style="fill:#00ff16;stroke:#00ff16;" x="75.17493" xlink:href="#mefc20f5947" y="295.487713"/>
     <use style="fill:#00ff16;stroke:#00ff16;" x="76.527701" xlink:href="#mefc20f5947" y="295.487403"/>
     <use style="fill:#00ff16;stroke:#00ff16;" x="79.233244" xlink:href="#mefc20f5947" y="295.486682"/>
     <use style="fill:#00ff16;stroke:#00ff16;" x="84.644329" xlink:href="#mefc20f5947" y="295.484942"/>
     <use style="fill:#00ff16;stroke:#00ff16;" x="95.4665" xlink:href="#mefc20f5947" y="295.479776"/>
     <use style="fill:#00ff16;stroke:#00ff16;" x="138.755182" xlink:href="#mefc20f5947" y="295.427981"/>
     <use style="fill:#00ff16;stroke:#00ff16;" x="182.043863" xlink:href="#mefc20f5947" y="295.331269"/>
     <use style="fill:#00ff16;stroke:#00ff16;" x="225.332545" xlink:href="#mefc20f5947" y="295.167145"/>
     <use style="fill:#00ff16;stroke:#00ff16;" x="268.621227" xlink:href="#mefc20f5947" y="294.938745"/>
     <use style="fill:#00ff16;stroke:#00ff16;" x="311.909909" xlink:href="#mefc20f5947" y="294.592686"/>
     <use style="fill:#00ff16;stroke:#00ff16;" x="355.198591" xlink:href="#mefc20f5947" y="294.221324"/>
     <use style="fill:#00ff16;stroke:#00ff16;" x="398.487273" xlink:href="#mefc20f5947" y="293.742695"/>
    </g>
   </g>
   <g id="patch_3">
    <path d="M 57.6 307.584 
L 57.6 41.472 
" style="fill:none;stroke:#000000;stroke-linecap:square;stroke-linejoin:miter;stroke-width:0.8;"/>
   </g>
   <g id="patch_4">
    <path d="M 414.72 307.584 
L 414.72 41.472 
" style="fill:none;stroke:#000000;stroke-linecap:square;stroke-linejoin:miter;stroke-width:0.8;"/>
   </g>
   <g id="patch_5">
    <path d="M 57.6 307.584 
L 414.72 307.584 
" style="fill:none;stroke:#000000;stroke-linecap:square;stroke-linejoin:miter;stroke-width:0.8;"/>
   </g>
   <g id="patch_6">
    <path d="M 57.6 41.472 
L 414.72 41.472 
" style="fill:none;stroke:#000000;stroke-linecap:square;stroke-linejoin:miter;stroke-width:0.8;"/>
   </g>
   <g id="text_16">
    <!-- deque InsertRandPos -->
    <defs>
     <path d="M 45.40625 46.390625 
L 45.40625 75.984375 
L 54.390625 75.984375 
L 54.390625 0 
L 45.40625 0 
L 45.40625 8.203125 
Q 42.578125 3.328125 38.25 0.953125 
Q 33.9375 -1.421875 27.875 -1.421875 
Q 17.96875 -1.421875 11.734375 6.484375 
Q 5.515625 14.40625 5.515625 27.296875 
Q 5.515625 40.1875 11.734375 48.09375 
Q 17.96875 56 27.875 56 
Q 33.9375 56 38.25 53.625 
Q 42.578125 51.265625 45.40625 46.390625 
z
M 14.796875 27.296875 
Q 14.796875 17.390625 18.875 11.75 
Q 22.953125 6.109375 30.078125 6.109375 
Q 37.203125 6.109375 41.296875 11.75 
Q 45.40625 17.390625 45.40625 27.296875 
Q 45.40625 37.203125 41.296875 42.84375 
Q 37.203125 48.484375 30.078125 48.484375 
Q 22.953125 48.484375 18.875 42.84375 
Q 14.796875 37.203125 14.796875 27.296875 
z
" id="DejaVuSans-100"/>
     <path d="M 14.796875 27.296875 
Q 14.796875 17.390625 18.875 11.75 
Q 22.953125 6.109375 30.078125 6.109375 
Q 37.203125 6.109375 41.296875 11.75 
Q 45.40625 17.390625 45.40625 27.296875 
Q 45.40625 37.203125 41.296875 42.84375 
Q 37.203125 48.484375 30.078125 48.484375 
Q 22.953125 48.484375 18.875 42.84375 
Q 14.796875 37.203125 14.796875 27.296875 
z
M 45.40625 8.203125 
Q 42.578125 3.328125 38.25 0.953125 
Q 33.9375 -1.421875 27.875 -1.421875 
Q 17.96875 -1.421875 11.734375 6.484375 
Q 5.515625 14.40625 5.515625 27.296875 
Q 5.515625 40.1875 11.734375 48.09375 
Q 17.96875 56 27.875 56 
Q 33.9375 56 38.25 53.625 
Q 42.578125 51.265625 45.40625 46.390625 
L 45.40625 54.6875 
L 54.390625 54.6875 
L 54.390625 -20.796875 
L 45.40625 -20.796875 
z
" id="DejaVuSans-113"/>
     <path d="M 8.5 21.578125 
L 8.5 54.6875 
L 17.484375 54.6875 
L 17.484375 21.921875 
Q 17.484375 14.15625 20.5 10.265625 
Q 23.53125 6.390625 29.59375 6.390625 
Q 36.859375 6.390625 41.078125 11.03125 
Q 45.3125 15.671875 45.3125 23.6875 
L 45.3125 54.6875 
L 54.296875 54.6875 
L 54.296875 0 
L 45.3125 0 
L 45.3125 8.40625 
Q 42.046875 3.421875 37.71875 1 
Q 33.40625 -1.421875 27.6875 -1.421875 
Q 18.265625 -1.421875 13.375 4.4375 
Q 8.5 10.296875 8.5 21.578125 
z
M 31.109375 56 
z
" id="DejaVuSans-117"/>
     <path d="M 9.8125 72.90625 
L 19.671875 72.90625 
L 19.671875 0 
L 9.8125 0 
z
" id="DejaVuSans-73"/>
     <path d="M 41.109375 46.296875 
Q 39.59375 47.171875 37.8125 47.578125 
Q 36.03125 48 33.890625 48 
Q 26.265625 48 22.1875 43.046875 
Q 18.109375 38.09375 18.109375 28.8125 
L 18.109375 0 
L 9.078125 0 
L 9.078125 54.6875 
L 18.109375 54.6875 
L 18.109375 46.1875 
Q 20.953125 51.171875 25.484375 53.578125 
Q 30.03125 56 36.53125 56 
Q 37.453125 56 38.578125 55.875 
Q 39.703125 55.765625 41.0625 55.515625 
z
" id="DejaVuSans-114"/>
     <path d="M 18.3125 70.21875 
L 18.3125 54.6875 
L 36.8125 54.6875 
L 36.8125 47.703125 
L 18.3125 47.703125 
L 18.3125 18.015625 
Q 18.3125 11.328125 20.140625 9.421875 
Q 21.96875 7.515625 27.59375 7.515625 
L 36.8125 7.515625 
L 36.8125 0 
L 27.59375 0 
Q 17.1875 0 13.234375 3.875 
Q 9.28125 7.765625 9.28125 18.015625 
L 9.28125 47.703125 
L 2.6875 47.703125 
L 2.6875 54.6875 
L 9.28125 54.6875 
L 9.28125 70.21875 
z
" id="DejaVuSans-116"/>
     <path d="M 44.390625 34.1875 
Q 47.5625 33.109375 50.5625 29.59375 
Q 53.5625 26.078125 56.59375 19.921875 
L 66.609375 0 
L 56 0 
L 46.6875 18.703125 
Q 43.0625 26.03125 39.671875 28.421875 
Q 36.28125 30.8125 30.421875 30.8125 
L 19.671875 30.8125 
L 19.671875 0 
L 9.8125 0 
L 9.8125 72.90625 
L 32.078125 72.90625 
Q 44.578125 72.90625 50.734375 67.671875 
Q 56.890625 62.453125 56.890625 51.90625 
Q 56.890625 45.015625 53.6875 40.46875 
Q 50.484375 35.9375 44.390625 34.1875 
z
M 19.671875 64.796875 
L 19.671875 38.921875 
L 32.078125 38.921875 
Q 39.203125 38.921875 42.84375 42.21875 
Q 46.484375 45.515625 46.484375 51.90625 
Q 46.484375 58.296875 42.84375 61.546875 
Q 39.203125 64.796875 32.078125 64.796875 
z
" id="DejaVuSans-82"/>
     <path d="M 34.28125 27.484375 
Q 23.390625 27.484375 19.1875 25 
Q 14.984375 22.515625 14.984375 16.5 
Q 14.984375 11.71875 18.140625 8.90625 
Q 21.296875 6.109375 26.703125 6.109375 
Q 34.1875 6.109375 38.703125 11.40625 
Q 43.21875 16.703125 43.21875 25.484375 
L 43.21875 27.484375 
z
M 52.203125 31.203125 
L 52.203125 0 
L 43.21875 0 
L 43.21875 8.296875 
Q 40.140625 3.328125 35.546875 0.953125 
Q 30.953125 -1.421875 24.3125 -1.421875 
Q 15.921875 -1.421875 10.953125 3.296875 
Q 6 8.015625 6 15.921875 
Q 6 25.140625 12.171875 29.828125 
Q 18.359375 34.515625 30.609375 34.515625 
L 43.21875 34.515625 
L 43.21875 35.40625 
Q 43.21875 41.609375 39.140625 45 
Q 35.0625 48.390625 27.6875 48.390625 
Q 23 48.390625 18.546875 47.265625 
Q 14.109375 46.140625 10.015625 43.890625 
L 10.015625 52.203125 
Q 14.9375 54.109375 19.578125 55.046875 
Q 24.21875 56 28.609375 56 
Q 40.484375 56 46.34375 49.84375 
Q 52.203125 43.703125 52.203125 31.203125 
z
" id="DejaVuSans-97"/>
     <path d="M 19.671875 64.796875 
L 19.671875 37.40625 
L 32.078125 37.40625 
Q 38.96875 37.40625 42.71875 40.96875 
Q 46.484375 44.53125 46.484375 51.125 
Q 46.484375 57.671875 42.71875 61.234375 
Q 38.96875 64.796875 32.078125 64.796875 
z
M 9.8125 72.90625 
L 32.078125 72.90625 
Q 44.34375 72.90625 50.609375 67.359375 
Q 56.890625 61.8125 56.890625 51.125 
Q 56.890625 40.328125 50.609375 34.8125 
Q 44.34375 29.296875 32.078125 29.296875 
L 19.671875 29.296875 
L 19.671875 0 
L 9.8125 0 
z
" id="DejaVuSans-80"/>
     <path d="M 30.609375 48.390625 
Q 23.390625 48.390625 19.1875 42.75 
Q 14.984375 37.109375 14.984375 27.296875 
Q 14.984375 17.484375 19.15625 11.84375 
Q 23.34375 6.203125 30.609375 6.203125 
Q 37.796875 6.203125 41.984375 11.859375 
Q 46.1875 17.53125 46.1875 27.296875 
Q 46.1875 37.015625 41.984375 42.703125 
Q 37.796875 48.390625 30.609375 48.390625 
z
M 30.609375 56 
Q 42.328125 56 49.015625 48.375 
Q 55.71875 40.765625 55.71875 27.296875 
Q 55.71875 13.875 49.015625 6.21875 
Q 42.328125 -1.421875 30.609375 -1.421875 
Q 18.84375 -1.421875 12.171875 6.21875 
Q 5.515625 13.875 5.515625 27.296875 
Q 5.515625 40.765625 12.171875 48.375 
Q 18.84375 56 30.609375 56 
z
" id="DejaVuSans-111"/>
    </defs>
    <g transform="translate(172.3725 35.472)scale(0.12 -0.12)">
     <use xlink:href="#DejaVuSans-100"/>
     <use x="63.476562" xlink:href="#DejaVuSans-101"/>
     <use x="125" xlink:href="#DejaVuSans-113"/>
     <use x="188.476562" xlink:href="#DejaVuSans-117"/>
     <use x="251.855469" xlink:href="#DejaVuSans-101"/>
     <use x="313.378906" xlink:href="#DejaVuSans-32"/>
     <use x="345.166016" xlink:href="#DejaVuSans-73"/>
     <use x="374.658203" xlink:href="#DejaVuSans-110"/>
     <use x="438.037109" xlink:href="#DejaVuSans-115"/>
     <use x="490.136719" xlink:href="#DejaVuSans-101"/>
     <use x="551.660156" xlink:href="#DejaVuSans-114"/>
     <use x="592.773438" xlink:href="#DejaVuSans-116"/>
     <use x="631.982422" xlink:href="#DejaVuSans-82"/>
     <use x="701.433594" xlink:href="#DejaVuSans-97"/>
     <use x="762.712891" xlink:href="#DejaVuSans-110"/>
     <use x="826.091797" xlink:href="#DejaVuSans-100"/>
     <use x="889.568359" xlink:href="#DejaVuSans-80"/>
     <use x="949.824219" xlink:href="#DejaVuSans-111"/>
     <use x="1011.005859" xlink:href="#DejaVuSans-115"/>
    </g>
   </g>
   <g id="legend_1">
    <g id="patch_7">
     <path d="M 64.6 137.818875 
L 220.123437 137.818875 
Q 222.123437 137.818875 222.123437 135.818875 
L 222.123437 48.472 
Q 222.123437 46.472 220.123437 46.472 
L 64.6 46.472 
Q 62.6 46.472 62.6 48.472 
L 62.6 135.818875 
Q 62.6 137.818875 64.6 137.818875 
z
" style="fill:#ffffff;opacity:0.8;stroke:#cccccc;stroke-linejoin:miter;"/>
    </g>
    <g id="line2d_19">
     <path d="M 66.6 54.570438 
L 86.6 54.570438 
" style="fill:none;stroke:#ff0029;stroke-dasharray:5.55,2.4;stroke-dashoffset:0;stroke-width:1.5;"/>
    </g>
    <g id="line2d_20">
     <g>
      <use style="fill:#ff0029;stroke:#ff0029;" x="76.6" xlink:href="#mea208a6f5f" y="54.570438"/>
     </g>
    </g>
    <g id="text_17">
     <!-- CppDeque -->
     <defs>
      <path d="M 64.40625 67.28125 
L 64.40625 56.890625 
Q 59.421875 61.53125 53.78125 63.8125 
Q 48.140625 66.109375 41.796875 66.109375 
Q 29.296875 66.109375 22.65625 58.46875 
Q 16.015625 50.828125 16.015625 36.375 
Q 16.015625 21.96875 22.65625 14.328125 
Q 29.296875 6.6875 41.796875 6.6875 
Q 48.140625 6.6875 53.78125 8.984375 
Q 59.421875 11.28125 64.40625 15.921875 
L 64.40625 5.609375 
Q 59.234375 2.09375 53.4375 0.328125 
Q 47.65625 -1.421875 41.21875 -1.421875 
Q 24.65625 -1.421875 15.125 8.703125 
Q 5.609375 18.84375 5.609375 36.375 
Q 5.609375 53.953125 15.125 64.078125 
Q 24.65625 74.21875 41.21875 74.21875 
Q 47.75 74.21875 53.53125 72.484375 
Q 59.328125 70.75 64.40625 67.28125 
z
" id="DejaVuSans-67"/>
      <path d="M 18.109375 8.203125 
L 18.109375 -20.796875 
L 9.078125 -20.796875 
L 9.078125 54.6875 
L 18.109375 54.6875 
L 18.109375 46.390625 
Q 20.953125 51.265625 25.265625 53.625 
Q 29.59375 56 35.59375 56 
Q 45.5625 56 51.78125 48.09375 
Q 58.015625 40.1875 58.015625 27.296875 
Q 58.015625 14.40625 51.78125 6.484375 
Q 45.5625 -1.421875 35.59375 -1.421875 
Q 29.59375 -1.421875 25.265625 0.953125 
Q 20.953125 3.328125 18.109375 8.203125 
z
M 48.6875 27.296875 
Q 48.6875 37.203125 44.609375 42.84375 
Q 40.53125 48.484375 33.40625 48.484375 
Q 26.265625 48.484375 22.1875 42.84375 
Q 18.109375 37.203125 18.109375 27.296875 
Q 18.109375 17.390625 22.1875 11.75 
Q 26.265625 6.109375 33.40625 6.109375 
Q 40.53125 6.109375 44.609375 11.75 
Q 48.6875 17.390625 48.6875 27.296875 
z
" id="DejaVuSans-112"/>
      <path d="M 19.671875 64.796875 
L 19.671875 8.109375 
L 31.59375 8.109375 
Q 46.6875 8.109375 53.6875 14.9375 
Q 60.6875 21.78125 60.6875 36.53125 
Q 60.6875 51.171875 53.6875 57.984375 
Q 46.6875 64.796875 31.59375 64.796875 
z
M 9.8125 72.90625 
L 30.078125 72.90625 
Q 51.265625 72.90625 61.171875 64.09375 
Q 71.09375 55.28125 71.09375 36.53125 
Q 71.09375 17.671875 61.125 8.828125 
Q 51.171875 0 30.078125 0 
L 9.8125 0 
z
" id="DejaVuSans-68"/>
     </defs>
     <g transform="translate(94.6 58.070438)scale(0.1 -0.1)">
      <use xlink:href="#DejaVuSans-67"/>
      <use x="69.824219" xlink:href="#DejaVuSans-112"/>
      <use x="133.300781" xlink:href="#DejaVuSans-112"/>
      <use x="196.777344" xlink:href="#DejaVuSans-68"/>
      <use x="273.779297" xlink:href="#DejaVuSans-101"/>
      <use x="335.302734" xlink:href="#DejaVuSans-113"/>
      <use x="398.779297" xlink:href="#DejaVuSans-117"/>
      <use x="462.158203" xlink:href="#DejaVuSans-101"/>
     </g>
    </g>
    <g id="line2d_21">
     <path d="M 66.6 69.248563 
L 86.6 69.248563 
" style="fill:none;stroke:#ff4800;stroke-dasharray:1.5,2.475;stroke-dashoffset:0;stroke-width:1.5;"/>
    </g>
    <g id="line2d_22">
     <g>
      <use style="fill:#ff4800;stroke:#ff4800;" x="76.6" xlink:href="#m7d40c74eaa" y="69.248563"/>
     </g>
    </g>
    <g id="text_18">
     <!-- CcDeque -->
     <defs>
      <path d="M 48.78125 52.59375 
L 48.78125 44.1875 
Q 44.96875 46.296875 41.140625 47.34375 
Q 37.3125 48.390625 33.40625 48.390625 
Q 24.65625 48.390625 19.8125 42.84375 
Q 14.984375 37.3125 14.984375 27.296875 
Q 14.984375 17.28125 19.8125 11.734375 
Q 24.65625 6.203125 33.40625 6.203125 
Q 37.3125 6.203125 41.140625 7.25 
Q 44.96875 8.296875 48.78125 10.40625 
L 48.78125 2.09375 
Q 45.015625 0.34375 40.984375 -0.53125 
Q 36.96875 -1.421875 32.421875 -1.421875 
Q 20.0625 -1.421875 12.78125 6.34375 
Q 5.515625 14.109375 5.515625 27.296875 
Q 5.515625 40.671875 12.859375 48.328125 
Q 20.21875 56 33.015625 56 
Q 37.15625 56 41.109375 55.140625 
Q 45.0625 54.296875 48.78125 52.59375 
z
" id="DejaVuSans-99"/>
     </defs>
     <g transform="translate(94.6 72.748563)scale(0.1 -0.1)">
      <use xlink:href="#DejaVuSans-67"/>
      <use x="69.824219" xlink:href="#DejaVuSans-99"/>
      <use x="124.804688" xlink:href="#DejaVuSans-68"/>
      <use x="201.806641" xlink:href="#DejaVuSans-101"/>
      <use x="263.330078" xlink:href="#DejaVuSans-113"/>
      <use x="326.806641" xlink:href="#DejaVuSans-117"/>
      <use x="390.185547" xlink:href="#DejaVuSans-101"/>
     </g>
    </g>
    <g id="line2d_23">
     <path d="M 66.6 83.926688 
L 86.6 83.926688 
" style="fill:none;stroke:#ffba00;stroke-dasharray:5.55,2.4;stroke-dashoffset:0;stroke-width:1.5;"/>
    </g>
    <g id="line2d_24">
     <g>
      <use style="fill:#ffba00;stroke:#ffba00;" x="76.6" xlink:href="#m38d25b5fb0" y="83.926688"/>
     </g>
    </g>
    <g id="text_19">
     <!-- GQueue -->
     <defs>
      <path d="M 59.515625 10.40625 
L 59.515625 29.984375 
L 43.40625 29.984375 
L 43.40625 38.09375 
L 69.28125 38.09375 
L 69.28125 6.78125 
Q 63.578125 2.734375 56.6875 0.65625 
Q 49.8125 -1.421875 42 -1.421875 
Q 24.90625 -1.421875 15.25 8.5625 
Q 5.609375 18.5625 5.609375 36.375 
Q 5.609375 54.25 15.25 64.234375 
Q 24.90625 74.21875 42 74.21875 
Q 49.125 74.21875 55.546875 72.453125 
Q 61.96875 70.703125 67.390625 67.28125 
L 67.390625 56.78125 
Q 61.921875 61.421875 55.765625 63.765625 
Q 49.609375 66.109375 42.828125 66.109375 
Q 29.4375 66.109375 22.71875 58.640625 
Q 16.015625 51.171875 16.015625 36.375 
Q 16.015625 21.625 22.71875 14.15625 
Q 29.4375 6.6875 42.828125 6.6875 
Q 48.046875 6.6875 52.140625 7.59375 
Q 56.25 8.5 59.515625 10.40625 
z
" id="DejaVuSans-71"/>
      <path d="M 39.40625 66.21875 
Q 28.65625 66.21875 22.328125 58.203125 
Q 16.015625 50.203125 16.015625 36.375 
Q 16.015625 22.609375 22.328125 14.59375 
Q 28.65625 6.59375 39.40625 6.59375 
Q 50.140625 6.59375 56.421875 14.59375 
Q 62.703125 22.609375 62.703125 36.375 
Q 62.703125 50.203125 56.421875 58.203125 
Q 50.140625 66.21875 39.40625 66.21875 
z
M 53.21875 1.3125 
L 66.21875 -12.890625 
L 54.296875 -12.890625 
L 43.5 -1.21875 
Q 41.890625 -1.3125 41.03125 -1.359375 
Q 40.1875 -1.421875 39.40625 -1.421875 
Q 24.03125 -1.421875 14.8125 8.859375 
Q 5.609375 19.140625 5.609375 36.375 
Q 5.609375 53.65625 14.8125 63.9375 
Q 24.03125 74.21875 39.40625 74.21875 
Q 54.734375 74.21875 63.90625 63.9375 
Q 73.09375 53.65625 73.09375 36.375 
Q 73.09375 23.6875 67.984375 14.640625 
Q 62.890625 5.609375 53.21875 1.3125 
z
" id="DejaVuSans-81"/>
     </defs>
     <g transform="translate(94.6 87.426688)scale(0.1 -0.1)">
      <use xlink:href="#DejaVuSans-71"/>
      <use x="77.490234" xlink:href="#DejaVuSans-81"/>
      <use x="156.201172" xlink:href="#DejaVuSans-117"/>
      <use x="219.580078" xlink:href="#DejaVuSans-101"/>
      <use x="281.103516" xlink:href="#DejaVuSans-117"/>
      <use x="344.482422" xlink:href="#DejaVuSans-101"/>
     </g>
    </g>
    <g id="line2d_25">
     <path d="M 66.6 98.604813 
L 86.6 98.604813 
" style="fill:none;stroke:#cdff00;stroke-dasharray:1.5,2.475;stroke-dashoffset:0;stroke-width:1.5;"/>
    </g>
    <g id="line2d_26">
     <g>
      <use style="fill:#cdff00;stroke:#cdff00;" x="76.6" xlink:href="#m5df9690fb4" y="98.604813"/>
     </g>
    </g>
    <g id="text_20">
     <!-- CdcDeque/circular_array -->
     <defs>
      <path d="M 25.390625 72.90625 
L 33.6875 72.90625 
L 8.296875 -9.28125 
L 0 -9.28125 
z
" id="DejaVuSans-47"/>
      <path d="M 9.421875 75.984375 
L 18.40625 75.984375 
L 18.40625 0 
L 9.421875 0 
z
" id="DejaVuSans-108"/>
      <path d="M 50.984375 -16.609375 
L 50.984375 -23.578125 
L -0.984375 -23.578125 
L -0.984375 -16.609375 
z
" id="DejaVuSans-95"/>
      <path d="M 32.171875 -5.078125 
Q 28.375 -14.84375 24.75 -17.8125 
Q 21.140625 -20.796875 15.09375 -20.796875 
L 7.90625 -20.796875 
L 7.90625 -13.28125 
L 13.1875 -13.28125 
Q 16.890625 -13.28125 18.9375 -11.515625 
Q 21 -9.765625 23.484375 -3.21875 
L 25.09375 0.875 
L 2.984375 54.6875 
L 12.5 54.6875 
L 29.59375 11.921875 
L 46.6875 54.6875 
L 56.203125 54.6875 
z
" id="DejaVuSans-121"/>
     </defs>
     <g transform="translate(94.6 102.104813)scale(0.1 -0.1)">
      <use xlink:href="#DejaVuSans-67"/>
      <use x="69.824219" xlink:href="#DejaVuSans-100"/>
      <use x="133.300781" xlink:href="#DejaVuSans-99"/>
      <use x="188.28125" xlink:href="#DejaVuSans-68"/>
      <use x="265.283203" xlink:href="#DejaVuSans-101"/>
      <use x="326.806641" xlink:href="#DejaVuSans-113"/>
      <use x="390.283203" xlink:href="#DejaVuSans-117"/>
      <use x="453.662109" xlink:href="#DejaVuSans-101"/>
      <use x="515.185547" xlink:href="#DejaVuSans-47"/>
      <use x="548.876953" xlink:href="#DejaVuSans-99"/>
      <use x="603.857422" xlink:href="#DejaVuSans-105"/>
      <use x="631.640625" xlink:href="#DejaVuSans-114"/>
      <use x="672.722656" xlink:href="#DejaVuSans-99"/>
      <use x="727.703125" xlink:href="#DejaVuSans-117"/>
      <use x="791.082031" xlink:href="#DejaVuSans-108"/>
      <use x="818.865234" xlink:href="#DejaVuSans-97"/>
      <use x="880.144531" xlink:href="#DejaVuSans-114"/>
      <use x="921.257812" xlink:href="#DejaVuSans-95"/>
      <use x="971.257812" xlink:href="#DejaVuSans-97"/>
      <use x="1032.537109" xlink:href="#DejaVuSans-114"/>
      <use x="1073.634766" xlink:href="#DejaVuSans-114"/>
      <use x="1114.748047" xlink:href="#DejaVuSans-97"/>
      <use x="1176.027344" xlink:href="#DejaVuSans-121"/>
     </g>
    </g>
    <g id="line2d_27">
     <path d="M 66.6 113.561063 
L 86.6 113.561063 
" style="fill:none;stroke:#5cff00;stroke-dasharray:5.55,2.4;stroke-dashoffset:0;stroke-width:1.5;"/>
    </g>
    <g id="line2d_28">
     <g>
      <use style="fill:#5cff00;stroke:#5cff00;" x="76.6" xlink:href="#m5dd8f4478a" y="113.561063"/>
     </g>
    </g>
    <g id="text_21">
     <!-- CdcDeque/list -->
     <g transform="translate(94.6 117.061063)scale(0.1 -0.1)">
      <use xlink:href="#DejaVuSans-67"/>
      <use x="69.824219" xlink:href="#DejaVuSans-100"/>
      <use x="133.300781" xlink:href="#DejaVuSans-99"/>
      <use x="188.28125" xlink:href="#DejaVuSans-68"/>
      <use x="265.283203" xlink:href="#DejaVuSans-101"/>
      <use x="326.806641" xlink:href="#DejaVuSans-113"/>
      <use x="390.283203" xlink:href="#DejaVuSans-117"/>
      <use x="453.662109" xlink:href="#DejaVuSans-101"/>
      <use x="515.185547" xlink:href="#DejaVuSans-47"/>
      <use x="548.876953" xlink:href="#DejaVuSans-108"/>
      <use x="576.660156" xlink:href="#DejaVuSans-105"/>
      <use x="604.443359" xlink:href="#DejaVuSans-115"/>
      <use x="656.542969" xlink:href="#DejaVuSans-116"/>
     </g>
    </g>
    <g id="line2d_29">
     <path d="M 66.6 128.239188 
L 86.6 128.239188 
" style="fill:none;stroke:#00ff16;stroke-dasharray:1.5,2.475;stroke-dashoffset:0;stroke-width:1.5;"/>
    </g>
    <g id="line2d_30">
     <g>
      <use style="fill:#00ff16;stroke:#00ff16;" x="76.6" xlink:href="#mefc20f5947" y="128.239188"/>
     </g>
    </g>
    <g id="text_22">
     <!-- CdcCircularArray -->
     <defs>
      <path d="M 34.1875 63.1875 
L 20.796875 26.90625 
L 47.609375 26.90625 
z
M 28.609375 72.90625 
L 39.796875 72.90625 
L 67.578125 0 
L 57.328125 0 
L 50.6875 18.703125 
L 17.828125 18.703125 
L 11.1875 0 
L 0.78125 0 
z
" id="DejaVuSans-65"/>
     </defs>
     <g transform="translate(94.6 131.739188)scale(0.1 -0.1)">
      <use xlink:href="#DejaVuSans-67"/>
      <use x="69.824219" xlink:href="#DejaVuSans-100"/>
      <use x="133.300781" xlink:href="#DejaVuSans-99"/>
      <use x="188.28125" xlink:href="#DejaVuSans-67"/>
      <use x="258.105469" xlink:href="#DejaVuSans-105"/>
      <use x="285.888672" xlink:href="#DejaVuSans-114"/>
      <use x="326.970703" xlink:href="#DejaVuSans-99"/>
      <use x="381.951172" xlink:href="#DejaVuSans-117"/>
      <use x="445.330078" xlink:href="#DejaVuSans-108"/>
      <use x="473.113281" xlink:href="#DejaVuSans-97"/>
      <use x="534.392578" xlink:href="#DejaVuSans-114"/>
      <use x="575.505859" xlink:href="#DejaVuSans-65"/>
      <use x="643.914062" xlink:href="#DejaVuSans-114"/>
      <use x="685.011719" xlink:href="#DejaVuSans-114"/>
      <use x="726.125" xlink:href="#DejaVuSans-97"/>
      <use x="787.404297" xlink:href="#DejaVuSans-121"/>
     </g>
    </g>
   </g>
  </g>
 </g>
 <defs>
  <clipPath id="p137db5a131">
   <rect height="266.112" width="357.12" x="57.6" y="41.472"/>
  </clipPath>
 </defs>
</svg>
