<?xml version="1.0" encoding="utf-8" standalone="no"?>
<!DOCTYPE svg PUBLIC "-//W3C//DTD SVG 1.1//EN"
  "http://www.w3.org/Graphics/SVG/1.1/DTD/svg11.dtd">
<!-- Created with matplotlib (https://matplotlib.org/) -->
<svg height="345.6pt" version="1.1" viewBox="0 0 460.8 345.6" width="460.8pt" xmlns="http://www.w3.org/2000/svg" xmlns:xlink="http://www.w3.org/1999/xlink">
 <defs>
  <style type="text/css">
*{stroke-linecap:butt;stroke-linejoin:round;}
  </style>
 </defs>
 <g id="figure_1">
  <g id="patch_1">
   <path d="M 0 345.6 
L 460.8 345.6 
L 460.8 0 
L 0 0 
z
" style="fill:#ffffff;"/>
  </g>
  <g id="axes_1">
   <g id="patch_2">
    <path d="M 57.6 307.584 
L 414.72 307.584 
L 414.72 41.472 
L 57.6 41.472 
z
" style="fill:#ffffff;"/>
   </g>
   <g id="matplotlib.axis_1">
    <g id="xtick_1">
     <g id="line2d_1">
      <defs>
       <path d="M 0 0 
L 0 3.5 
" id="m54df7b59bd" style="stroke:#000000;stroke-width:0.8;"/>
      </defs>
      <g>
       <use style="stroke:#000000;stroke-width:0.8;" x="73.822159" xlink:href="#m54df7b59bd" y="307.584"/>
      </g>
     </g>
     <g id="text_1">
      <!-- 0 -->
      <defs>
       <path d="M 31.78125 66.40625 
Q 24.171875 66.40625 20.328125 58.90625 
Q 16.5 51.421875 16.5 36.375 
Q 16.5 21.390625 20.328125 13.890625 
Q 24.171875 6.390625 31.78125 6.390625 
Q 39.453125 6.390625 43.28125 13.890625 
Q 47.125 21.390625 47.125 36.375 
Q 47.125 51.421875 43.28125 58.90625 
Q 39.453125 66.40625 31.78125 66.40625 
z
M 31.78125 74.21875 
Q 44.046875 74.21875 50.515625 64.515625 
Q 56.984375 54.828125 56.984375 36.375 
Q 56.984375 17.96875 50.515625 8.265625 
Q 44.046875 -1.421875 31.78125 -1.421875 
Q 19.53125 -1.421875 13.0625 8.265625 
Q 6.59375 17.96875 6.59375 36.375 
Q 6.59375 54.828125 13.0625 64.515625 
Q 19.53125 74.21875 31.78125 74.21875 
z
" id="DejaVuSans-48"/>
      </defs>
      <g transform="translate(70.640909 322.182437)scale(0.1 -0.1)">
       <use xlink:href="#DejaVuSans-48"/>
      </g>
     </g>
    </g>
    <g id="xtick_2">
     <g id="line2d_2">
      <g>
       <use style="stroke:#000000;stroke-width:0.8;" x="126.664788" xlink:href="#m54df7b59bd" y="307.584"/>
      </g>
     </g>
     <g id="text_2">
      <!-- 20000 -->
      <defs>
       <path d="M 19.1875 8.296875 
L 53.609375 8.296875 
L 53.609375 0 
L 7.328125 0 
L 7.328125 8.296875 
Q 12.9375 14.109375 22.625 23.890625 
Q 32.328125 33.6875 34.8125 36.53125 
Q 39.546875 41.84375 41.421875 45.53125 
Q 43.3125 49.21875 43.3125 52.78125 
Q 43.3125 58.59375 39.234375 62.25 
Q 35.15625 65.921875 28.609375 65.921875 
Q 23.96875 65.921875 18.8125 64.3125 
Q 13.671875 62.703125 7.8125 59.421875 
L 7.8125 69.390625 
Q 13.765625 71.78125 18.9375 73 
Q 24.125 74.21875 28.421875 74.21875 
Q 39.75 74.21875 46.484375 68.546875 
Q 53.21875 62.890625 53.21875 53.421875 
Q 53.21875 48.921875 51.53125 44.890625 
Q 49.859375 40.875 45.40625 35.40625 
Q 44.1875 33.984375 37.640625 27.21875 
Q 31.109375 20.453125 19.1875 8.296875 
z
" id="DejaVuSans-50"/>
      </defs>
      <g transform="translate(110.758538 322.182437)scale(0.1 -0.1)">
       <use xlink:href="#DejaVuSans-50"/>
       <use x="63.623047" xlink:href="#DejaVuSans-48"/>
       <use x="127.246094" xlink:href="#DejaVuSans-48"/>
       <use x="190.869141" xlink:href="#DejaVuSans-48"/>
       <use x="254.492188" xlink:href="#DejaVuSans-48"/>
      </g>
     </g>
    </g>
    <g id="xtick_3">
     <g id="line2d_3">
      <g>
       <use style="stroke:#000000;stroke-width:0.8;" x="179.507417" xlink:href="#m54df7b59bd" y="307.584"/>
      </g>
     </g>
     <g id="text_3">
      <!-- 40000 -->
      <defs>
       <path d="M 37.796875 64.3125 
L 12.890625 25.390625 
L 37.796875 25.390625 
z
M 35.203125 72.90625 
L 47.609375 72.90625 
L 47.609375 25.390625 
L 58.015625 25.390625 
L 58.015625 17.1875 
L 47.609375 17.1875 
L 47.609375 0 
L 37.796875 0 
L 37.796875 17.1875 
L 4.890625 17.1875 
L 4.890625 26.703125 
z
" id="DejaVuSans-52"/>
      </defs>
      <g transform="translate(163.601167 322.182437)scale(0.1 -0.1)">
       <use xlink:href="#DejaVuSans-52"/>
       <use x="63.623047" xlink:href="#DejaVuSans-48"/>
       <use x="127.246094" xlink:href="#DejaVuSans-48"/>
       <use x="190.869141" xlink:href="#DejaVuSans-48"/>
       <use x="254.492188" xlink:href="#DejaVuSans-48"/>
      </g>
     </g>
    </g>
    <g id="xtick_4">
     <g id="line2d_4">
      <g>
       <use style="stroke:#000000;stroke-width:0.8;" x="232.350046" xlink:href="#m54df7b59bd" y="307.584"/>
      </g>
     </g>
     <g id="text_4">
      <!-- 60000 -->
      <defs>
       <path d="M 33.015625 40.375 
Q 26.375 40.375 22.484375 35.828125 
Q 18.609375 31.296875 18.609375 23.390625 
Q 18.609375 15.53125 22.484375 10.953125 
Q 26.375 6.390625 33.015625 6.390625 
Q 39.65625 6.390625 43.53125 10.953125 
Q 47.40625 15.53125 47.40625 23.390625 
Q 47.40625 31.296875 43.53125 35.828125 
Q 39.65625 40.375 33.015625 40.375 
z
M 52.59375 71.296875 
L 52.59375 62.3125 
Q 48.875 64.0625 45.09375 64.984375 
Q 41.3125 65.921875 37.59375 65.921875 
Q 27.828125 65.921875 22.671875 59.328125 
Q 17.53125 52.734375 16.796875 39.40625 
Q 19.671875 43.65625 24.015625 45.921875 
Q 28.375 48.1875 33.59375 48.1875 
Q 44.578125 48.1875 50.953125 41.515625 
Q 57.328125 34.859375 57.328125 23.390625 
Q 57.328125 12.15625 50.6875 5.359375 
Q 44.046875 -1.421875 33.015625 -1.421875 
Q 20.359375 -1.421875 13.671875 8.265625 
Q 6.984375 17.96875 6.984375 36.375 
Q 6.984375 53.65625 15.1875 63.9375 
Q 23.390625 74.21875 37.203125 74.21875 
Q 40.921875 74.21875 44.703125 73.484375 
Q 48.484375 72.75 52.59375 71.296875 
z
" id="DejaVuSans-54"/>
      </defs>
      <g transform="translate(216.443796 322.182437)scale(0.1 -0.1)">
       <use xlink:href="#DejaVuSans-54"/>
       <use x="63.623047" xlink:href="#DejaVuSans-48"/>
       <use x="127.246094" xlink:href="#DejaVuSans-48"/>
       <use x="190.869141" xlink:href="#DejaVuSans-48"/>
       <use x="254.492188" xlink:href="#DejaVuSans-48"/>
      </g>
     </g>
    </g>
    <g id="xtick_5">
     <g id="line2d_5">
      <g>
       <use style="stroke:#000000;stroke-width:0.8;" x="285.192676" xlink:href="#m54df7b59bd" y="307.584"/>
      </g>
     </g>
     <g id="text_5">
      <!-- 80000 -->
      <defs>
       <path d="M 31.78125 34.625 
Q 24.75 34.625 20.71875 30.859375 
Q 16.703125 27.09375 16.703125 20.515625 
Q 16.703125 13.921875 20.71875 10.15625 
Q 24.75 6.390625 31.78125 6.390625 
Q 38.8125 6.390625 42.859375 10.171875 
Q 46.921875 13.96875 46.921875 20.515625 
Q 46.921875 27.09375 42.890625 30.859375 
Q 38.875 34.625 31.78125 34.625 
z
M 21.921875 38.8125 
Q 15.578125 40.375 12.03125 44.71875 
Q 8.5 49.078125 8.5 55.328125 
Q 8.5 64.0625 14.71875 69.140625 
Q 20.953125 74.21875 31.78125 74.21875 
Q 42.671875 74.21875 48.875 69.140625 
Q 55.078125 64.0625 55.078125 55.328125 
Q 55.078125 49.078125 51.53125 44.71875 
Q 48 40.375 41.703125 38.8125 
Q 48.828125 37.15625 52.796875 32.3125 
Q 56.78125 27.484375 56.78125 20.515625 
Q 56.78125 9.90625 50.3125 4.234375 
Q 43.84375 -1.421875 31.78125 -1.421875 
Q 19.734375 -1.421875 13.25 4.234375 
Q 6.78125 9.90625 6.78125 20.515625 
Q 6.78125 27.484375 10.78125 32.3125 
Q 14.796875 37.15625 21.921875 38.8125 
z
M 18.3125 54.390625 
Q 18.3125 48.734375 21.84375 45.5625 
Q 25.390625 42.390625 31.78125 42.390625 
Q 38.140625 42.390625 41.71875 45.5625 
Q 45.3125 48.734375 45.3125 54.390625 
Q 45.3125 60.0625 41.71875 63.234375 
Q 38.140625 66.40625 31.78125 66.40625 
Q 25.390625 66.40625 21.84375 63.234375 
Q 18.3125 60.0625 18.3125 54.390625 
z
" id="DejaVuSans-56"/>
      </defs>
      <g transform="translate(269.286426 322.182437)scale(0.1 -0.1)">
       <use xlink:href="#DejaVuSans-56"/>
       <use x="63.623047" xlink:href="#DejaVuSans-48"/>
       <use x="127.246094" xlink:href="#DejaVuSans-48"/>
       <use x="190.869141" xlink:href="#DejaVuSans-48"/>
       <use x="254.492188" xlink:href="#DejaVuSans-48"/>
      </g>
     </g>
    </g>
    <g id="xtick_6">
     <g id="line2d_6">
      <g>
       <use style="stroke:#000000;stroke-width:0.8;" x="338.035305" xlink:href="#m54df7b59bd" y="307.584"/>
      </g>
     </g>
     <g id="text_6">
      <!-- 100000 -->
      <defs>
       <path d="M 12.40625 8.296875 
L 28.515625 8.296875 
L 28.515625 63.921875 
L 10.984375 60.40625 
L 10.984375 69.390625 
L 28.421875 72.90625 
L 38.28125 72.90625 
L 38.28125 8.296875 
L 54.390625 8.296875 
L 54.390625 0 
L 12.40625 0 
z
" id="DejaVuSans-49"/>
      </defs>
      <g transform="translate(318.947805 322.182437)scale(0.1 -0.1)">
       <use xlink:href="#DejaVuSans-49"/>
       <use x="63.623047" xlink:href="#DejaVuSans-48"/>
       <use x="127.246094" xlink:href="#DejaVuSans-48"/>
       <use x="190.869141" xlink:href="#DejaVuSans-48"/>
       <use x="254.492188" xlink:href="#DejaVuSans-48"/>
       <use x="318.115234" xlink:href="#DejaVuSans-48"/>
      </g>
     </g>
    </g>
    <g id="xtick_7">
     <g id="line2d_7">
      <g>
       <use style="stroke:#000000;stroke-width:0.8;" x="390.877934" xlink:href="#m54df7b59bd" y="307.584"/>
      </g>
     </g>
     <g id="text_7">
      <!-- 120000 -->
      <g transform="translate(371.790434 322.182437)scale(0.1 -0.1)">
       <use xlink:href="#DejaVuSans-49"/>
       <use x="63.623047" xlink:href="#DejaVuSans-50"/>
       <use x="127.246094" xlink:href="#DejaVuSans-48"/>
       <use x="190.869141" xlink:href="#DejaVuSans-48"/>
       <use x="254.492188" xlink:href="#DejaVuSans-48"/>
       <use x="318.115234" xlink:href="#DejaVuSans-48"/>
      </g>
     </g>
    </g>
    <g id="text_8">
     <!-- N -->
     <defs>
      <path d="M 9.8125 72.90625 
L 23.09375 72.90625 
L 55.421875 11.921875 
L 55.421875 72.90625 
L 64.984375 72.90625 
L 64.984375 0 
L 51.703125 0 
L 19.390625 60.984375 
L 19.390625 0 
L 9.8125 0 
z
" id="DejaVuSans-78"/>
     </defs>
     <g transform="translate(232.419375 335.860562)scale(0.1 -0.1)">
      <use xlink:href="#DejaVuSans-78"/>
     </g>
    </g>
   </g>
   <g id="matplotlib.axis_2">
    <g id="ytick_1">
     <g id="line2d_8">
      <defs>
       <path d="M 0 0 
L -3.5 0 
" id="mfc41d58d1a" style="stroke:#000000;stroke-width:0.8;"/>
      </defs>
      <g>
       <use style="stroke:#000000;stroke-width:0.8;" x="57.6" xlink:href="#mfc41d58d1a" y="295.508569"/>
      </g>
     </g>
     <g id="text_9">
      <!-- 0.0 -->
      <defs>
       <path d="M 10.6875 12.40625 
L 21 12.40625 
L 21 0 
L 10.6875 0 
z
" id="DejaVuSans-46"/>
      </defs>
      <g transform="translate(34.696875 299.307788)scale(0.1 -0.1)">
       <use xlink:href="#DejaVuSans-48"/>
       <use x="63.623047" xlink:href="#DejaVuSans-46"/>
       <use x="95.410156" xlink:href="#DejaVuSans-48"/>
      </g>
     </g>
    </g>
    <g id="ytick_2">
     <g id="line2d_9">
      <g>
       <use style="stroke:#000000;stroke-width:0.8;" x="57.6" xlink:href="#mfc41d58d1a" y="259.534009"/>
      </g>
     </g>
     <g id="text_10">
      <!-- 0.2 -->
      <g transform="translate(34.696875 263.333228)scale(0.1 -0.1)">
       <use xlink:href="#DejaVuSans-48"/>
       <use x="63.623047" xlink:href="#DejaVuSans-46"/>
       <use x="95.410156" xlink:href="#DejaVuSans-50"/>
      </g>
     </g>
    </g>
    <g id="ytick_3">
     <g id="line2d_10">
      <g>
       <use style="stroke:#000000;stroke-width:0.8;" x="57.6" xlink:href="#mfc41d58d1a" y="223.55945"/>
      </g>
     </g>
     <g id="text_11">
      <!-- 0.4 -->
      <g transform="translate(34.696875 227.358668)scale(0.1 -0.1)">
       <use xlink:href="#DejaVuSans-48"/>
       <use x="63.623047" xlink:href="#DejaVuSans-46"/>
       <use x="95.410156" xlink:href="#DejaVuSans-52"/>
      </g>
     </g>
    </g>
    <g id="ytick_4">
     <g id="line2d_11">
      <g>
       <use style="stroke:#000000;stroke-width:0.8;" x="57.6" xlink:href="#mfc41d58d1a" y="187.58489"/>
      </g>
     </g>
     <g id="text_12">
      <!-- 0.6 -->
      <g transform="translate(34.696875 191.384109)scale(0.1 -0.1)">
       <use xlink:href="#DejaVuSans-48"/>
       <use x="63.623047" xlink:href="#DejaVuSans-46"/>
       <use x="95.410156" xlink:href="#DejaVuSans-54"/>
      </g>
     </g>
    </g>
    <g id="ytick_5">
     <g id="line2d_12">
      <g>
       <use style="stroke:#000000;stroke-width:0.8;" x="57.6" xlink:href="#mfc41d58d1a" y="151.61033"/>
      </g>
     </g>
     <g id="text_13">
      <!-- 0.8 -->
      <g transform="translate(34.696875 155.409549)scale(0.1 -0.1)">
       <use xlink:href="#DejaVuSans-48"/>
       <use x="63.623047" xlink:href="#DejaVuSans-46"/>
       <use x="95.410156" xlink:href="#DejaVuSans-56"/>
      </g>
     </g>
    </g>
    <g id="ytick_6">
     <g id="line2d_13">
      <g>
       <use style="stroke:#000000;stroke-width:0.8;" x="57.6" xlink:href="#mfc41d58d1a" y="115.63577"/>
      </g>
     </g>
     <g id="text_14">
      <!-- 1.0 -->
      <g transform="translate(34.696875 119.434989)scale(0.1 -0.1)">
       <use xlink:href="#DejaVuSans-49"/>
       <use x="63.623047" xlink:href="#DejaVuSans-46"/>
       <use x="95.410156" xlink:href="#DejaVuSans-48"/>
      </g>
     </g>
    </g>
    <g id="ytick_7">
     <g id="line2d_14">
      <g>
       <use style="stroke:#000000;stroke-width:0.8;" x="57.6" xlink:href="#mfc41d58d1a" y="79.661211"/>
      </g>
     </g>
     <g id="text_15">
      <!-- 1.2 -->
      <g transform="translate(34.696875 83.460429)scale(0.1 -0.1)">
       <use xlink:href="#DejaVuSans-49"/>
       <use x="63.623047" xlink:href="#DejaVuSans-46"/>
       <use x="95.410156" xlink:href="#DejaVuSans-50"/>
      </g>
     </g>
    </g>
    <g id="ytick_8">
     <g id="line2d_15">
      <g>
       <use style="stroke:#000000;stroke-width:0.8;" x="57.6" xlink:href="#mfc41d58d1a" y="43.686651"/>
      </g>
     </g>
     <g id="text_16">
      <!-- 1.4 -->
      <g transform="translate(34.696875 47.48587)scale(0.1 -0.1)">
       <use xlink:href="#DejaVuSans-49"/>
       <use x="63.623047" xlink:href="#DejaVuSans-46"/>
       <use x="95.410156" xlink:href="#DejaVuSans-52"/>
      </g>
     </g>
    </g>
    <g id="text_17">
     <!-- Time (ns) -->
     <defs>
      <path d="M -0.296875 72.90625 
L 61.375 72.90625 
L 61.375 64.59375 
L 35.5 64.59375 
L 35.5 0 
L 25.59375 0 
L 25.59375 64.59375 
L -0.296875 64.59375 
z
" id="DejaVuSans-84"/>
      <path d="M 9.421875 54.6875 
L 18.40625 54.6875 
L 18.40625 0 
L 9.421875 0 
z
M 9.421875 75.984375 
L 18.40625 75.984375 
L 18.40625 64.59375 
L 9.421875 64.59375 
z
" id="DejaVuSans-105"/>
      <path d="M 52 44.1875 
Q 55.375 50.25 60.0625 53.125 
Q 64.75 56 71.09375 56 
Q 79.640625 56 84.28125 50.015625 
Q 88.921875 44.046875 88.921875 33.015625 
L 88.921875 0 
L 79.890625 0 
L 79.890625 32.71875 
Q 79.890625 40.578125 77.09375 44.375 
Q 74.3125 48.1875 68.609375 48.1875 
Q 61.625 48.1875 57.5625 43.546875 
Q 53.515625 38.921875 53.515625 30.90625 
L 53.515625 0 
L 44.484375 0 
L 44.484375 32.71875 
Q 44.484375 40.625 41.703125 44.40625 
Q 38.921875 48.1875 33.109375 48.1875 
Q 26.21875 48.1875 22.15625 43.53125 
Q 18.109375 38.875 18.109375 30.90625 
L 18.109375 0 
L 9.078125 0 
L 9.078125 54.6875 
L 18.109375 54.6875 
L 18.109375 46.1875 
Q 21.1875 51.21875 25.484375 53.609375 
Q 29.78125 56 35.6875 56 
Q 41.65625 56 45.828125 52.96875 
Q 50 49.953125 52 44.1875 
z
" id="DejaVuSans-109"/>
      <path d="M 56.203125 29.59375 
L 56.203125 25.203125 
L 14.890625 25.203125 
Q 15.484375 15.921875 20.484375 11.0625 
Q 25.484375 6.203125 34.421875 6.203125 
Q 39.59375 6.203125 44.453125 7.46875 
Q 49.3125 8.734375 54.109375 11.28125 
L 54.109375 2.78125 
Q 49.265625 0.734375 44.1875 -0.34375 
Q 39.109375 -1.421875 33.890625 -1.421875 
Q 20.796875 -1.421875 13.15625 6.1875 
Q 5.515625 13.8125 5.515625 26.8125 
Q 5.515625 40.234375 12.765625 48.109375 
Q 20.015625 56 32.328125 56 
Q 43.359375 56 49.78125 48.890625 
Q 56.203125 41.796875 56.203125 29.59375 
z
M 47.21875 32.234375 
Q 47.125 39.59375 43.09375 43.984375 
Q 39.0625 48.390625 32.421875 48.390625 
Q 24.90625 48.390625 20.390625 44.140625 
Q 15.875 39.890625 15.1875 32.171875 
z
" id="DejaVuSans-101"/>
      <path id="DejaVuSans-32"/>
      <path d="M 31 75.875 
Q 24.46875 64.65625 21.28125 53.65625 
Q 18.109375 42.671875 18.109375 31.390625 
Q 18.109375 20.125 21.3125 9.0625 
Q 24.515625 -2 31 -13.1875 
L 23.1875 -13.1875 
Q 15.875 -1.703125 12.234375 9.375 
Q 8.59375 20.453125 8.59375 31.390625 
Q 8.59375 42.28125 12.203125 53.3125 
Q 15.828125 64.359375 23.1875 75.875 
z
" id="DejaVuSans-40"/>
      <path d="M 54.890625 33.015625 
L 54.890625 0 
L 45.90625 0 
L 45.90625 32.71875 
Q 45.90625 40.484375 42.875 44.328125 
Q 39.84375 48.1875 33.796875 48.1875 
Q 26.515625 48.1875 22.3125 43.546875 
Q 18.109375 38.921875 18.109375 30.90625 
L 18.109375 0 
L 9.078125 0 
L 9.078125 54.6875 
L 18.109375 54.6875 
L 18.109375 46.1875 
Q 21.34375 51.125 25.703125 53.5625 
Q 30.078125 56 35.796875 56 
Q 45.21875 56 50.046875 50.171875 
Q 54.890625 44.34375 54.890625 33.015625 
z
" id="DejaVuSans-110"/>
      <path d="M 44.28125 53.078125 
L 44.28125 44.578125 
Q 40.484375 46.53125 36.375 47.5 
Q 32.28125 48.484375 27.875 48.484375 
Q 21.1875 48.484375 17.84375 46.4375 
Q 14.5 44.390625 14.5 40.28125 
Q 14.5 37.15625 16.890625 35.375 
Q 19.28125 33.59375 26.515625 31.984375 
L 29.59375 31.296875 
Q 39.15625 29.25 43.1875 25.515625 
Q 47.21875 21.78125 47.21875 15.09375 
Q 47.21875 7.46875 41.1875 3.015625 
Q 35.15625 -1.421875 24.609375 -1.421875 
Q 20.21875 -1.421875 15.453125 -0.5625 
Q 10.6875 0.296875 5.421875 2 
L 5.421875 11.28125 
Q 10.40625 8.6875 15.234375 7.390625 
Q 20.0625 6.109375 24.8125 6.109375 
Q 31.15625 6.109375 34.5625 8.28125 
Q 37.984375 10.453125 37.984375 14.40625 
Q 37.984375 18.0625 35.515625 20.015625 
Q 33.0625 21.96875 24.703125 23.78125 
L 21.578125 24.515625 
Q 13.234375 26.265625 9.515625 29.90625 
Q 5.8125 33.546875 5.8125 39.890625 
Q 5.8125 47.609375 11.28125 51.796875 
Q 16.75 56 26.8125 56 
Q 31.78125 56 36.171875 55.265625 
Q 40.578125 54.546875 44.28125 53.078125 
z
" id="DejaVuSans-115"/>
      <path d="M 8.015625 75.875 
L 15.828125 75.875 
Q 23.140625 64.359375 26.78125 53.3125 
Q 30.421875 42.28125 30.421875 31.390625 
Q 30.421875 20.453125 26.78125 9.375 
Q 23.140625 -1.703125 15.828125 -13.1875 
L 8.015625 -13.1875 
Q 14.5 -2 17.703125 9.0625 
Q 20.90625 20.125 20.90625 31.390625 
Q 20.90625 42.671875 17.703125 53.65625 
Q 14.5 64.65625 8.015625 75.875 
z
" id="DejaVuSans-41"/>
     </defs>
     <g transform="translate(28.617187 198.179563)rotate(-90)scale(0.1 -0.1)">
      <use xlink:href="#DejaVuSans-84"/>
      <use x="61.037109" xlink:href="#DejaVuSans-105"/>
      <use x="88.820312" xlink:href="#DejaVuSans-109"/>
      <use x="186.232422" xlink:href="#DejaVuSans-101"/>
      <use x="247.755859" xlink:href="#DejaVuSans-32"/>
      <use x="279.542969" xlink:href="#DejaVuSans-40"/>
      <use x="318.556641" xlink:href="#DejaVuSans-110"/>
      <use x="381.935547" xlink:href="#DejaVuSans-115"/>
      <use x="434.035156" xlink:href="#DejaVuSans-41"/>
     </g>
    </g>
    <g id="text_18">
     <!-- 1e7 -->
     <defs>
      <path d="M 8.203125 72.90625 
L 55.078125 72.90625 
L 55.078125 68.703125 
L 28.609375 0 
L 18.3125 0 
L 43.21875 64.59375 
L 8.203125 64.59375 
z
" id="DejaVuSans-55"/>
     </defs>
     <g transform="translate(57.6 38.472)scale(0.1 -0.1)">
      <use xlink:href="#DejaVuSans-49"/>
      <use x="63.623047" xlink:href="#DejaVuSans-101"/>
      <use x="125.146484" xlink:href="#DejaVuSans-55"/>
     </g>
    </g>
   </g>
   <g id="line2d_16">
    <path clip-path="url(#p49d54561d4)" d="M 73.832727 295.485841 
L 73.843296 295.484364 
L 73.864433 295.480789 
L 73.906707 295.474368 
L 73.991255 295.462179 
L 74.160352 295.438971 
L 74.498544 295.389613 
L 75.17493 295.217123 
L 76.527701 294.890319 
L 79.233244 293.974249 
L 84.644329 292.057632 
L 95.4665 288.19418 
L 138.755182 272.061942 
L 182.043863 252.331853 
L 225.332545 226.650385 
L 268.621227 193.699688 
L 311.909909 155.55579 
L 355.198591 108.378995 
L 398.487273 59.034043 
" style="fill:none;stroke:#ff0029;stroke-dasharray:5.55,2.4;stroke-dashoffset:0;stroke-width:1.5;"/>
    <defs>
     <path d="M 0 3 
C 0.795609 3 1.55874 2.683901 2.12132 2.12132 
C 2.683901 1.55874 3 0.795609 3 0 
C 3 -0.795609 2.683901 -1.55874 2.12132 -2.12132 
C 1.55874 -2.683901 0.795609 -3 0 -3 
C -0.795609 -3 -1.55874 -2.683901 -2.12132 -2.12132 
C -2.683901 -1.55874 -3 -0.795609 -3 0 
C -3 0.795609 -2.683901 1.55874 -2.12132 2.12132 
C -1.55874 2.683901 -0.795609 3 0 3 
z
" id="md846396738" style="stroke:#ff0029;"/>
    </defs>
    <g clip-path="url(#p49d54561d4)">
     <use style="fill:#ff0029;stroke:#ff0029;" x="73.832727" xlink:href="#md846396738" y="295.485841"/>
     <use style="fill:#ff0029;stroke:#ff0029;" x="73.843296" xlink:href="#md846396738" y="295.484364"/>
     <use style="fill:#ff0029;stroke:#ff0029;" x="73.864433" xlink:href="#md846396738" y="295.480789"/>
     <use style="fill:#ff0029;stroke:#ff0029;" x="73.906707" xlink:href="#md846396738" y="295.474368"/>
     <use style="fill:#ff0029;stroke:#ff0029;" x="73.991255" xlink:href="#md846396738" y="295.462179"/>
     <use style="fill:#ff0029;stroke:#ff0029;" x="74.160352" xlink:href="#md846396738" y="295.438971"/>
     <use style="fill:#ff0029;stroke:#ff0029;" x="74.498544" xlink:href="#md846396738" y="295.389613"/>
     <use style="fill:#ff0029;stroke:#ff0029;" x="75.17493" xlink:href="#md846396738" y="295.217123"/>
     <use style="fill:#ff0029;stroke:#ff0029;" x="76.527701" xlink:href="#md846396738" y="294.890319"/>
     <use style="fill:#ff0029;stroke:#ff0029;" x="79.233244" xlink:href="#md846396738" y="293.974249"/>
     <use style="fill:#ff0029;stroke:#ff0029;" x="84.644329" xlink:href="#md846396738" y="292.057632"/>
     <use style="fill:#ff0029;stroke:#ff0029;" x="95.4665" xlink:href="#md846396738" y="288.19418"/>
     <use style="fill:#ff0029;stroke:#ff0029;" x="138.755182" xlink:href="#md846396738" y="272.061942"/>
     <use style="fill:#ff0029;stroke:#ff0029;" x="182.043863" xlink:href="#md846396738" y="252.331853"/>
     <use style="fill:#ff0029;stroke:#ff0029;" x="225.332545" xlink:href="#md846396738" y="226.650385"/>
     <use style="fill:#ff0029;stroke:#ff0029;" x="268.621227" xlink:href="#md846396738" y="193.699688"/>
     <use style="fill:#ff0029;stroke:#ff0029;" x="311.909909" xlink:href="#md846396738" y="155.55579"/>
     <use style="fill:#ff0029;stroke:#ff0029;" x="355.198591" xlink:href="#md846396738" y="108.378995"/>
     <use style="fill:#ff0029;stroke:#ff0029;" x="398.487273" xlink:href="#md846396738" y="59.034043"/>
    </g>
   </g>
   <g id="line2d_17">
    <path clip-path="url(#p49d54561d4)" d="M 73.832727 295.4859 
L 73.843296 295.484042 
L 73.864433 295.480806 
L 73.906707 295.476227 
L 73.991255 295.466469 
L 74.160352 295.4473 
L 74.498544 295.408302 
L 75.17493 295.332416 
L 76.527701 295.172619 
L 79.233244 294.828389 
L 84.644329 294.043442 
L 95.4665 292.398209 
L 138.755182 285.881006 
L 182.043863 278.956725 
L 225.332545 272.073431 
L 268.621227 263.916047 
L 311.909909 254.826995 
L 355.198591 245.748476 
L 398.487273 237.229363 
" style="fill:none;stroke:#ff4800;stroke-dasharray:1.5,2.475;stroke-dashoffset:0;stroke-width:1.5;"/>
    <defs>
     <path d="M 0 3 
C 0.795609 3 1.55874 2.683901 2.12132 2.12132 
C 2.683901 1.55874 3 0.795609 3 0 
C 3 -0.795609 2.683901 -1.55874 2.12132 -2.12132 
C 1.55874 -2.683901 0.795609 -3 0 -3 
C -0.795609 -3 -1.55874 -2.683901 -2.12132 -2.12132 
C -2.683901 -1.55874 -3 -0.795609 -3 0 
C -3 0.795609 -2.683901 1.55874 -2.12132 2.12132 
C -1.55874 2.683901 -0.795609 3 0 3 
z
" id="md6ca1092c9" style="stroke:#ff4800;"/>
    </defs>
    <g clip-path="url(#p49d54561d4)">
     <use style="fill:#ff4800;stroke:#ff4800;" x="73.832727" xlink:href="#md6ca1092c9" y="295.4859"/>
     <use style="fill:#ff4800;stroke:#ff4800;" x="73.843296" xlink:href="#md6ca1092c9" y="295.484042"/>
     <use style="fill:#ff4800;stroke:#ff4800;" x="73.864433" xlink:href="#md6ca1092c9" y="295.480806"/>
     <use style="fill:#ff4800;stroke:#ff4800;" x="73.906707" xlink:href="#md6ca1092c9" y="295.476227"/>
     <use style="fill:#ff4800;stroke:#ff4800;" x="73.991255" xlink:href="#md6ca1092c9" y="295.466469"/>
     <use style="fill:#ff4800;stroke:#ff4800;" x="74.160352" xlink:href="#md6ca1092c9" y="295.4473"/>
     <use style="fill:#ff4800;stroke:#ff4800;" x="74.498544" xlink:href="#md6ca1092c9" y="295.408302"/>
     <use style="fill:#ff4800;stroke:#ff4800;" x="75.17493" xlink:href="#md6ca1092c9" y="295.332416"/>
     <use style="fill:#ff4800;stroke:#ff4800;" x="76.527701" xlink:href="#md6ca1092c9" y="295.172619"/>
     <use style="fill:#ff4800;stroke:#ff4800;" x="79.233244" xlink:href="#md6ca1092c9" y="294.828389"/>
     <use style="fill:#ff4800;stroke:#ff4800;" x="84.644329" xlink:href="#md6ca1092c9" y="294.043442"/>
     <use style="fill:#ff4800;stroke:#ff4800;" x="95.4665" xlink:href="#md6ca1092c9" y="292.398209"/>
     <use style="fill:#ff4800;stroke:#ff4800;" x="138.755182" xlink:href="#md6ca1092c9" y="285.881006"/>
     <use style="fill:#ff4800;stroke:#ff4800;" x="182.043863" xlink:href="#md6ca1092c9" y="278.956725"/>
     <use style="fill:#ff4800;stroke:#ff4800;" x="225.332545" xlink:href="#md6ca1092c9" y="272.073431"/>
     <use style="fill:#ff4800;stroke:#ff4800;" x="268.621227" xlink:href="#md6ca1092c9" y="263.916047"/>
     <use style="fill:#ff4800;stroke:#ff4800;" x="311.909909" xlink:href="#md6ca1092c9" y="254.826995"/>
     <use style="fill:#ff4800;stroke:#ff4800;" x="355.198591" xlink:href="#md6ca1092c9" y="245.748476"/>
     <use style="fill:#ff4800;stroke:#ff4800;" x="398.487273" xlink:href="#md6ca1092c9" y="237.229363"/>
    </g>
   </g>
   <g id="line2d_18">
    <path clip-path="url(#p49d54561d4)" d="M 73.832727 295.4867 
L 73.843296 295.485621 
L 73.864433 295.484733 
L 73.906707 295.480651 
L 73.991255 295.473454 
L 74.160352 295.460158 
L 74.498544 295.437813 
L 75.17493 295.391895 
L 76.527701 295.29521 
L 79.233244 295.080382 
L 84.644329 294.612917 
L 95.4665 293.735267 
L 138.755182 289.907522 
L 182.043863 285.540058 
L 225.332545 281.179436 
L 268.621227 278.438763 
L 311.909909 270.238046 
L 355.198591 264.376 
L 398.487273 256.259652 
" style="fill:none;stroke:#ffba00;stroke-dasharray:5.55,2.4;stroke-dashoffset:0;stroke-width:1.5;"/>
    <defs>
     <path d="M 0 3 
C 0.795609 3 1.55874 2.683901 2.12132 2.12132 
C 2.683901 1.55874 3 0.795609 3 0 
C 3 -0.795609 2.683901 -1.55874 2.12132 -2.12132 
C 1.55874 -2.683901 0.795609 -3 0 -3 
C -0.795609 -3 -1.55874 -2.683901 -2.12132 -2.12132 
C -2.683901 -1.55874 -3 -0.795609 -3 0 
C -3 0.795609 -2.683901 1.55874 -2.12132 2.12132 
C -1.55874 2.683901 -0.795609 3 0 3 
z
" id="m13f4dbc383" style="stroke:#ffba00;"/>
    </defs>
    <g clip-path="url(#p49d54561d4)">
     <use style="fill:#ffba00;stroke:#ffba00;" x="73.832727" xlink:href="#m13f4dbc383" y="295.4867"/>
     <use style="fill:#ffba00;stroke:#ffba00;" x="73.843296" xlink:href="#m13f4dbc383" y="295.485621"/>
     <use style="fill:#ffba00;stroke:#ffba00;" x="73.864433" xlink:href="#m13f4dbc383" y="295.484733"/>
     <use style="fill:#ffba00;stroke:#ffba00;" x="73.906707" xlink:href="#m13f4dbc383" y="295.480651"/>
     <use style="fill:#ffba00;stroke:#ffba00;" x="73.991255" xlink:href="#m13f4dbc383" y="295.473454"/>
     <use style="fill:#ffba00;stroke:#ffba00;" x="74.160352" xlink:href="#m13f4dbc383" y="295.460158"/>
     <use style="fill:#ffba00;stroke:#ffba00;" x="74.498544" xlink:href="#m13f4dbc383" y="295.437813"/>
     <use style="fill:#ffba00;stroke:#ffba00;" x="75.17493" xlink:href="#m13f4dbc383" y="295.391895"/>
     <use style="fill:#ffba00;stroke:#ffba00;" x="76.527701" xlink:href="#m13f4dbc383" y="295.29521"/>
     <use style="fill:#ffba00;stroke:#ffba00;" x="79.233244" xlink:href="#m13f4dbc383" y="295.080382"/>
     <use style="fill:#ffba00;stroke:#ffba00;" x="84.644329" xlink:href="#m13f4dbc383" y="294.612917"/>
     <use style="fill:#ffba00;stroke:#ffba00;" x="95.4665" xlink:href="#m13f4dbc383" y="293.735267"/>
     <use style="fill:#ffba00;stroke:#ffba00;" x="138.755182" xlink:href="#m13f4dbc383" y="289.907522"/>
     <use style="fill:#ffba00;stroke:#ffba00;" x="182.043863" xlink:href="#m13f4dbc383" y="285.540058"/>
     <use style="fill:#ffba00;stroke:#ffba00;" x="225.332545" xlink:href="#m13f4dbc383" y="281.179436"/>
     <use style="fill:#ffba00;stroke:#ffba00;" x="268.621227" xlink:href="#m13f4dbc383" y="278.438763"/>
     <use style="fill:#ffba00;stroke:#ffba00;" x="311.909909" xlink:href="#m13f4dbc383" y="270.238046"/>
     <use style="fill:#ffba00;stroke:#ffba00;" x="355.198591" xlink:href="#m13f4dbc383" y="264.376"/>
     <use style="fill:#ffba00;stroke:#ffba00;" x="398.487273" xlink:href="#m13f4dbc383" y="256.259652"/>
    </g>
   </g>
   <g id="line2d_19">
    <path clip-path="url(#p49d54561d4)" d="M 73.832727 295.486951 
L 73.843296 295.484991 
L 73.864433 295.481653 
L 73.906707 295.47615 
L 73.991255 295.463247 
L 74.160352 295.439616 
L 74.498544 295.388779 
L 75.17493 295.219928 
L 76.527701 294.896216 
L 79.233244 293.967766 
L 84.644329 292.02671 
L 95.4665 288.245248 
L 138.755182 272.343854 
L 182.043863 252.695582 
L 225.332545 226.98093 
L 268.621227 194.629441 
L 311.909909 154.564814 
L 355.198591 108.00059 
L 398.487273 59.736638 
" style="fill:none;stroke:#cdff00;stroke-dasharray:1.5,2.475;stroke-dashoffset:0;stroke-width:1.5;"/>
    <defs>
     <path d="M 0 3 
C 0.795609 3 1.55874 2.683901 2.12132 2.12132 
C 2.683901 1.55874 3 0.795609 3 0 
C 3 -0.795609 2.683901 -1.55874 2.12132 -2.12132 
C 1.55874 -2.683901 0.795609 -3 0 -3 
C -0.795609 -3 -1.55874 -2.683901 -2.12132 -2.12132 
C -2.683901 -1.55874 -3 -0.795609 -3 0 
C -3 0.795609 -2.683901 1.55874 -2.12132 2.12132 
C -1.55874 2.683901 -0.795609 3 0 3 
z
" id="ma6d5c89019" style="stroke:#cdff00;"/>
    </defs>
    <g clip-path="url(#p49d54561d4)">
     <use style="fill:#cdff00;stroke:#cdff00;" x="73.832727" xlink:href="#ma6d5c89019" y="295.486951"/>
     <use style="fill:#cdff00;stroke:#cdff00;" x="73.843296" xlink:href="#ma6d5c89019" y="295.484991"/>
     <use style="fill:#cdff00;stroke:#cdff00;" x="73.864433" xlink:href="#ma6d5c89019" y="295.481653"/>
     <use style="fill:#cdff00;stroke:#cdff00;" x="73.906707" xlink:href="#ma6d5c89019" y="295.47615"/>
     <use style="fill:#cdff00;stroke:#cdff00;" x="73.991255" xlink:href="#ma6d5c89019" y="295.463247"/>
     <use style="fill:#cdff00;stroke:#cdff00;" x="74.160352" xlink:href="#ma6d5c89019" y="295.439616"/>
     <use style="fill:#cdff00;stroke:#cdff00;" x="74.498544" xlink:href="#ma6d5c89019" y="295.388779"/>
     <use style="fill:#cdff00;stroke:#cdff00;" x="75.17493" xlink:href="#ma6d5c89019" y="295.219928"/>
     <use style="fill:#cdff00;stroke:#cdff00;" x="76.527701" xlink:href="#ma6d5c89019" y="294.896216"/>
     <use style="fill:#cdff00;stroke:#cdff00;" x="79.233244" xlink:href="#ma6d5c89019" y="293.967766"/>
     <use style="fill:#cdff00;stroke:#cdff00;" x="84.644329" xlink:href="#ma6d5c89019" y="292.02671"/>
     <use style="fill:#cdff00;stroke:#cdff00;" x="95.4665" xlink:href="#ma6d5c89019" y="288.245248"/>
     <use style="fill:#cdff00;stroke:#cdff00;" x="138.755182" xlink:href="#ma6d5c89019" y="272.343854"/>
     <use style="fill:#cdff00;stroke:#cdff00;" x="182.043863" xlink:href="#ma6d5c89019" y="252.695582"/>
     <use style="fill:#cdff00;stroke:#cdff00;" x="225.332545" xlink:href="#ma6d5c89019" y="226.98093"/>
     <use style="fill:#cdff00;stroke:#cdff00;" x="268.621227" xlink:href="#ma6d5c89019" y="194.629441"/>
     <use style="fill:#cdff00;stroke:#cdff00;" x="311.909909" xlink:href="#ma6d5c89019" y="154.564814"/>
     <use style="fill:#cdff00;stroke:#cdff00;" x="355.198591" xlink:href="#ma6d5c89019" y="108.00059"/>
     <use style="fill:#cdff00;stroke:#cdff00;" x="398.487273" xlink:href="#ma6d5c89019" y="59.736638"/>
    </g>
   </g>
   <g id="line2d_20">
    <path clip-path="url(#p49d54561d4)" d="M 73.832727 295.487425 
L 73.843296 295.486627 
L 73.864433 295.484971 
L 73.906707 295.482316 
L 73.991255 295.476515 
L 74.160352 295.467801 
L 74.498544 295.452513 
L 75.17493 295.416525 
L 76.527701 295.322929 
L 79.233244 295.111937 
L 84.644329 294.603977 
L 95.4665 293.386044 
L 138.755182 288.459692 
L 182.043863 283.451207 
L 225.332545 278.24108 
L 268.621227 272.618314 
L 311.909909 266.387197 
L 355.198591 257.813826 
L 398.487273 245.090992 
" style="fill:none;stroke:#5cff00;stroke-dasharray:5.55,2.4;stroke-dashoffset:0;stroke-width:1.5;"/>
    <defs>
     <path d="M 0 3 
C 0.795609 3 1.55874 2.683901 2.12132 2.12132 
C 2.683901 1.55874 3 0.795609 3 0 
C 3 -0.795609 2.683901 -1.55874 2.12132 -2.12132 
C 1.55874 -2.683901 0.795609 -3 0 -3 
C -0.795609 -3 -1.55874 -2.683901 -2.12132 -2.12132 
C -2.683901 -1.55874 -3 -0.795609 -3 0 
C -3 0.795609 -2.683901 1.55874 -2.12132 2.12132 
C -1.55874 2.683901 -0.795609 3 0 3 
z
" id="meaaf1d5603" style="stroke:#5cff00;"/>
    </defs>
    <g clip-path="url(#p49d54561d4)">
     <use style="fill:#5cff00;stroke:#5cff00;" x="73.832727" xlink:href="#meaaf1d5603" y="295.487425"/>
     <use style="fill:#5cff00;stroke:#5cff00;" x="73.843296" xlink:href="#meaaf1d5603" y="295.486627"/>
     <use style="fill:#5cff00;stroke:#5cff00;" x="73.864433" xlink:href="#meaaf1d5603" y="295.484971"/>
     <use style="fill:#5cff00;stroke:#5cff00;" x="73.906707" xlink:href="#meaaf1d5603" y="295.482316"/>
     <use style="fill:#5cff00;stroke:#5cff00;" x="73.991255" xlink:href="#meaaf1d5603" y="295.476515"/>
     <use style="fill:#5cff00;stroke:#5cff00;" x="74.160352" xlink:href="#meaaf1d5603" y="295.467801"/>
     <use style="fill:#5cff00;stroke:#5cff00;" x="74.498544" xlink:href="#meaaf1d5603" y="295.452513"/>
     <use style="fill:#5cff00;stroke:#5cff00;" x="75.17493" xlink:href="#meaaf1d5603" y="295.416525"/>
     <use style="fill:#5cff00;stroke:#5cff00;" x="76.527701" xlink:href="#meaaf1d5603" y="295.322929"/>
     <use style="fill:#5cff00;stroke:#5cff00;" x="79.233244" xlink:href="#meaaf1d5603" y="295.111937"/>
     <use style="fill:#5cff00;stroke:#5cff00;" x="84.644329" xlink:href="#meaaf1d5603" y="294.603977"/>
     <use style="fill:#5cff00;stroke:#5cff00;" x="95.4665" xlink:href="#meaaf1d5603" y="293.386044"/>
     <use style="fill:#5cff00;stroke:#5cff00;" x="138.755182" xlink:href="#meaaf1d5603" y="288.459692"/>
     <use style="fill:#5cff00;stroke:#5cff00;" x="182.043863" xlink:href="#meaaf1d5603" y="283.451207"/>
     <use style="fill:#5cff00;stroke:#5cff00;" x="225.332545" xlink:href="#meaaf1d5603" y="278.24108"/>
     <use style="fill:#5cff00;stroke:#5cff00;" x="268.621227" xlink:href="#meaaf1d5603" y="272.618314"/>
     <use style="fill:#5cff00;stroke:#5cff00;" x="311.909909" xlink:href="#meaaf1d5603" y="266.387197"/>
     <use style="fill:#5cff00;stroke:#5cff00;" x="355.198591" xlink:href="#meaaf1d5603" y="257.813826"/>
     <use style="fill:#5cff00;stroke:#5cff00;" x="398.487273" xlink:href="#meaaf1d5603" y="245.090992"/>
    </g>
   </g>
   <g id="line2d_21">
    <path clip-path="url(#p49d54561d4)" d="M 73.832727 295.488 
L 73.843296 295.487592 
L 73.864433 295.48693 
L 73.906707 295.485187 
L 73.991255 295.482062 
L 74.160352 295.476008 
L 74.498544 295.463701 
L 75.17493 295.439971 
L 76.527701 295.398816 
L 79.233244 295.309981 
L 84.644329 295.119615 
L 95.4665 294.753735 
L 138.755182 293.528948 
L 182.043863 292.134552 
L 225.332545 291.103789 
L 268.621227 289.325191 
L 311.909909 288.326584 
L 355.198591 287.279625 
L 398.487273 286.251433 
" style="fill:none;stroke:#00ff16;stroke-dasharray:1.5,2.475;stroke-dashoffset:0;stroke-width:1.5;"/>
    <defs>
     <path d="M 0 3 
C 0.795609 3 1.55874 2.683901 2.12132 2.12132 
C 2.683901 1.55874 3 0.795609 3 0 
C 3 -0.795609 2.683901 -1.55874 2.12132 -2.12132 
C 1.55874 -2.683901 0.795609 -3 0 -3 
C -0.795609 -3 -1.55874 -2.683901 -2.12132 -2.12132 
C -2.683901 -1.55874 -3 -0.795609 -3 0 
C -3 0.795609 -2.683901 1.55874 -2.12132 2.12132 
C -1.55874 2.683901 -0.795609 3 0 3 
z
" id="m67f4e4ebaf" style="stroke:#00ff16;"/>
    </defs>
    <g clip-path="url(#p49d54561d4)">
     <use style="fill:#00ff16;stroke:#00ff16;" x="73.832727" xlink:href="#m67f4e4ebaf" y="295.488"/>
     <use style="fill:#00ff16;stroke:#00ff16;" x="73.843296" xlink:href="#m67f4e4ebaf" y="295.487592"/>
     <use style="fill:#00ff16;stroke:#00ff16;" x="73.864433" xlink:href="#m67f4e4ebaf" y="295.48693"/>
     <use style="fill:#00ff16;stroke:#00ff16;" x="73.906707" xlink:href="#m67f4e4ebaf" y="295.485187"/>
     <use style="fill:#00ff16;stroke:#00ff16;" x="73.991255" xlink:href="#m67f4e4ebaf" y="295.482062"/>
     <use style="fill:#00ff16;stroke:#00ff16;" x="74.160352" xlink:href="#m67f4e4ebaf" y="295.476008"/>
     <use style="fill:#00ff16;stroke:#00ff16;" x="74.498544" xlink:href="#m67f4e4ebaf" y="295.463701"/>
     <use style="fill:#00ff16;stroke:#00ff16;" x="75.17493" xlink:href="#m67f4e4ebaf" y="295.439971"/>
     <use style="fill:#00ff16;stroke:#00ff16;" x="76.527701" xlink:href="#m67f4e4ebaf" y="295.398816"/>
     <use style="fill:#00ff16;stroke:#00ff16;" x="79.233244" xlink:href="#m67f4e4ebaf" y="295.309981"/>
     <use style="fill:#00ff16;stroke:#00ff16;" x="84.644329" xlink:href="#m67f4e4ebaf" y="295.119615"/>
     <use style="fill:#00ff16;stroke:#00ff16;" x="95.4665" xlink:href="#m67f4e4ebaf" y="294.753735"/>
     <use style="fill:#00ff16;stroke:#00ff16;" x="138.755182" xlink:href="#m67f4e4ebaf" y="293.528948"/>
     <use style="fill:#00ff16;stroke:#00ff16;" x="182.043863" xlink:href="#m67f4e4ebaf" y="292.134552"/>
     <use style="fill:#00ff16;stroke:#00ff16;" x="225.332545" xlink:href="#m67f4e4ebaf" y="291.103789"/>
     <use style="fill:#00ff16;stroke:#00ff16;" x="268.621227" xlink:href="#m67f4e4ebaf" y="289.325191"/>
     <use style="fill:#00ff16;stroke:#00ff16;" x="311.909909" xlink:href="#m67f4e4ebaf" y="288.326584"/>
     <use style="fill:#00ff16;stroke:#00ff16;" x="355.198591" xlink:href="#m67f4e4ebaf" y="287.279625"/>
     <use style="fill:#00ff16;stroke:#00ff16;" x="398.487273" xlink:href="#m67f4e4ebaf" y="286.251433"/>
    </g>
   </g>
   <g id="line2d_22">
    <path clip-path="url(#p49d54561d4)" d="M 73.832727 295.486486 
L 73.843296 295.486053 
L 73.864433 295.484431 
L 73.906707 295.481637 
L 73.991255 295.475451 
L 74.160352 295.462438 
L 74.498544 295.43965 
L 75.17493 295.384923 
L 76.527701 295.248381 
L 79.233244 294.84687 
L 84.644329 294.07337 
L 95.4665 292.627391 
L 138.755182 287.550785 
L 182.043863 281.922077 
L 225.332545 275.337436 
L 268.621227 267.84749 
L 311.909909 260.584573 
L 355.198591 250.25653 
L 398.487273 245.494576 
" style="fill:none;stroke:#00ff8c;stroke-dasharray:5.55,2.4;stroke-dashoffset:0;stroke-width:1.5;"/>
    <defs>
     <path d="M 0 3 
C 0.795609 3 1.55874 2.683901 2.12132 2.12132 
C 2.683901 1.55874 3 0.795609 3 0 
C 3 -0.795609 2.683901 -1.55874 2.12132 -2.12132 
C 1.55874 -2.683901 0.795609 -3 0 -3 
C -0.795609 -3 -1.55874 -2.683901 -2.12132 -2.12132 
C -2.683901 -1.55874 -3 -0.795609 -3 0 
C -3 0.795609 -2.683901 1.55874 -2.12132 2.12132 
C -1.55874 2.683901 -0.795609 3 0 3 
z
" id="maa59c04a46" style="stroke:#00ff8c;"/>
    </defs>
    <g clip-path="url(#p49d54561d4)">
     <use style="fill:#00ff8c;stroke:#00ff8c;" x="73.832727" xlink:href="#maa59c04a46" y="295.486486"/>
     <use style="fill:#00ff8c;stroke:#00ff8c;" x="73.843296" xlink:href="#maa59c04a46" y="295.486053"/>
     <use style="fill:#00ff8c;stroke:#00ff8c;" x="73.864433" xlink:href="#maa59c04a46" y="295.484431"/>
     <use style="fill:#00ff8c;stroke:#00ff8c;" x="73.906707" xlink:href="#maa59c04a46" y="295.481637"/>
     <use style="fill:#00ff8c;stroke:#00ff8c;" x="73.991255" xlink:href="#maa59c04a46" y="295.475451"/>
     <use style="fill:#00ff8c;stroke:#00ff8c;" x="74.160352" xlink:href="#maa59c04a46" y="295.462438"/>
     <use style="fill:#00ff8c;stroke:#00ff8c;" x="74.498544" xlink:href="#maa59c04a46" y="295.43965"/>
     <use style="fill:#00ff8c;stroke:#00ff8c;" x="75.17493" xlink:href="#maa59c04a46" y="295.384923"/>
     <use style="fill:#00ff8c;stroke:#00ff8c;" x="76.527701" xlink:href="#maa59c04a46" y="295.248381"/>
     <use style="fill:#00ff8c;stroke:#00ff8c;" x="79.233244" xlink:href="#maa59c04a46" y="294.84687"/>
     <use style="fill:#00ff8c;stroke:#00ff8c;" x="84.644329" xlink:href="#maa59c04a46" y="294.07337"/>
     <use style="fill:#00ff8c;stroke:#00ff8c;" x="95.4665" xlink:href="#maa59c04a46" y="292.627391"/>
     <use style="fill:#00ff8c;stroke:#00ff8c;" x="138.755182" xlink:href="#maa59c04a46" y="287.550785"/>
     <use style="fill:#00ff8c;stroke:#00ff8c;" x="182.043863" xlink:href="#maa59c04a46" y="281.922077"/>
     <use style="fill:#00ff8c;stroke:#00ff8c;" x="225.332545" xlink:href="#maa59c04a46" y="275.337436"/>
     <use style="fill:#00ff8c;stroke:#00ff8c;" x="268.621227" xlink:href="#maa59c04a46" y="267.84749"/>
     <use style="fill:#00ff8c;stroke:#00ff8c;" x="311.909909" xlink:href="#maa59c04a46" y="260.584573"/>
     <use style="fill:#00ff8c;stroke:#00ff8c;" x="355.198591" xlink:href="#maa59c04a46" y="250.25653"/>
     <use style="fill:#00ff8c;stroke:#00ff8c;" x="398.487273" xlink:href="#maa59c04a46" y="245.494576"/>
    </g>
   </g>
   <g id="line2d_23">
    <path clip-path="url(#p49d54561d4)" d="M 73.832727 295.486799 
L 73.843296 295.484522 
L 73.864433 295.481967 
L 73.906707 295.476671 
L 73.991255 295.465134 
L 74.160352 295.44413 
L 74.498544 295.400289 
L 75.17493 295.237427 
L 76.527701 294.914048 
L 79.233244 294.013807 
L 84.644329 292.141039 
L 95.4665 288.522472 
L 138.755182 273.12193 
L 182.043863 253.834113 
L 225.332545 228.507665 
L 268.621227 197.236664 
L 311.909909 157.660356 
L 355.198591 111.552243 
L 398.487273 60.828167 
" style="fill:none;stroke:#00fffd;stroke-dasharray:1.5,2.475;stroke-dashoffset:0;stroke-width:1.5;"/>
    <defs>
     <path d="M 0 3 
C 0.795609 3 1.55874 2.683901 2.12132 2.12132 
C 2.683901 1.55874 3 0.795609 3 0 
C 3 -0.795609 2.683901 -1.55874 2.12132 -2.12132 
C 1.55874 -2.683901 0.795609 -3 0 -3 
C -0.795609 -3 -1.55874 -2.683901 -2.12132 -2.12132 
C -2.683901 -1.55874 -3 -0.795609 -3 0 
C -3 0.795609 -2.683901 1.55874 -2.12132 2.12132 
C -1.55874 2.683901 -0.795609 3 0 3 
z
" id="m0de4192865" style="stroke:#00fffd;"/>
    </defs>
    <g clip-path="url(#p49d54561d4)">
     <use style="fill:#00fffd;stroke:#00fffd;" x="73.832727" xlink:href="#m0de4192865" y="295.486799"/>
     <use style="fill:#00fffd;stroke:#00fffd;" x="73.843296" xlink:href="#m0de4192865" y="295.484522"/>
     <use style="fill:#00fffd;stroke:#00fffd;" x="73.864433" xlink:href="#m0de4192865" y="295.481967"/>
     <use style="fill:#00fffd;stroke:#00fffd;" x="73.906707" xlink:href="#m0de4192865" y="295.476671"/>
     <use style="fill:#00fffd;stroke:#00fffd;" x="73.991255" xlink:href="#m0de4192865" y="295.465134"/>
     <use style="fill:#00fffd;stroke:#00fffd;" x="74.160352" xlink:href="#m0de4192865" y="295.44413"/>
     <use style="fill:#00fffd;stroke:#00fffd;" x="74.498544" xlink:href="#m0de4192865" y="295.400289"/>
     <use style="fill:#00fffd;stroke:#00fffd;" x="75.17493" xlink:href="#m0de4192865" y="295.237427"/>
     <use style="fill:#00fffd;stroke:#00fffd;" x="76.527701" xlink:href="#m0de4192865" y="294.914048"/>
     <use style="fill:#00fffd;stroke:#00fffd;" x="79.233244" xlink:href="#m0de4192865" y="294.013807"/>
     <use style="fill:#00fffd;stroke:#00fffd;" x="84.644329" xlink:href="#m0de4192865" y="292.141039"/>
     <use style="fill:#00fffd;stroke:#00fffd;" x="95.4665" xlink:href="#m0de4192865" y="288.522472"/>
     <use style="fill:#00fffd;stroke:#00fffd;" x="138.755182" xlink:href="#m0de4192865" y="273.12193"/>
     <use style="fill:#00fffd;stroke:#00fffd;" x="182.043863" xlink:href="#m0de4192865" y="253.834113"/>
     <use style="fill:#00fffd;stroke:#00fffd;" x="225.332545" xlink:href="#m0de4192865" y="228.507665"/>
     <use style="fill:#00fffd;stroke:#00fffd;" x="268.621227" xlink:href="#m0de4192865" y="197.236664"/>
     <use style="fill:#00fffd;stroke:#00fffd;" x="311.909909" xlink:href="#m0de4192865" y="157.660356"/>
     <use style="fill:#00fffd;stroke:#00fffd;" x="355.198591" xlink:href="#m0de4192865" y="111.552243"/>
     <use style="fill:#00fffd;stroke:#00fffd;" x="398.487273" xlink:href="#m0de4192865" y="60.828167"/>
    </g>
   </g>
   <g id="line2d_24">
    <path clip-path="url(#p49d54561d4)" d="M 73.832727 295.48646 
L 73.843296 295.483458 
L 73.864433 295.480348 
L 73.906707 295.47356 
L 73.991255 295.459021 
L 74.160352 295.432764 
L 74.498544 295.37617 
L 75.17493 295.187795 
L 76.527701 294.830163 
L 79.233244 293.870862 
L 84.644329 291.835934 
L 95.4665 287.847245 
L 138.755182 271.226854 
L 182.043863 250.585062 
L 225.332545 224.846551 
L 268.621227 194.92741 
L 311.909909 155.078009 
L 355.198591 106.133487 
L 398.487273 53.568 
" style="fill:none;stroke:#008fff;stroke-dasharray:5.55,2.4;stroke-dashoffset:0;stroke-width:1.5;"/>
    <defs>
     <path d="M 0 3 
C 0.795609 3 1.55874 2.683901 2.12132 2.12132 
C 2.683901 1.55874 3 0.795609 3 0 
C 3 -0.795609 2.683901 -1.55874 2.12132 -2.12132 
C 1.55874 -2.683901 0.795609 -3 0 -3 
C -0.795609 -3 -1.55874 -2.683901 -2.12132 -2.12132 
C -2.683901 -1.55874 -3 -0.795609 -3 0 
C -3 0.795609 -2.683901 1.55874 -2.12132 2.12132 
C -1.55874 2.683901 -0.795609 3 0 3 
z
" id="m47d2279c32" style="stroke:#008fff;"/>
    </defs>
    <g clip-path="url(#p49d54561d4)">
     <use style="fill:#008fff;stroke:#008fff;" x="73.832727" xlink:href="#m47d2279c32" y="295.48646"/>
     <use style="fill:#008fff;stroke:#008fff;" x="73.843296" xlink:href="#m47d2279c32" y="295.483458"/>
     <use style="fill:#008fff;stroke:#008fff;" x="73.864433" xlink:href="#m47d2279c32" y="295.480348"/>
     <use style="fill:#008fff;stroke:#008fff;" x="73.906707" xlink:href="#m47d2279c32" y="295.47356"/>
     <use style="fill:#008fff;stroke:#008fff;" x="73.991255" xlink:href="#m47d2279c32" y="295.459021"/>
     <use style="fill:#008fff;stroke:#008fff;" x="74.160352" xlink:href="#m47d2279c32" y="295.432764"/>
     <use style="fill:#008fff;stroke:#008fff;" x="74.498544" xlink:href="#m47d2279c32" y="295.37617"/>
     <use style="fill:#008fff;stroke:#008fff;" x="75.17493" xlink:href="#m47d2279c32" y="295.187795"/>
     <use style="fill:#008fff;stroke:#008fff;" x="76.527701" xlink:href="#m47d2279c32" y="294.830163"/>
     <use style="fill:#008fff;stroke:#008fff;" x="79.233244" xlink:href="#m47d2279c32" y="293.870862"/>
     <use style="fill:#008fff;stroke:#008fff;" x="84.644329" xlink:href="#m47d2279c32" y="291.835934"/>
     <use style="fill:#008fff;stroke:#008fff;" x="95.4665" xlink:href="#m47d2279c32" y="287.847245"/>
     <use style="fill:#008fff;stroke:#008fff;" x="138.755182" xlink:href="#m47d2279c32" y="271.226854"/>
     <use style="fill:#008fff;stroke:#008fff;" x="182.043863" xlink:href="#m47d2279c32" y="250.585062"/>
     <use style="fill:#008fff;stroke:#008fff;" x="225.332545" xlink:href="#m47d2279c32" y="224.846551"/>
     <use style="fill:#008fff;stroke:#008fff;" x="268.621227" xlink:href="#m47d2279c32" y="194.92741"/>
     <use style="fill:#008fff;stroke:#008fff;" x="311.909909" xlink:href="#m47d2279c32" y="155.078009"/>
     <use style="fill:#008fff;stroke:#008fff;" x="355.198591" xlink:href="#m47d2279c32" y="106.133487"/>
     <use style="fill:#008fff;stroke:#008fff;" x="398.487273" xlink:href="#m47d2279c32" y="53.568"/>
    </g>
   </g>
   <g id="line2d_25">
    <path clip-path="url(#p49d54561d4)" d="M 73.832727 295.486601 
L 73.843296 295.48407 
L 73.864433 295.480634 
L 73.906707 295.473324 
L 73.991255 295.458057 
L 74.160352 295.429642 
L 74.498544 295.370075 
L 75.17493 295.17397 
L 76.527701 294.811289 
L 79.233244 293.802882 
L 84.644329 291.647692 
L 95.4665 287.672633 
L 138.755182 270.95504 
L 182.043863 250.945837 
L 225.332545 229.433694 
L 268.621227 204.309025 
L 311.909909 177.853583 
L 355.198591 144.766212 
L 398.487273 108.558938 
" style="fill:none;stroke:#0018ff;stroke-dasharray:1.5,2.475;stroke-dashoffset:0;stroke-width:1.5;"/>
    <defs>
     <path d="M 0 3 
C 0.795609 3 1.55874 2.683901 2.12132 2.12132 
C 2.683901 1.55874 3 0.795609 3 0 
C 3 -0.795609 2.683901 -1.55874 2.12132 -2.12132 
C 1.55874 -2.683901 0.795609 -3 0 -3 
C -0.795609 -3 -1.55874 -2.683901 -2.12132 -2.12132 
C -2.683901 -1.55874 -3 -0.795609 -3 0 
C -3 0.795609 -2.683901 1.55874 -2.12132 2.12132 
C -1.55874 2.683901 -0.795609 3 0 3 
z
" id="m3baff4b78c" style="stroke:#0018ff;"/>
    </defs>
    <g clip-path="url(#p49d54561d4)">
     <use style="fill:#0018ff;stroke:#0018ff;" x="73.832727" xlink:href="#m3baff4b78c" y="295.486601"/>
     <use style="fill:#0018ff;stroke:#0018ff;" x="73.843296" xlink:href="#m3baff4b78c" y="295.48407"/>
     <use style="fill:#0018ff;stroke:#0018ff;" x="73.864433" xlink:href="#m3baff4b78c" y="295.480634"/>
     <use style="fill:#0018ff;stroke:#0018ff;" x="73.906707" xlink:href="#m3baff4b78c" y="295.473324"/>
     <use style="fill:#0018ff;stroke:#0018ff;" x="73.991255" xlink:href="#m3baff4b78c" y="295.458057"/>
     <use style="fill:#0018ff;stroke:#0018ff;" x="74.160352" xlink:href="#m3baff4b78c" y="295.429642"/>
     <use style="fill:#0018ff;stroke:#0018ff;" x="74.498544" xlink:href="#m3baff4b78c" y="295.370075"/>
     <use style="fill:#0018ff;stroke:#0018ff;" x="75.17493" xlink:href="#m3baff4b78c" y="295.17397"/>
     <use style="fill:#0018ff;stroke:#0018ff;" x="76.527701" xlink:href="#m3baff4b78c" y="294.811289"/>
     <use style="fill:#0018ff;stroke:#0018ff;" x="79.233244" xlink:href="#m3baff4b78c" y="293.802882"/>
     <use style="fill:#0018ff;stroke:#0018ff;" x="84.644329" xlink:href="#m3baff4b78c" y="291.647692"/>
     <use style="fill:#0018ff;stroke:#0018ff;" x="95.4665" xlink:href="#m3baff4b78c" y="287.672633"/>
     <use style="fill:#0018ff;stroke:#0018ff;" x="138.755182" xlink:href="#m3baff4b78c" y="270.95504"/>
     <use style="fill:#0018ff;stroke:#0018ff;" x="182.043863" xlink:href="#m3baff4b78c" y="250.945837"/>
     <use style="fill:#0018ff;stroke:#0018ff;" x="225.332545" xlink:href="#m3baff4b78c" y="229.433694"/>
     <use style="fill:#0018ff;stroke:#0018ff;" x="268.621227" xlink:href="#m3baff4b78c" y="204.309025"/>
     <use style="fill:#0018ff;stroke:#0018ff;" x="311.909909" xlink:href="#m3baff4b78c" y="177.853583"/>
     <use style="fill:#0018ff;stroke:#0018ff;" x="355.198591" xlink:href="#m3baff4b78c" y="144.766212"/>
     <use style="fill:#0018ff;stroke:#0018ff;" x="398.487273" xlink:href="#m3baff4b78c" y="108.558938"/>
    </g>
   </g>
   <g id="line2d_26">
    <path clip-path="url(#p49d54561d4)" d="M 73.832727 295.48788 
L 73.843296 295.486938 
L 73.864433 295.485753 
L 73.906707 295.483816 
L 73.991255 295.479227 
L 74.160352 295.470573 
L 74.498544 295.453069 
L 75.17493 295.411201 
L 76.527701 295.299393 
L 79.233244 294.874407 
L 84.644329 294.109802 
L 95.4665 292.74329 
L 138.755182 288.051689 
L 182.043863 283.515373 
L 225.332545 277.872604 
L 268.621227 270.905246 
L 311.909909 264.493075 
L 355.198591 254.856605 
L 398.487273 251.076671 
" style="fill:none;stroke:#5a00ff;stroke-dasharray:5.55,2.4;stroke-dashoffset:0;stroke-width:1.5;"/>
    <defs>
     <path d="M 0 3 
C 0.795609 3 1.55874 2.683901 2.12132 2.12132 
C 2.683901 1.55874 3 0.795609 3 0 
C 3 -0.795609 2.683901 -1.55874 2.12132 -2.12132 
C 1.55874 -2.683901 0.795609 -3 0 -3 
C -0.795609 -3 -1.55874 -2.683901 -2.12132 -2.12132 
C -2.683901 -1.55874 -3 -0.795609 -3 0 
C -3 0.795609 -2.683901 1.55874 -2.12132 2.12132 
C -1.55874 2.683901 -0.795609 3 0 3 
z
" id="mcb61993056" style="stroke:#5a00ff;"/>
    </defs>
    <g clip-path="url(#p49d54561d4)">
     <use style="fill:#5a00ff;stroke:#5a00ff;" x="73.832727" xlink:href="#mcb61993056" y="295.48788"/>
     <use style="fill:#5a00ff;stroke:#5a00ff;" x="73.843296" xlink:href="#mcb61993056" y="295.486938"/>
     <use style="fill:#5a00ff;stroke:#5a00ff;" x="73.864433" xlink:href="#mcb61993056" y="295.485753"/>
     <use style="fill:#5a00ff;stroke:#5a00ff;" x="73.906707" xlink:href="#mcb61993056" y="295.483816"/>
     <use style="fill:#5a00ff;stroke:#5a00ff;" x="73.991255" xlink:href="#mcb61993056" y="295.479227"/>
     <use style="fill:#5a00ff;stroke:#5a00ff;" x="74.160352" xlink:href="#mcb61993056" y="295.470573"/>
     <use style="fill:#5a00ff;stroke:#5a00ff;" x="74.498544" xlink:href="#mcb61993056" y="295.453069"/>
     <use style="fill:#5a00ff;stroke:#5a00ff;" x="75.17493" xlink:href="#mcb61993056" y="295.411201"/>
     <use style="fill:#5a00ff;stroke:#5a00ff;" x="76.527701" xlink:href="#mcb61993056" y="295.299393"/>
     <use style="fill:#5a00ff;stroke:#5a00ff;" x="79.233244" xlink:href="#mcb61993056" y="294.874407"/>
     <use style="fill:#5a00ff;stroke:#5a00ff;" x="84.644329" xlink:href="#mcb61993056" y="294.109802"/>
     <use style="fill:#5a00ff;stroke:#5a00ff;" x="95.4665" xlink:href="#mcb61993056" y="292.74329"/>
     <use style="fill:#5a00ff;stroke:#5a00ff;" x="138.755182" xlink:href="#mcb61993056" y="288.051689"/>
     <use style="fill:#5a00ff;stroke:#5a00ff;" x="182.043863" xlink:href="#mcb61993056" y="283.515373"/>
     <use style="fill:#5a00ff;stroke:#5a00ff;" x="225.332545" xlink:href="#mcb61993056" y="277.872604"/>
     <use style="fill:#5a00ff;stroke:#5a00ff;" x="268.621227" xlink:href="#mcb61993056" y="270.905246"/>
     <use style="fill:#5a00ff;stroke:#5a00ff;" x="311.909909" xlink:href="#mcb61993056" y="264.493075"/>
     <use style="fill:#5a00ff;stroke:#5a00ff;" x="355.198591" xlink:href="#mcb61993056" y="254.856605"/>
     <use style="fill:#5a00ff;stroke:#5a00ff;" x="398.487273" xlink:href="#mcb61993056" y="251.076671"/>
    </g>
   </g>
   <g id="line2d_27">
    <path clip-path="url(#p49d54561d4)" d="M 73.832727 295.487363 
L 73.843296 295.485683 
L 73.864433 295.483823 
L 73.906707 295.479792 
L 73.991255 295.471788 
L 74.160352 295.455748 
L 74.498544 295.423496 
L 75.17493 295.279171 
L 76.527701 295.014193 
L 79.233244 294.20213 
L 84.644329 292.472025 
L 95.4665 289.172543 
L 138.755182 275.409285 
L 182.043863 257.541292 
L 225.332545 233.768492 
L 268.621227 203.678642 
L 311.909909 166.350293 
L 355.198591 122.865483 
L 398.487273 76.558291 
" style="fill:none;stroke:#cd00ff;stroke-dasharray:1.5,2.475;stroke-dashoffset:0;stroke-width:1.5;"/>
    <defs>
     <path d="M 0 3 
C 0.795609 3 1.55874 2.683901 2.12132 2.12132 
C 2.683901 1.55874 3 0.795609 3 0 
C 3 -0.795609 2.683901 -1.55874 2.12132 -2.12132 
C 1.55874 -2.683901 0.795609 -3 0 -3 
C -0.795609 -3 -1.55874 -2.683901 -2.12132 -2.12132 
C -2.683901 -1.55874 -3 -0.795609 -3 0 
C -3 0.795609 -2.683901 1.55874 -2.12132 2.12132 
C -1.55874 2.683901 -0.795609 3 0 3 
z
" id="m575fa7e2e1" style="stroke:#cd00ff;"/>
    </defs>
    <g clip-path="url(#p49d54561d4)">
     <use style="fill:#cd00ff;stroke:#cd00ff;" x="73.832727" xlink:href="#m575fa7e2e1" y="295.487363"/>
     <use style="fill:#cd00ff;stroke:#cd00ff;" x="73.843296" xlink:href="#m575fa7e2e1" y="295.485683"/>
     <use style="fill:#cd00ff;stroke:#cd00ff;" x="73.864433" xlink:href="#m575fa7e2e1" y="295.483823"/>
     <use style="fill:#cd00ff;stroke:#cd00ff;" x="73.906707" xlink:href="#m575fa7e2e1" y="295.479792"/>
     <use style="fill:#cd00ff;stroke:#cd00ff;" x="73.991255" xlink:href="#m575fa7e2e1" y="295.471788"/>
     <use style="fill:#cd00ff;stroke:#cd00ff;" x="74.160352" xlink:href="#m575fa7e2e1" y="295.455748"/>
     <use style="fill:#cd00ff;stroke:#cd00ff;" x="74.498544" xlink:href="#m575fa7e2e1" y="295.423496"/>
     <use style="fill:#cd00ff;stroke:#cd00ff;" x="75.17493" xlink:href="#m575fa7e2e1" y="295.279171"/>
     <use style="fill:#cd00ff;stroke:#cd00ff;" x="76.527701" xlink:href="#m575fa7e2e1" y="295.014193"/>
     <use style="fill:#cd00ff;stroke:#cd00ff;" x="79.233244" xlink:href="#m575fa7e2e1" y="294.20213"/>
     <use style="fill:#cd00ff;stroke:#cd00ff;" x="84.644329" xlink:href="#m575fa7e2e1" y="292.472025"/>
     <use style="fill:#cd00ff;stroke:#cd00ff;" x="95.4665" xlink:href="#m575fa7e2e1" y="289.172543"/>
     <use style="fill:#cd00ff;stroke:#cd00ff;" x="138.755182" xlink:href="#m575fa7e2e1" y="275.409285"/>
     <use style="fill:#cd00ff;stroke:#cd00ff;" x="182.043863" xlink:href="#m575fa7e2e1" y="257.541292"/>
     <use style="fill:#cd00ff;stroke:#cd00ff;" x="225.332545" xlink:href="#m575fa7e2e1" y="233.768492"/>
     <use style="fill:#cd00ff;stroke:#cd00ff;" x="268.621227" xlink:href="#m575fa7e2e1" y="203.678642"/>
     <use style="fill:#cd00ff;stroke:#cd00ff;" x="311.909909" xlink:href="#m575fa7e2e1" y="166.350293"/>
     <use style="fill:#cd00ff;stroke:#cd00ff;" x="355.198591" xlink:href="#m575fa7e2e1" y="122.865483"/>
     <use style="fill:#cd00ff;stroke:#cd00ff;" x="398.487273" xlink:href="#m575fa7e2e1" y="76.558291"/>
    </g>
   </g>
   <g id="patch_3">
    <path d="M 57.6 307.584 
L 57.6 41.472 
" style="fill:none;stroke:#000000;stroke-linecap:square;stroke-linejoin:miter;stroke-width:0.8;"/>
   </g>
   <g id="patch_4">
    <path d="M 414.72 307.584 
L 414.72 41.472 
" style="fill:none;stroke:#000000;stroke-linecap:square;stroke-linejoin:miter;stroke-width:0.8;"/>
   </g>
   <g id="patch_5">
    <path d="M 57.6 307.584 
L 414.72 307.584 
" style="fill:none;stroke:#000000;stroke-linecap:square;stroke-linejoin:miter;stroke-width:0.8;"/>
   </g>
   <g id="patch_6">
    <path d="M 57.6 41.472 
L 414.72 41.472 
" style="fill:none;stroke:#000000;stroke-linecap:square;stroke-linejoin:miter;stroke-width:0.8;"/>
   </g>
   <g id="text_19">
    <!-- map ItTraversal -->
    <defs>
     <path d="M 34.28125 27.484375 
Q 23.390625 27.484375 19.1875 25 
Q 14.984375 22.515625 14.984375 16.5 
Q 14.984375 11.71875 18.140625 8.90625 
Q 21.296875 6.109375 26.703125 6.109375 
Q 34.1875 6.109375 38.703125 11.40625 
Q 43.21875 16.703125 43.21875 25.484375 
L 43.21875 27.484375 
z
M 52.203125 31.203125 
L 52.203125 0 
L 43.21875 0 
L 43.21875 8.296875 
Q 40.140625 3.328125 35.546875 0.953125 
Q 30.953125 -1.421875 24.3125 -1.421875 
Q 15.921875 -1.421875 10.953125 3.296875 
Q 6 8.015625 6 15.921875 
Q 6 25.140625 12.171875 29.828125 
Q 18.359375 34.515625 30.609375 34.515625 
L 43.21875 34.515625 
L 43.21875 35.40625 
Q 43.21875 41.609375 39.140625 45 
Q 35.0625 48.390625 27.6875 48.390625 
Q 23 48.390625 18.546875 47.265625 
Q 14.109375 46.140625 10.015625 43.890625 
L 10.015625 52.203125 
Q 14.9375 54.109375 19.578125 55.046875 
Q 24.21875 56 28.609375 56 
Q 40.484375 56 46.34375 49.84375 
Q 52.203125 43.703125 52.203125 31.203125 
z
" id="DejaVuSans-97"/>
     <path d="M 18.109375 8.203125 
L 18.109375 -20.796875 
L 9.078125 -20.796875 
L 9.078125 54.6875 
L 18.109375 54.6875 
L 18.109375 46.390625 
Q 20.953125 51.265625 25.265625 53.625 
Q 29.59375 56 35.59375 56 
Q 45.5625 56 51.78125 48.09375 
Q 58.015625 40.1875 58.015625 27.296875 
Q 58.015625 14.40625 51.78125 6.484375 
Q 45.5625 -1.421875 35.59375 -1.421875 
Q 29.59375 -1.421875 25.265625 0.953125 
Q 20.953125 3.328125 18.109375 8.203125 
z
M 48.6875 27.296875 
Q 48.6875 37.203125 44.609375 42.84375 
Q 40.53125 48.484375 33.40625 48.484375 
Q 26.265625 48.484375 22.1875 42.84375 
Q 18.109375 37.203125 18.109375 27.296875 
Q 18.109375 17.390625 22.1875 11.75 
Q 26.265625 6.109375 33.40625 6.109375 
Q 40.53125 6.109375 44.609375 11.75 
Q 48.6875 17.390625 48.6875 27.296875 
z
" id="DejaVuSans-112"/>
     <path d="M 9.8125 72.90625 
L 19.671875 72.90625 
L 19.671875 0 
L 9.8125 0 
z
" id="DejaVuSans-73"/>
     <path d="M 18.3125 70.21875 
L 18.3125 54.6875 
L 36.8125 54.6875 
L 36.8125 47.703125 
L 18.3125 47.703125 
L 18.3125 18.015625 
Q 18.3125 11.328125 20.140625 9.421875 
Q 21.96875 7.515625 27.59375 7.515625 
L 36.8125 7.515625 
L 36.8125 0 
L 27.59375 0 
Q 17.1875 0 13.234375 3.875 
Q 9.28125 7.765625 9.28125 18.015625 
L 9.28125 47.703125 
L 2.6875 47.703125 
L 2.6875 54.6875 
L 9.28125 54.6875 
L 9.28125 70.21875 
z
" id="DejaVuSans-116"/>
     <path d="M 41.109375 46.296875 
Q 39.59375 47.171875 37.8125 47.578125 
Q 36.03125 48 33.890625 48 
Q 26.265625 48 22.1875 43.046875 
Q 18.109375 38.09375 18.109375 28.8125 
L 18.109375 0 
L 9.078125 0 
L 9.078125 54.6875 
L 18.109375 54.6875 
L 18.109375 46.1875 
Q 20.953125 51.171875 25.484375 53.578125 
Q 30.03125 56 36.53125 56 
Q 37.453125 56 38.578125 55.875 
Q 39.703125 55.765625 41.0625 55.515625 
z
" id="DejaVuSans-114"/>
     <path d="M 2.984375 54.6875 
L 12.5 54.6875 
L 29.59375 8.796875 
L 46.6875 54.6875 
L 56.203125 54.6875 
L 35.6875 0 
L 23.484375 0 
z
" id="DejaVuSans-118"/>
     <path d="M 9.421875 75.984375 
L 18.40625 75.984375 
L 18.40625 0 
L 9.421875 0 
z
" id="DejaVuSans-108"/>
    </defs>
    <g transform="translate(188.826562 35.472)scale(0.12 -0.12)">
     <use xlink:href="#DejaVuSans-109"/>
     <use x="97.412109" xlink:href="#DejaVuSans-97"/>
     <use x="158.691406" xlink:href="#DejaVuSans-112"/>
     <use x="222.167969" xlink:href="#DejaVuSans-32"/>
     <use x="253.955078" xlink:href="#DejaVuSans-73"/>
     <use x="283.447266" xlink:href="#DejaVuSans-116"/>
     <use x="322.65625" xlink:href="#DejaVuSans-84"/>
     <use x="383.521484" xlink:href="#DejaVuSans-114"/>
     <use x="424.634766" xlink:href="#DejaVuSans-97"/>
     <use x="485.914062" xlink:href="#DejaVuSans-118"/>
     <use x="545.09375" xlink:href="#DejaVuSans-101"/>
     <use x="606.617188" xlink:href="#DejaVuSans-114"/>
     <use x="647.730469" xlink:href="#DejaVuSans-115"/>
     <use x="699.830078" xlink:href="#DejaVuSans-97"/>
     <use x="761.109375" xlink:href="#DejaVuSans-108"/>
    </g>
   </g>
   <g id="legend_1">
    <g id="patch_7">
     <path d="M 64.6 226.722 
L 299.979688 226.722 
Q 301.979688 226.722 301.979688 224.722 
L 301.979688 48.472 
Q 301.979688 46.472 299.979688 46.472 
L 64.6 46.472 
Q 62.6 46.472 62.6 48.472 
L 62.6 224.722 
Q 62.6 226.722 64.6 226.722 
z
" style="fill:#ffffff;opacity:0.8;stroke:#cccccc;stroke-linejoin:miter;"/>
    </g>
    <g id="line2d_28">
     <path d="M 66.6 54.570437 
L 86.6 54.570437 
" style="fill:none;stroke:#ff0029;stroke-dasharray:5.55,2.4;stroke-dashoffset:0;stroke-width:1.5;"/>
    </g>
    <g id="line2d_29">
     <g>
      <use style="fill:#ff0029;stroke:#ff0029;" x="76.6" xlink:href="#md846396738" y="54.570437"/>
     </g>
    </g>
    <g id="text_20">
     <!-- Cpp&lt;std::map&lt;int, void *&gt;&gt; -->
     <defs>
      <path d="M 64.40625 67.28125 
L 64.40625 56.890625 
Q 59.421875 61.53125 53.78125 63.8125 
Q 48.140625 66.109375 41.796875 66.109375 
Q 29.296875 66.109375 22.65625 58.46875 
Q 16.015625 50.828125 16.015625 36.375 
Q 16.015625 21.96875 22.65625 14.328125 
Q 29.296875 6.6875 41.796875 6.6875 
Q 48.140625 6.6875 53.78125 8.984375 
Q 59.421875 11.28125 64.40625 15.921875 
L 64.40625 5.609375 
Q 59.234375 2.09375 53.4375 0.328125 
Q 47.65625 -1.421875 41.21875 -1.421875 
Q 24.65625 -1.421875 15.125 8.703125 
Q 5.609375 18.84375 5.609375 36.375 
Q 5.609375 53.953125 15.125 64.078125 
Q 24.65625 74.21875 41.21875 74.21875 
Q 47.75 74.21875 53.53125 72.484375 
Q 59.328125 70.75 64.40625 67.28125 
z
" id="DejaVuSans-67"/>
      <path d="M 73.1875 49.21875 
L 22.796875 31.296875 
L 73.1875 13.484375 
L 73.1875 4.59375 
L 10.59375 27.296875 
L 10.59375 35.40625 
L 73.1875 58.109375 
z
" id="DejaVuSans-60"/>
      <path d="M 45.40625 46.390625 
L 45.40625 75.984375 
L 54.390625 75.984375 
L 54.390625 0 
L 45.40625 0 
L 45.40625 8.203125 
Q 42.578125 3.328125 38.25 0.953125 
Q 33.9375 -1.421875 27.875 -1.421875 
Q 17.96875 -1.421875 11.734375 6.484375 
Q 5.515625 14.40625 5.515625 27.296875 
Q 5.515625 40.1875 11.734375 48.09375 
Q 17.96875 56 27.875 56 
Q 33.9375 56 38.25 53.625 
Q 42.578125 51.265625 45.40625 46.390625 
z
M 14.796875 27.296875 
Q 14.796875 17.390625 18.875 11.75 
Q 22.953125 6.109375 30.078125 6.109375 
Q 37.203125 6.109375 41.296875 11.75 
Q 45.40625 17.390625 45.40625 27.296875 
Q 45.40625 37.203125 41.296875 42.84375 
Q 37.203125 48.484375 30.078125 48.484375 
Q 22.953125 48.484375 18.875 42.84375 
Q 14.796875 37.203125 14.796875 27.296875 
z
" id="DejaVuSans-100"/>
      <path d="M 11.71875 12.40625 
L 22.015625 12.40625 
L 22.015625 0 
L 11.71875 0 
z
M 11.71875 51.703125 
L 22.015625 51.703125 
L 22.015625 39.3125 
L 11.71875 39.3125 
z
" id="DejaVuSans-58"/>
      <path d="M 11.71875 12.40625 
L 22.015625 12.40625 
L 22.015625 4 
L 14.015625 -11.625 
L 7.71875 -11.625 
L 11.71875 4 
z
" id="DejaVuSans-44"/>
      <path d="M 30.609375 48.390625 
Q 23.390625 48.390625 19.1875 42.75 
Q 14.984375 37.109375 14.984375 27.296875 
Q 14.984375 17.484375 19.15625 11.84375 
Q 23.34375 6.203125 30.609375 6.203125 
Q 37.796875 6.203125 41.984375 11.859375 
Q 46.1875 17.53125 46.1875 27.296875 
Q 46.1875 37.015625 41.984375 42.703125 
Q 37.796875 48.390625 30.609375 48.390625 
z
M 30.609375 56 
Q 42.328125 56 49.015625 48.375 
Q 55.71875 40.765625 55.71875 27.296875 
Q 55.71875 13.875 49.015625 6.21875 
Q 42.328125 -1.421875 30.609375 -1.421875 
Q 18.84375 -1.421875 12.171875 6.21875 
Q 5.515625 13.875 5.515625 27.296875 
Q 5.515625 40.765625 12.171875 48.375 
Q 18.84375 56 30.609375 56 
z
" id="DejaVuSans-111"/>
      <path d="M 47.015625 60.890625 
L 29.5 51.421875 
L 47.015625 41.890625 
L 44.1875 37.109375 
L 27.78125 47.015625 
L 27.78125 28.609375 
L 22.21875 28.609375 
L 22.21875 47.015625 
L 5.8125 37.109375 
L 2.984375 41.890625 
L 20.515625 51.421875 
L 2.984375 60.890625 
L 5.8125 65.71875 
L 22.21875 55.8125 
L 22.21875 74.21875 
L 27.78125 74.21875 
L 27.78125 55.8125 
L 44.1875 65.71875 
z
" id="DejaVuSans-42"/>
      <path d="M 10.59375 49.21875 
L 10.59375 58.109375 
L 73.1875 35.40625 
L 73.1875 27.296875 
L 10.59375 4.59375 
L 10.59375 13.484375 
L 60.890625 31.296875 
z
" id="DejaVuSans-62"/>
     </defs>
     <g transform="translate(94.6 58.070437)scale(0.1 -0.1)">
      <use xlink:href="#DejaVuSans-67"/>
      <use x="69.824219" xlink:href="#DejaVuSans-112"/>
      <use x="133.300781" xlink:href="#DejaVuSans-112"/>
      <use x="196.777344" xlink:href="#DejaVuSans-60"/>
      <use x="280.566406" xlink:href="#DejaVuSans-115"/>
      <use x="332.666016" xlink:href="#DejaVuSans-116"/>
      <use x="371.875" xlink:href="#DejaVuSans-100"/>
      <use x="435.351562" xlink:href="#DejaVuSans-58"/>
      <use x="469.042969" xlink:href="#DejaVuSans-58"/>
      <use x="502.734375" xlink:href="#DejaVuSans-109"/>
      <use x="600.146484" xlink:href="#DejaVuSans-97"/>
      <use x="661.425781" xlink:href="#DejaVuSans-112"/>
      <use x="724.902344" xlink:href="#DejaVuSans-60"/>
      <use x="808.691406" xlink:href="#DejaVuSans-105"/>
      <use x="836.474609" xlink:href="#DejaVuSans-110"/>
      <use x="899.853516" xlink:href="#DejaVuSans-116"/>
      <use x="939.0625" xlink:href="#DejaVuSans-44"/>
      <use x="970.849609" xlink:href="#DejaVuSans-32"/>
      <use x="1002.636719" xlink:href="#DejaVuSans-118"/>
      <use x="1061.816406" xlink:href="#DejaVuSans-111"/>
      <use x="1122.998047" xlink:href="#DejaVuSans-105"/>
      <use x="1150.78125" xlink:href="#DejaVuSans-100"/>
      <use x="1214.257812" xlink:href="#DejaVuSans-32"/>
      <use x="1246.044922" xlink:href="#DejaVuSans-42"/>
      <use x="1296.044922" xlink:href="#DejaVuSans-62"/>
      <use x="1379.833984" xlink:href="#DejaVuSans-62"/>
     </g>
    </g>
    <g id="line2d_30">
     <path d="M 66.6 69.248562 
L 86.6 69.248562 
" style="fill:none;stroke:#ff4800;stroke-dasharray:1.5,2.475;stroke-dashoffset:0;stroke-width:1.5;"/>
    </g>
    <g id="line2d_31">
     <g>
      <use style="fill:#ff4800;stroke:#ff4800;" x="76.6" xlink:href="#md6ca1092c9" y="69.248562"/>
     </g>
    </g>
    <g id="text_21">
     <!-- Cpp&lt;std::unordered_map&lt;int, void *&gt;&gt; -->
     <defs>
      <path d="M 8.5 21.578125 
L 8.5 54.6875 
L 17.484375 54.6875 
L 17.484375 21.921875 
Q 17.484375 14.15625 20.5 10.265625 
Q 23.53125 6.390625 29.59375 6.390625 
Q 36.859375 6.390625 41.078125 11.03125 
Q 45.3125 15.671875 45.3125 23.6875 
L 45.3125 54.6875 
L 54.296875 54.6875 
L 54.296875 0 
L 45.3125 0 
L 45.3125 8.40625 
Q 42.046875 3.421875 37.71875 1 
Q 33.40625 -1.421875 27.6875 -1.421875 
Q 18.265625 -1.421875 13.375 4.4375 
Q 8.5 10.296875 8.5 21.578125 
z
M 31.109375 56 
z
" id="DejaVuSans-117"/>
      <path d="M 50.984375 -16.609375 
L 50.984375 -23.578125 
L -0.984375 -23.578125 
L -0.984375 -16.609375 
z
" id="DejaVuSans-95"/>
     </defs>
     <g transform="translate(94.6 72.748562)scale(0.1 -0.1)">
      <use xlink:href="#DejaVuSans-67"/>
      <use x="69.824219" xlink:href="#DejaVuSans-112"/>
      <use x="133.300781" xlink:href="#DejaVuSans-112"/>
      <use x="196.777344" xlink:href="#DejaVuSans-60"/>
      <use x="280.566406" xlink:href="#DejaVuSans-115"/>
      <use x="332.666016" xlink:href="#DejaVuSans-116"/>
      <use x="371.875" xlink:href="#DejaVuSans-100"/>
      <use x="435.351562" xlink:href="#DejaVuSans-58"/>
      <use x="469.042969" xlink:href="#DejaVuSans-58"/>
      <use x="502.734375" xlink:href="#DejaVuSans-117"/>
      <use x="566.113281" xlink:href="#DejaVuSans-110"/>
      <use x="629.492188" xlink:href="#DejaVuSans-111"/>
      <use x="690.673828" xlink:href="#DejaVuSans-114"/>
      <use x="731.771484" xlink:href="#DejaVuSans-100"/>
      <use x="795.248047" xlink:href="#DejaVuSans-101"/>
      <use x="856.771484" xlink:href="#DejaVuSans-114"/>
      <use x="897.853516" xlink:href="#DejaVuSans-101"/>
      <use x="959.376953" xlink:href="#DejaVuSans-100"/>
      <use x="1022.853516" xlink:href="#DejaVuSans-95"/>
      <use x="1072.853516" xlink:href="#DejaVuSans-109"/>
      <use x="1170.265625" xlink:href="#DejaVuSans-97"/>
      <use x="1231.544922" xlink:href="#DejaVuSans-112"/>
      <use x="1295.021484" xlink:href="#DejaVuSans-60"/>
      <use x="1378.810547" xlink:href="#DejaVuSans-105"/>
      <use x="1406.59375" xlink:href="#DejaVuSans-110"/>
      <use x="1469.972656" xlink:href="#DejaVuSans-116"/>
      <use x="1509.181641" xlink:href="#DejaVuSans-44"/>
      <use x="1540.96875" xlink:href="#DejaVuSans-32"/>
      <use x="1572.755859" xlink:href="#DejaVuSans-118"/>
      <use x="1631.935547" xlink:href="#DejaVuSans-111"/>
      <use x="1693.117188" xlink:href="#DejaVuSans-105"/>
      <use x="1720.900391" xlink:href="#DejaVuSans-100"/>
      <use x="1784.376953" xlink:href="#DejaVuSans-32"/>
      <use x="1816.164062" xlink:href="#DejaVuSans-42"/>
      <use x="1866.164062" xlink:href="#DejaVuSans-62"/>
      <use x="1949.953125" xlink:href="#DejaVuSans-62"/>
     </g>
    </g>
    <g id="line2d_32">
     <path d="M 66.6 84.204812 
L 86.6 84.204812 
" style="fill:none;stroke:#ffba00;stroke-dasharray:5.55,2.4;stroke-dashoffset:0;stroke-width:1.5;"/>
    </g>
    <g id="line2d_33">
     <g>
      <use style="fill:#ffba00;stroke:#ffba00;" x="76.6" xlink:href="#m13f4dbc383" y="84.204812"/>
     </g>
    </g>
    <g id="text_22">
     <!-- CcHashTable -->
     <defs>
      <path d="M 48.78125 52.59375 
L 48.78125 44.1875 
Q 44.96875 46.296875 41.140625 47.34375 
Q 37.3125 48.390625 33.40625 48.390625 
Q 24.65625 48.390625 19.8125 42.84375 
Q 14.984375 37.3125 14.984375 27.296875 
Q 14.984375 17.28125 19.8125 11.734375 
Q 24.65625 6.203125 33.40625 6.203125 
Q 37.3125 6.203125 41.140625 7.25 
Q 44.96875 8.296875 48.78125 10.40625 
L 48.78125 2.09375 
Q 45.015625 0.34375 40.984375 -0.53125 
Q 36.96875 -1.421875 32.421875 -1.421875 
Q 20.0625 -1.421875 12.78125 6.34375 
Q 5.515625 14.109375 5.515625 27.296875 
Q 5.515625 40.671875 12.859375 48.328125 
Q 20.21875 56 33.015625 56 
Q 37.15625 56 41.109375 55.140625 
Q 45.0625 54.296875 48.78125 52.59375 
z
" id="DejaVuSans-99"/>
      <path d="M 9.8125 72.90625 
L 19.671875 72.90625 
L 19.671875 43.015625 
L 55.515625 43.015625 
L 55.515625 72.90625 
L 65.375 72.90625 
L 65.375 0 
L 55.515625 0 
L 55.515625 34.71875 
L 19.671875 34.71875 
L 19.671875 0 
L 9.8125 0 
z
" id="DejaVuSans-72"/>
      <path d="M 54.890625 33.015625 
L 54.890625 0 
L 45.90625 0 
L 45.90625 32.71875 
Q 45.90625 40.484375 42.875 44.328125 
Q 39.84375 48.1875 33.796875 48.1875 
Q 26.515625 48.1875 22.3125 43.546875 
Q 18.109375 38.921875 18.109375 30.90625 
L 18.109375 0 
L 9.078125 0 
L 9.078125 75.984375 
L 18.109375 75.984375 
L 18.109375 46.1875 
Q 21.34375 51.125 25.703125 53.5625 
Q 30.078125 56 35.796875 56 
Q 45.21875 56 50.046875 50.171875 
Q 54.890625 44.34375 54.890625 33.015625 
z
" id="DejaVuSans-104"/>
      <path d="M 48.6875 27.296875 
Q 48.6875 37.203125 44.609375 42.84375 
Q 40.53125 48.484375 33.40625 48.484375 
Q 26.265625 48.484375 22.1875 42.84375 
Q 18.109375 37.203125 18.109375 27.296875 
Q 18.109375 17.390625 22.1875 11.75 
Q 26.265625 6.109375 33.40625 6.109375 
Q 40.53125 6.109375 44.609375 11.75 
Q 48.6875 17.390625 48.6875 27.296875 
z
M 18.109375 46.390625 
Q 20.953125 51.265625 25.265625 53.625 
Q 29.59375 56 35.59375 56 
Q 45.5625 56 51.78125 48.09375 
Q 58.015625 40.1875 58.015625 27.296875 
Q 58.015625 14.40625 51.78125 6.484375 
Q 45.5625 -1.421875 35.59375 -1.421875 
Q 29.59375 -1.421875 25.265625 0.953125 
Q 20.953125 3.328125 18.109375 8.203125 
L 18.109375 0 
L 9.078125 0 
L 9.078125 75.984375 
L 18.109375 75.984375 
z
" id="DejaVuSans-98"/>
     </defs>
     <g transform="translate(94.6 87.704812)scale(0.1 -0.1)">
      <use xlink:href="#DejaVuSans-67"/>
      <use x="69.824219" xlink:href="#DejaVuSans-99"/>
      <use x="124.804688" xlink:href="#DejaVuSans-72"/>
      <use x="200" xlink:href="#DejaVuSans-97"/>
      <use x="261.279297" xlink:href="#DejaVuSans-115"/>
      <use x="313.378906" xlink:href="#DejaVuSans-104"/>
      <use x="376.757812" xlink:href="#DejaVuSans-84"/>
      <use x="437.591797" xlink:href="#DejaVuSans-97"/>
      <use x="498.871094" xlink:href="#DejaVuSans-98"/>
      <use x="562.347656" xlink:href="#DejaVuSans-108"/>
      <use x="590.130859" xlink:href="#DejaVuSans-101"/>
     </g>
    </g>
    <g id="line2d_34">
     <path d="M 66.6 98.882937 
L 86.6 98.882937 
" style="fill:none;stroke:#cdff00;stroke-dasharray:1.5,2.475;stroke-dashoffset:0;stroke-width:1.5;"/>
    </g>
    <g id="line2d_35">
     <g>
      <use style="fill:#cdff00;stroke:#cdff00;" x="76.6" xlink:href="#ma6d5c89019" y="98.882937"/>
     </g>
    </g>
    <g id="text_23">
     <!-- CcTreeTable -->
     <g transform="translate(94.6 102.382937)scale(0.1 -0.1)">
      <use xlink:href="#DejaVuSans-67"/>
      <use x="69.824219" xlink:href="#DejaVuSans-99"/>
      <use x="124.804688" xlink:href="#DejaVuSans-84"/>
      <use x="185.669922" xlink:href="#DejaVuSans-114"/>
      <use x="226.751953" xlink:href="#DejaVuSans-101"/>
      <use x="288.275391" xlink:href="#DejaVuSans-101"/>
      <use x="349.798828" xlink:href="#DejaVuSans-84"/>
      <use x="410.632812" xlink:href="#DejaVuSans-97"/>
      <use x="471.912109" xlink:href="#DejaVuSans-98"/>
      <use x="535.388672" xlink:href="#DejaVuSans-108"/>
      <use x="563.171875" xlink:href="#DejaVuSans-101"/>
     </g>
    </g>
    <g id="line2d_36">
     <path d="M 66.6 113.561062 
L 86.6 113.561062 
" style="fill:none;stroke:#5cff00;stroke-dasharray:5.55,2.4;stroke-dashoffset:0;stroke-width:1.5;"/>
    </g>
    <g id="line2d_37">
     <g>
      <use style="fill:#5cff00;stroke:#5cff00;" x="76.6" xlink:href="#meaaf1d5603" y="113.561062"/>
     </g>
    </g>
    <g id="text_24">
     <!-- GTree -->
     <defs>
      <path d="M 59.515625 10.40625 
L 59.515625 29.984375 
L 43.40625 29.984375 
L 43.40625 38.09375 
L 69.28125 38.09375 
L 69.28125 6.78125 
Q 63.578125 2.734375 56.6875 0.65625 
Q 49.8125 -1.421875 42 -1.421875 
Q 24.90625 -1.421875 15.25 8.5625 
Q 5.609375 18.5625 5.609375 36.375 
Q 5.609375 54.25 15.25 64.234375 
Q 24.90625 74.21875 42 74.21875 
Q 49.125 74.21875 55.546875 72.453125 
Q 61.96875 70.703125 67.390625 67.28125 
L 67.390625 56.78125 
Q 61.921875 61.421875 55.765625 63.765625 
Q 49.609375 66.109375 42.828125 66.109375 
Q 29.4375 66.109375 22.71875 58.640625 
Q 16.015625 51.171875 16.015625 36.375 
Q 16.015625 21.625 22.71875 14.15625 
Q 29.4375 6.6875 42.828125 6.6875 
Q 48.046875 6.6875 52.140625 7.59375 
Q 56.25 8.5 59.515625 10.40625 
z
" id="DejaVuSans-71"/>
     </defs>
     <g transform="translate(94.6 117.061062)scale(0.1 -0.1)">
      <use xlink:href="#DejaVuSans-71"/>
      <use x="77.443359" xlink:href="#DejaVuSans-84"/>
      <use x="138.308594" xlink:href="#DejaVuSans-114"/>
      <use x="179.390625" xlink:href="#DejaVuSans-101"/>
      <use x="240.914062" xlink:href="#DejaVuSans-101"/>
     </g>
    </g>
    <g id="line2d_38">
     <path d="M 66.6 128.239187 
L 86.6 128.239187 
" style="fill:none;stroke:#00ff16;stroke-dasharray:1.5,2.475;stroke-dashoffset:0;stroke-width:1.5;"/>
    </g>
    <g id="line2d_39">
     <g>
      <use style="fill:#00ff16;stroke:#00ff16;" x="76.6" xlink:href="#m67f4e4ebaf" y="128.239187"/>
     </g>
    </g>
    <g id="text_25">
     <!-- GHashTable -->
     <g transform="translate(94.6 131.739187)scale(0.1 -0.1)">
      <use xlink:href="#DejaVuSans-71"/>
      <use x="77.490234" xlink:href="#DejaVuSans-72"/>
      <use x="152.685547" xlink:href="#DejaVuSans-97"/>
      <use x="213.964844" xlink:href="#DejaVuSans-115"/>
      <use x="266.064453" xlink:href="#DejaVuSans-104"/>
      <use x="329.443359" xlink:href="#DejaVuSans-84"/>
      <use x="390.277344" xlink:href="#DejaVuSans-97"/>
      <use x="451.556641" xlink:href="#DejaVuSans-98"/>
      <use x="515.033203" xlink:href="#DejaVuSans-108"/>
      <use x="542.816406" xlink:href="#DejaVuSans-101"/>
     </g>
    </g>
    <g id="line2d_40">
     <path d="M 66.6 142.917312 
L 86.6 142.917312 
" style="fill:none;stroke:#00ff8c;stroke-dasharray:5.55,2.4;stroke-dashoffset:0;stroke-width:1.5;"/>
    </g>
    <g id="line2d_41">
     <g>
      <use style="fill:#00ff8c;stroke:#00ff8c;" x="76.6" xlink:href="#maa59c04a46" y="142.917312"/>
     </g>
    </g>
    <g id="text_26">
     <!-- CdcMap/hash_table -->
     <defs>
      <path d="M 9.8125 72.90625 
L 24.515625 72.90625 
L 43.109375 23.296875 
L 61.8125 72.90625 
L 76.515625 72.90625 
L 76.515625 0 
L 66.890625 0 
L 66.890625 64.015625 
L 48.09375 14.015625 
L 38.1875 14.015625 
L 19.390625 64.015625 
L 19.390625 0 
L 9.8125 0 
z
" id="DejaVuSans-77"/>
      <path d="M 25.390625 72.90625 
L 33.6875 72.90625 
L 8.296875 -9.28125 
L 0 -9.28125 
z
" id="DejaVuSans-47"/>
     </defs>
     <g transform="translate(94.6 146.417312)scale(0.1 -0.1)">
      <use xlink:href="#DejaVuSans-67"/>
      <use x="69.824219" xlink:href="#DejaVuSans-100"/>
      <use x="133.300781" xlink:href="#DejaVuSans-99"/>
      <use x="188.28125" xlink:href="#DejaVuSans-77"/>
      <use x="274.560547" xlink:href="#DejaVuSans-97"/>
      <use x="335.839844" xlink:href="#DejaVuSans-112"/>
      <use x="399.316406" xlink:href="#DejaVuSans-47"/>
      <use x="433.007812" xlink:href="#DejaVuSans-104"/>
      <use x="496.386719" xlink:href="#DejaVuSans-97"/>
      <use x="557.666016" xlink:href="#DejaVuSans-115"/>
      <use x="609.765625" xlink:href="#DejaVuSans-104"/>
      <use x="673.144531" xlink:href="#DejaVuSans-95"/>
      <use x="723.144531" xlink:href="#DejaVuSans-116"/>
      <use x="762.353516" xlink:href="#DejaVuSans-97"/>
      <use x="823.632812" xlink:href="#DejaVuSans-98"/>
      <use x="887.109375" xlink:href="#DejaVuSans-108"/>
      <use x="914.892578" xlink:href="#DejaVuSans-101"/>
     </g>
    </g>
    <g id="line2d_42">
     <path d="M 66.6 157.873562 
L 86.6 157.873562 
" style="fill:none;stroke:#00fffd;stroke-dasharray:1.5,2.475;stroke-dashoffset:0;stroke-width:1.5;"/>
    </g>
    <g id="line2d_43">
     <g>
      <use style="fill:#00fffd;stroke:#00fffd;" x="76.6" xlink:href="#m0de4192865" y="157.873562"/>
     </g>
    </g>
    <g id="text_27">
     <!-- CdcMap/avl_tree -->
     <g transform="translate(94.6 161.373562)scale(0.1 -0.1)">
      <use xlink:href="#DejaVuSans-67"/>
      <use x="69.824219" xlink:href="#DejaVuSans-100"/>
      <use x="133.300781" xlink:href="#DejaVuSans-99"/>
      <use x="188.28125" xlink:href="#DejaVuSans-77"/>
      <use x="274.560547" xlink:href="#DejaVuSans-97"/>
      <use x="335.839844" xlink:href="#DejaVuSans-112"/>
      <use x="399.316406" xlink:href="#DejaVuSans-47"/>
      <use x="433.007812" xlink:href="#DejaVuSans-97"/>
      <use x="494.287109" xlink:href="#DejaVuSans-118"/>
      <use x="553.466797" xlink:href="#DejaVuSans-108"/>
      <use x="581.25" xlink:href="#DejaVuSans-95"/>
      <use x="631.25" xlink:href="#DejaVuSans-116"/>
      <use x="670.458984" xlink:href="#DejaVuSans-114"/>
      <use x="711.541016" xlink:href="#DejaVuSans-101"/>
      <use x="773.064453" xlink:href="#DejaVuSans-101"/>
     </g>
    </g>
    <g id="line2d_44">
     <path d="M 66.6 172.829813 
L 86.6 172.829813 
" style="fill:none;stroke:#008fff;stroke-dasharray:5.55,2.4;stroke-dashoffset:0;stroke-width:1.5;"/>
    </g>
    <g id="line2d_45">
     <g>
      <use style="fill:#008fff;stroke:#008fff;" x="76.6" xlink:href="#m47d2279c32" y="172.829813"/>
     </g>
    </g>
    <g id="text_28">
     <!-- CdcMap/treep -->
     <g transform="translate(94.6 176.329813)scale(0.1 -0.1)">
      <use xlink:href="#DejaVuSans-67"/>
      <use x="69.824219" xlink:href="#DejaVuSans-100"/>
      <use x="133.300781" xlink:href="#DejaVuSans-99"/>
      <use x="188.28125" xlink:href="#DejaVuSans-77"/>
      <use x="274.560547" xlink:href="#DejaVuSans-97"/>
      <use x="335.839844" xlink:href="#DejaVuSans-112"/>
      <use x="399.316406" xlink:href="#DejaVuSans-47"/>
      <use x="433.007812" xlink:href="#DejaVuSans-116"/>
      <use x="472.216797" xlink:href="#DejaVuSans-114"/>
      <use x="513.298828" xlink:href="#DejaVuSans-101"/>
      <use x="574.822266" xlink:href="#DejaVuSans-101"/>
      <use x="636.345703" xlink:href="#DejaVuSans-112"/>
     </g>
    </g>
    <g id="line2d_46">
     <path d="M 66.6 187.507937 
L 86.6 187.507937 
" style="fill:none;stroke:#0018ff;stroke-dasharray:1.5,2.475;stroke-dashoffset:0;stroke-width:1.5;"/>
    </g>
    <g id="line2d_47">
     <g>
      <use style="fill:#0018ff;stroke:#0018ff;" x="76.6" xlink:href="#m3baff4b78c" y="187.507937"/>
     </g>
    </g>
    <g id="text_29">
     <!-- CdcMap/splay_tree -->
     <defs>
      <path d="M 32.171875 -5.078125 
Q 28.375 -14.84375 24.75 -17.8125 
Q 21.140625 -20.796875 15.09375 -20.796875 
L 7.90625 -20.796875 
L 7.90625 -13.28125 
L 13.1875 -13.28125 
Q 16.890625 -13.28125 18.9375 -11.515625 
Q 21 -9.765625 23.484375 -3.21875 
L 25.09375 0.875 
L 2.984375 54.6875 
L 12.5 54.6875 
L 29.59375 11.921875 
L 46.6875 54.6875 
L 56.203125 54.6875 
z
" id="DejaVuSans-121"/>
     </defs>
     <g transform="translate(94.6 191.007937)scale(0.1 -0.1)">
      <use xlink:href="#DejaVuSans-67"/>
      <use x="69.824219" xlink:href="#DejaVuSans-100"/>
      <use x="133.300781" xlink:href="#DejaVuSans-99"/>
      <use x="188.28125" xlink:href="#DejaVuSans-77"/>
      <use x="274.560547" xlink:href="#DejaVuSans-97"/>
      <use x="335.839844" xlink:href="#DejaVuSans-112"/>
      <use x="399.316406" xlink:href="#DejaVuSans-47"/>
      <use x="433.007812" xlink:href="#DejaVuSans-115"/>
      <use x="485.107422" xlink:href="#DejaVuSans-112"/>
      <use x="548.583984" xlink:href="#DejaVuSans-108"/>
      <use x="576.367188" xlink:href="#DejaVuSans-97"/>
      <use x="637.646484" xlink:href="#DejaVuSans-121"/>
      <use x="696.826172" xlink:href="#DejaVuSans-95"/>
      <use x="746.826172" xlink:href="#DejaVuSans-116"/>
      <use x="786.035156" xlink:href="#DejaVuSans-114"/>
      <use x="827.117188" xlink:href="#DejaVuSans-101"/>
      <use x="888.640625" xlink:href="#DejaVuSans-101"/>
     </g>
    </g>
    <g id="line2d_48">
     <path d="M 66.6 202.464187 
L 86.6 202.464187 
" style="fill:none;stroke:#5a00ff;stroke-dasharray:5.55,2.4;stroke-dashoffset:0;stroke-width:1.5;"/>
    </g>
    <g id="line2d_49">
     <g>
      <use style="fill:#5a00ff;stroke:#5a00ff;" x="76.6" xlink:href="#mcb61993056" y="202.464187"/>
     </g>
    </g>
    <g id="text_30">
     <!-- CdcHashTable -->
     <g transform="translate(94.6 205.964187)scale(0.1 -0.1)">
      <use xlink:href="#DejaVuSans-67"/>
      <use x="69.824219" xlink:href="#DejaVuSans-100"/>
      <use x="133.300781" xlink:href="#DejaVuSans-99"/>
      <use x="188.28125" xlink:href="#DejaVuSans-72"/>
      <use x="263.476562" xlink:href="#DejaVuSans-97"/>
      <use x="324.755859" xlink:href="#DejaVuSans-115"/>
      <use x="376.855469" xlink:href="#DejaVuSans-104"/>
      <use x="440.234375" xlink:href="#DejaVuSans-84"/>
      <use x="501.068359" xlink:href="#DejaVuSans-97"/>
      <use x="562.347656" xlink:href="#DejaVuSans-98"/>
      <use x="625.824219" xlink:href="#DejaVuSans-108"/>
      <use x="653.607422" xlink:href="#DejaVuSans-101"/>
     </g>
    </g>
    <g id="line2d_50">
     <path d="M 66.6 217.142312 
L 86.6 217.142312 
" style="fill:none;stroke:#cd00ff;stroke-dasharray:1.5,2.475;stroke-dashoffset:0;stroke-width:1.5;"/>
    </g>
    <g id="line2d_51">
     <g>
      <use style="fill:#cd00ff;stroke:#cd00ff;" x="76.6" xlink:href="#m575fa7e2e1" y="217.142312"/>
     </g>
    </g>
    <g id="text_31">
     <!-- CdcAvlTree -->
     <defs>
      <path d="M 34.1875 63.1875 
L 20.796875 26.90625 
L 47.609375 26.90625 
z
M 28.609375 72.90625 
L 39.796875 72.90625 
L 67.578125 0 
L 57.328125 0 
L 50.6875 18.703125 
L 17.828125 18.703125 
L 11.1875 0 
L 0.78125 0 
z
" id="DejaVuSans-65"/>
     </defs>
     <g transform="translate(94.6 220.642312)scale(0.1 -0.1)">
      <use xlink:href="#DejaVuSans-67"/>
      <use x="69.824219" xlink:href="#DejaVuSans-100"/>
      <use x="133.300781" xlink:href="#DejaVuSans-99"/>
      <use x="188.28125" xlink:href="#DejaVuSans-65"/>
      <use x="256.611328" xlink:href="#DejaVuSans-118"/>
      <use x="315.791016" xlink:href="#DejaVuSans-108"/>
      <use x="343.574219" xlink:href="#DejaVuSans-84"/>
      <use x="404.439453" xlink:href="#DejaVuSans-114"/>
      <use x="445.521484" xlink:href="#DejaVuSans-101"/>
      <use x="507.044922" xlink:href="#DejaVuSans-101"/>
     </g>
    </g>
   </g>
  </g>
 </g>
 <defs>
  <clipPath id="p49d54561d4">
   <rect height="266.112" width="357.12" x="57.6" y="41.472"/>
  </clipPath>
 </defs>
</svg>
