<?xml version="1.0" encoding="utf-8" standalone="no"?>
<!DOCTYPE svg PUBLIC "-//W3C//DTD SVG 1.1//EN"
  "http://www.w3.org/Graphics/SVG/1.1/DTD/svg11.dtd">
<!-- Created with matplotlib (https://matplotlib.org/) -->
<svg height="345.6pt" version="1.1" viewBox="0 0 460.8 345.6" width="460.8pt" xmlns="http://www.w3.org/2000/svg" xmlns:xlink="http://www.w3.org/1999/xlink">
 <defs>
  <style type="text/css">
*{stroke-linecap:butt;stroke-linejoin:round;}
  </style>
 </defs>
 <g id="figure_1">
  <g id="patch_1">
   <path d="M 0 345.6 
L 460.8 345.6 
L 460.8 0 
L 0 0 
z
" style="fill:#ffffff;"/>
  </g>
  <g id="axes_1">
   <g id="patch_2">
    <path d="M 57.6 307.584 
L 414.72 307.584 
L 414.72 41.472 
L 57.6 41.472 
z
" style="fill:#ffffff;"/>
   </g>
   <g id="matplotlib.axis_1">
    <g id="xtick_1">
     <g id="line2d_1">
      <defs>
       <path d="M 0 0 
L 0 3.5 
" id="m312465b433" style="stroke:#000000;stroke-width:0.8;"/>
      </defs>
      <g>
       <use style="stroke:#000000;stroke-width:0.8;" x="73.822159" xlink:href="#m312465b433" y="307.584"/>
      </g>
     </g>
     <g id="text_1">
      <!-- 0 -->
      <defs>
       <path d="M 31.78125 66.40625 
Q 24.171875 66.40625 20.328125 58.90625 
Q 16.5 51.421875 16.5 36.375 
Q 16.5 21.390625 20.328125 13.890625 
Q 24.171875 6.390625 31.78125 6.390625 
Q 39.453125 6.390625 43.28125 13.890625 
Q 47.125 21.390625 47.125 36.375 
Q 47.125 51.421875 43.28125 58.90625 
Q 39.453125 66.40625 31.78125 66.40625 
z
M 31.78125 74.21875 
Q 44.046875 74.21875 50.515625 64.515625 
Q 56.984375 54.828125 56.984375 36.375 
Q 56.984375 17.96875 50.515625 8.265625 
Q 44.046875 -1.421875 31.78125 -1.421875 
Q 19.53125 -1.421875 13.0625 8.265625 
Q 6.59375 17.96875 6.59375 36.375 
Q 6.59375 54.828125 13.0625 64.515625 
Q 19.53125 74.21875 31.78125 74.21875 
z
" id="DejaVuSans-48"/>
      </defs>
      <g transform="translate(70.640909 322.182437)scale(0.1 -0.1)">
       <use xlink:href="#DejaVuSans-48"/>
      </g>
     </g>
    </g>
    <g id="xtick_2">
     <g id="line2d_2">
      <g>
       <use style="stroke:#000000;stroke-width:0.8;" x="126.664788" xlink:href="#m312465b433" y="307.584"/>
      </g>
     </g>
     <g id="text_2">
      <!-- 20000 -->
      <defs>
       <path d="M 19.1875 8.296875 
L 53.609375 8.296875 
L 53.609375 0 
L 7.328125 0 
L 7.328125 8.296875 
Q 12.9375 14.109375 22.625 23.890625 
Q 32.328125 33.6875 34.8125 36.53125 
Q 39.546875 41.84375 41.421875 45.53125 
Q 43.3125 49.21875 43.3125 52.78125 
Q 43.3125 58.59375 39.234375 62.25 
Q 35.15625 65.921875 28.609375 65.921875 
Q 23.96875 65.921875 18.8125 64.3125 
Q 13.671875 62.703125 7.8125 59.421875 
L 7.8125 69.390625 
Q 13.765625 71.78125 18.9375 73 
Q 24.125 74.21875 28.421875 74.21875 
Q 39.75 74.21875 46.484375 68.546875 
Q 53.21875 62.890625 53.21875 53.421875 
Q 53.21875 48.921875 51.53125 44.890625 
Q 49.859375 40.875 45.40625 35.40625 
Q 44.1875 33.984375 37.640625 27.21875 
Q 31.109375 20.453125 19.1875 8.296875 
z
" id="DejaVuSans-50"/>
      </defs>
      <g transform="translate(110.758538 322.182437)scale(0.1 -0.1)">
       <use xlink:href="#DejaVuSans-50"/>
       <use x="63.623047" xlink:href="#DejaVuSans-48"/>
       <use x="127.246094" xlink:href="#DejaVuSans-48"/>
       <use x="190.869141" xlink:href="#DejaVuSans-48"/>
       <use x="254.492188" xlink:href="#DejaVuSans-48"/>
      </g>
     </g>
    </g>
    <g id="xtick_3">
     <g id="line2d_3">
      <g>
       <use style="stroke:#000000;stroke-width:0.8;" x="179.507417" xlink:href="#m312465b433" y="307.584"/>
      </g>
     </g>
     <g id="text_3">
      <!-- 40000 -->
      <defs>
       <path d="M 37.796875 64.3125 
L 12.890625 25.390625 
L 37.796875 25.390625 
z
M 35.203125 72.90625 
L 47.609375 72.90625 
L 47.609375 25.390625 
L 58.015625 25.390625 
L 58.015625 17.1875 
L 47.609375 17.1875 
L 47.609375 0 
L 37.796875 0 
L 37.796875 17.1875 
L 4.890625 17.1875 
L 4.890625 26.703125 
z
" id="DejaVuSans-52"/>
      </defs>
      <g transform="translate(163.601167 322.182437)scale(0.1 -0.1)">
       <use xlink:href="#DejaVuSans-52"/>
       <use x="63.623047" xlink:href="#DejaVuSans-48"/>
       <use x="127.246094" xlink:href="#DejaVuSans-48"/>
       <use x="190.869141" xlink:href="#DejaVuSans-48"/>
       <use x="254.492188" xlink:href="#DejaVuSans-48"/>
      </g>
     </g>
    </g>
    <g id="xtick_4">
     <g id="line2d_4">
      <g>
       <use style="stroke:#000000;stroke-width:0.8;" x="232.350046" xlink:href="#m312465b433" y="307.584"/>
      </g>
     </g>
     <g id="text_4">
      <!-- 60000 -->
      <defs>
       <path d="M 33.015625 40.375 
Q 26.375 40.375 22.484375 35.828125 
Q 18.609375 31.296875 18.609375 23.390625 
Q 18.609375 15.53125 22.484375 10.953125 
Q 26.375 6.390625 33.015625 6.390625 
Q 39.65625 6.390625 43.53125 10.953125 
Q 47.40625 15.53125 47.40625 23.390625 
Q 47.40625 31.296875 43.53125 35.828125 
Q 39.65625 40.375 33.015625 40.375 
z
M 52.59375 71.296875 
L 52.59375 62.3125 
Q 48.875 64.0625 45.09375 64.984375 
Q 41.3125 65.921875 37.59375 65.921875 
Q 27.828125 65.921875 22.671875 59.328125 
Q 17.53125 52.734375 16.796875 39.40625 
Q 19.671875 43.65625 24.015625 45.921875 
Q 28.375 48.1875 33.59375 48.1875 
Q 44.578125 48.1875 50.953125 41.515625 
Q 57.328125 34.859375 57.328125 23.390625 
Q 57.328125 12.15625 50.6875 5.359375 
Q 44.046875 -1.421875 33.015625 -1.421875 
Q 20.359375 -1.421875 13.671875 8.265625 
Q 6.984375 17.96875 6.984375 36.375 
Q 6.984375 53.65625 15.1875 63.9375 
Q 23.390625 74.21875 37.203125 74.21875 
Q 40.921875 74.21875 44.703125 73.484375 
Q 48.484375 72.75 52.59375 71.296875 
z
" id="DejaVuSans-54"/>
      </defs>
      <g transform="translate(216.443796 322.182437)scale(0.1 -0.1)">
       <use xlink:href="#DejaVuSans-54"/>
       <use x="63.623047" xlink:href="#DejaVuSans-48"/>
       <use x="127.246094" xlink:href="#DejaVuSans-48"/>
       <use x="190.869141" xlink:href="#DejaVuSans-48"/>
       <use x="254.492188" xlink:href="#DejaVuSans-48"/>
      </g>
     </g>
    </g>
    <g id="xtick_5">
     <g id="line2d_5">
      <g>
       <use style="stroke:#000000;stroke-width:0.8;" x="285.192676" xlink:href="#m312465b433" y="307.584"/>
      </g>
     </g>
     <g id="text_5">
      <!-- 80000 -->
      <defs>
       <path d="M 31.78125 34.625 
Q 24.75 34.625 20.71875 30.859375 
Q 16.703125 27.09375 16.703125 20.515625 
Q 16.703125 13.921875 20.71875 10.15625 
Q 24.75 6.390625 31.78125 6.390625 
Q 38.8125 6.390625 42.859375 10.171875 
Q 46.921875 13.96875 46.921875 20.515625 
Q 46.921875 27.09375 42.890625 30.859375 
Q 38.875 34.625 31.78125 34.625 
z
M 21.921875 38.8125 
Q 15.578125 40.375 12.03125 44.71875 
Q 8.5 49.078125 8.5 55.328125 
Q 8.5 64.0625 14.71875 69.140625 
Q 20.953125 74.21875 31.78125 74.21875 
Q 42.671875 74.21875 48.875 69.140625 
Q 55.078125 64.0625 55.078125 55.328125 
Q 55.078125 49.078125 51.53125 44.71875 
Q 48 40.375 41.703125 38.8125 
Q 48.828125 37.15625 52.796875 32.3125 
Q 56.78125 27.484375 56.78125 20.515625 
Q 56.78125 9.90625 50.3125 4.234375 
Q 43.84375 -1.421875 31.78125 -1.421875 
Q 19.734375 -1.421875 13.25 4.234375 
Q 6.78125 9.90625 6.78125 20.515625 
Q 6.78125 27.484375 10.78125 32.3125 
Q 14.796875 37.15625 21.921875 38.8125 
z
M 18.3125 54.390625 
Q 18.3125 48.734375 21.84375 45.5625 
Q 25.390625 42.390625 31.78125 42.390625 
Q 38.140625 42.390625 41.71875 45.5625 
Q 45.3125 48.734375 45.3125 54.390625 
Q 45.3125 60.0625 41.71875 63.234375 
Q 38.140625 66.40625 31.78125 66.40625 
Q 25.390625 66.40625 21.84375 63.234375 
Q 18.3125 60.0625 18.3125 54.390625 
z
" id="DejaVuSans-56"/>
      </defs>
      <g transform="translate(269.286426 322.182437)scale(0.1 -0.1)">
       <use xlink:href="#DejaVuSans-56"/>
       <use x="63.623047" xlink:href="#DejaVuSans-48"/>
       <use x="127.246094" xlink:href="#DejaVuSans-48"/>
       <use x="190.869141" xlink:href="#DejaVuSans-48"/>
       <use x="254.492188" xlink:href="#DejaVuSans-48"/>
      </g>
     </g>
    </g>
    <g id="xtick_6">
     <g id="line2d_6">
      <g>
       <use style="stroke:#000000;stroke-width:0.8;" x="338.035305" xlink:href="#m312465b433" y="307.584"/>
      </g>
     </g>
     <g id="text_6">
      <!-- 100000 -->
      <defs>
       <path d="M 12.40625 8.296875 
L 28.515625 8.296875 
L 28.515625 63.921875 
L 10.984375 60.40625 
L 10.984375 69.390625 
L 28.421875 72.90625 
L 38.28125 72.90625 
L 38.28125 8.296875 
L 54.390625 8.296875 
L 54.390625 0 
L 12.40625 0 
z
" id="DejaVuSans-49"/>
      </defs>
      <g transform="translate(318.947805 322.182437)scale(0.1 -0.1)">
       <use xlink:href="#DejaVuSans-49"/>
       <use x="63.623047" xlink:href="#DejaVuSans-48"/>
       <use x="127.246094" xlink:href="#DejaVuSans-48"/>
       <use x="190.869141" xlink:href="#DejaVuSans-48"/>
       <use x="254.492188" xlink:href="#DejaVuSans-48"/>
       <use x="318.115234" xlink:href="#DejaVuSans-48"/>
      </g>
     </g>
    </g>
    <g id="xtick_7">
     <g id="line2d_7">
      <g>
       <use style="stroke:#000000;stroke-width:0.8;" x="390.877934" xlink:href="#m312465b433" y="307.584"/>
      </g>
     </g>
     <g id="text_7">
      <!-- 120000 -->
      <g transform="translate(371.790434 322.182437)scale(0.1 -0.1)">
       <use xlink:href="#DejaVuSans-49"/>
       <use x="63.623047" xlink:href="#DejaVuSans-50"/>
       <use x="127.246094" xlink:href="#DejaVuSans-48"/>
       <use x="190.869141" xlink:href="#DejaVuSans-48"/>
       <use x="254.492188" xlink:href="#DejaVuSans-48"/>
       <use x="318.115234" xlink:href="#DejaVuSans-48"/>
      </g>
     </g>
    </g>
    <g id="text_8">
     <!-- N -->
     <defs>
      <path d="M 9.8125 72.90625 
L 23.09375 72.90625 
L 55.421875 11.921875 
L 55.421875 72.90625 
L 64.984375 72.90625 
L 64.984375 0 
L 51.703125 0 
L 19.390625 60.984375 
L 19.390625 0 
L 9.8125 0 
z
" id="DejaVuSans-78"/>
     </defs>
     <g transform="translate(232.419375 335.860562)scale(0.1 -0.1)">
      <use xlink:href="#DejaVuSans-78"/>
     </g>
    </g>
   </g>
   <g id="matplotlib.axis_2">
    <g id="ytick_1">
     <g id="line2d_8">
      <defs>
       <path d="M 0 0 
L -3.5 0 
" id="m1c7a1d66ac" style="stroke:#000000;stroke-width:0.8;"/>
      </defs>
      <g>
       <use style="stroke:#000000;stroke-width:0.8;" x="57.6" xlink:href="#m1c7a1d66ac" y="295.509082"/>
      </g>
     </g>
     <g id="text_9">
      <!-- 0.0 -->
      <defs>
       <path d="M 10.6875 12.40625 
L 21 12.40625 
L 21 0 
L 10.6875 0 
z
" id="DejaVuSans-46"/>
      </defs>
      <g transform="translate(34.696875 299.308301)scale(0.1 -0.1)">
       <use xlink:href="#DejaVuSans-48"/>
       <use x="63.623047" xlink:href="#DejaVuSans-46"/>
       <use x="95.410156" xlink:href="#DejaVuSans-48"/>
      </g>
     </g>
    </g>
    <g id="ytick_2">
     <g id="line2d_9">
      <g>
       <use style="stroke:#000000;stroke-width:0.8;" x="57.6" xlink:href="#m1c7a1d66ac" y="259.236626"/>
      </g>
     </g>
     <g id="text_10">
      <!-- 0.2 -->
      <g transform="translate(34.696875 263.035845)scale(0.1 -0.1)">
       <use xlink:href="#DejaVuSans-48"/>
       <use x="63.623047" xlink:href="#DejaVuSans-46"/>
       <use x="95.410156" xlink:href="#DejaVuSans-50"/>
      </g>
     </g>
    </g>
    <g id="ytick_3">
     <g id="line2d_10">
      <g>
       <use style="stroke:#000000;stroke-width:0.8;" x="57.6" xlink:href="#m1c7a1d66ac" y="222.96417"/>
      </g>
     </g>
     <g id="text_11">
      <!-- 0.4 -->
      <g transform="translate(34.696875 226.763389)scale(0.1 -0.1)">
       <use xlink:href="#DejaVuSans-48"/>
       <use x="63.623047" xlink:href="#DejaVuSans-46"/>
       <use x="95.410156" xlink:href="#DejaVuSans-52"/>
      </g>
     </g>
    </g>
    <g id="ytick_4">
     <g id="line2d_11">
      <g>
       <use style="stroke:#000000;stroke-width:0.8;" x="57.6" xlink:href="#m1c7a1d66ac" y="186.691714"/>
      </g>
     </g>
     <g id="text_12">
      <!-- 0.6 -->
      <g transform="translate(34.696875 190.490933)scale(0.1 -0.1)">
       <use xlink:href="#DejaVuSans-48"/>
       <use x="63.623047" xlink:href="#DejaVuSans-46"/>
       <use x="95.410156" xlink:href="#DejaVuSans-54"/>
      </g>
     </g>
    </g>
    <g id="ytick_5">
     <g id="line2d_12">
      <g>
       <use style="stroke:#000000;stroke-width:0.8;" x="57.6" xlink:href="#m1c7a1d66ac" y="150.419258"/>
      </g>
     </g>
     <g id="text_13">
      <!-- 0.8 -->
      <g transform="translate(34.696875 154.218477)scale(0.1 -0.1)">
       <use xlink:href="#DejaVuSans-48"/>
       <use x="63.623047" xlink:href="#DejaVuSans-46"/>
       <use x="95.410156" xlink:href="#DejaVuSans-56"/>
      </g>
     </g>
    </g>
    <g id="ytick_6">
     <g id="line2d_13">
      <g>
       <use style="stroke:#000000;stroke-width:0.8;" x="57.6" xlink:href="#m1c7a1d66ac" y="114.146802"/>
      </g>
     </g>
     <g id="text_14">
      <!-- 1.0 -->
      <g transform="translate(34.696875 117.946021)scale(0.1 -0.1)">
       <use xlink:href="#DejaVuSans-49"/>
       <use x="63.623047" xlink:href="#DejaVuSans-46"/>
       <use x="95.410156" xlink:href="#DejaVuSans-48"/>
      </g>
     </g>
    </g>
    <g id="ytick_7">
     <g id="line2d_14">
      <g>
       <use style="stroke:#000000;stroke-width:0.8;" x="57.6" xlink:href="#m1c7a1d66ac" y="77.874346"/>
      </g>
     </g>
     <g id="text_15">
      <!-- 1.2 -->
      <g transform="translate(34.696875 81.673565)scale(0.1 -0.1)">
       <use xlink:href="#DejaVuSans-49"/>
       <use x="63.623047" xlink:href="#DejaVuSans-46"/>
       <use x="95.410156" xlink:href="#DejaVuSans-50"/>
      </g>
     </g>
    </g>
    <g id="ytick_8">
     <g id="line2d_15">
      <g>
       <use style="stroke:#000000;stroke-width:0.8;" x="57.6" xlink:href="#m1c7a1d66ac" y="41.60189"/>
      </g>
     </g>
     <g id="text_16">
      <!-- 1.4 -->
      <g transform="translate(34.696875 45.401109)scale(0.1 -0.1)">
       <use xlink:href="#DejaVuSans-49"/>
       <use x="63.623047" xlink:href="#DejaVuSans-46"/>
       <use x="95.410156" xlink:href="#DejaVuSans-52"/>
      </g>
     </g>
    </g>
    <g id="text_17">
     <!-- Time (ns) -->
     <defs>
      <path d="M -0.296875 72.90625 
L 61.375 72.90625 
L 61.375 64.59375 
L 35.5 64.59375 
L 35.5 0 
L 25.59375 0 
L 25.59375 64.59375 
L -0.296875 64.59375 
z
" id="DejaVuSans-84"/>
      <path d="M 9.421875 54.6875 
L 18.40625 54.6875 
L 18.40625 0 
L 9.421875 0 
z
M 9.421875 75.984375 
L 18.40625 75.984375 
L 18.40625 64.59375 
L 9.421875 64.59375 
z
" id="DejaVuSans-105"/>
      <path d="M 52 44.1875 
Q 55.375 50.25 60.0625 53.125 
Q 64.75 56 71.09375 56 
Q 79.640625 56 84.28125 50.015625 
Q 88.921875 44.046875 88.921875 33.015625 
L 88.921875 0 
L 79.890625 0 
L 79.890625 32.71875 
Q 79.890625 40.578125 77.09375 44.375 
Q 74.3125 48.1875 68.609375 48.1875 
Q 61.625 48.1875 57.5625 43.546875 
Q 53.515625 38.921875 53.515625 30.90625 
L 53.515625 0 
L 44.484375 0 
L 44.484375 32.71875 
Q 44.484375 40.625 41.703125 44.40625 
Q 38.921875 48.1875 33.109375 48.1875 
Q 26.21875 48.1875 22.15625 43.53125 
Q 18.109375 38.875 18.109375 30.90625 
L 18.109375 0 
L 9.078125 0 
L 9.078125 54.6875 
L 18.109375 54.6875 
L 18.109375 46.1875 
Q 21.1875 51.21875 25.484375 53.609375 
Q 29.78125 56 35.6875 56 
Q 41.65625 56 45.828125 52.96875 
Q 50 49.953125 52 44.1875 
z
" id="DejaVuSans-109"/>
      <path d="M 56.203125 29.59375 
L 56.203125 25.203125 
L 14.890625 25.203125 
Q 15.484375 15.921875 20.484375 11.0625 
Q 25.484375 6.203125 34.421875 6.203125 
Q 39.59375 6.203125 44.453125 7.46875 
Q 49.3125 8.734375 54.109375 11.28125 
L 54.109375 2.78125 
Q 49.265625 0.734375 44.1875 -0.34375 
Q 39.109375 -1.421875 33.890625 -1.421875 
Q 20.796875 -1.421875 13.15625 6.1875 
Q 5.515625 13.8125 5.515625 26.8125 
Q 5.515625 40.234375 12.765625 48.109375 
Q 20.015625 56 32.328125 56 
Q 43.359375 56 49.78125 48.890625 
Q 56.203125 41.796875 56.203125 29.59375 
z
M 47.21875 32.234375 
Q 47.125 39.59375 43.09375 43.984375 
Q 39.0625 48.390625 32.421875 48.390625 
Q 24.90625 48.390625 20.390625 44.140625 
Q 15.875 39.890625 15.1875 32.171875 
z
" id="DejaVuSans-101"/>
      <path id="DejaVuSans-32"/>
      <path d="M 31 75.875 
Q 24.46875 64.65625 21.28125 53.65625 
Q 18.109375 42.671875 18.109375 31.390625 
Q 18.109375 20.125 21.3125 9.0625 
Q 24.515625 -2 31 -13.1875 
L 23.1875 -13.1875 
Q 15.875 -1.703125 12.234375 9.375 
Q 8.59375 20.453125 8.59375 31.390625 
Q 8.59375 42.28125 12.203125 53.3125 
Q 15.828125 64.359375 23.1875 75.875 
z
" id="DejaVuSans-40"/>
      <path d="M 54.890625 33.015625 
L 54.890625 0 
L 45.90625 0 
L 45.90625 32.71875 
Q 45.90625 40.484375 42.875 44.328125 
Q 39.84375 48.1875 33.796875 48.1875 
Q 26.515625 48.1875 22.3125 43.546875 
Q 18.109375 38.921875 18.109375 30.90625 
L 18.109375 0 
L 9.078125 0 
L 9.078125 54.6875 
L 18.109375 54.6875 
L 18.109375 46.1875 
Q 21.34375 51.125 25.703125 53.5625 
Q 30.078125 56 35.796875 56 
Q 45.21875 56 50.046875 50.171875 
Q 54.890625 44.34375 54.890625 33.015625 
z
" id="DejaVuSans-110"/>
      <path d="M 44.28125 53.078125 
L 44.28125 44.578125 
Q 40.484375 46.53125 36.375 47.5 
Q 32.28125 48.484375 27.875 48.484375 
Q 21.1875 48.484375 17.84375 46.4375 
Q 14.5 44.390625 14.5 40.28125 
Q 14.5 37.15625 16.890625 35.375 
Q 19.28125 33.59375 26.515625 31.984375 
L 29.59375 31.296875 
Q 39.15625 29.25 43.1875 25.515625 
Q 47.21875 21.78125 47.21875 15.09375 
Q 47.21875 7.46875 41.1875 3.015625 
Q 35.15625 -1.421875 24.609375 -1.421875 
Q 20.21875 -1.421875 15.453125 -0.5625 
Q 10.6875 0.296875 5.421875 2 
L 5.421875 11.28125 
Q 10.40625 8.6875 15.234375 7.390625 
Q 20.0625 6.109375 24.8125 6.109375 
Q 31.15625 6.109375 34.5625 8.28125 
Q 37.984375 10.453125 37.984375 14.40625 
Q 37.984375 18.0625 35.515625 20.015625 
Q 33.0625 21.96875 24.703125 23.78125 
L 21.578125 24.515625 
Q 13.234375 26.265625 9.515625 29.90625 
Q 5.8125 33.546875 5.8125 39.890625 
Q 5.8125 47.609375 11.28125 51.796875 
Q 16.75 56 26.8125 56 
Q 31.78125 56 36.171875 55.265625 
Q 40.578125 54.546875 44.28125 53.078125 
z
" id="DejaVuSans-115"/>
      <path d="M 8.015625 75.875 
L 15.828125 75.875 
Q 23.140625 64.359375 26.78125 53.3125 
Q 30.421875 42.28125 30.421875 31.390625 
Q 30.421875 20.453125 26.78125 9.375 
Q 23.140625 -1.703125 15.828125 -13.1875 
L 8.015625 -13.1875 
Q 14.5 -2 17.703125 9.0625 
Q 20.90625 20.125 20.90625 31.390625 
Q 20.90625 42.671875 17.703125 53.65625 
Q 14.5 64.65625 8.015625 75.875 
z
" id="DejaVuSans-41"/>
     </defs>
     <g transform="translate(28.617187 198.179563)rotate(-90)scale(0.1 -0.1)">
      <use xlink:href="#DejaVuSans-84"/>
      <use x="61.037109" xlink:href="#DejaVuSans-105"/>
      <use x="88.820312" xlink:href="#DejaVuSans-109"/>
      <use x="186.232422" xlink:href="#DejaVuSans-101"/>
      <use x="247.755859" xlink:href="#DejaVuSans-32"/>
      <use x="279.542969" xlink:href="#DejaVuSans-40"/>
      <use x="318.556641" xlink:href="#DejaVuSans-110"/>
      <use x="381.935547" xlink:href="#DejaVuSans-115"/>
      <use x="434.035156" xlink:href="#DejaVuSans-41"/>
     </g>
    </g>
    <g id="text_18">
     <!-- 1e7 -->
     <defs>
      <path d="M 8.203125 72.90625 
L 55.078125 72.90625 
L 55.078125 68.703125 
L 28.609375 0 
L 18.3125 0 
L 43.21875 64.59375 
L 8.203125 64.59375 
z
" id="DejaVuSans-55"/>
     </defs>
     <g transform="translate(57.6 38.472)scale(0.1 -0.1)">
      <use xlink:href="#DejaVuSans-49"/>
      <use x="63.623047" xlink:href="#DejaVuSans-101"/>
      <use x="125.146484" xlink:href="#DejaVuSans-55"/>
     </g>
    </g>
   </g>
   <g id="line2d_16">
    <path clip-path="url(#p6974f84516)" d="M 73.832727 295.486271 
L 73.843296 295.484196 
L 73.864433 295.481033 
L 73.906707 295.474801 
L 73.991255 295.461962 
L 74.160352 295.438976 
L 74.498544 295.389742 
L 75.17493 295.279512 
L 76.527701 295.052047 
L 79.233244 293.980065 
L 84.644329 291.987189 
L 95.4665 288.203308 
L 138.755182 272.109254 
L 182.043863 252.306413 
L 225.332545 226.200901 
L 268.621227 194.036958 
L 311.909909 151.138668 
L 355.198591 107.996931 
L 398.487273 58.38747 
" style="fill:none;stroke:#ff0029;stroke-dasharray:5.55,2.4;stroke-dashoffset:0;stroke-width:1.5;"/>
    <defs>
     <path d="M 0 3 
C 0.795609 3 1.55874 2.683901 2.12132 2.12132 
C 2.683901 1.55874 3 0.795609 3 0 
C 3 -0.795609 2.683901 -1.55874 2.12132 -2.12132 
C 1.55874 -2.683901 0.795609 -3 0 -3 
C -0.795609 -3 -1.55874 -2.683901 -2.12132 -2.12132 
C -2.683901 -1.55874 -3 -0.795609 -3 0 
C -3 0.795609 -2.683901 1.55874 -2.12132 2.12132 
C -1.55874 2.683901 -0.795609 3 0 3 
z
" id="m9c24238c06" style="stroke:#ff0029;"/>
    </defs>
    <g clip-path="url(#p6974f84516)">
     <use style="fill:#ff0029;stroke:#ff0029;" x="73.832727" xlink:href="#m9c24238c06" y="295.486271"/>
     <use style="fill:#ff0029;stroke:#ff0029;" x="73.843296" xlink:href="#m9c24238c06" y="295.484196"/>
     <use style="fill:#ff0029;stroke:#ff0029;" x="73.864433" xlink:href="#m9c24238c06" y="295.481033"/>
     <use style="fill:#ff0029;stroke:#ff0029;" x="73.906707" xlink:href="#m9c24238c06" y="295.474801"/>
     <use style="fill:#ff0029;stroke:#ff0029;" x="73.991255" xlink:href="#m9c24238c06" y="295.461962"/>
     <use style="fill:#ff0029;stroke:#ff0029;" x="74.160352" xlink:href="#m9c24238c06" y="295.438976"/>
     <use style="fill:#ff0029;stroke:#ff0029;" x="74.498544" xlink:href="#m9c24238c06" y="295.389742"/>
     <use style="fill:#ff0029;stroke:#ff0029;" x="75.17493" xlink:href="#m9c24238c06" y="295.279512"/>
     <use style="fill:#ff0029;stroke:#ff0029;" x="76.527701" xlink:href="#m9c24238c06" y="295.052047"/>
     <use style="fill:#ff0029;stroke:#ff0029;" x="79.233244" xlink:href="#m9c24238c06" y="293.980065"/>
     <use style="fill:#ff0029;stroke:#ff0029;" x="84.644329" xlink:href="#m9c24238c06" y="291.987189"/>
     <use style="fill:#ff0029;stroke:#ff0029;" x="95.4665" xlink:href="#m9c24238c06" y="288.203308"/>
     <use style="fill:#ff0029;stroke:#ff0029;" x="138.755182" xlink:href="#m9c24238c06" y="272.109254"/>
     <use style="fill:#ff0029;stroke:#ff0029;" x="182.043863" xlink:href="#m9c24238c06" y="252.306413"/>
     <use style="fill:#ff0029;stroke:#ff0029;" x="225.332545" xlink:href="#m9c24238c06" y="226.200901"/>
     <use style="fill:#ff0029;stroke:#ff0029;" x="268.621227" xlink:href="#m9c24238c06" y="194.036958"/>
     <use style="fill:#ff0029;stroke:#ff0029;" x="311.909909" xlink:href="#m9c24238c06" y="151.138668"/>
     <use style="fill:#ff0029;stroke:#ff0029;" x="355.198591" xlink:href="#m9c24238c06" y="107.996931"/>
     <use style="fill:#ff0029;stroke:#ff0029;" x="398.487273" xlink:href="#m9c24238c06" y="58.38747"/>
    </g>
   </g>
   <g id="line2d_17">
    <path clip-path="url(#p6974f84516)" d="M 73.832727 295.486578 
L 73.843296 295.484231 
L 73.864433 295.480833 
L 73.906707 295.475137 
L 73.991255 295.465737 
L 74.160352 295.446703 
L 74.498544 295.408201 
L 75.17493 295.329024 
L 76.527701 295.180411 
L 79.233244 294.818769 
L 84.644329 294.026116 
L 95.4665 292.376473 
L 138.755182 285.609129 
L 182.043863 278.713267 
L 225.332545 272.347845 
L 268.621227 264.12475 
L 311.909909 254.784697 
L 355.198591 242.299492 
L 398.487273 237.203905 
" style="fill:none;stroke:#ff4800;stroke-dasharray:1.5,2.475;stroke-dashoffset:0;stroke-width:1.5;"/>
    <defs>
     <path d="M 0 3 
C 0.795609 3 1.55874 2.683901 2.12132 2.12132 
C 2.683901 1.55874 3 0.795609 3 0 
C 3 -0.795609 2.683901 -1.55874 2.12132 -2.12132 
C 1.55874 -2.683901 0.795609 -3 0 -3 
C -0.795609 -3 -1.55874 -2.683901 -2.12132 -2.12132 
C -2.683901 -1.55874 -3 -0.795609 -3 0 
C -3 0.795609 -2.683901 1.55874 -2.12132 2.12132 
C -1.55874 2.683901 -0.795609 3 0 3 
z
" id="m2921313d2a" style="stroke:#ff4800;"/>
    </defs>
    <g clip-path="url(#p6974f84516)">
     <use style="fill:#ff4800;stroke:#ff4800;" x="73.832727" xlink:href="#m2921313d2a" y="295.486578"/>
     <use style="fill:#ff4800;stroke:#ff4800;" x="73.843296" xlink:href="#m2921313d2a" y="295.484231"/>
     <use style="fill:#ff4800;stroke:#ff4800;" x="73.864433" xlink:href="#m2921313d2a" y="295.480833"/>
     <use style="fill:#ff4800;stroke:#ff4800;" x="73.906707" xlink:href="#m2921313d2a" y="295.475137"/>
     <use style="fill:#ff4800;stroke:#ff4800;" x="73.991255" xlink:href="#m2921313d2a" y="295.465737"/>
     <use style="fill:#ff4800;stroke:#ff4800;" x="74.160352" xlink:href="#m2921313d2a" y="295.446703"/>
     <use style="fill:#ff4800;stroke:#ff4800;" x="74.498544" xlink:href="#m2921313d2a" y="295.408201"/>
     <use style="fill:#ff4800;stroke:#ff4800;" x="75.17493" xlink:href="#m2921313d2a" y="295.329024"/>
     <use style="fill:#ff4800;stroke:#ff4800;" x="76.527701" xlink:href="#m2921313d2a" y="295.180411"/>
     <use style="fill:#ff4800;stroke:#ff4800;" x="79.233244" xlink:href="#m2921313d2a" y="294.818769"/>
     <use style="fill:#ff4800;stroke:#ff4800;" x="84.644329" xlink:href="#m2921313d2a" y="294.026116"/>
     <use style="fill:#ff4800;stroke:#ff4800;" x="95.4665" xlink:href="#m2921313d2a" y="292.376473"/>
     <use style="fill:#ff4800;stroke:#ff4800;" x="138.755182" xlink:href="#m2921313d2a" y="285.609129"/>
     <use style="fill:#ff4800;stroke:#ff4800;" x="182.043863" xlink:href="#m2921313d2a" y="278.713267"/>
     <use style="fill:#ff4800;stroke:#ff4800;" x="225.332545" xlink:href="#m2921313d2a" y="272.347845"/>
     <use style="fill:#ff4800;stroke:#ff4800;" x="268.621227" xlink:href="#m2921313d2a" y="264.12475"/>
     <use style="fill:#ff4800;stroke:#ff4800;" x="311.909909" xlink:href="#m2921313d2a" y="254.784697"/>
     <use style="fill:#ff4800;stroke:#ff4800;" x="355.198591" xlink:href="#m2921313d2a" y="242.299492"/>
     <use style="fill:#ff4800;stroke:#ff4800;" x="398.487273" xlink:href="#m2921313d2a" y="237.203905"/>
    </g>
   </g>
   <g id="line2d_18">
    <path clip-path="url(#p6974f84516)" d="M 73.832727 295.486706 
L 73.843296 295.485481 
L 73.864433 295.484803 
L 73.906707 295.481088 
L 73.991255 295.473597 
L 74.160352 295.46112 
L 74.498544 295.438305 
L 75.17493 295.393366 
L 76.527701 295.298987 
L 79.233244 295.085777 
L 84.644329 294.633185 
L 95.4665 293.757331 
L 138.755182 289.945153 
L 182.043863 285.542823 
L 225.332545 281.108797 
L 268.621227 278.03872 
L 311.909909 270.366775 
L 355.198591 264.760721 
L 398.487273 256.02362 
" style="fill:none;stroke:#ffba00;stroke-dasharray:5.55,2.4;stroke-dashoffset:0;stroke-width:1.5;"/>
    <defs>
     <path d="M 0 3 
C 0.795609 3 1.55874 2.683901 2.12132 2.12132 
C 2.683901 1.55874 3 0.795609 3 0 
C 3 -0.795609 2.683901 -1.55874 2.12132 -2.12132 
C 1.55874 -2.683901 0.795609 -3 0 -3 
C -0.795609 -3 -1.55874 -2.683901 -2.12132 -2.12132 
C -2.683901 -1.55874 -3 -0.795609 -3 0 
C -3 0.795609 -2.683901 1.55874 -2.12132 2.12132 
C -1.55874 2.683901 -0.795609 3 0 3 
z
" id="m9e1aff7d81" style="stroke:#ffba00;"/>
    </defs>
    <g clip-path="url(#p6974f84516)">
     <use style="fill:#ffba00;stroke:#ffba00;" x="73.832727" xlink:href="#m9e1aff7d81" y="295.486706"/>
     <use style="fill:#ffba00;stroke:#ffba00;" x="73.843296" xlink:href="#m9e1aff7d81" y="295.485481"/>
     <use style="fill:#ffba00;stroke:#ffba00;" x="73.864433" xlink:href="#m9e1aff7d81" y="295.484803"/>
     <use style="fill:#ffba00;stroke:#ffba00;" x="73.906707" xlink:href="#m9e1aff7d81" y="295.481088"/>
     <use style="fill:#ffba00;stroke:#ffba00;" x="73.991255" xlink:href="#m9e1aff7d81" y="295.473597"/>
     <use style="fill:#ffba00;stroke:#ffba00;" x="74.160352" xlink:href="#m9e1aff7d81" y="295.46112"/>
     <use style="fill:#ffba00;stroke:#ffba00;" x="74.498544" xlink:href="#m9e1aff7d81" y="295.438305"/>
     <use style="fill:#ffba00;stroke:#ffba00;" x="75.17493" xlink:href="#m9e1aff7d81" y="295.393366"/>
     <use style="fill:#ffba00;stroke:#ffba00;" x="76.527701" xlink:href="#m9e1aff7d81" y="295.298987"/>
     <use style="fill:#ffba00;stroke:#ffba00;" x="79.233244" xlink:href="#m9e1aff7d81" y="295.085777"/>
     <use style="fill:#ffba00;stroke:#ffba00;" x="84.644329" xlink:href="#m9e1aff7d81" y="294.633185"/>
     <use style="fill:#ffba00;stroke:#ffba00;" x="95.4665" xlink:href="#m9e1aff7d81" y="293.757331"/>
     <use style="fill:#ffba00;stroke:#ffba00;" x="138.755182" xlink:href="#m9e1aff7d81" y="289.945153"/>
     <use style="fill:#ffba00;stroke:#ffba00;" x="182.043863" xlink:href="#m9e1aff7d81" y="285.542823"/>
     <use style="fill:#ffba00;stroke:#ffba00;" x="225.332545" xlink:href="#m9e1aff7d81" y="281.108797"/>
     <use style="fill:#ffba00;stroke:#ffba00;" x="268.621227" xlink:href="#m9e1aff7d81" y="278.03872"/>
     <use style="fill:#ffba00;stroke:#ffba00;" x="311.909909" xlink:href="#m9e1aff7d81" y="270.366775"/>
     <use style="fill:#ffba00;stroke:#ffba00;" x="355.198591" xlink:href="#m9e1aff7d81" y="264.760721"/>
     <use style="fill:#ffba00;stroke:#ffba00;" x="398.487273" xlink:href="#m9e1aff7d81" y="256.02362"/>
    </g>
   </g>
   <g id="line2d_19">
    <path clip-path="url(#p6974f84516)" d="M 73.832727 295.486909 
L 73.843296 295.485532 
L 73.864433 295.481442 
L 73.906707 295.475932 
L 73.991255 295.463089 
L 74.160352 295.439087 
L 74.498544 295.390283 
L 75.17493 295.282363 
L 76.527701 295.049624 
L 79.233244 293.982033 
L 84.644329 292.042992 
L 95.4665 288.325402 
L 138.755182 272.529328 
L 182.043863 252.442886 
L 225.332545 226.752685 
L 268.621227 194.493466 
L 311.909909 153.682491 
L 355.198591 108.075496 
L 398.487273 60.114276 
" style="fill:none;stroke:#cdff00;stroke-dasharray:1.5,2.475;stroke-dashoffset:0;stroke-width:1.5;"/>
    <defs>
     <path d="M 0 3 
C 0.795609 3 1.55874 2.683901 2.12132 2.12132 
C 2.683901 1.55874 3 0.795609 3 0 
C 3 -0.795609 2.683901 -1.55874 2.12132 -2.12132 
C 1.55874 -2.683901 0.795609 -3 0 -3 
C -0.795609 -3 -1.55874 -2.683901 -2.12132 -2.12132 
C -2.683901 -1.55874 -3 -0.795609 -3 0 
C -3 0.795609 -2.683901 1.55874 -2.12132 2.12132 
C -1.55874 2.683901 -0.795609 3 0 3 
z
" id="m0b5e17fbdc" style="stroke:#cdff00;"/>
    </defs>
    <g clip-path="url(#p6974f84516)">
     <use style="fill:#cdff00;stroke:#cdff00;" x="73.832727" xlink:href="#m0b5e17fbdc" y="295.486909"/>
     <use style="fill:#cdff00;stroke:#cdff00;" x="73.843296" xlink:href="#m0b5e17fbdc" y="295.485532"/>
     <use style="fill:#cdff00;stroke:#cdff00;" x="73.864433" xlink:href="#m0b5e17fbdc" y="295.481442"/>
     <use style="fill:#cdff00;stroke:#cdff00;" x="73.906707" xlink:href="#m0b5e17fbdc" y="295.475932"/>
     <use style="fill:#cdff00;stroke:#cdff00;" x="73.991255" xlink:href="#m0b5e17fbdc" y="295.463089"/>
     <use style="fill:#cdff00;stroke:#cdff00;" x="74.160352" xlink:href="#m0b5e17fbdc" y="295.439087"/>
     <use style="fill:#cdff00;stroke:#cdff00;" x="74.498544" xlink:href="#m0b5e17fbdc" y="295.390283"/>
     <use style="fill:#cdff00;stroke:#cdff00;" x="75.17493" xlink:href="#m0b5e17fbdc" y="295.282363"/>
     <use style="fill:#cdff00;stroke:#cdff00;" x="76.527701" xlink:href="#m0b5e17fbdc" y="295.049624"/>
     <use style="fill:#cdff00;stroke:#cdff00;" x="79.233244" xlink:href="#m0b5e17fbdc" y="293.982033"/>
     <use style="fill:#cdff00;stroke:#cdff00;" x="84.644329" xlink:href="#m0b5e17fbdc" y="292.042992"/>
     <use style="fill:#cdff00;stroke:#cdff00;" x="95.4665" xlink:href="#m0b5e17fbdc" y="288.325402"/>
     <use style="fill:#cdff00;stroke:#cdff00;" x="138.755182" xlink:href="#m0b5e17fbdc" y="272.529328"/>
     <use style="fill:#cdff00;stroke:#cdff00;" x="182.043863" xlink:href="#m0b5e17fbdc" y="252.442886"/>
     <use style="fill:#cdff00;stroke:#cdff00;" x="225.332545" xlink:href="#m0b5e17fbdc" y="226.752685"/>
     <use style="fill:#cdff00;stroke:#cdff00;" x="268.621227" xlink:href="#m0b5e17fbdc" y="194.493466"/>
     <use style="fill:#cdff00;stroke:#cdff00;" x="311.909909" xlink:href="#m0b5e17fbdc" y="153.682491"/>
     <use style="fill:#cdff00;stroke:#cdff00;" x="355.198591" xlink:href="#m0b5e17fbdc" y="108.075496"/>
     <use style="fill:#cdff00;stroke:#cdff00;" x="398.487273" xlink:href="#m0b5e17fbdc" y="60.114276"/>
    </g>
   </g>
   <g id="line2d_20">
    <path clip-path="url(#p6974f84516)" d="M 73.832727 295.488 
L 73.843296 295.486708 
L 73.864433 295.484451 
L 73.906707 295.481668 
L 73.991255 295.476157 
L 74.160352 295.466026 
L 74.498544 295.44997 
L 75.17493 295.411594 
L 76.527701 295.320669 
L 79.233244 295.105632 
L 84.644329 294.598432 
L 95.4665 293.381133 
L 138.755182 288.509476 
L 182.043863 283.543918 
L 225.332545 277.735381 
L 268.621227 271.663025 
L 311.909909 265.111435 
L 355.198591 256.064047 
L 398.487273 242.781232 
" style="fill:none;stroke:#5cff00;stroke-dasharray:5.55,2.4;stroke-dashoffset:0;stroke-width:1.5;"/>
    <defs>
     <path d="M 0 3 
C 0.795609 3 1.55874 2.683901 2.12132 2.12132 
C 2.683901 1.55874 3 0.795609 3 0 
C 3 -0.795609 2.683901 -1.55874 2.12132 -2.12132 
C 1.55874 -2.683901 0.795609 -3 0 -3 
C -0.795609 -3 -1.55874 -2.683901 -2.12132 -2.12132 
C -2.683901 -1.55874 -3 -0.795609 -3 0 
C -3 0.795609 -2.683901 1.55874 -2.12132 2.12132 
C -1.55874 2.683901 -0.795609 3 0 3 
z
" id="m3a739b01fa" style="stroke:#5cff00;"/>
    </defs>
    <g clip-path="url(#p6974f84516)">
     <use style="fill:#5cff00;stroke:#5cff00;" x="73.832727" xlink:href="#m3a739b01fa" y="295.488"/>
     <use style="fill:#5cff00;stroke:#5cff00;" x="73.843296" xlink:href="#m3a739b01fa" y="295.486708"/>
     <use style="fill:#5cff00;stroke:#5cff00;" x="73.864433" xlink:href="#m3a739b01fa" y="295.484451"/>
     <use style="fill:#5cff00;stroke:#5cff00;" x="73.906707" xlink:href="#m3a739b01fa" y="295.481668"/>
     <use style="fill:#5cff00;stroke:#5cff00;" x="73.991255" xlink:href="#m3a739b01fa" y="295.476157"/>
     <use style="fill:#5cff00;stroke:#5cff00;" x="74.160352" xlink:href="#m3a739b01fa" y="295.466026"/>
     <use style="fill:#5cff00;stroke:#5cff00;" x="74.498544" xlink:href="#m3a739b01fa" y="295.44997"/>
     <use style="fill:#5cff00;stroke:#5cff00;" x="75.17493" xlink:href="#m3a739b01fa" y="295.411594"/>
     <use style="fill:#5cff00;stroke:#5cff00;" x="76.527701" xlink:href="#m3a739b01fa" y="295.320669"/>
     <use style="fill:#5cff00;stroke:#5cff00;" x="79.233244" xlink:href="#m3a739b01fa" y="295.105632"/>
     <use style="fill:#5cff00;stroke:#5cff00;" x="84.644329" xlink:href="#m3a739b01fa" y="294.598432"/>
     <use style="fill:#5cff00;stroke:#5cff00;" x="95.4665" xlink:href="#m3a739b01fa" y="293.381133"/>
     <use style="fill:#5cff00;stroke:#5cff00;" x="138.755182" xlink:href="#m3a739b01fa" y="288.509476"/>
     <use style="fill:#5cff00;stroke:#5cff00;" x="182.043863" xlink:href="#m3a739b01fa" y="283.543918"/>
     <use style="fill:#5cff00;stroke:#5cff00;" x="225.332545" xlink:href="#m3a739b01fa" y="277.735381"/>
     <use style="fill:#5cff00;stroke:#5cff00;" x="268.621227" xlink:href="#m3a739b01fa" y="271.663025"/>
     <use style="fill:#5cff00;stroke:#5cff00;" x="311.909909" xlink:href="#m3a739b01fa" y="265.111435"/>
     <use style="fill:#5cff00;stroke:#5cff00;" x="355.198591" xlink:href="#m3a739b01fa" y="256.064047"/>
     <use style="fill:#5cff00;stroke:#5cff00;" x="398.487273" xlink:href="#m3a739b01fa" y="242.781232"/>
    </g>
   </g>
   <g id="line2d_21">
    <path clip-path="url(#p6974f84516)" d="M 73.832727 295.487902 
L 73.843296 295.487655 
L 73.864433 295.486616 
L 73.906707 295.485301 
L 73.991255 295.48235 
L 74.160352 295.475347 
L 74.498544 295.464236 
L 75.17493 295.440754 
L 76.527701 295.397939 
L 79.233244 295.309802 
L 84.644329 295.134913 
L 95.4665 294.76112 
L 138.755182 293.546577 
L 182.043863 292.1758 
L 225.332545 291.084724 
L 268.621227 289.303664 
L 311.909909 288.27915 
L 355.198591 287.233538 
L 398.487273 286.16904 
" style="fill:none;stroke:#00ff16;stroke-dasharray:1.5,2.475;stroke-dashoffset:0;stroke-width:1.5;"/>
    <defs>
     <path d="M 0 3 
C 0.795609 3 1.55874 2.683901 2.12132 2.12132 
C 2.683901 1.55874 3 0.795609 3 0 
C 3 -0.795609 2.683901 -1.55874 2.12132 -2.12132 
C 1.55874 -2.683901 0.795609 -3 0 -3 
C -0.795609 -3 -1.55874 -2.683901 -2.12132 -2.12132 
C -2.683901 -1.55874 -3 -0.795609 -3 0 
C -3 0.795609 -2.683901 1.55874 -2.12132 2.12132 
C -1.55874 2.683901 -0.795609 3 0 3 
z
" id="md9c1e26580" style="stroke:#00ff16;"/>
    </defs>
    <g clip-path="url(#p6974f84516)">
     <use style="fill:#00ff16;stroke:#00ff16;" x="73.832727" xlink:href="#md9c1e26580" y="295.487902"/>
     <use style="fill:#00ff16;stroke:#00ff16;" x="73.843296" xlink:href="#md9c1e26580" y="295.487655"/>
     <use style="fill:#00ff16;stroke:#00ff16;" x="73.864433" xlink:href="#md9c1e26580" y="295.486616"/>
     <use style="fill:#00ff16;stroke:#00ff16;" x="73.906707" xlink:href="#md9c1e26580" y="295.485301"/>
     <use style="fill:#00ff16;stroke:#00ff16;" x="73.991255" xlink:href="#md9c1e26580" y="295.48235"/>
     <use style="fill:#00ff16;stroke:#00ff16;" x="74.160352" xlink:href="#md9c1e26580" y="295.475347"/>
     <use style="fill:#00ff16;stroke:#00ff16;" x="74.498544" xlink:href="#md9c1e26580" y="295.464236"/>
     <use style="fill:#00ff16;stroke:#00ff16;" x="75.17493" xlink:href="#md9c1e26580" y="295.440754"/>
     <use style="fill:#00ff16;stroke:#00ff16;" x="76.527701" xlink:href="#md9c1e26580" y="295.397939"/>
     <use style="fill:#00ff16;stroke:#00ff16;" x="79.233244" xlink:href="#md9c1e26580" y="295.309802"/>
     <use style="fill:#00ff16;stroke:#00ff16;" x="84.644329" xlink:href="#md9c1e26580" y="295.134913"/>
     <use style="fill:#00ff16;stroke:#00ff16;" x="95.4665" xlink:href="#md9c1e26580" y="294.76112"/>
     <use style="fill:#00ff16;stroke:#00ff16;" x="138.755182" xlink:href="#md9c1e26580" y="293.546577"/>
     <use style="fill:#00ff16;stroke:#00ff16;" x="182.043863" xlink:href="#md9c1e26580" y="292.1758"/>
     <use style="fill:#00ff16;stroke:#00ff16;" x="225.332545" xlink:href="#md9c1e26580" y="291.084724"/>
     <use style="fill:#00ff16;stroke:#00ff16;" x="268.621227" xlink:href="#md9c1e26580" y="289.303664"/>
     <use style="fill:#00ff16;stroke:#00ff16;" x="311.909909" xlink:href="#md9c1e26580" y="288.27915"/>
     <use style="fill:#00ff16;stroke:#00ff16;" x="355.198591" xlink:href="#md9c1e26580" y="287.233538"/>
     <use style="fill:#00ff16;stroke:#00ff16;" x="398.487273" xlink:href="#md9c1e26580" y="286.16904"/>
    </g>
   </g>
   <g id="line2d_22">
    <path clip-path="url(#p6974f84516)" d="M 73.832727 295.487188 
L 73.843296 295.48648 
L 73.864433 295.484825 
L 73.906707 295.481924 
L 73.991255 295.475654 
L 74.160352 295.462463 
L 74.498544 295.437494 
L 75.17493 295.384097 
L 76.527701 295.247769 
L 79.233244 294.843144 
L 84.644329 294.077184 
L 95.4665 292.687072 
L 138.755182 287.581658 
L 182.043863 282.114706 
L 225.332545 275.353945 
L 268.621227 268.15285 
L 311.909909 260.667533 
L 355.198591 249.857525 
L 398.487273 245.485537 
" style="fill:none;stroke:#00ff8c;stroke-dasharray:5.55,2.4;stroke-dashoffset:0;stroke-width:1.5;"/>
    <defs>
     <path d="M 0 3 
C 0.795609 3 1.55874 2.683901 2.12132 2.12132 
C 2.683901 1.55874 3 0.795609 3 0 
C 3 -0.795609 2.683901 -1.55874 2.12132 -2.12132 
C 1.55874 -2.683901 0.795609 -3 0 -3 
C -0.795609 -3 -1.55874 -2.683901 -2.12132 -2.12132 
C -2.683901 -1.55874 -3 -0.795609 -3 0 
C -3 0.795609 -2.683901 1.55874 -2.12132 2.12132 
C -1.55874 2.683901 -0.795609 3 0 3 
z
" id="md3e3a2b50e" style="stroke:#00ff8c;"/>
    </defs>
    <g clip-path="url(#p6974f84516)">
     <use style="fill:#00ff8c;stroke:#00ff8c;" x="73.832727" xlink:href="#md3e3a2b50e" y="295.487188"/>
     <use style="fill:#00ff8c;stroke:#00ff8c;" x="73.843296" xlink:href="#md3e3a2b50e" y="295.48648"/>
     <use style="fill:#00ff8c;stroke:#00ff8c;" x="73.864433" xlink:href="#md3e3a2b50e" y="295.484825"/>
     <use style="fill:#00ff8c;stroke:#00ff8c;" x="73.906707" xlink:href="#md3e3a2b50e" y="295.481924"/>
     <use style="fill:#00ff8c;stroke:#00ff8c;" x="73.991255" xlink:href="#md3e3a2b50e" y="295.475654"/>
     <use style="fill:#00ff8c;stroke:#00ff8c;" x="74.160352" xlink:href="#md3e3a2b50e" y="295.462463"/>
     <use style="fill:#00ff8c;stroke:#00ff8c;" x="74.498544" xlink:href="#md3e3a2b50e" y="295.437494"/>
     <use style="fill:#00ff8c;stroke:#00ff8c;" x="75.17493" xlink:href="#md3e3a2b50e" y="295.384097"/>
     <use style="fill:#00ff8c;stroke:#00ff8c;" x="76.527701" xlink:href="#md3e3a2b50e" y="295.247769"/>
     <use style="fill:#00ff8c;stroke:#00ff8c;" x="79.233244" xlink:href="#md3e3a2b50e" y="294.843144"/>
     <use style="fill:#00ff8c;stroke:#00ff8c;" x="84.644329" xlink:href="#md3e3a2b50e" y="294.077184"/>
     <use style="fill:#00ff8c;stroke:#00ff8c;" x="95.4665" xlink:href="#md3e3a2b50e" y="292.687072"/>
     <use style="fill:#00ff8c;stroke:#00ff8c;" x="138.755182" xlink:href="#md3e3a2b50e" y="287.581658"/>
     <use style="fill:#00ff8c;stroke:#00ff8c;" x="182.043863" xlink:href="#md3e3a2b50e" y="282.114706"/>
     <use style="fill:#00ff8c;stroke:#00ff8c;" x="225.332545" xlink:href="#md3e3a2b50e" y="275.353945"/>
     <use style="fill:#00ff8c;stroke:#00ff8c;" x="268.621227" xlink:href="#md3e3a2b50e" y="268.15285"/>
     <use style="fill:#00ff8c;stroke:#00ff8c;" x="311.909909" xlink:href="#md3e3a2b50e" y="260.667533"/>
     <use style="fill:#00ff8c;stroke:#00ff8c;" x="355.198591" xlink:href="#md3e3a2b50e" y="249.857525"/>
     <use style="fill:#00ff8c;stroke:#00ff8c;" x="398.487273" xlink:href="#md3e3a2b50e" y="245.485537"/>
    </g>
   </g>
   <g id="line2d_23">
    <path clip-path="url(#p6974f84516)" d="M 73.832727 295.487016 
L 73.843296 295.48527 
L 73.864433 295.482457 
L 73.906707 295.477006 
L 73.991255 295.465142 
L 74.160352 295.444876 
L 74.498544 295.401198 
L 75.17493 295.29988 
L 76.527701 295.076647 
L 79.233244 294.514686 
L 84.644329 293.366729 
L 95.4665 291.212087 
L 138.755182 273.157522 
L 182.043863 253.942913 
L 225.332545 228.293993 
L 268.621227 196.784632 
L 311.909909 156.004809 
L 355.198591 112.215927 
L 398.487273 63.872887 
" style="fill:none;stroke:#00fffd;stroke-dasharray:1.5,2.475;stroke-dashoffset:0;stroke-width:1.5;"/>
    <defs>
     <path d="M 0 3 
C 0.795609 3 1.55874 2.683901 2.12132 2.12132 
C 2.683901 1.55874 3 0.795609 3 0 
C 3 -0.795609 2.683901 -1.55874 2.12132 -2.12132 
C 1.55874 -2.683901 0.795609 -3 0 -3 
C -0.795609 -3 -1.55874 -2.683901 -2.12132 -2.12132 
C -2.683901 -1.55874 -3 -0.795609 -3 0 
C -3 0.795609 -2.683901 1.55874 -2.12132 2.12132 
C -1.55874 2.683901 -0.795609 3 0 3 
z
" id="m31c6b4a49a" style="stroke:#00fffd;"/>
    </defs>
    <g clip-path="url(#p6974f84516)">
     <use style="fill:#00fffd;stroke:#00fffd;" x="73.832727" xlink:href="#m31c6b4a49a" y="295.487016"/>
     <use style="fill:#00fffd;stroke:#00fffd;" x="73.843296" xlink:href="#m31c6b4a49a" y="295.48527"/>
     <use style="fill:#00fffd;stroke:#00fffd;" x="73.864433" xlink:href="#m31c6b4a49a" y="295.482457"/>
     <use style="fill:#00fffd;stroke:#00fffd;" x="73.906707" xlink:href="#m31c6b4a49a" y="295.477006"/>
     <use style="fill:#00fffd;stroke:#00fffd;" x="73.991255" xlink:href="#m31c6b4a49a" y="295.465142"/>
     <use style="fill:#00fffd;stroke:#00fffd;" x="74.160352" xlink:href="#m31c6b4a49a" y="295.444876"/>
     <use style="fill:#00fffd;stroke:#00fffd;" x="74.498544" xlink:href="#m31c6b4a49a" y="295.401198"/>
     <use style="fill:#00fffd;stroke:#00fffd;" x="75.17493" xlink:href="#m31c6b4a49a" y="295.29988"/>
     <use style="fill:#00fffd;stroke:#00fffd;" x="76.527701" xlink:href="#m31c6b4a49a" y="295.076647"/>
     <use style="fill:#00fffd;stroke:#00fffd;" x="79.233244" xlink:href="#m31c6b4a49a" y="294.514686"/>
     <use style="fill:#00fffd;stroke:#00fffd;" x="84.644329" xlink:href="#m31c6b4a49a" y="293.366729"/>
     <use style="fill:#00fffd;stroke:#00fffd;" x="95.4665" xlink:href="#m31c6b4a49a" y="291.212087"/>
     <use style="fill:#00fffd;stroke:#00fffd;" x="138.755182" xlink:href="#m31c6b4a49a" y="273.157522"/>
     <use style="fill:#00fffd;stroke:#00fffd;" x="182.043863" xlink:href="#m31c6b4a49a" y="253.942913"/>
     <use style="fill:#00fffd;stroke:#00fffd;" x="225.332545" xlink:href="#m31c6b4a49a" y="228.293993"/>
     <use style="fill:#00fffd;stroke:#00fffd;" x="268.621227" xlink:href="#m31c6b4a49a" y="196.784632"/>
     <use style="fill:#00fffd;stroke:#00fffd;" x="311.909909" xlink:href="#m31c6b4a49a" y="156.004809"/>
     <use style="fill:#00fffd;stroke:#00fffd;" x="355.198591" xlink:href="#m31c6b4a49a" y="112.215927"/>
     <use style="fill:#00fffd;stroke:#00fffd;" x="398.487273" xlink:href="#m31c6b4a49a" y="63.872887"/>
    </g>
   </g>
   <g id="line2d_24">
    <path clip-path="url(#p6974f84516)" d="M 73.832727 295.487257 
L 73.843296 295.48287 
L 73.864433 295.480139 
L 73.906707 295.47268 
L 73.991255 295.457316 
L 74.160352 295.4284 
L 74.498544 295.366927 
L 75.17493 295.233254 
L 76.527701 294.953193 
L 79.233244 294.296017 
L 84.644329 292.922039 
L 95.4665 290.277271 
L 138.755182 270.348397 
L 182.043863 249.719795 
L 225.332545 223.51717 
L 268.621227 188.20621 
L 311.909909 148.430085 
L 355.198591 102.492876 
L 398.487273 53.568 
" style="fill:none;stroke:#008fff;stroke-dasharray:5.55,2.4;stroke-dashoffset:0;stroke-width:1.5;"/>
    <defs>
     <path d="M 0 3 
C 0.795609 3 1.55874 2.683901 2.12132 2.12132 
C 2.683901 1.55874 3 0.795609 3 0 
C 3 -0.795609 2.683901 -1.55874 2.12132 -2.12132 
C 1.55874 -2.683901 0.795609 -3 0 -3 
C -0.795609 -3 -1.55874 -2.683901 -2.12132 -2.12132 
C -2.683901 -1.55874 -3 -0.795609 -3 0 
C -3 0.795609 -2.683901 1.55874 -2.12132 2.12132 
C -1.55874 2.683901 -0.795609 3 0 3 
z
" id="m788727203e" style="stroke:#008fff;"/>
    </defs>
    <g clip-path="url(#p6974f84516)">
     <use style="fill:#008fff;stroke:#008fff;" x="73.832727" xlink:href="#m788727203e" y="295.487257"/>
     <use style="fill:#008fff;stroke:#008fff;" x="73.843296" xlink:href="#m788727203e" y="295.48287"/>
     <use style="fill:#008fff;stroke:#008fff;" x="73.864433" xlink:href="#m788727203e" y="295.480139"/>
     <use style="fill:#008fff;stroke:#008fff;" x="73.906707" xlink:href="#m788727203e" y="295.47268"/>
     <use style="fill:#008fff;stroke:#008fff;" x="73.991255" xlink:href="#m788727203e" y="295.457316"/>
     <use style="fill:#008fff;stroke:#008fff;" x="74.160352" xlink:href="#m788727203e" y="295.4284"/>
     <use style="fill:#008fff;stroke:#008fff;" x="74.498544" xlink:href="#m788727203e" y="295.366927"/>
     <use style="fill:#008fff;stroke:#008fff;" x="75.17493" xlink:href="#m788727203e" y="295.233254"/>
     <use style="fill:#008fff;stroke:#008fff;" x="76.527701" xlink:href="#m788727203e" y="294.953193"/>
     <use style="fill:#008fff;stroke:#008fff;" x="79.233244" xlink:href="#m788727203e" y="294.296017"/>
     <use style="fill:#008fff;stroke:#008fff;" x="84.644329" xlink:href="#m788727203e" y="292.922039"/>
     <use style="fill:#008fff;stroke:#008fff;" x="95.4665" xlink:href="#m788727203e" y="290.277271"/>
     <use style="fill:#008fff;stroke:#008fff;" x="138.755182" xlink:href="#m788727203e" y="270.348397"/>
     <use style="fill:#008fff;stroke:#008fff;" x="182.043863" xlink:href="#m788727203e" y="249.719795"/>
     <use style="fill:#008fff;stroke:#008fff;" x="225.332545" xlink:href="#m788727203e" y="223.51717"/>
     <use style="fill:#008fff;stroke:#008fff;" x="268.621227" xlink:href="#m788727203e" y="188.20621"/>
     <use style="fill:#008fff;stroke:#008fff;" x="311.909909" xlink:href="#m788727203e" y="148.430085"/>
     <use style="fill:#008fff;stroke:#008fff;" x="355.198591" xlink:href="#m788727203e" y="102.492876"/>
     <use style="fill:#008fff;stroke:#008fff;" x="398.487273" xlink:href="#m788727203e" y="53.568"/>
    </g>
   </g>
   <g id="line2d_25">
    <path clip-path="url(#p6974f84516)" d="M 73.832727 295.487226 
L 73.843296 295.484386 
L 73.864433 295.480911 
L 73.906707 295.473383 
L 73.991255 295.458111 
L 74.160352 295.42938 
L 74.498544 295.36654 
L 75.17493 295.233357 
L 76.527701 294.958987 
L 79.233244 294.295908 
L 84.644329 292.866224 
L 95.4665 290.254589 
L 138.755182 270.580695 
L 182.043863 251.58916 
L 225.332545 229.600673 
L 268.621227 203.001597 
L 311.909909 174.094796 
L 355.198591 138.958007 
L 398.487273 99.566836 
" style="fill:none;stroke:#0018ff;stroke-dasharray:1.5,2.475;stroke-dashoffset:0;stroke-width:1.5;"/>
    <defs>
     <path d="M 0 3 
C 0.795609 3 1.55874 2.683901 2.12132 2.12132 
C 2.683901 1.55874 3 0.795609 3 0 
C 3 -0.795609 2.683901 -1.55874 2.12132 -2.12132 
C 1.55874 -2.683901 0.795609 -3 0 -3 
C -0.795609 -3 -1.55874 -2.683901 -2.12132 -2.12132 
C -2.683901 -1.55874 -3 -0.795609 -3 0 
C -3 0.795609 -2.683901 1.55874 -2.12132 2.12132 
C -1.55874 2.683901 -0.795609 3 0 3 
z
" id="m861c447975" style="stroke:#0018ff;"/>
    </defs>
    <g clip-path="url(#p6974f84516)">
     <use style="fill:#0018ff;stroke:#0018ff;" x="73.832727" xlink:href="#m861c447975" y="295.487226"/>
     <use style="fill:#0018ff;stroke:#0018ff;" x="73.843296" xlink:href="#m861c447975" y="295.484386"/>
     <use style="fill:#0018ff;stroke:#0018ff;" x="73.864433" xlink:href="#m861c447975" y="295.480911"/>
     <use style="fill:#0018ff;stroke:#0018ff;" x="73.906707" xlink:href="#m861c447975" y="295.473383"/>
     <use style="fill:#0018ff;stroke:#0018ff;" x="73.991255" xlink:href="#m861c447975" y="295.458111"/>
     <use style="fill:#0018ff;stroke:#0018ff;" x="74.160352" xlink:href="#m861c447975" y="295.42938"/>
     <use style="fill:#0018ff;stroke:#0018ff;" x="74.498544" xlink:href="#m861c447975" y="295.36654"/>
     <use style="fill:#0018ff;stroke:#0018ff;" x="75.17493" xlink:href="#m861c447975" y="295.233357"/>
     <use style="fill:#0018ff;stroke:#0018ff;" x="76.527701" xlink:href="#m861c447975" y="294.958987"/>
     <use style="fill:#0018ff;stroke:#0018ff;" x="79.233244" xlink:href="#m861c447975" y="294.295908"/>
     <use style="fill:#0018ff;stroke:#0018ff;" x="84.644329" xlink:href="#m861c447975" y="292.866224"/>
     <use style="fill:#0018ff;stroke:#0018ff;" x="95.4665" xlink:href="#m861c447975" y="290.254589"/>
     <use style="fill:#0018ff;stroke:#0018ff;" x="138.755182" xlink:href="#m861c447975" y="270.580695"/>
     <use style="fill:#0018ff;stroke:#0018ff;" x="182.043863" xlink:href="#m861c447975" y="251.58916"/>
     <use style="fill:#0018ff;stroke:#0018ff;" x="225.332545" xlink:href="#m861c447975" y="229.600673"/>
     <use style="fill:#0018ff;stroke:#0018ff;" x="268.621227" xlink:href="#m861c447975" y="203.001597"/>
     <use style="fill:#0018ff;stroke:#0018ff;" x="311.909909" xlink:href="#m861c447975" y="174.094796"/>
     <use style="fill:#0018ff;stroke:#0018ff;" x="355.198591" xlink:href="#m861c447975" y="138.958007"/>
     <use style="fill:#0018ff;stroke:#0018ff;" x="398.487273" xlink:href="#m861c447975" y="99.566836"/>
    </g>
   </g>
   <g id="line2d_26">
    <path clip-path="url(#p6974f84516)" d="M 73.832727 295.487831 
L 73.843296 295.487258 
L 73.864433 295.486133 
L 73.906707 295.483918 
L 73.991255 295.479167 
L 74.160352 295.470514 
L 74.498544 295.452701 
L 75.17493 295.410623 
L 76.527701 295.305889 
L 79.233244 294.873771 
L 84.644329 294.120415 
L 95.4665 292.774718 
L 138.755182 288.140042 
L 182.043863 283.444162 
L 225.332545 277.944005 
L 268.621227 271.252761 
L 311.909909 264.598183 
L 355.198591 255.103457 
L 398.487273 250.937697 
" style="fill:none;stroke:#5a00ff;stroke-dasharray:5.55,2.4;stroke-dashoffset:0;stroke-width:1.5;"/>
    <defs>
     <path d="M 0 3 
C 0.795609 3 1.55874 2.683901 2.12132 2.12132 
C 2.683901 1.55874 3 0.795609 3 0 
C 3 -0.795609 2.683901 -1.55874 2.12132 -2.12132 
C 1.55874 -2.683901 0.795609 -3 0 -3 
C -0.795609 -3 -1.55874 -2.683901 -2.12132 -2.12132 
C -2.683901 -1.55874 -3 -0.795609 -3 0 
C -3 0.795609 -2.683901 1.55874 -2.12132 2.12132 
C -1.55874 2.683901 -0.795609 3 0 3 
z
" id="m124fc9370f" style="stroke:#5a00ff;"/>
    </defs>
    <g clip-path="url(#p6974f84516)">
     <use style="fill:#5a00ff;stroke:#5a00ff;" x="73.832727" xlink:href="#m124fc9370f" y="295.487831"/>
     <use style="fill:#5a00ff;stroke:#5a00ff;" x="73.843296" xlink:href="#m124fc9370f" y="295.487258"/>
     <use style="fill:#5a00ff;stroke:#5a00ff;" x="73.864433" xlink:href="#m124fc9370f" y="295.486133"/>
     <use style="fill:#5a00ff;stroke:#5a00ff;" x="73.906707" xlink:href="#m124fc9370f" y="295.483918"/>
     <use style="fill:#5a00ff;stroke:#5a00ff;" x="73.991255" xlink:href="#m124fc9370f" y="295.479167"/>
     <use style="fill:#5a00ff;stroke:#5a00ff;" x="74.160352" xlink:href="#m124fc9370f" y="295.470514"/>
     <use style="fill:#5a00ff;stroke:#5a00ff;" x="74.498544" xlink:href="#m124fc9370f" y="295.452701"/>
     <use style="fill:#5a00ff;stroke:#5a00ff;" x="75.17493" xlink:href="#m124fc9370f" y="295.410623"/>
     <use style="fill:#5a00ff;stroke:#5a00ff;" x="76.527701" xlink:href="#m124fc9370f" y="295.305889"/>
     <use style="fill:#5a00ff;stroke:#5a00ff;" x="79.233244" xlink:href="#m124fc9370f" y="294.873771"/>
     <use style="fill:#5a00ff;stroke:#5a00ff;" x="84.644329" xlink:href="#m124fc9370f" y="294.120415"/>
     <use style="fill:#5a00ff;stroke:#5a00ff;" x="95.4665" xlink:href="#m124fc9370f" y="292.774718"/>
     <use style="fill:#5a00ff;stroke:#5a00ff;" x="138.755182" xlink:href="#m124fc9370f" y="288.140042"/>
     <use style="fill:#5a00ff;stroke:#5a00ff;" x="182.043863" xlink:href="#m124fc9370f" y="283.444162"/>
     <use style="fill:#5a00ff;stroke:#5a00ff;" x="225.332545" xlink:href="#m124fc9370f" y="277.944005"/>
     <use style="fill:#5a00ff;stroke:#5a00ff;" x="268.621227" xlink:href="#m124fc9370f" y="271.252761"/>
     <use style="fill:#5a00ff;stroke:#5a00ff;" x="311.909909" xlink:href="#m124fc9370f" y="264.598183"/>
     <use style="fill:#5a00ff;stroke:#5a00ff;" x="355.198591" xlink:href="#m124fc9370f" y="255.103457"/>
     <use style="fill:#5a00ff;stroke:#5a00ff;" x="398.487273" xlink:href="#m124fc9370f" y="250.937697"/>
    </g>
   </g>
   <g id="line2d_27">
    <path clip-path="url(#p6974f84516)" d="M 73.832727 295.487533 
L 73.843296 295.486202 
L 73.864433 295.484358 
L 73.906707 295.480523 
L 73.991255 295.472357 
L 74.160352 295.456692 
L 74.498544 295.424381 
L 75.17493 295.348374 
L 76.527701 295.171857 
L 79.233244 294.708759 
L 84.644329 293.725625 
L 95.4665 291.952582 
L 138.755182 275.641242 
L 182.043863 257.759752 
L 225.332545 234.144059 
L 268.621227 203.815759 
L 311.909909 167.15462 
L 355.198591 124.913176 
L 398.487273 77.401856 
" style="fill:none;stroke:#cd00ff;stroke-dasharray:1.5,2.475;stroke-dashoffset:0;stroke-width:1.5;"/>
    <defs>
     <path d="M 0 3 
C 0.795609 3 1.55874 2.683901 2.12132 2.12132 
C 2.683901 1.55874 3 0.795609 3 0 
C 3 -0.795609 2.683901 -1.55874 2.12132 -2.12132 
C 1.55874 -2.683901 0.795609 -3 0 -3 
C -0.795609 -3 -1.55874 -2.683901 -2.12132 -2.12132 
C -2.683901 -1.55874 -3 -0.795609 -3 0 
C -3 0.795609 -2.683901 1.55874 -2.12132 2.12132 
C -1.55874 2.683901 -0.795609 3 0 3 
z
" id="m5c34f783fd" style="stroke:#cd00ff;"/>
    </defs>
    <g clip-path="url(#p6974f84516)">
     <use style="fill:#cd00ff;stroke:#cd00ff;" x="73.832727" xlink:href="#m5c34f783fd" y="295.487533"/>
     <use style="fill:#cd00ff;stroke:#cd00ff;" x="73.843296" xlink:href="#m5c34f783fd" y="295.486202"/>
     <use style="fill:#cd00ff;stroke:#cd00ff;" x="73.864433" xlink:href="#m5c34f783fd" y="295.484358"/>
     <use style="fill:#cd00ff;stroke:#cd00ff;" x="73.906707" xlink:href="#m5c34f783fd" y="295.480523"/>
     <use style="fill:#cd00ff;stroke:#cd00ff;" x="73.991255" xlink:href="#m5c34f783fd" y="295.472357"/>
     <use style="fill:#cd00ff;stroke:#cd00ff;" x="74.160352" xlink:href="#m5c34f783fd" y="295.456692"/>
     <use style="fill:#cd00ff;stroke:#cd00ff;" x="74.498544" xlink:href="#m5c34f783fd" y="295.424381"/>
     <use style="fill:#cd00ff;stroke:#cd00ff;" x="75.17493" xlink:href="#m5c34f783fd" y="295.348374"/>
     <use style="fill:#cd00ff;stroke:#cd00ff;" x="76.527701" xlink:href="#m5c34f783fd" y="295.171857"/>
     <use style="fill:#cd00ff;stroke:#cd00ff;" x="79.233244" xlink:href="#m5c34f783fd" y="294.708759"/>
     <use style="fill:#cd00ff;stroke:#cd00ff;" x="84.644329" xlink:href="#m5c34f783fd" y="293.725625"/>
     <use style="fill:#cd00ff;stroke:#cd00ff;" x="95.4665" xlink:href="#m5c34f783fd" y="291.952582"/>
     <use style="fill:#cd00ff;stroke:#cd00ff;" x="138.755182" xlink:href="#m5c34f783fd" y="275.641242"/>
     <use style="fill:#cd00ff;stroke:#cd00ff;" x="182.043863" xlink:href="#m5c34f783fd" y="257.759752"/>
     <use style="fill:#cd00ff;stroke:#cd00ff;" x="225.332545" xlink:href="#m5c34f783fd" y="234.144059"/>
     <use style="fill:#cd00ff;stroke:#cd00ff;" x="268.621227" xlink:href="#m5c34f783fd" y="203.815759"/>
     <use style="fill:#cd00ff;stroke:#cd00ff;" x="311.909909" xlink:href="#m5c34f783fd" y="167.15462"/>
     <use style="fill:#cd00ff;stroke:#cd00ff;" x="355.198591" xlink:href="#m5c34f783fd" y="124.913176"/>
     <use style="fill:#cd00ff;stroke:#cd00ff;" x="398.487273" xlink:href="#m5c34f783fd" y="77.401856"/>
    </g>
   </g>
   <g id="patch_3">
    <path d="M 57.6 307.584 
L 57.6 41.472 
" style="fill:none;stroke:#000000;stroke-linecap:square;stroke-linejoin:miter;stroke-width:0.8;"/>
   </g>
   <g id="patch_4">
    <path d="M 414.72 307.584 
L 414.72 41.472 
" style="fill:none;stroke:#000000;stroke-linecap:square;stroke-linejoin:miter;stroke-width:0.8;"/>
   </g>
   <g id="patch_5">
    <path d="M 57.6 307.584 
L 414.72 307.584 
" style="fill:none;stroke:#000000;stroke-linecap:square;stroke-linejoin:miter;stroke-width:0.8;"/>
   </g>
   <g id="patch_6">
    <path d="M 57.6 41.472 
L 414.72 41.472 
" style="fill:none;stroke:#000000;stroke-linecap:square;stroke-linejoin:miter;stroke-width:0.8;"/>
   </g>
   <g id="text_19">
    <!-- map ItTraversal -->
    <defs>
     <path d="M 34.28125 27.484375 
Q 23.390625 27.484375 19.1875 25 
Q 14.984375 22.515625 14.984375 16.5 
Q 14.984375 11.71875 18.140625 8.90625 
Q 21.296875 6.109375 26.703125 6.109375 
Q 34.1875 6.109375 38.703125 11.40625 
Q 43.21875 16.703125 43.21875 25.484375 
L 43.21875 27.484375 
z
M 52.203125 31.203125 
L 52.203125 0 
L 43.21875 0 
L 43.21875 8.296875 
Q 40.140625 3.328125 35.546875 0.953125 
Q 30.953125 -1.421875 24.3125 -1.421875 
Q 15.921875 -1.421875 10.953125 3.296875 
Q 6 8.015625 6 15.921875 
Q 6 25.140625 12.171875 29.828125 
Q 18.359375 34.515625 30.609375 34.515625 
L 43.21875 34.515625 
L 43.21875 35.40625 
Q 43.21875 41.609375 39.140625 45 
Q 35.0625 48.390625 27.6875 48.390625 
Q 23 48.390625 18.546875 47.265625 
Q 14.109375 46.140625 10.015625 43.890625 
L 10.015625 52.203125 
Q 14.9375 54.109375 19.578125 55.046875 
Q 24.21875 56 28.609375 56 
Q 40.484375 56 46.34375 49.84375 
Q 52.203125 43.703125 52.203125 31.203125 
z
" id="DejaVuSans-97"/>
     <path d="M 18.109375 8.203125 
L 18.109375 -20.796875 
L 9.078125 -20.796875 
L 9.078125 54.6875 
L 18.109375 54.6875 
L 18.109375 46.390625 
Q 20.953125 51.265625 25.265625 53.625 
Q 29.59375 56 35.59375 56 
Q 45.5625 56 51.78125 48.09375 
Q 58.015625 40.1875 58.015625 27.296875 
Q 58.015625 14.40625 51.78125 6.484375 
Q 45.5625 -1.421875 35.59375 -1.421875 
Q 29.59375 -1.421875 25.265625 0.953125 
Q 20.953125 3.328125 18.109375 8.203125 
z
M 48.6875 27.296875 
Q 48.6875 37.203125 44.609375 42.84375 
Q 40.53125 48.484375 33.40625 48.484375 
Q 26.265625 48.484375 22.1875 42.84375 
Q 18.109375 37.203125 18.109375 27.296875 
Q 18.109375 17.390625 22.1875 11.75 
Q 26.265625 6.109375 33.40625 6.109375 
Q 40.53125 6.109375 44.609375 11.75 
Q 48.6875 17.390625 48.6875 27.296875 
z
" id="DejaVuSans-112"/>
     <path d="M 9.8125 72.90625 
L 19.671875 72.90625 
L 19.671875 0 
L 9.8125 0 
z
" id="DejaVuSans-73"/>
     <path d="M 18.3125 70.21875 
L 18.3125 54.6875 
L 36.8125 54.6875 
L 36.8125 47.703125 
L 18.3125 47.703125 
L 18.3125 18.015625 
Q 18.3125 11.328125 20.140625 9.421875 
Q 21.96875 7.515625 27.59375 7.515625 
L 36.8125 7.515625 
L 36.8125 0 
L 27.59375 0 
Q 17.1875 0 13.234375 3.875 
Q 9.28125 7.765625 9.28125 18.015625 
L 9.28125 47.703125 
L 2.6875 47.703125 
L 2.6875 54.6875 
L 9.28125 54.6875 
L 9.28125 70.21875 
z
" id="DejaVuSans-116"/>
     <path d="M 41.109375 46.296875 
Q 39.59375 47.171875 37.8125 47.578125 
Q 36.03125 48 33.890625 48 
Q 26.265625 48 22.1875 43.046875 
Q 18.109375 38.09375 18.109375 28.8125 
L 18.109375 0 
L 9.078125 0 
L 9.078125 54.6875 
L 18.109375 54.6875 
L 18.109375 46.1875 
Q 20.953125 51.171875 25.484375 53.578125 
Q 30.03125 56 36.53125 56 
Q 37.453125 56 38.578125 55.875 
Q 39.703125 55.765625 41.0625 55.515625 
z
" id="DejaVuSans-114"/>
     <path d="M 2.984375 54.6875 
L 12.5 54.6875 
L 29.59375 8.796875 
L 46.6875 54.6875 
L 56.203125 54.6875 
L 35.6875 0 
L 23.484375 0 
z
" id="DejaVuSans-118"/>
     <path d="M 9.421875 75.984375 
L 18.40625 75.984375 
L 18.40625 0 
L 9.421875 0 
z
" id="DejaVuSans-108"/>
    </defs>
    <g transform="translate(188.826562 35.472)scale(0.12 -0.12)">
     <use xlink:href="#DejaVuSans-109"/>
     <use x="97.412109" xlink:href="#DejaVuSans-97"/>
     <use x="158.691406" xlink:href="#DejaVuSans-112"/>
     <use x="222.167969" xlink:href="#DejaVuSans-32"/>
     <use x="253.955078" xlink:href="#DejaVuSans-73"/>
     <use x="283.447266" xlink:href="#DejaVuSans-116"/>
     <use x="322.65625" xlink:href="#DejaVuSans-84"/>
     <use x="383.521484" xlink:href="#DejaVuSans-114"/>
     <use x="424.634766" xlink:href="#DejaVuSans-97"/>
     <use x="485.914062" xlink:href="#DejaVuSans-118"/>
     <use x="545.09375" xlink:href="#DejaVuSans-101"/>
     <use x="606.617188" xlink:href="#DejaVuSans-114"/>
     <use x="647.730469" xlink:href="#DejaVuSans-115"/>
     <use x="699.830078" xlink:href="#DejaVuSans-97"/>
     <use x="761.109375" xlink:href="#DejaVuSans-108"/>
    </g>
   </g>
   <g id="legend_1">
    <g id="patch_7">
     <path d="M 64.6 226.722 
L 299.979688 226.722 
Q 301.979688 226.722 301.979688 224.722 
L 301.979688 48.472 
Q 301.979688 46.472 299.979688 46.472 
L 64.6 46.472 
Q 62.6 46.472 62.6 48.472 
L 62.6 224.722 
Q 62.6 226.722 64.6 226.722 
z
" style="fill:#ffffff;opacity:0.8;stroke:#cccccc;stroke-linejoin:miter;"/>
    </g>
    <g id="line2d_28">
     <path d="M 66.6 54.570437 
L 86.6 54.570437 
" style="fill:none;stroke:#ff0029;stroke-dasharray:5.55,2.4;stroke-dashoffset:0;stroke-width:1.5;"/>
    </g>
    <g id="line2d_29">
     <g>
      <use style="fill:#ff0029;stroke:#ff0029;" x="76.6" xlink:href="#m9c24238c06" y="54.570437"/>
     </g>
    </g>
    <g id="text_20">
     <!-- Cpp&lt;std::map&lt;int, void *&gt;&gt; -->
     <defs>
      <path d="M 64.40625 67.28125 
L 64.40625 56.890625 
Q 59.421875 61.53125 53.78125 63.8125 
Q 48.140625 66.109375 41.796875 66.109375 
Q 29.296875 66.109375 22.65625 58.46875 
Q 16.015625 50.828125 16.015625 36.375 
Q 16.015625 21.96875 22.65625 14.328125 
Q 29.296875 6.6875 41.796875 6.6875 
Q 48.140625 6.6875 53.78125 8.984375 
Q 59.421875 11.28125 64.40625 15.921875 
L 64.40625 5.609375 
Q 59.234375 2.09375 53.4375 0.328125 
Q 47.65625 -1.421875 41.21875 -1.421875 
Q 24.65625 -1.421875 15.125 8.703125 
Q 5.609375 18.84375 5.609375 36.375 
Q 5.609375 53.953125 15.125 64.078125 
Q 24.65625 74.21875 41.21875 74.21875 
Q 47.75 74.21875 53.53125 72.484375 
Q 59.328125 70.75 64.40625 67.28125 
z
" id="DejaVuSans-67"/>
      <path d="M 73.1875 49.21875 
L 22.796875 31.296875 
L 73.1875 13.484375 
L 73.1875 4.59375 
L 10.59375 27.296875 
L 10.59375 35.40625 
L 73.1875 58.109375 
z
" id="DejaVuSans-60"/>
      <path d="M 45.40625 46.390625 
L 45.40625 75.984375 
L 54.390625 75.984375 
L 54.390625 0 
L 45.40625 0 
L 45.40625 8.203125 
Q 42.578125 3.328125 38.25 0.953125 
Q 33.9375 -1.421875 27.875 -1.421875 
Q 17.96875 -1.421875 11.734375 6.484375 
Q 5.515625 14.40625 5.515625 27.296875 
Q 5.515625 40.1875 11.734375 48.09375 
Q 17.96875 56 27.875 56 
Q 33.9375 56 38.25 53.625 
Q 42.578125 51.265625 45.40625 46.390625 
z
M 14.796875 27.296875 
Q 14.796875 17.390625 18.875 11.75 
Q 22.953125 6.109375 30.078125 6.109375 
Q 37.203125 6.109375 41.296875 11.75 
Q 45.40625 17.390625 45.40625 27.296875 
Q 45.40625 37.203125 41.296875 42.84375 
Q 37.203125 48.484375 30.078125 48.484375 
Q 22.953125 48.484375 18.875 42.84375 
Q 14.796875 37.203125 14.796875 27.296875 
z
" id="DejaVuSans-100"/>
      <path d="M 11.71875 12.40625 
L 22.015625 12.40625 
L 22.015625 0 
L 11.71875 0 
z
M 11.71875 51.703125 
L 22.015625 51.703125 
L 22.015625 39.3125 
L 11.71875 39.3125 
z
" id="DejaVuSans-58"/>
      <path d="M 11.71875 12.40625 
L 22.015625 12.40625 
L 22.015625 4 
L 14.015625 -11.625 
L 7.71875 -11.625 
L 11.71875 4 
z
" id="DejaVuSans-44"/>
      <path d="M 30.609375 48.390625 
Q 23.390625 48.390625 19.1875 42.75 
Q 14.984375 37.109375 14.984375 27.296875 
Q 14.984375 17.484375 19.15625 11.84375 
Q 23.34375 6.203125 30.609375 6.203125 
Q 37.796875 6.203125 41.984375 11.859375 
Q 46.1875 17.53125 46.1875 27.296875 
Q 46.1875 37.015625 41.984375 42.703125 
Q 37.796875 48.390625 30.609375 48.390625 
z
M 30.609375 56 
Q 42.328125 56 49.015625 48.375 
Q 55.71875 40.765625 55.71875 27.296875 
Q 55.71875 13.875 49.015625 6.21875 
Q 42.328125 -1.421875 30.609375 -1.421875 
Q 18.84375 -1.421875 12.171875 6.21875 
Q 5.515625 13.875 5.515625 27.296875 
Q 5.515625 40.765625 12.171875 48.375 
Q 18.84375 56 30.609375 56 
z
" id="DejaVuSans-111"/>
      <path d="M 47.015625 60.890625 
L 29.5 51.421875 
L 47.015625 41.890625 
L 44.1875 37.109375 
L 27.78125 47.015625 
L 27.78125 28.609375 
L 22.21875 28.609375 
L 22.21875 47.015625 
L 5.8125 37.109375 
L 2.984375 41.890625 
L 20.515625 51.421875 
L 2.984375 60.890625 
L 5.8125 65.71875 
L 22.21875 55.8125 
L 22.21875 74.21875 
L 27.78125 74.21875 
L 27.78125 55.8125 
L 44.1875 65.71875 
z
" id="DejaVuSans-42"/>
      <path d="M 10.59375 49.21875 
L 10.59375 58.109375 
L 73.1875 35.40625 
L 73.1875 27.296875 
L 10.59375 4.59375 
L 10.59375 13.484375 
L 60.890625 31.296875 
z
" id="DejaVuSans-62"/>
     </defs>
     <g transform="translate(94.6 58.070437)scale(0.1 -0.1)">
      <use xlink:href="#DejaVuSans-67"/>
      <use x="69.824219" xlink:href="#DejaVuSans-112"/>
      <use x="133.300781" xlink:href="#DejaVuSans-112"/>
      <use x="196.777344" xlink:href="#DejaVuSans-60"/>
      <use x="280.566406" xlink:href="#DejaVuSans-115"/>
      <use x="332.666016" xlink:href="#DejaVuSans-116"/>
      <use x="371.875" xlink:href="#DejaVuSans-100"/>
      <use x="435.351562" xlink:href="#DejaVuSans-58"/>
      <use x="469.042969" xlink:href="#DejaVuSans-58"/>
      <use x="502.734375" xlink:href="#DejaVuSans-109"/>
      <use x="600.146484" xlink:href="#DejaVuSans-97"/>
      <use x="661.425781" xlink:href="#DejaVuSans-112"/>
      <use x="724.902344" xlink:href="#DejaVuSans-60"/>
      <use x="808.691406" xlink:href="#DejaVuSans-105"/>
      <use x="836.474609" xlink:href="#DejaVuSans-110"/>
      <use x="899.853516" xlink:href="#DejaVuSans-116"/>
      <use x="939.0625" xlink:href="#DejaVuSans-44"/>
      <use x="970.849609" xlink:href="#DejaVuSans-32"/>
      <use x="1002.636719" xlink:href="#DejaVuSans-118"/>
      <use x="1061.816406" xlink:href="#DejaVuSans-111"/>
      <use x="1122.998047" xlink:href="#DejaVuSans-105"/>
      <use x="1150.78125" xlink:href="#DejaVuSans-100"/>
      <use x="1214.257812" xlink:href="#DejaVuSans-32"/>
      <use x="1246.044922" xlink:href="#DejaVuSans-42"/>
      <use x="1296.044922" xlink:href="#DejaVuSans-62"/>
      <use x="1379.833984" xlink:href="#DejaVuSans-62"/>
     </g>
    </g>
    <g id="line2d_30">
     <path d="M 66.6 69.248562 
L 86.6 69.248562 
" style="fill:none;stroke:#ff4800;stroke-dasharray:1.5,2.475;stroke-dashoffset:0;stroke-width:1.5;"/>
    </g>
    <g id="line2d_31">
     <g>
      <use style="fill:#ff4800;stroke:#ff4800;" x="76.6" xlink:href="#m2921313d2a" y="69.248562"/>
     </g>
    </g>
    <g id="text_21">
     <!-- Cpp&lt;std::unordered_map&lt;int, void *&gt;&gt; -->
     <defs>
      <path d="M 8.5 21.578125 
L 8.5 54.6875 
L 17.484375 54.6875 
L 17.484375 21.921875 
Q 17.484375 14.15625 20.5 10.265625 
Q 23.53125 6.390625 29.59375 6.390625 
Q 36.859375 6.390625 41.078125 11.03125 
Q 45.3125 15.671875 45.3125 23.6875 
L 45.3125 54.6875 
L 54.296875 54.6875 
L 54.296875 0 
L 45.3125 0 
L 45.3125 8.40625 
Q 42.046875 3.421875 37.71875 1 
Q 33.40625 -1.421875 27.6875 -1.421875 
Q 18.265625 -1.421875 13.375 4.4375 
Q 8.5 10.296875 8.5 21.578125 
z
M 31.109375 56 
z
" id="DejaVuSans-117"/>
      <path d="M 50.984375 -16.609375 
L 50.984375 -23.578125 
L -0.984375 -23.578125 
L -0.984375 -16.609375 
z
" id="DejaVuSans-95"/>
     </defs>
     <g transform="translate(94.6 72.748562)scale(0.1 -0.1)">
      <use xlink:href="#DejaVuSans-67"/>
      <use x="69.824219" xlink:href="#DejaVuSans-112"/>
      <use x="133.300781" xlink:href="#DejaVuSans-112"/>
      <use x="196.777344" xlink:href="#DejaVuSans-60"/>
      <use x="280.566406" xlink:href="#DejaVuSans-115"/>
      <use x="332.666016" xlink:href="#DejaVuSans-116"/>
      <use x="371.875" xlink:href="#DejaVuSans-100"/>
      <use x="435.351562" xlink:href="#DejaVuSans-58"/>
      <use x="469.042969" xlink:href="#DejaVuSans-58"/>
      <use x="502.734375" xlink:href="#DejaVuSans-117"/>
      <use x="566.113281" xlink:href="#DejaVuSans-110"/>
      <use x="629.492188" xlink:href="#DejaVuSans-111"/>
      <use x="690.673828" xlink:href="#DejaVuSans-114"/>
      <use x="731.771484" xlink:href="#DejaVuSans-100"/>
      <use x="795.248047" xlink:href="#DejaVuSans-101"/>
      <use x="856.771484" xlink:href="#DejaVuSans-114"/>
      <use x="897.853516" xlink:href="#DejaVuSans-101"/>
      <use x="959.376953" xlink:href="#DejaVuSans-100"/>
      <use x="1022.853516" xlink:href="#DejaVuSans-95"/>
      <use x="1072.853516" xlink:href="#DejaVuSans-109"/>
      <use x="1170.265625" xlink:href="#DejaVuSans-97"/>
      <use x="1231.544922" xlink:href="#DejaVuSans-112"/>
      <use x="1295.021484" xlink:href="#DejaVuSans-60"/>
      <use x="1378.810547" xlink:href="#DejaVuSans-105"/>
      <use x="1406.59375" xlink:href="#DejaVuSans-110"/>
      <use x="1469.972656" xlink:href="#DejaVuSans-116"/>
      <use x="1509.181641" xlink:href="#DejaVuSans-44"/>
      <use x="1540.96875" xlink:href="#DejaVuSans-32"/>
      <use x="1572.755859" xlink:href="#DejaVuSans-118"/>
      <use x="1631.935547" xlink:href="#DejaVuSans-111"/>
      <use x="1693.117188" xlink:href="#DejaVuSans-105"/>
      <use x="1720.900391" xlink:href="#DejaVuSans-100"/>
      <use x="1784.376953" xlink:href="#DejaVuSans-32"/>
      <use x="1816.164062" xlink:href="#DejaVuSans-42"/>
      <use x="1866.164062" xlink:href="#DejaVuSans-62"/>
      <use x="1949.953125" xlink:href="#DejaVuSans-62"/>
     </g>
    </g>
    <g id="line2d_32">
     <path d="M 66.6 84.204812 
L 86.6 84.204812 
" style="fill:none;stroke:#ffba00;stroke-dasharray:5.55,2.4;stroke-dashoffset:0;stroke-width:1.5;"/>
    </g>
    <g id="line2d_33">
     <g>
      <use style="fill:#ffba00;stroke:#ffba00;" x="76.6" xlink:href="#m9e1aff7d81" y="84.204812"/>
     </g>
    </g>
    <g id="text_22">
     <!-- CcHashTable -->
     <defs>
      <path d="M 48.78125 52.59375 
L 48.78125 44.1875 
Q 44.96875 46.296875 41.140625 47.34375 
Q 37.3125 48.390625 33.40625 48.390625 
Q 24.65625 48.390625 19.8125 42.84375 
Q 14.984375 37.3125 14.984375 27.296875 
Q 14.984375 17.28125 19.8125 11.734375 
Q 24.65625 6.203125 33.40625 6.203125 
Q 37.3125 6.203125 41.140625 7.25 
Q 44.96875 8.296875 48.78125 10.40625 
L 48.78125 2.09375 
Q 45.015625 0.34375 40.984375 -0.53125 
Q 36.96875 -1.421875 32.421875 -1.421875 
Q 20.0625 -1.421875 12.78125 6.34375 
Q 5.515625 14.109375 5.515625 27.296875 
Q 5.515625 40.671875 12.859375 48.328125 
Q 20.21875 56 33.015625 56 
Q 37.15625 56 41.109375 55.140625 
Q 45.0625 54.296875 48.78125 52.59375 
z
" id="DejaVuSans-99"/>
      <path d="M 9.8125 72.90625 
L 19.671875 72.90625 
L 19.671875 43.015625 
L 55.515625 43.015625 
L 55.515625 72.90625 
L 65.375 72.90625 
L 65.375 0 
L 55.515625 0 
L 55.515625 34.71875 
L 19.671875 34.71875 
L 19.671875 0 
L 9.8125 0 
z
" id="DejaVuSans-72"/>
      <path d="M 54.890625 33.015625 
L 54.890625 0 
L 45.90625 0 
L 45.90625 32.71875 
Q 45.90625 40.484375 42.875 44.328125 
Q 39.84375 48.1875 33.796875 48.1875 
Q 26.515625 48.1875 22.3125 43.546875 
Q 18.109375 38.921875 18.109375 30.90625 
L 18.109375 0 
L 9.078125 0 
L 9.078125 75.984375 
L 18.109375 75.984375 
L 18.109375 46.1875 
Q 21.34375 51.125 25.703125 53.5625 
Q 30.078125 56 35.796875 56 
Q 45.21875 56 50.046875 50.171875 
Q 54.890625 44.34375 54.890625 33.015625 
z
" id="DejaVuSans-104"/>
      <path d="M 48.6875 27.296875 
Q 48.6875 37.203125 44.609375 42.84375 
Q 40.53125 48.484375 33.40625 48.484375 
Q 26.265625 48.484375 22.1875 42.84375 
Q 18.109375 37.203125 18.109375 27.296875 
Q 18.109375 17.390625 22.1875 11.75 
Q 26.265625 6.109375 33.40625 6.109375 
Q 40.53125 6.109375 44.609375 11.75 
Q 48.6875 17.390625 48.6875 27.296875 
z
M 18.109375 46.390625 
Q 20.953125 51.265625 25.265625 53.625 
Q 29.59375 56 35.59375 56 
Q 45.5625 56 51.78125 48.09375 
Q 58.015625 40.1875 58.015625 27.296875 
Q 58.015625 14.40625 51.78125 6.484375 
Q 45.5625 -1.421875 35.59375 -1.421875 
Q 29.59375 -1.421875 25.265625 0.953125 
Q 20.953125 3.328125 18.109375 8.203125 
L 18.109375 0 
L 9.078125 0 
L 9.078125 75.984375 
L 18.109375 75.984375 
z
" id="DejaVuSans-98"/>
     </defs>
     <g transform="translate(94.6 87.704812)scale(0.1 -0.1)">
      <use xlink:href="#DejaVuSans-67"/>
      <use x="69.824219" xlink:href="#DejaVuSans-99"/>
      <use x="124.804688" xlink:href="#DejaVuSans-72"/>
      <use x="200" xlink:href="#DejaVuSans-97"/>
      <use x="261.279297" xlink:href="#DejaVuSans-115"/>
      <use x="313.378906" xlink:href="#DejaVuSans-104"/>
      <use x="376.757812" xlink:href="#DejaVuSans-84"/>
      <use x="437.591797" xlink:href="#DejaVuSans-97"/>
      <use x="498.871094" xlink:href="#DejaVuSans-98"/>
      <use x="562.347656" xlink:href="#DejaVuSans-108"/>
      <use x="590.130859" xlink:href="#DejaVuSans-101"/>
     </g>
    </g>
    <g id="line2d_34">
     <path d="M 66.6 98.882937 
L 86.6 98.882937 
" style="fill:none;stroke:#cdff00;stroke-dasharray:1.5,2.475;stroke-dashoffset:0;stroke-width:1.5;"/>
    </g>
    <g id="line2d_35">
     <g>
      <use style="fill:#cdff00;stroke:#cdff00;" x="76.6" xlink:href="#m0b5e17fbdc" y="98.882937"/>
     </g>
    </g>
    <g id="text_23">
     <!-- CcTreeTable -->
     <g transform="translate(94.6 102.382937)scale(0.1 -0.1)">
      <use xlink:href="#DejaVuSans-67"/>
      <use x="69.824219" xlink:href="#DejaVuSans-99"/>
      <use x="124.804688" xlink:href="#DejaVuSans-84"/>
      <use x="185.669922" xlink:href="#DejaVuSans-114"/>
      <use x="226.751953" xlink:href="#DejaVuSans-101"/>
      <use x="288.275391" xlink:href="#DejaVuSans-101"/>
      <use x="349.798828" xlink:href="#DejaVuSans-84"/>
      <use x="410.632812" xlink:href="#DejaVuSans-97"/>
      <use x="471.912109" xlink:href="#DejaVuSans-98"/>
      <use x="535.388672" xlink:href="#DejaVuSans-108"/>
      <use x="563.171875" xlink:href="#DejaVuSans-101"/>
     </g>
    </g>
    <g id="line2d_36">
     <path d="M 66.6 113.561062 
L 86.6 113.561062 
" style="fill:none;stroke:#5cff00;stroke-dasharray:5.55,2.4;stroke-dashoffset:0;stroke-width:1.5;"/>
    </g>
    <g id="line2d_37">
     <g>
      <use style="fill:#5cff00;stroke:#5cff00;" x="76.6" xlink:href="#m3a739b01fa" y="113.561062"/>
     </g>
    </g>
    <g id="text_24">
     <!-- GTree -->
     <defs>
      <path d="M 59.515625 10.40625 
L 59.515625 29.984375 
L 43.40625 29.984375 
L 43.40625 38.09375 
L 69.28125 38.09375 
L 69.28125 6.78125 
Q 63.578125 2.734375 56.6875 0.65625 
Q 49.8125 -1.421875 42 -1.421875 
Q 24.90625 -1.421875 15.25 8.5625 
Q 5.609375 18.5625 5.609375 36.375 
Q 5.609375 54.25 15.25 64.234375 
Q 24.90625 74.21875 42 74.21875 
Q 49.125 74.21875 55.546875 72.453125 
Q 61.96875 70.703125 67.390625 67.28125 
L 67.390625 56.78125 
Q 61.921875 61.421875 55.765625 63.765625 
Q 49.609375 66.109375 42.828125 66.109375 
Q 29.4375 66.109375 22.71875 58.640625 
Q 16.015625 51.171875 16.015625 36.375 
Q 16.015625 21.625 22.71875 14.15625 
Q 29.4375 6.6875 42.828125 6.6875 
Q 48.046875 6.6875 52.140625 7.59375 
Q 56.25 8.5 59.515625 10.40625 
z
" id="DejaVuSans-71"/>
     </defs>
     <g transform="translate(94.6 117.061062)scale(0.1 -0.1)">
      <use xlink:href="#DejaVuSans-71"/>
      <use x="77.443359" xlink:href="#DejaVuSans-84"/>
      <use x="138.308594" xlink:href="#DejaVuSans-114"/>
      <use x="179.390625" xlink:href="#DejaVuSans-101"/>
      <use x="240.914062" xlink:href="#DejaVuSans-101"/>
     </g>
    </g>
    <g id="line2d_38">
     <path d="M 66.6 128.239187 
L 86.6 128.239187 
" style="fill:none;stroke:#00ff16;stroke-dasharray:1.5,2.475;stroke-dashoffset:0;stroke-width:1.5;"/>
    </g>
    <g id="line2d_39">
     <g>
      <use style="fill:#00ff16;stroke:#00ff16;" x="76.6" xlink:href="#md9c1e26580" y="128.239187"/>
     </g>
    </g>
    <g id="text_25">
     <!-- GHashTable -->
     <g transform="translate(94.6 131.739187)scale(0.1 -0.1)">
      <use xlink:href="#DejaVuSans-71"/>
      <use x="77.490234" xlink:href="#DejaVuSans-72"/>
      <use x="152.685547" xlink:href="#DejaVuSans-97"/>
      <use x="213.964844" xlink:href="#DejaVuSans-115"/>
      <use x="266.064453" xlink:href="#DejaVuSans-104"/>
      <use x="329.443359" xlink:href="#DejaVuSans-84"/>
      <use x="390.277344" xlink:href="#DejaVuSans-97"/>
      <use x="451.556641" xlink:href="#DejaVuSans-98"/>
      <use x="515.033203" xlink:href="#DejaVuSans-108"/>
      <use x="542.816406" xlink:href="#DejaVuSans-101"/>
     </g>
    </g>
    <g id="line2d_40">
     <path d="M 66.6 142.917312 
L 86.6 142.917312 
" style="fill:none;stroke:#00ff8c;stroke-dasharray:5.55,2.4;stroke-dashoffset:0;stroke-width:1.5;"/>
    </g>
    <g id="line2d_41">
     <g>
      <use style="fill:#00ff8c;stroke:#00ff8c;" x="76.6" xlink:href="#md3e3a2b50e" y="142.917312"/>
     </g>
    </g>
    <g id="text_26">
     <!-- CdcMap/hash_table -->
     <defs>
      <path d="M 9.8125 72.90625 
L 24.515625 72.90625 
L 43.109375 23.296875 
L 61.8125 72.90625 
L 76.515625 72.90625 
L 76.515625 0 
L 66.890625 0 
L 66.890625 64.015625 
L 48.09375 14.015625 
L 38.1875 14.015625 
L 19.390625 64.015625 
L 19.390625 0 
L 9.8125 0 
z
" id="DejaVuSans-77"/>
      <path d="M 25.390625 72.90625 
L 33.6875 72.90625 
L 8.296875 -9.28125 
L 0 -9.28125 
z
" id="DejaVuSans-47"/>
     </defs>
     <g transform="translate(94.6 146.417312)scale(0.1 -0.1)">
      <use xlink:href="#DejaVuSans-67"/>
      <use x="69.824219" xlink:href="#DejaVuSans-100"/>
      <use x="133.300781" xlink:href="#DejaVuSans-99"/>
      <use x="188.28125" xlink:href="#DejaVuSans-77"/>
      <use x="274.560547" xlink:href="#DejaVuSans-97"/>
      <use x="335.839844" xlink:href="#DejaVuSans-112"/>
      <use x="399.316406" xlink:href="#DejaVuSans-47"/>
      <use x="433.007812" xlink:href="#DejaVuSans-104"/>
      <use x="496.386719" xlink:href="#DejaVuSans-97"/>
      <use x="557.666016" xlink:href="#DejaVuSans-115"/>
      <use x="609.765625" xlink:href="#DejaVuSans-104"/>
      <use x="673.144531" xlink:href="#DejaVuSans-95"/>
      <use x="723.144531" xlink:href="#DejaVuSans-116"/>
      <use x="762.353516" xlink:href="#DejaVuSans-97"/>
      <use x="823.632812" xlink:href="#DejaVuSans-98"/>
      <use x="887.109375" xlink:href="#DejaVuSans-108"/>
      <use x="914.892578" xlink:href="#DejaVuSans-101"/>
     </g>
    </g>
    <g id="line2d_42">
     <path d="M 66.6 157.873562 
L 86.6 157.873562 
" style="fill:none;stroke:#00fffd;stroke-dasharray:1.5,2.475;stroke-dashoffset:0;stroke-width:1.5;"/>
    </g>
    <g id="line2d_43">
     <g>
      <use style="fill:#00fffd;stroke:#00fffd;" x="76.6" xlink:href="#m31c6b4a49a" y="157.873562"/>
     </g>
    </g>
    <g id="text_27">
     <!-- CdcMap/avl_tree -->
     <g transform="translate(94.6 161.373562)scale(0.1 -0.1)">
      <use xlink:href="#DejaVuSans-67"/>
      <use x="69.824219" xlink:href="#DejaVuSans-100"/>
      <use x="133.300781" xlink:href="#DejaVuSans-99"/>
      <use x="188.28125" xlink:href="#DejaVuSans-77"/>
      <use x="274.560547" xlink:href="#DejaVuSans-97"/>
      <use x="335.839844" xlink:href="#DejaVuSans-112"/>
      <use x="399.316406" xlink:href="#DejaVuSans-47"/>
      <use x="433.007812" xlink:href="#DejaVuSans-97"/>
      <use x="494.287109" xlink:href="#DejaVuSans-118"/>
      <use x="553.466797" xlink:href="#DejaVuSans-108"/>
      <use x="581.25" xlink:href="#DejaVuSans-95"/>
      <use x="631.25" xlink:href="#DejaVuSans-116"/>
      <use x="670.458984" xlink:href="#DejaVuSans-114"/>
      <use x="711.541016" xlink:href="#DejaVuSans-101"/>
      <use x="773.064453" xlink:href="#DejaVuSans-101"/>
     </g>
    </g>
    <g id="line2d_44">
     <path d="M 66.6 172.829813 
L 86.6 172.829813 
" style="fill:none;stroke:#008fff;stroke-dasharray:5.55,2.4;stroke-dashoffset:0;stroke-width:1.5;"/>
    </g>
    <g id="line2d_45">
     <g>
      <use style="fill:#008fff;stroke:#008fff;" x="76.6" xlink:href="#m788727203e" y="172.829813"/>
     </g>
    </g>
    <g id="text_28">
     <!-- CdcMap/treep -->
     <g transform="translate(94.6 176.329813)scale(0.1 -0.1)">
      <use xlink:href="#DejaVuSans-67"/>
      <use x="69.824219" xlink:href="#DejaVuSans-100"/>
      <use x="133.300781" xlink:href="#DejaVuSans-99"/>
      <use x="188.28125" xlink:href="#DejaVuSans-77"/>
      <use x="274.560547" xlink:href="#DejaVuSans-97"/>
      <use x="335.839844" xlink:href="#DejaVuSans-112"/>
      <use x="399.316406" xlink:href="#DejaVuSans-47"/>
      <use x="433.007812" xlink:href="#DejaVuSans-116"/>
      <use x="472.216797" xlink:href="#DejaVuSans-114"/>
      <use x="513.298828" xlink:href="#DejaVuSans-101"/>
      <use x="574.822266" xlink:href="#DejaVuSans-101"/>
      <use x="636.345703" xlink:href="#DejaVuSans-112"/>
     </g>
    </g>
    <g id="line2d_46">
     <path d="M 66.6 187.507937 
L 86.6 187.507937 
" style="fill:none;stroke:#0018ff;stroke-dasharray:1.5,2.475;stroke-dashoffset:0;stroke-width:1.5;"/>
    </g>
    <g id="line2d_47">
     <g>
      <use style="fill:#0018ff;stroke:#0018ff;" x="76.6" xlink:href="#m861c447975" y="187.507937"/>
     </g>
    </g>
    <g id="text_29">
     <!-- CdcMap/splay_tree -->
     <defs>
      <path d="M 32.171875 -5.078125 
Q 28.375 -14.84375 24.75 -17.8125 
Q 21.140625 -20.796875 15.09375 -20.796875 
L 7.90625 -20.796875 
L 7.90625 -13.28125 
L 13.1875 -13.28125 
Q 16.890625 -13.28125 18.9375 -11.515625 
Q 21 -9.765625 23.484375 -3.21875 
L 25.09375 0.875 
L 2.984375 54.6875 
L 12.5 54.6875 
L 29.59375 11.921875 
L 46.6875 54.6875 
L 56.203125 54.6875 
z
" id="DejaVuSans-121"/>
     </defs>
     <g transform="translate(94.6 191.007937)scale(0.1 -0.1)">
      <use xlink:href="#DejaVuSans-67"/>
      <use x="69.824219" xlink:href="#DejaVuSans-100"/>
      <use x="133.300781" xlink:href="#DejaVuSans-99"/>
      <use x="188.28125" xlink:href="#DejaVuSans-77"/>
      <use x="274.560547" xlink:href="#DejaVuSans-97"/>
      <use x="335.839844" xlink:href="#DejaVuSans-112"/>
      <use x="399.316406" xlink:href="#DejaVuSans-47"/>
      <use x="433.007812" xlink:href="#DejaVuSans-115"/>
      <use x="485.107422" xlink:href="#DejaVuSans-112"/>
      <use x="548.583984" xlink:href="#DejaVuSans-108"/>
      <use x="576.367188" xlink:href="#DejaVuSans-97"/>
      <use x="637.646484" xlink:href="#DejaVuSans-121"/>
      <use x="696.826172" xlink:href="#DejaVuSans-95"/>
      <use x="746.826172" xlink:href="#DejaVuSans-116"/>
      <use x="786.035156" xlink:href="#DejaVuSans-114"/>
      <use x="827.117188" xlink:href="#DejaVuSans-101"/>
      <use x="888.640625" xlink:href="#DejaVuSans-101"/>
     </g>
    </g>
    <g id="line2d_48">
     <path d="M 66.6 202.464187 
L 86.6 202.464187 
" style="fill:none;stroke:#5a00ff;stroke-dasharray:5.55,2.4;stroke-dashoffset:0;stroke-width:1.5;"/>
    </g>
    <g id="line2d_49">
     <g>
      <use style="fill:#5a00ff;stroke:#5a00ff;" x="76.6" xlink:href="#m124fc9370f" y="202.464187"/>
     </g>
    </g>
    <g id="text_30">
     <!-- CdcHashTable -->
     <g transform="translate(94.6 205.964187)scale(0.1 -0.1)">
      <use xlink:href="#DejaVuSans-67"/>
      <use x="69.824219" xlink:href="#DejaVuSans-100"/>
      <use x="133.300781" xlink:href="#DejaVuSans-99"/>
      <use x="188.28125" xlink:href="#DejaVuSans-72"/>
      <use x="263.476562" xlink:href="#DejaVuSans-97"/>
      <use x="324.755859" xlink:href="#DejaVuSans-115"/>
      <use x="376.855469" xlink:href="#DejaVuSans-104"/>
      <use x="440.234375" xlink:href="#DejaVuSans-84"/>
      <use x="501.068359" xlink:href="#DejaVuSans-97"/>
      <use x="562.347656" xlink:href="#DejaVuSans-98"/>
      <use x="625.824219" xlink:href="#DejaVuSans-108"/>
      <use x="653.607422" xlink:href="#DejaVuSans-101"/>
     </g>
    </g>
    <g id="line2d_50">
     <path d="M 66.6 217.142312 
L 86.6 217.142312 
" style="fill:none;stroke:#cd00ff;stroke-dasharray:1.5,2.475;stroke-dashoffset:0;stroke-width:1.5;"/>
    </g>
    <g id="line2d_51">
     <g>
      <use style="fill:#cd00ff;stroke:#cd00ff;" x="76.6" xlink:href="#m5c34f783fd" y="217.142312"/>
     </g>
    </g>
    <g id="text_31">
     <!-- CdcAvlTree -->
     <defs>
      <path d="M 34.1875 63.1875 
L 20.796875 26.90625 
L 47.609375 26.90625 
z
M 28.609375 72.90625 
L 39.796875 72.90625 
L 67.578125 0 
L 57.328125 0 
L 50.6875 18.703125 
L 17.828125 18.703125 
L 11.1875 0 
L 0.78125 0 
z
" id="DejaVuSans-65"/>
     </defs>
     <g transform="translate(94.6 220.642312)scale(0.1 -0.1)">
      <use xlink:href="#DejaVuSans-67"/>
      <use x="69.824219" xlink:href="#DejaVuSans-100"/>
      <use x="133.300781" xlink:href="#DejaVuSans-99"/>
      <use x="188.28125" xlink:href="#DejaVuSans-65"/>
      <use x="256.611328" xlink:href="#DejaVuSans-118"/>
      <use x="315.791016" xlink:href="#DejaVuSans-108"/>
      <use x="343.574219" xlink:href="#DejaVuSans-84"/>
      <use x="404.439453" xlink:href="#DejaVuSans-114"/>
      <use x="445.521484" xlink:href="#DejaVuSans-101"/>
      <use x="507.044922" xlink:href="#DejaVuSans-101"/>
     </g>
    </g>
   </g>
  </g>
 </g>
 <defs>
  <clipPath id="p6974f84516">
   <rect height="266.112" width="357.12" x="57.6" y="41.472"/>
  </clipPath>
 </defs>
</svg>
